999
"DXF R12 Output" (www.mydxf.blogspot.com)
 0 
SECTION
 2 
HEADER
 9 
$ACADVER
 1 
AC1009
 9 
$EXTMIN
 10 
 0 
 20 
 0 
 9 
$EXTMAX
 10 
 8.5 
 20 
 11 
 0 
ENDSEC
 0 
SECTION
 2 
ENTITIES
0
LINE
8
Layer 1
10
0.000000
20
124.150000
11
0.000000
21
132.150000
0
LINE
8
Layer 1
10
0.000000
20
124.150000
11
0.000000
21
132.150000
0
LINE
8
Design
10
2.099140
20
41.599570
11
18.384100
21
68.333730
0
LINE
8
Design
10
18.384100
20
68.333730
11
10.478900
21
68.306030
0
LINE
8
Design
10
10.478900
20
68.306030
11
15.690800
21
85.481830
0
LINE
8
Design
10
15.690800
20
85.481830
11
8.688160
21
85.449030
0
LINE
8
Design
10
8.688160
20
85.449030
11
2.085879
21
62.211230
0
LINE
8
Design
10
2.085879
20
62.211230
11
9.601090
21
62.289930
0
LINE
8
Design
10
9.601090
20
62.289930
11
2.099140
21
41.599570
0
LINE
8
Design
10
2.151323
20
8.365000
11
18.318660
21
8.365000
0
LINE
8
Design
10
8.069960
20
11.014180
11
9.023080
21
13.070820
0
LINE
8
Design
10
9.023080
20
13.070820
11
9.433240
21
13.070820
0
LINE
8
Design
10
9.433240
20
13.070820
11
8.503550
21
11.037620
0
LINE
8
Design
10
8.503550
20
11.037620
11
9.896130
21
11.037620
0
LINE
8
Design
10
9.896130
20
11.037620
11
9.896130
21
10.668480
0
LINE
8
Design
10
9.896130
20
10.668480
11
8.069960
21
10.668480
0
LINE
8
Design
10
8.069960
20
10.668480
11
8.069960
21
11.014180
0
LINE
8
Design
10
9.294570
20
11.902850
11
9.683240
21
11.902850
0
LINE
8
Design
10
9.683240
20
11.902850
11
9.683240
21
10.230980
0
LINE
8
Design
10
9.683240
20
10.230980
11
9.294570
21
10.230980
0
LINE
8
Design
10
9.294570
20
10.230980
11
9.294570
21
11.902850
0
LINE
8
Design
10
11.400030
20
10.203630
11
10.860970
21
10.326680
0
LINE
8
Design
10
10.860970
20
10.326680
11
10.521130
21
10.688010
0
LINE
8
Design
10
10.521130
20
10.688010
11
10.403940
21
11.260270
0
LINE
8
Design
10
10.403940
20
11.260270
11
10.403940
21
13.072770
0
LINE
8
Design
10
10.403940
20
13.072770
11
10.802380
21
13.072770
0
LINE
8
Design
10
10.802380
20
13.072770
11
10.802380
21
11.246600
0
LINE
8
Design
10
10.802380
20
11.246600
11
10.958630
21
10.766130
0
LINE
8
Design
10
10.958630
20
10.766130
11
11.400030
21
10.596210
0
LINE
8
Design
10
11.400030
20
10.596210
11
11.843390
21
10.766130
0
LINE
8
Design
10
11.843390
20
10.766130
11
12.001600
21
11.246600
0
LINE
8
Design
10
12.001600
20
11.246600
11
12.001600
21
13.072770
0
LINE
8
Design
10
12.001600
20
13.072770
11
12.400030
21
13.072770
0
LINE
8
Design
10
12.400030
20
13.072770
11
12.400030
21
11.260270
0
LINE
8
Design
10
12.400030
20
11.260270
11
12.282850
21
10.688010
0
LINE
8
Design
10
12.282850
20
10.688010
11
11.941050
21
10.326680
0
LINE
8
Design
10
11.941050
20
10.326680
11
11.400030
21
10.203630
0
LINE
8
Design
10
11.400030
20
10.203630
11
11.400030
21
10.203630
0
LINE
8
Design
10
4.142230
20
17.930320
11
3.722308
21
18.016220
0
LINE
8
Design
10
3.722308
20
18.016220
11
3.429339
21
18.268180
0
LINE
8
Design
10
3.429339
20
18.268180
11
3.290667
21
18.666610
0
LINE
8
Design
10
3.290667
20
18.666610
11
3.290667
21
18.666610
0
LINE
8
Design
10
3.290667
20
18.666610
11
3.696917
21
18.666610
0
LINE
8
Design
10
3.696917
20
18.666610
11
3.696917
21
18.666610
0
LINE
8
Design
10
3.696917
20
18.666610
11
3.773087
21
18.467400
0
LINE
8
Design
10
3.773087
20
18.467400
11
3.923478
21
18.350210
0
LINE
8
Design
10
3.923478
20
18.350210
11
4.142228
21
18.313110
0
LINE
8
Design
10
4.142228
20
18.313110
11
4.448868
21
18.418580
0
LINE
8
Design
10
4.448868
20
18.418580
11
4.558243
21
18.715450
0
LINE
8
Design
10
4.558243
20
18.715450
11
4.558243
21
18.801350
0
LINE
8
Design
10
4.558243
20
18.801350
11
4.454728
21
19.129470
0
LINE
8
Design
10
4.454728
20
19.129470
11
4.161759
21
19.246660
0
LINE
8
Design
10
4.161759
20
19.246660
11
3.960587
21
19.246660
0
LINE
8
Design
10
3.960587
20
19.246660
11
3.960587
21
19.625570
0
LINE
8
Design
10
3.960587
20
19.625570
11
4.161759
21
19.625570
0
LINE
8
Design
10
4.161759
20
19.625570
11
4.419571
21
19.725170
0
LINE
8
Design
10
4.419571
20
19.725170
11
4.511371
21
20.006420
0
LINE
8
Design
10
4.511371
20
20.006420
11
4.511371
21
20.094320
0
LINE
8
Design
10
4.511371
20
20.094320
11
4.413711
21
20.354080
0
LINE
8
Design
10
4.413711
20
20.354080
11
4.140273
21
20.445880
0
LINE
8
Design
10
4.140273
20
20.445880
11
3.958633
21
20.406780
0
LINE
8
Design
10
3.958633
20
20.406780
11
3.821914
21
20.289590
0
LINE
8
Design
10
3.821914
20
20.289590
11
3.741834
21
20.092330
0
LINE
8
Design
10
3.741834
20
20.092330
11
3.741834
21
20.092330
0
LINE
8
Design
10
3.741834
20
20.092330
11
3.337537
21
20.092330
0
LINE
8
Design
10
3.337537
20
20.092330
11
3.337537
21
20.092330
0
LINE
8
Design
10
3.337537
20
20.092330
11
3.484021
21
20.490760
0
LINE
8
Design
10
3.484021
20
20.490760
11
3.759412
21
20.742720
0
LINE
8
Design
10
3.759412
20
20.742720
11
4.140271
21
20.828620
0
LINE
8
Design
10
4.140271
20
20.828620
11
4.708631
21
20.635260
0
LINE
8
Design
10
4.708631
20
20.635260
11
4.909803
21
20.090340
0
LINE
8
Design
10
4.909803
20
20.090340
11
4.909803
21
20.043440
0
LINE
8
Design
10
4.909803
20
20.043440
11
4.794568
21
19.672340
0
LINE
8
Design
10
4.794568
20
19.672340
11
4.468396
21
19.441870
0
LINE
8
Design
10
4.468396
20
19.441870
11
4.827771
21
19.213360
0
LINE
8
Design
10
4.827771
20
19.213360
11
4.956678
21
18.760230
0
LINE
8
Design
10
4.956678
20
18.760230
11
4.956678
21
18.713330
0
LINE
8
Design
10
4.956678
20
18.713330
11
4.860978
21
18.289500
0
LINE
8
Design
10
4.860978
20
18.289500
11
4.581681
21
18.021920
0
LINE
8
Design
10
4.581681
20
18.021920
11
4.142228
21
17.930120
0
LINE
8
Design
10
4.142228
20
17.930120
11
4.142230
21
17.930320
0
LINE
8
Design
10
6.355120
20
20.799460
11
6.694960
21
20.799460
0
LINE
8
Design
10
6.694960
20
20.799460
11
7.741840
21
17.959610
0
LINE
8
Design
10
7.741840
20
17.959610
11
7.312150
21
17.959610
0
LINE
8
Design
10
7.312150
20
17.959610
11
6.525040
21
20.250630
0
LINE
8
Design
10
6.525040
20
20.250630
11
5.737930
21
17.959610
0
LINE
8
Design
10
5.737930
20
17.959610
11
5.308250
21
17.959610
0
LINE
8
Design
10
5.308250
20
17.959610
11
6.355120
21
20.799460
0
LINE
8
Design
10
5.790670
20
18.961570
11
7.284810
21
18.961570
0
LINE
8
Design
10
7.284810
20
18.961570
11
7.284810
21
18.582660
0
LINE
8
Design
10
7.284810
20
18.582660
11
5.790670
21
18.582660
0
LINE
8
Design
10
5.790670
20
18.582660
11
5.790670
21
18.961570
0
LINE
8
Design
10
11.628560
20
19.188130
11
11.517230
21
19.520160
0
LINE
8
Design
10
11.517230
20
19.520160
11
11.204730
21
19.637350
0
LINE
8
Design
10
11.204730
20
19.637350
11
10.917620
21
19.524070
0
LINE
8
Design
10
10.917620
20
19.524070
11
10.816060
21
19.203750
0
LINE
8
Design
10
10.816060
20
19.203750
11
10.735960
21
19.594380
0
LINE
8
Design
10
10.735960
20
19.594380
11
10.987910
21
19.904930
0
LINE
8
Design
10
10.987910
20
19.904930
11
11.335570
21
20.016250
0
LINE
8
Design
10
11.335570
20
20.016250
11
11.708620
21
19.918650
0
LINE
8
Design
10
11.708620
20
19.918650
11
11.944940
21
19.637400
0
LINE
8
Design
10
11.944940
20
19.637400
11
12.026940
21
19.190130
0
LINE
8
Design
10
12.026940
20
19.190130
11
12.026940
21
17.959660
0
LINE
8
Design
10
12.026940
20
17.959660
11
11.628500
21
17.959660
0
LINE
8
Design
10
11.628500
20
17.959660
11
11.628560
21
19.188130
0
LINE
8
Design
10
9.206680
20
19.986960
11
9.605120
21
19.986960
0
LINE
8
Design
10
9.605120
20
19.986960
11
9.605120
21
17.959610
0
LINE
8
Design
10
9.605120
20
17.959610
11
9.206680
21
17.959610
0
LINE
8
Design
10
9.206680
20
17.959610
11
9.206680
21
19.986960
0
LINE
8
Design
10
10.417620
20
19.188130
11
10.312150
21
19.520160
0
LINE
8
Design
10
10.312150
20
19.520160
11
10.013320
21
19.637350
0
LINE
8
Design
10
10.013320
20
19.637350
11
9.710590
21
19.533830
0
LINE
8
Design
10
9.710590
20
19.533830
11
9.605120
21
19.242820
0
LINE
8
Design
10
9.605120
20
19.242820
11
9.564120
21
19.633440
0
LINE
8
Design
10
9.564120
20
19.633440
11
9.808270
21
19.916640
0
LINE
8
Design
10
9.808270
20
19.916640
11
10.144200
21
20.016240
0
LINE
8
Design
10
10.144200
20
20.016240
11
10.507480
21
19.918640
0
LINE
8
Design
10
10.507480
20
19.918640
11
10.736000
21
19.637390
0
LINE
8
Design
10
10.736000
20
19.637390
11
10.816100
21
19.190120
0
LINE
8
Design
10
10.816100
20
19.190120
11
10.816100
21
17.959650
0
LINE
8
Design
10
10.816100
20
17.959650
11
10.417660
21
17.959650
0
LINE
8
Design
10
10.417660
20
17.959650
11
10.417620
21
19.188130
0
LINE
8
Design
10
13.777000
20
19.244730
11
13.669570
21
19.553320
0
LINE
8
Design
10
13.669570
20
19.553320
11
13.368790
21
19.664650
0
LINE
8
Design
10
13.368790
20
19.664650
11
13.130510
21
19.627550
0
LINE
8
Design
10
13.130510
20
19.627550
11
12.925430
21
19.524040
0
LINE
8
Design
10
12.925430
20
19.524040
11
12.634420
21
19.723250
0
LINE
8
Design
10
12.634420
20
19.723250
11
12.937150
21
19.938100
0
LINE
8
Design
10
12.937150
20
19.938100
11
13.357070
21
20.016200
0
LINE
8
Design
10
13.357070
20
20.016200
11
13.788710
21
19.926400
0
LINE
8
Design
10
13.788710
20
19.926400
11
14.062150
21
19.668590
0
LINE
8
Design
10
14.062150
20
19.668590
11
14.155850
21
19.262340
0
LINE
8
Design
10
14.155850
20
19.262340
11
14.155850
21
17.959600
0
LINE
8
Design
10
14.155850
20
17.959600
11
13.776950
21
17.959600
0
LINE
8
Design
10
13.776950
20
17.959600
11
13.777000
21
19.244730
0
LINE
8
Design
10
13.280900
20
17.930280
11
12.720350
21
18.084570
0
LINE
8
Design
10
12.720350
20
18.084570
11
12.534810
21
18.557230
0
LINE
8
Design
10
12.534810
20
18.557230
11
12.704730
21
19.008400
0
LINE
8
Design
10
12.704730
20
19.008400
11
13.218400
21
19.158790
0
LINE
8
Design
10
13.218400
20
19.158790
11
13.794570
21
19.158790
0
LINE
8
Design
10
13.794570
20
19.158790
11
13.821970
21
18.838480
0
LINE
8
Design
10
13.821970
20
18.838480
11
13.220400
21
18.838480
0
LINE
8
Design
10
13.220400
20
18.838480
11
12.986030
21
18.768180
0
LINE
8
Design
10
12.986030
20
18.768180
11
12.909830
21
18.557240
0
LINE
8
Design
10
12.909830
20
18.557240
11
13.011390
21
18.328720
0
LINE
8
Design
10
13.011390
20
18.328720
11
13.323890
21
18.254520
0
LINE
8
Design
10
13.323890
20
18.254520
11
13.663730
21
18.303320
0
LINE
8
Design
10
13.663730
20
18.303320
11
13.777020
21
18.455670
0
LINE
8
Design
10
13.777020
20
18.455670
11
13.818020
21
18.170510
0
LINE
8
Design
10
13.818020
20
18.170510
11
13.687160
21
18.035740
0
LINE
8
Design
10
13.687160
20
18.035740
11
13.509430
21
17.957640
0
LINE
8
Design
10
13.509430
20
17.957640
11
13.280910
21
17.930340
0
LINE
8
Design
10
13.280910
20
17.930340
11
13.280900
21
17.930280
0
LINE
8
Design
10
15.343400
20
18.881450
11
14.597310
21
19.986920
0
LINE
8
Design
10
14.597310
20
19.986920
11
15.040670
21
19.986920
0
LINE
8
Design
10
15.040670
20
19.986920
11
15.622700
21
19.078710
0
LINE
8
Design
10
15.622700
20
19.078710
11
16.390280
21
17.959570
0
LINE
8
Design
10
16.390280
20
17.959570
11
15.948870
21
17.959570
0
LINE
8
Design
10
15.948870
20
17.959570
11
15.343400
21
18.881450
0
LINE
8
Design
10
15.331700
20
19.078710
11
15.523110
21
18.711530
0
LINE
8
Design
10
15.523110
20
18.711530
11
15.007480
21
17.959570
0
LINE
8
Design
10
15.007480
20
17.959570
11
14.566080
21
17.959570
0
LINE
8
Design
10
14.566080
20
17.959570
11
15.331700
21
19.078710
0
LINE
8
Design
10
15.472330
20
19.268170
11
15.915690
21
19.986920
0
LINE
8
Design
10
15.915690
20
19.986920
11
16.359050
21
19.986920
0
LINE
8
Design
10
16.359050
20
19.986920
11
15.640300
21
18.893170
0
LINE
8
Design
10
15.640300
20
18.893170
11
15.472330
21
19.268170
0
LINE
8
Design
10
16.761390
20
18.377540
11
17.179360
21
18.377540
0
LINE
8
Design
10
17.179360
20
18.377540
11
17.179360
21
17.959570
0
LINE
8
Design
10
17.179360
20
17.959570
11
16.761390
21
17.959570
0
LINE
8
Design
10
16.761390
20
17.959570
11
16.761390
21
18.377540
0
LINE
8
Guide
10
2.614999
20
113.605000
11
17.854999
21
113.605000
0
LINE
8
Guide
10
17.854989
20
14.545000
11
17.854989
21
113.605000
0
LINE
8
Guide
10
2.614989
20
14.545000
11
17.854989
21
14.545000
0
LINE
8
Guide
10
2.614989
20
113.605000
11
2.614989
21
14.545000
0
LINE
8
Layer 1
10
10.234999
20
103.905000
11
9.355331
21
103.773277
0
LINE
8
Layer 1
10
9.355331
20
103.773277
11
8.568288
21
103.399409
0
LINE
8
Layer 1
10
8.568288
20
103.399409
11
7.921691
21
102.815349
0
LINE
8
Layer 1
10
7.921691
20
102.815349
11
7.463360
21
102.053050
0
LINE
8
Layer 1
10
7.463360
20
102.053050
11
7.248423
21
101.189935
0
LINE
8
Layer 1
10
7.248423
20
101.189935
11
7.292643
21
100.319729
0
LINE
8
Layer 1
10
7.292643
20
100.319729
11
7.584802
21
99.498841
0
LINE
8
Layer 1
10
7.584802
20
99.498841
11
8.113679
21
98.783680
0
LINE
8
Layer 1
10
8.113679
20
98.783680
11
8.828840
21
98.254803
0
LINE
8
Layer 1
10
8.828840
20
98.254803
11
9.649728
21
97.962644
0
LINE
8
Layer 1
10
9.649728
20
97.962644
11
10.519934
21
97.918424
0
LINE
8
Layer 1
10
10.519934
20
97.918424
11
11.383049
21
98.133361
0
LINE
8
Layer 1
10
11.383049
20
98.133361
11
12.145348
21
98.591692
0
LINE
8
Layer 1
10
12.145348
20
98.591692
11
12.729408
21
99.238289
0
LINE
8
Layer 1
10
12.729408
20
99.238289
11
13.103276
21
100.025332
0
LINE
8
Layer 1
10
13.103276
20
100.025332
11
13.234999
21
100.905000
0
LINE
8
Layer 1
10
13.234999
20
100.905000
11
13.006638
21
102.053050
0
LINE
8
Layer 1
10
13.006638
20
102.053050
11
12.356319
21
103.026320
0
LINE
8
Layer 1
10
12.356319
20
103.026320
11
11.383049
21
103.676639
0
LINE
8
Layer 1
10
11.383049
20
103.676639
11
10.234999
21
103.905000
0
LINE
8
Layer 1
10
10.234999
20
103.905000
11
10.234999
21
103.905000
0
LINE
8
Layer 1
10
13.475009
20
108.215000
11
6.995009
21
108.215000
0
LINE
8
Layer 1
10
5.765009
20
109.445000
11
5.765009
21
110.145000
0
LINE
8
Layer 1
10
6.995009
20
111.375000
11
13.475009
21
111.375000
0
LINE
8
Layer 1
10
14.705009
20
109.445000
11
14.705009
21
110.145000
0
LINE
8
Layer 1
10
14.705009
20
110.145000
11
14.611381
21
110.615701
0
LINE
8
Layer 1
10
14.611381
20
110.615701
11
14.344750
21
111.014741
0
LINE
8
Layer 1
10
14.344750
20
111.014741
11
13.945710
21
111.281372
0
LINE
8
Layer 1
10
13.945710
20
111.281372
11
13.475009
21
111.375000
0
LINE
8
Layer 1
10
13.475009
20
108.215000
11
13.945710
21
108.308628
0
LINE
8
Layer 1
10
13.945710
20
108.308628
11
14.344750
21
108.575259
0
LINE
8
Layer 1
10
14.344750
20
108.575259
11
14.611381
21
108.974299
0
LINE
8
Layer 1
10
14.611381
20
108.974299
11
14.705009
21
109.445000
0
LINE
8
Layer 1
10
5.765009
20
109.445000
11
5.861669
21
108.966229
0
LINE
8
Layer 1
10
5.861669
20
108.966229
11
6.125268
21
108.575259
0
LINE
8
Layer 1
10
6.125268
20
108.575259
11
6.516238
21
108.311660
0
LINE
8
Layer 1
10
6.516238
20
108.311660
11
6.995009
21
108.215000
0
LINE
8
Layer 1
10
6.995009
20
111.375000
11
6.516238
21
111.278340
0
LINE
8
Layer 1
10
6.516238
20
111.278340
11
6.125268
21
111.014741
0
LINE
8
Layer 1
10
6.125268
20
111.014741
11
5.861669
21
110.623771
0
LINE
8
Layer 1
10
5.861669
20
110.623771
11
5.765009
21
110.145000
0
LINE
8
Layer 1
10
11.175009
20
1.225000
11
14.375009
21
1.225000
0
LINE
8
Layer 1
10
11.175009
20
4.425000
11
14.375009
21
4.425000
0
LINE
8
Layer 1
10
6.095009
20
123.725000
11
9.295009
21
123.725000
0
LINE
8
Layer 1
10
6.095009
20
126.925000
11
9.295009
21
126.925000
0
LINE
8
Layer 1
10
14.375009
20
1.225000
11
15.175009
21
1.439359
0
LINE
8
Layer 1
10
15.175009
20
1.439359
11
15.760650
21
2.025000
0
LINE
8
Layer 1
10
15.760650
20
2.025000
11
15.975009
21
2.825000
0
LINE
8
Layer 1
10
15.975009
20
2.825000
11
15.760650
21
3.625000
0
LINE
8
Layer 1
10
15.760650
20
3.625000
11
15.175009
21
4.210641
0
LINE
8
Layer 1
10
15.175009
20
4.210641
11
14.375009
21
4.425000
0
LINE
8
Layer 1
10
6.095009
20
126.925000
11
5.295009
21
126.710641
0
LINE
8
Layer 1
10
5.295009
20
126.710641
11
4.709368
21
126.125000
0
LINE
8
Layer 1
10
4.709368
20
126.125000
11
4.495009
21
125.325000
0
LINE
8
Layer 1
10
4.495009
20
125.325000
11
4.709368
21
124.525000
0
LINE
8
Layer 1
10
4.709368
20
124.525000
11
5.295009
21
123.939359
0
LINE
8
Layer 1
10
5.295009
20
123.939359
11
6.095009
21
123.725000
0
LINE
8
Layer 1
10
9.295009
20
123.725000
11
10.095009
21
123.939359
0
LINE
8
Layer 1
10
10.095009
20
123.939359
11
10.680650
21
124.525000
0
LINE
8
Layer 1
10
10.680650
20
124.525000
11
10.895009
21
125.325000
0
LINE
8
Layer 1
10
10.895009
20
125.325000
11
10.680650
21
126.125000
0
LINE
8
Layer 1
10
10.680650
20
126.125000
11
10.095009
21
126.710641
0
LINE
8
Layer 1
10
10.095009
20
126.710641
11
9.295009
21
126.925000
0
LINE
8
Layer 1
10
11.175009
20
4.425000
11
10.375009
21
4.210641
0
LINE
8
Layer 1
10
10.375009
20
4.210641
11
9.789368
21
3.625000
0
LINE
8
Layer 1
10
9.789368
20
3.625000
11
9.575009
21
2.825000
0
LINE
8
Layer 1
10
9.575009
20
2.825000
11
9.789368
21
2.025000
0
LINE
8
Layer 1
10
9.789368
20
2.025000
11
10.375009
21
1.439359
0
LINE
8
Layer 1
10
10.375009
20
1.439359
11
11.175009
21
1.225000
0
LINE
8
Layer 1
10
10.225009
20
27.840000
11
9.491952
21
27.730231
0
LINE
8
Layer 1
10
9.491952
20
27.730231
11
8.836083
21
27.418674
0
LINE
8
Layer 1
10
8.836083
20
27.418674
11
8.297252
21
26.931958
0
LINE
8
Layer 1
10
8.297252
20
26.931958
11
7.915310
21
26.296709
0
LINE
8
Layer 1
10
7.915310
20
26.296709
11
7.736195
21
25.577446
0
LINE
8
Layer 1
10
7.736195
20
25.577446
11
7.773046
21
24.852274
0
LINE
8
Layer 1
10
7.773046
20
24.852274
11
8.016511
21
24.168201
0
LINE
8
Layer 1
10
8.016511
20
24.168201
11
8.457242
21
23.572233
0
LINE
8
Layer 1
10
8.457242
20
23.572233
11
9.053210
21
23.131502
0
LINE
8
Layer 1
10
9.053210
20
23.131502
11
9.737283
21
22.888037
0
LINE
8
Layer 1
10
9.737283
20
22.888037
11
10.462455
21
22.851186
0
LINE
8
Layer 1
10
10.462455
20
22.851186
11
11.181718
21
23.030301
0
LINE
8
Layer 1
10
11.181718
20
23.030301
11
11.816967
21
23.412243
0
LINE
8
Layer 1
10
11.816967
20
23.412243
11
12.303683
21
23.951074
0
LINE
8
Layer 1
10
12.303683
20
23.951074
11
12.615240
21
24.606943
0
LINE
8
Layer 1
10
12.615240
20
24.606943
11
12.725009
21
25.340000
0
LINE
8
Layer 1
10
12.725009
20
25.340000
11
12.534708
21
26.296709
0
LINE
8
Layer 1
10
12.534708
20
26.296709
11
11.992776
21
27.107767
0
LINE
8
Layer 1
10
11.992776
20
27.107767
11
11.181718
21
27.649699
0
LINE
8
Layer 1
10
11.181718
20
27.649699
11
10.225009
21
27.840000
0
LINE
8
Layer 1
10
10.225009
20
27.840000
11
10.225009
21
27.840000
0
LINE
8
Layer 1
10
20.395009
20
128.075000
11
0.075009
21
128.075000
0
LINE
8
Layer 1
10
0.075009
20
128.075000
11
0.075009
21
0.075000
0
LINE
8
Layer 1
10
20.395009
20
128.075000
11
20.395009
21
0.075000
0
LINE
8
Layer 1
10
0.075009
20
0.075000
11
20.395009
21
0.075000
 0 
ENDSEC
 0 
EOF