G04 #@! TF.GenerationSoftware,KiCad,Pcbnew,(6.0.6)*
G04 #@! TF.CreationDate,2024-09-22T12:15:16+02:00*
G04 #@! TF.ProjectId,VCA_Module,5643415f-4d6f-4647-956c-652e6b696361,rev?*
G04 #@! TF.SameCoordinates,Original*
G04 #@! TF.FileFunction,Paste,Bot*
G04 #@! TF.FilePolarity,Positive*
%FSLAX46Y46*%
G04 Gerber Fmt 4.6, Leading zero omitted, Abs format (unit mm)*
G04 Created by KiCad (PCBNEW (6.0.6)) date 2024-09-22 12:15:16*
%MOMM*%
%LPD*%
G01*
G04 APERTURE LIST*
G04 Aperture macros list*
%AMRoundRect*
0 Rectangle with rounded corners*
0 $1 Rounding radius*
0 $2 $3 $4 $5 $6 $7 $8 $9 X,Y pos of 4 corners*
0 Add a 4 corners polygon primitive as box body*
4,1,4,$2,$3,$4,$5,$6,$7,$8,$9,$2,$3,0*
0 Add four circle primitives for the rounded corners*
1,1,$1+$1,$2,$3*
1,1,$1+$1,$4,$5*
1,1,$1+$1,$6,$7*
1,1,$1+$1,$8,$9*
0 Add four rect primitives between the rounded corners*
20,1,$1+$1,$2,$3,$4,$5,0*
20,1,$1+$1,$4,$5,$6,$7,0*
20,1,$1+$1,$6,$7,$8,$9,0*
20,1,$1+$1,$8,$9,$2,$3,0*%
G04 Aperture macros list end*
%ADD10RoundRect,0.200000X-0.550000X0.300000X-0.550000X-0.300000X0.550000X-0.300000X0.550000X0.300000X0*%
%ADD11RoundRect,0.200000X0.550000X-0.300000X0.550000X0.300000X-0.550000X0.300000X-0.550000X-0.300000X0*%
%ADD12RoundRect,0.250000X0.625000X-0.400000X0.625000X0.400000X-0.625000X0.400000X-0.625000X-0.400000X0*%
%ADD13R,3.150000X1.000000*%
G04 APERTURE END LIST*
D10*
X43180000Y-68323000D03*
X43180000Y-71823000D03*
X77470000Y-121570000D03*
X77470000Y-125070000D03*
D11*
X40640000Y-157223000D03*
X40640000Y-160723000D03*
D10*
X77470000Y-157130000D03*
X77470000Y-160630000D03*
X43180000Y-103883000D03*
X43180000Y-107383000D03*
X43180000Y-86103000D03*
X43180000Y-89603000D03*
X43180000Y-139443000D03*
X43180000Y-142943000D03*
D11*
X74930000Y-125070000D03*
X74930000Y-121570000D03*
X40640000Y-125163000D03*
X40640000Y-121663000D03*
X74930000Y-160630000D03*
X74930000Y-157130000D03*
D10*
X43180000Y-121663000D03*
X43180000Y-125163000D03*
D11*
X40640000Y-107383000D03*
X40640000Y-103883000D03*
X40640000Y-89603000D03*
X40640000Y-86103000D03*
D10*
X43180000Y-160723000D03*
X43180000Y-157223000D03*
D11*
X40640000Y-142943000D03*
X40640000Y-139443000D03*
D10*
X77470000Y-86010000D03*
X77470000Y-89510000D03*
D11*
X74930000Y-89510000D03*
X74930000Y-86010000D03*
X40640000Y-71823000D03*
X40640000Y-68323000D03*
D12*
X69850000Y-124870000D03*
X69850000Y-121770000D03*
X38100000Y-107250000D03*
X38100000Y-104150000D03*
X69850000Y-89310000D03*
X69850000Y-86210000D03*
D13*
X50785000Y-147320000D03*
X45735000Y-147320000D03*
X50785000Y-149860000D03*
X45735000Y-149860000D03*
X50785000Y-152400000D03*
X45735000Y-152400000D03*
D12*
X69850000Y-160430000D03*
X69850000Y-157330000D03*
X38100000Y-157490000D03*
X38100000Y-160590000D03*
X38100000Y-125030000D03*
X38100000Y-121930000D03*
X38100000Y-142810000D03*
X38100000Y-139710000D03*
X38100000Y-89470000D03*
X38100000Y-86370000D03*
X72390000Y-124870000D03*
X72390000Y-121770000D03*
X72390000Y-89310000D03*
X72390000Y-86210000D03*
X38100000Y-71690000D03*
X38100000Y-68590000D03*
X72390000Y-160430000D03*
X72390000Y-157330000D03*
M02*
