G04 #@! TF.GenerationSoftware,KiCad,Pcbnew,(6.0.6)*
G04 #@! TF.CreationDate,2024-09-22T12:15:16+02:00*
G04 #@! TF.ProjectId,VCA_Module,5643415f-4d6f-4647-956c-652e6b696361,rev?*
G04 #@! TF.SameCoordinates,Original*
G04 #@! TF.FileFunction,Soldermask,Bot*
G04 #@! TF.FilePolarity,Negative*
%FSLAX46Y46*%
G04 Gerber Fmt 4.6, Leading zero omitted, Abs format (unit mm)*
G04 Created by KiCad (PCBNEW (6.0.6)) date 2024-09-22 12:15:16*
%MOMM*%
%LPD*%
G01*
G04 APERTURE LIST*
G04 Aperture macros list*
%AMRoundRect*
0 Rectangle with rounded corners*
0 $1 Rounding radius*
0 $2 $3 $4 $5 $6 $7 $8 $9 X,Y pos of 4 corners*
0 Add a 4 corners polygon primitive as box body*
4,1,4,$2,$3,$4,$5,$6,$7,$8,$9,$2,$3,0*
0 Add four circle primitives for the rounded corners*
1,1,$1+$1,$2,$3*
1,1,$1+$1,$4,$5*
1,1,$1+$1,$6,$7*
1,1,$1+$1,$8,$9*
0 Add four rect primitives between the rounded corners*
20,1,$1+$1,$2,$3,$4,$5,0*
20,1,$1+$1,$4,$5,$6,$7,0*
20,1,$1+$1,$6,$7,$8,$9,0*
20,1,$1+$1,$8,$9,$2,$3,0*%
G04 Aperture macros list end*
%ADD10C,0.150000*%
%ADD11RoundRect,0.200000X-0.550000X0.300000X-0.550000X-0.300000X0.550000X-0.300000X0.550000X0.300000X0*%
%ADD12RoundRect,0.200000X0.550000X-0.300000X0.550000X0.300000X-0.550000X0.300000X-0.550000X-0.300000X0*%
%ADD13C,4.000000*%
%ADD14C,1.800000*%
%ADD15C,2.000000*%
%ADD16RoundRect,0.500000X-1.500000X-0.500000X1.500000X-0.500000X1.500000X0.500000X-1.500000X0.500000X0*%
%ADD17RoundRect,0.250000X0.625000X-0.400000X0.625000X0.400000X-0.625000X0.400000X-0.625000X-0.400000X0*%
%ADD18C,1.700000*%
%ADD19R,3.150000X1.000000*%
%ADD20RoundRect,0.250000X0.250000X0.750000X-0.250000X0.750000X-0.250000X-0.750000X0.250000X-0.750000X0*%
G04 APERTURE END LIST*
D10*
X53990857Y-150836380D02*
X54467047Y-150836380D01*
X54514666Y-151312571D01*
X54467047Y-151264952D01*
X54371809Y-151217333D01*
X54133714Y-151217333D01*
X54038476Y-151264952D01*
X53990857Y-151312571D01*
X53943238Y-151407809D01*
X53943238Y-151645904D01*
X53990857Y-151741142D01*
X54038476Y-151788761D01*
X54133714Y-151836380D01*
X54371809Y-151836380D01*
X54467047Y-151788761D01*
X54514666Y-151741142D01*
X53609904Y-151169714D02*
X53371809Y-151836380D01*
X53133714Y-151169714D01*
D11*
X43180000Y-68323000D03*
X43180000Y-71823000D03*
X77470000Y-121570000D03*
X77470000Y-125070000D03*
D12*
X40640000Y-157223000D03*
X40640000Y-160723000D03*
D11*
X77470000Y-157130000D03*
X77470000Y-160630000D03*
X43180000Y-103883000D03*
X43180000Y-107383000D03*
X43180000Y-86103000D03*
X43180000Y-89603000D03*
X43180000Y-139443000D03*
X43180000Y-142943000D03*
D12*
X74930000Y-125070000D03*
X74930000Y-121570000D03*
X40640000Y-125163000D03*
X40640000Y-121663000D03*
X74930000Y-160630000D03*
X74930000Y-157130000D03*
D11*
X43180000Y-121663000D03*
X43180000Y-125163000D03*
D12*
X40640000Y-107383000D03*
X40640000Y-103883000D03*
X40640000Y-89603000D03*
X40640000Y-86103000D03*
D11*
X43180000Y-160723000D03*
X43180000Y-157223000D03*
D12*
X40640000Y-142943000D03*
X40640000Y-139443000D03*
D11*
X77470000Y-86010000D03*
X77470000Y-89510000D03*
D12*
X74930000Y-89510000D03*
X74930000Y-86010000D03*
X40640000Y-71823000D03*
X40640000Y-68323000D03*
D13*
X69215000Y-69185000D03*
X78015000Y-69185000D03*
D14*
X76115000Y-76185000D03*
X73615000Y-76185000D03*
X71115000Y-76185000D03*
D13*
X69215000Y-104745000D03*
X78015000Y-104745000D03*
D14*
X76115000Y-111745000D03*
X73615000Y-111745000D03*
X71115000Y-111745000D03*
D13*
X69215000Y-140305000D03*
X78015000Y-140305000D03*
D14*
X76115000Y-147305000D03*
X73615000Y-147305000D03*
X71115000Y-147305000D03*
D13*
X51480000Y-120015000D03*
X60280000Y-120015000D03*
D14*
X58380000Y-127015000D03*
X55880000Y-127000000D03*
X53380000Y-127015000D03*
D13*
X51480000Y-155575000D03*
X60280000Y-155575000D03*
D14*
X58380000Y-162575000D03*
X55880000Y-162560000D03*
X53380000Y-162575000D03*
D13*
X51435000Y-66660000D03*
X60235000Y-66660000D03*
D14*
X58335000Y-73660000D03*
X55835000Y-73645000D03*
X53335000Y-73660000D03*
D13*
X51480000Y-84455000D03*
X60280000Y-84455000D03*
D14*
X58380000Y-91455000D03*
X55880000Y-91440000D03*
X53380000Y-91455000D03*
D13*
X51480000Y-137795000D03*
X60280000Y-137795000D03*
D14*
X58380000Y-144795000D03*
X55880000Y-144780000D03*
X53380000Y-144795000D03*
D13*
X51480000Y-102235000D03*
X60280000Y-102235000D03*
D14*
X58380000Y-109235000D03*
X55880000Y-109220000D03*
X53380000Y-109235000D03*
D15*
X40640000Y-134620000D03*
D16*
X40640000Y-137160000D03*
X40640000Y-145060000D03*
D15*
X73660000Y-152400000D03*
D16*
X73660000Y-154940000D03*
X73660000Y-162840000D03*
D15*
X40640000Y-99060000D03*
D16*
X40640000Y-101600000D03*
X40640000Y-109500000D03*
D15*
X73660000Y-81280000D03*
D16*
X73660000Y-83820000D03*
X73660000Y-91720000D03*
D15*
X40640000Y-63500000D03*
D16*
X40640000Y-66040000D03*
X40640000Y-73940000D03*
D15*
X40640000Y-81280000D03*
D16*
X40640000Y-83820000D03*
X40640000Y-91720000D03*
D15*
X40640000Y-152400000D03*
D16*
X40640000Y-154940000D03*
X40640000Y-162840000D03*
D15*
X73660000Y-116840000D03*
D16*
X73660000Y-119380000D03*
X73660000Y-127280000D03*
D15*
X40640000Y-116840000D03*
D16*
X40640000Y-119380000D03*
X40640000Y-127280000D03*
D17*
X69850000Y-124870000D03*
X69850000Y-121770000D03*
X38100000Y-107250000D03*
X38100000Y-104150000D03*
D18*
X48260000Y-60960000D03*
X48260000Y-63500000D03*
X48260000Y-66040000D03*
X48260000Y-68580000D03*
X48260000Y-71120000D03*
X48260000Y-73660000D03*
X48260000Y-76200000D03*
X48260000Y-78740000D03*
X48260000Y-81280000D03*
X48260000Y-83820000D03*
X48260000Y-86360000D03*
X48260000Y-88900000D03*
X48260000Y-91440000D03*
X48260000Y-93980000D03*
X63500000Y-93980000D03*
X63500000Y-91440000D03*
X63500000Y-88900000D03*
X63500000Y-86360000D03*
X63500000Y-83820000D03*
X63500000Y-81280000D03*
X63500000Y-78740000D03*
X63500000Y-76200000D03*
X63500000Y-73660000D03*
X63500000Y-71120000D03*
X63500000Y-68580000D03*
X63500000Y-66040000D03*
X63500000Y-63500000D03*
X63500000Y-60960000D03*
D17*
X69850000Y-89310000D03*
X69850000Y-86210000D03*
D19*
X50785000Y-147320000D03*
X45735000Y-147320000D03*
X50785000Y-149860000D03*
X45735000Y-149860000D03*
X50785000Y-152400000D03*
X45735000Y-152400000D03*
D17*
X69850000Y-160430000D03*
X69850000Y-157330000D03*
X38100000Y-157490000D03*
X38100000Y-160590000D03*
X38100000Y-125030000D03*
X38100000Y-121930000D03*
D20*
X76835000Y-95377000D03*
X76835000Y-98552000D03*
X73660000Y-95377000D03*
X73660000Y-98552000D03*
X70485000Y-95377000D03*
X70485000Y-98552000D03*
D17*
X38100000Y-142810000D03*
X38100000Y-139710000D03*
X38100000Y-89470000D03*
X38100000Y-86370000D03*
X72390000Y-124870000D03*
X72390000Y-121770000D03*
X72390000Y-89310000D03*
X72390000Y-86210000D03*
X38100000Y-71690000D03*
X38100000Y-68590000D03*
X72390000Y-160430000D03*
X72390000Y-157330000D03*
M02*
