M48
; DRILL file {KiCad (6.0.6)} date Sun Sep 22 12:15:26 2024
; FORMAT={-:-/ absolute / metric / decimal}
; #@! TF.CreationDate,2024-09-22T12:15:26+02:00
; #@! TF.GenerationSoftware,Kicad,Pcbnew,(6.0.6)
; #@! TF.FileFunction,Plated,1,2,PTH
FMAT,2
METRIC
; #@! TA.AperFunction,Plated,PTH,ViaDrill
T1C0.400
; #@! TA.AperFunction,Plated,PTH,ComponentDrill
T2C1.000
; #@! TA.AperFunction,Plated,PTH,ComponentDrill
T3C1.200
%
G90
G05
T1
X39.624Y-79.248
X42.164Y-122.936
X42.164Y-140.716
X42.672Y-69.596
X42.672Y-87.376
X42.672Y-105.156
X42.672Y-158.496
X43.18Y-80.772
X43.434Y-108.966
X43.942Y-126.746
X44.196Y-96.52
X44.196Y-98.044
X44.196Y-114.808
X44.2Y-95.0
X44.45Y-80.772
X44.45Y-101.346
X44.704Y-144.78
X48.006Y-142.24
X48.26Y-160.782
X49.022Y-104.14
X49.784Y-108.204
X50.785Y-150.891
X51.054Y-106.426
X57.912Y-86.868
X60.96Y-110.744
X62.992Y-99.06
X63.5Y-111.252
X64.008Y-96.012
X64.516Y-118.872
X65.024Y-113.792
X65.316Y-124.968
X65.532Y-137.16
X67.564Y-99.568
X68.072Y-114.808
X68.072Y-151.093
X69.596Y-118.872
X71.882Y-101.346
X72.644Y-100.33
X73.66Y-102.616
X73.66Y-106.68
X74.676Y-101.6
X77.216Y-158.496
X77.724Y-83.82
X78.232Y-109.728
X78.74Y-91.948
X79.248Y-107.696
T2
X48.26Y-60.96
X48.26Y-63.5
X48.26Y-66.04
X48.26Y-68.58
X48.26Y-71.12
X48.26Y-73.66
X48.26Y-76.2
X48.26Y-78.74
X48.26Y-81.28
X48.26Y-83.82
X48.26Y-86.36
X48.26Y-88.9
X48.26Y-91.44
X48.26Y-93.98
X53.335Y-73.66
X53.38Y-91.455
X53.38Y-109.235
X53.38Y-127.015
X53.38Y-144.795
X53.38Y-162.575
X55.835Y-73.645
X55.88Y-91.44
X55.88Y-109.22
X55.88Y-127.0
X55.88Y-144.78
X55.88Y-162.56
X58.335Y-73.66
X58.38Y-91.455
X58.38Y-109.235
X58.38Y-127.015
X58.38Y-144.795
X58.38Y-162.575
X63.5Y-60.96
X63.5Y-63.5
X63.5Y-66.04
X63.5Y-68.58
X63.5Y-71.12
X63.5Y-73.66
X63.5Y-76.2
X63.5Y-78.74
X63.5Y-81.28
X63.5Y-83.82
X63.5Y-86.36
X63.5Y-88.9
X63.5Y-91.44
X63.5Y-93.98
X71.115Y-76.185
X71.115Y-111.745
X71.115Y-147.305
X73.615Y-76.185
X73.615Y-111.745
X73.615Y-147.305
X76.115Y-76.185
X76.115Y-111.745
X76.115Y-147.305
T3
X40.64Y-63.5
X40.64Y-81.28
X40.64Y-99.06
X40.64Y-116.84
X40.64Y-134.62
X40.64Y-152.4
X73.66Y-81.28
X73.66Y-116.84
X73.66Y-152.4
T2
X39.64Y-66.04G85X41.64Y-66.04
G05
X39.64Y-73.94G85X41.64Y-73.94
G05
X39.64Y-83.82G85X41.64Y-83.82
G05
X39.64Y-91.72G85X41.64Y-91.72
G05
X39.64Y-101.6G85X41.64Y-101.6
G05
X39.64Y-109.5G85X41.64Y-109.5
G05
X39.64Y-119.38G85X41.64Y-119.38
G05
X39.64Y-127.28G85X41.64Y-127.28
G05
X39.64Y-137.16G85X41.64Y-137.16
G05
X39.64Y-145.06G85X41.64Y-145.06
G05
X39.64Y-154.94G85X41.64Y-154.94
G05
X39.64Y-162.84G85X41.64Y-162.84
G05
X72.66Y-83.82G85X74.66Y-83.82
G05
X72.66Y-91.72G85X74.66Y-91.72
G05
X72.66Y-119.38G85X74.66Y-119.38
G05
X72.66Y-127.28G85X74.66Y-127.28
G05
X72.66Y-154.94G85X74.66Y-154.94
G05
X72.66Y-162.84G85X74.66Y-162.84
G05
T0
M30
