<?xml version="1.0" standalone="no"?>
 <!DOCTYPE svg PUBLIC "-//W3C//DTD SVG 1.1//EN" 
 "http://www.w3.org/Graphics/SVG/1.1/DTD/svg11.dtd"> 
<svg
  xmlns:svg="http://www.w3.org/2000/svg"
  xmlns="http://www.w3.org/2000/svg"
  xmlns:xlink="http://www.w3.org/1999/xlink"
  version="1.1"
  width="6.098540cm" height="12.804140cm" viewBox="0 0 60985400 128041400">
<title>SVG Picture created as WavetableVCO_Panel-brd.svg date 2024/10/06 16:39:20 </title>
  <desc>Picture generated by PCBNEW </desc>
<g style="fill:#000000; fill-opacity:1.000000;stroke:#000000; stroke-opacity:1.000000;
stroke-linecap:round; stroke-linejoin:round;"
 transform="translate(0 0) scale(1 1)">
</g>
<g style="fill:#000000; fill-opacity:0.0; 
stroke:#000000; stroke-width:0.000000; stroke-opacity:1; 
stroke-linecap:round; stroke-linejoin:round;">
</g>
<g style="fill:#000000; fill-opacity:0.0; 
stroke:#000000; stroke-width:100000.000000; stroke-opacity:1; 
stroke-linecap:round; stroke-linejoin:round;">
<path d="M2565000 9025000
L2565000 119025000
" />
</g>
<g style="fill:#000000; fill-opacity:0.0; 
stroke:#000000; stroke-width:120000.000000; stroke-opacity:1; 
stroke-linecap:round; stroke-linejoin:round;">
<circle cx="12725000.000000" cy="52145000.000000" r="8000000.000000" /> 
<circle cx="30505000.000000" cy="67385000.000000" r="8000000.000000" /> 
<circle cx="48285000.000000" cy="52145000.000000" r="8000000.000000" /> 
<g >
</g>
<g >
</g>
<g >
</g>
<g >
</g>
<g >
</g>
<g >
</g>
<g >
</g>
<g >
</g>
<g >
</g>
<g >
</g>
<g >
</g>
<g >
</g>
<g >
</g>
<g >
</g>
<g >
</g>
<g >
</g>
<g >
</g>
<g >
</g>
<g >
</g>
</g>
<g style="fill:#000000; fill-opacity:0.0; 
stroke:#000000; stroke-width:120000.000000; stroke-opacity:1; 
stroke-linecap:round; stroke-linejoin:round;">
<circle cx="50825000.000000" cy="110805000.000000" r="3250000.000000" /> 
<path d="M51765000 123675000
L54965000 123675000
" />
<path d="M51765000 4375000
L54965000 4375000
" />
<path d="M51765000 126875000
L54965000 126875000
" />
<path d="M51765000 1175000
L54965000 1175000
" />
<path d="M54965000.000000 126875000.000000 A1600000.000000 1600000.000000 0.0 0 0 54965000.000000 123675000.000000" />
<path d="M54965000.000000 4375000.000000 A1600000.000000 1600000.000000 0.0 0 0 54965000.000000 1175000.000000" />
<path d="M51765000.000000 1175000.000000 A1600000.000000 1600000.000000 0.0 0 0 51765000.000000 4375000.000000" />
<path d="M51765000.000000 123675000.000000 A1600000.000000 1600000.000000 0.0 0 0 51765000.000000 126875000.000000" />
<circle cx="12725000.000000" cy="52145000.000000" r="3250000.000000" /> 
<circle cx="30505000.000000" cy="90245000.000000" r="3250000.000000" /> 
<circle cx="50780000.000000" cy="77530000.000000" r="3250000.000000" /> 
<path d="M6045000 126875000
L9245000 126875000
" />
<path d="M6045000 1175000
L9245000 1175000
" />
<path d="M6045000 123675000
L9245000 123675000
" />
<path d="M6045000 4375000
L9245000 4375000
" />
<path d="M6045000.000000 123675000.000000 A1600000.000000 1600000.000000 0.0 0 0 6045000.000000 126875000.000000" />
<path d="M9245000.000000 126875000.000000 A1600000.000000 1600000.000000 0.0 0 0 9245000.000000 123675000.000000" />
<path d="M6045000.000000 1175000.000000 A1600000.000000 1600000.000000 0.0 0 0 6045000.000000 4375000.000000" />
<path d="M9245000.000000 4375000.000000 A1600000.000000 1600000.000000 0.0 0 0 9245000.000000 1175000.000000" />
<circle cx="35585000.000000" cy="110805000.000000" r="3250000.000000" /> 
<circle cx="30505000.000000" cy="67385000.000000" r="3250000.000000" /> 
<circle cx="10100000.000000" cy="77530000.000000" r="3250000.000000" /> 
<circle cx="10185000.000000" cy="98105000.000000" r="3250000.000000" /> 
<circle cx="22885000.000000" cy="110805000.000000" r="3250000.000000" /> 
<circle cx="10185000.000000" cy="110805000.000000" r="3250000.000000" /> 
<circle cx="48285000.000000" cy="52145000.000000" r="3250000.000000" /> 
<g >
</g>
<g >
</g>
<g >
</g>
<g >
</g>
<g >
</g>
<g >
</g>
<g >
</g>
<g >
</g>
<g >
</g>
<g >
</g>
<g >
</g>
<g >
</g>
<g >
</g>
<g >
</g>
<g >
</g>
<g >
</g>
<g >
</g>
<g >
</g>
<g >
</g>
</g>
<g style="fill:#000000; fill-opacity:0.0; 
stroke:#000000; stroke-width:120000.000000; stroke-opacity:1; 
stroke-linecap:round; stroke-linejoin:round;">
</g>
<g style="fill:#000000; fill-opacity:0.0; 
stroke:#000000; stroke-width:50000.000000; stroke-opacity:1; 
stroke-linecap:round; stroke-linejoin:round;">
<path d="M12727322 13434490
L48284967 13434490
" />
<path d="M48284967 13434490
L48284967 38835685
" />
<path d="M48284967 38835685
L12727322 38835685
" />
<path d="M12727322 38835685
L12727322 13434490
" />
<path d="M25000 25000
L60985000 25000
" />
<path d="M60985000 25000
L60985000 128025000
" />
<path d="M60985000 128025000
L25000 128025000
" />
<path d="M25000 128025000
L25000 25000
" />
<g >
</g>
<g >
</g>
<g >
</g>
<g >
</g>
<g >
</g>
<g >
</g>
<g >
</g>
<g >
</g>
<g >
</g>
<g >
</g>
<g >
</g>
<g >
</g>
<g >
</g>
<g >
</g>
<g >
</g>
<g >
</g>
<g >
</g>
<g >
</g>
<g >
</g>
</g> 
</svg>
