  0
SECTION
  2
HEADER
  9
$ACADVER
  1
AC1014
  9
$HANDSEED
  5
FFFF
  9
$INSUNITS
 70
     4
  9
$MEASUREMENT
 70
     1
  0
ENDSEC
  0
SECTION
  2
TABLES
  0
TABLE
  2
VPORT
  5
8
330
0
100
AcDbSymbolTable
 70
     4
  0
VPORT
  5
2E
330
8
100
AcDbSymbolTableRecord
100
AcDbViewportTableRecord
  2
*ACTIVE
 70
     0
 10
0.0
 20
0.0
 11
1.0
 21
1.0
 12
210.0
 22
148.5
 13
0.0
 23
0.0
 14
10.0
 24
10.0
 15
10.0
 25
10.0
 16
0.0
 26
0.0
 36
1.0
 17
0.0
 27
0.0
 37
0.0
 40
341.0
 41
1.24
 42
50.0
 43
0.0
 44
0.0
 50
0.0
 51
0.0
 71
     0
 72
   100
 73
     1
 74
     3
 75
     0
 76
     0
 77
     0
 78
     0
  0
ENDTAB
  0
TABLE
  2
LTYPE
  5
5
330
0
100
AcDbSymbolTable
 70
     1
  0
LTYPE
  5
14
330
5
100
AcDbSymbolTableRecord
100
AcDbLinetypeTableRecord
  2
BYBLOCK
 70
     0
  3

 72
    65
 73
     0
 40
0.0
  0
LTYPE
  5
15
330
5
100
AcDbSymbolTableRecord
100
AcDbLinetypeTableRecord
  2
BYLAYER
 70
     0
  3

 72
    65
 73
     0
 40
0.0
  0
LTYPE
  5
16
330
5
100
AcDbSymbolTableRecord
100
AcDbLinetypeTableRecord
  2
CONTINUOUS
 70
     0
  3
Solid line
 72
    65
 73
     0
 40
0.0
  0
ENDTAB
  0
TABLE
  2
LAYER
  5
2
100
AcDbSymbolTable
 70
4
  0
LAYER
  5
50
100
AcDbSymbolTableRecord
100
AcDbLayerTableRecord
  2
0
 70
0
  6
CONTINUOUS
  0
LAYER
  5
51
100
AcDbSymbolTableRecord
100
AcDbLayerTableRecord
  2
Guidelines
 70
0
  6
CONTINUOUS
  0
LAYER
  5
52
100
AcDbSymbolTableRecord
100
AcDbLayerTableRecord
  2
Cut
 70
0
  6
CONTINUOUS
  0
LAYER
  5
53
100
AcDbSymbolTableRecord
100
AcDbLayerTableRecord
  2
Artwork
 70
0
  6
CONTINUOUS
  0
ENDTAB
  0
TABLE
  2
STYLE
  5
3
330
0
100
AcDbSymbolTable
 70
     1
  0
STYLE
  5
11
330
3
100
AcDbSymbolTableRecord
100
AcDbTextStyleTableRecord
  2
STANDARD
 70
     0
 40
0.0
 41
1.0
 50
0.0
 71
     0
 42
2.5
  3
txt
  4

  0
ENDTAB
  0
TABLE
  2
VIEW
  5
6
330
0
100
AcDbSymbolTable
 70
     0
  0
ENDTAB
  0
TABLE
  2
UCS
  5
7
330
0
100
AcDbSymbolTable
 70
     0
  0
ENDTAB
  0
TABLE
  2
APPID
  5
9
330
0
100
AcDbSymbolTable
 70
     2
  0
APPID
  5
12
330
9
100
AcDbSymbolTableRecord
100
AcDbRegAppTableRecord
  2
ACAD
 70
     0
  0
ENDTAB
  0
TABLE
  2
DIMSTYLE
  5
A
330
0
100
AcDbSymbolTable
 70
     1
  0
DIMSTYLE
105
27
330
A
100
AcDbSymbolTableRecord
100
AcDbDimStyleTableRecord
  2
ISO-25
 70
     0
  3

  4

  5

  6

  7

 40
1.0
 41
2.5
 42
0.625
 43
3.75
 44
1.25
 45
0.0
 46
0.0
 47
0.0
 48
0.0
140
2.5
141
2.5
142
0.0
143
0.03937007874016
144
1.0
145
0.0
146
1.0
147
0.625
 71
     0
 72
     0
 73
     0
 74
     0
 75
     0
 76
     0
 77
     1
 78
     8
170
     0
171
     3
172
     1
173
     0
174
     0
175
     0
176
     0
177
     0
178
     0
270
     2
271
     2
272
     2
273
     2
274
     3
340
11
275
     0
280
     0
281
     0
282
     0
283
     0
284
     8
285
     0
286
     0
287
     3
288
     0
  0
ENDTAB
  0
TABLE
  2
BLOCK_RECORD
  5
1
330
0
100
AcDbSymbolTable
 70
     1
  0
BLOCK_RECORD
  5
1F
330
1
100
AcDbSymbolTableRecord
100
AcDbBlockTableRecord
  2
*MODEL_SPACE
  0
BLOCK_RECORD
  5
1B
330
1
100
AcDbSymbolTableRecord
100
AcDbBlockTableRecord
  2
*PAPER_SPACE
  0
ENDTAB
  0
ENDSEC
  0
SECTION
  2
BLOCKS
  0
BLOCK
  5
20
330
1F
100
AcDbEntity
  8
0
100
AcDbBlockBegin
  2
*MODEL_SPACE
 70
     0
 10
0.0
 20
0.0
 30
0.0
  3
*MODEL_SPACE
  1

  0
ENDBLK
  5
21
330
1F
100
AcDbEntity
  8
0
100
AcDbBlockEnd
  0
BLOCK
  5
1C
330
1B
100
AcDbEntity
 67
     1
  8
0
100
AcDbBlockBegin
  2
*PAPER_SPACE
  1

  0
ENDBLK
  5
1D
330
1B
100
AcDbEntity
 67
     1
  8
0
100
AcDbBlockEnd
  0
ENDSEC
  0
SECTION
  2
ENTITIES
  0
SPLINE
  5
100
100
AcDbEntity
  8
Cut
 62
7
100
AcDbSpline
 70
8
 71
3
 72
8
 73
4
 74
0
 40
0
 40
0
 40
0
 40
0
 40
1
 40
1
 40
1
 40
1
 10
27.990000
 20
23.500090
 30
0.0
 10
26.675498
 20
23.500090
 30
0.0
 10
25.490430
 20
22.708253
 30
0.0
 10
24.987392
 20
21.493811
 30
0.0
  0
SPLINE
  5
101
100
AcDbEntity
  8
Cut
 62
7
100
AcDbSpline
 70
8
 71
3
 72
8
 73
4
 74
0
 40
0
 40
0
 40
0
 40
0
 40
1
 40
1
 40
1
 40
1
 10
24.987392
 20
21.493811
 30
0.0
 10
24.484353
 20
20.279369
 30
0.0
 10
24.762409
 20
18.881486
 30
0.0
 10
25.691903
 20
17.951993
 30
0.0
  0
SPLINE
  5
102
100
AcDbEntity
  8
Cut
 62
7
100
AcDbSpline
 70
8
 71
3
 72
8
 73
4
 74
0
 40
0
 40
0
 40
0
 40
0
 40
1
 40
1
 40
1
 40
1
 10
25.691903
 20
17.951993
 30
0.0
 10
26.621396
 20
17.022499
 30
0.0
 10
28.019279
 20
16.744443
 30
0.0
 10
29.233721
 20
17.247482
 30
0.0
  0
SPLINE
  5
103
100
AcDbEntity
  8
Cut
 62
7
100
AcDbSpline
 70
8
 71
3
 72
8
 73
4
 74
0
 40
0
 40
0
 40
0
 40
0
 40
1
 40
1
 40
1
 40
1
 10
29.233721
 20
17.247482
 30
0.0
 10
30.448163
 20
17.750520
 30
0.0
 10
31.240000
 20
18.935588
 30
0.0
 10
31.240000
 20
20.250090
 30
0.0
  0
SPLINE
  5
104
100
AcDbEntity
  8
Cut
 62
7
100
AcDbSpline
 70
8
 71
3
 72
8
 73
4
 74
0
 40
0
 40
0
 40
0
 40
0
 40
1
 40
1
 40
1
 40
1
 10
31.240000
 20
20.250090
 30
0.0
 10
31.240000
 20
21.112044
 30
0.0
 10
30.897590
 20
21.938694
 30
0.0
 10
30.288097
 20
22.548187
 30
0.0
  0
SPLINE
  5
105
100
AcDbEntity
  8
Cut
 62
7
100
AcDbSpline
 70
8
 71
3
 72
8
 73
4
 74
0
 40
0
 40
0
 40
0
 40
0
 40
1
 40
1
 40
1
 40
1
 10
30.288097
 20
22.548187
 30
0.0
 10
29.678604
 20
23.157680
 30
0.0
 10
28.851954
 20
23.500090
 30
0.0
 10
27.990000
 20
23.500090
 30
0.0
  0
SPLINE
  5
106
100
AcDbEntity
  8
Cut
 62
7
100
AcDbSpline
 70
8
 71
3
 72
8
 73
4
 74
0
 40
0
 40
0
 40
0
 40
0
 40
1
 40
1
 40
1
 40
1
 10
27.990000
 20
59.060090
 30
0.0
 10
26.675498
 20
59.060090
 30
0.0
 10
25.490430
 20
58.268253
 30
0.0
 10
24.987392
 20
57.053811
 30
0.0
  0
SPLINE
  5
107
100
AcDbEntity
  8
Cut
 62
7
100
AcDbSpline
 70
8
 71
3
 72
8
 73
4
 74
0
 40
0
 40
0
 40
0
 40
0
 40
1
 40
1
 40
1
 40
1
 10
24.987392
 20
57.053811
 30
0.0
 10
24.484353
 20
55.839369
 30
0.0
 10
24.762409
 20
54.441486
 30
0.0
 10
25.691903
 20
53.511993
 30
0.0
  0
SPLINE
  5
108
100
AcDbEntity
  8
Cut
 62
7
100
AcDbSpline
 70
8
 71
3
 72
8
 73
4
 74
0
 40
0
 40
0
 40
0
 40
0
 40
1
 40
1
 40
1
 40
1
 10
25.691903
 20
53.511993
 30
0.0
 10
26.621396
 20
52.582499
 30
0.0
 10
28.019279
 20
52.304443
 30
0.0
 10
29.233721
 20
52.807482
 30
0.0
  0
SPLINE
  5
109
100
AcDbEntity
  8
Cut
 62
7
100
AcDbSpline
 70
8
 71
3
 72
8
 73
4
 74
0
 40
0
 40
0
 40
0
 40
0
 40
1
 40
1
 40
1
 40
1
 10
29.233721
 20
52.807482
 30
0.0
 10
30.448163
 20
53.310520
 30
0.0
 10
31.240000
 20
54.495588
 30
0.0
 10
31.240000
 20
55.810090
 30
0.0
  0
SPLINE
  5
10a
100
AcDbEntity
  8
Cut
 62
7
100
AcDbSpline
 70
8
 71
3
 72
8
 73
4
 74
0
 40
0
 40
0
 40
0
 40
0
 40
1
 40
1
 40
1
 40
1
 10
31.240000
 20
55.810090
 30
0.0
 10
31.240000
 20
56.672044
 30
0.0
 10
30.897590
 20
57.498694
 30
0.0
 10
30.288097
 20
58.108187
 30
0.0
  0
SPLINE
  5
10b
100
AcDbEntity
  8
Cut
 62
7
100
AcDbSpline
 70
8
 71
3
 72
8
 73
4
 74
0
 40
0
 40
0
 40
0
 40
0
 40
1
 40
1
 40
1
 40
1
 10
30.288097
 20
58.108187
 30
0.0
 10
29.678604
 20
58.717680
 30
0.0
 10
28.851954
 20
59.060090
 30
0.0
 10
27.990000
 20
59.060090
 30
0.0
  0
LWPOLYLINE
  5
10c
100
AcDbEntity
  8
Cut
 62
7
100
AcDbPolyline
 90
1
 70
1
 10
27.990000
 20
23.500090
 30
0.0
  0
SPLINE
  5
10d
100
AcDbEntity
  8
Cut
 62
7
100
AcDbSpline
 70
8
 71
3
 72
8
 73
4
 74
0
 40
0
 40
0
 40
0
 40
0
 40
1
 40
1
 40
1
 40
1
 10
27.990000
 20
94.620090
 30
0.0
 10
26.675498
 20
94.620090
 30
0.0
 10
25.490430
 20
93.828253
 30
0.0
 10
24.987392
 20
92.613811
 30
0.0
  0
SPLINE
  5
10e
100
AcDbEntity
  8
Cut
 62
7
100
AcDbSpline
 70
8
 71
3
 72
8
 73
4
 74
0
 40
0
 40
0
 40
0
 40
0
 40
1
 40
1
 40
1
 40
1
 10
24.987392
 20
92.613811
 30
0.0
 10
24.484353
 20
91.399369
 30
0.0
 10
24.762409
 20
90.001486
 30
0.0
 10
25.691903
 20
89.071993
 30
0.0
  0
SPLINE
  5
10f
100
AcDbEntity
  8
Cut
 62
7
100
AcDbSpline
 70
8
 71
3
 72
8
 73
4
 74
0
 40
0
 40
0
 40
0
 40
0
 40
1
 40
1
 40
1
 40
1
 10
25.691903
 20
89.071993
 30
0.0
 10
26.621396
 20
88.142499
 30
0.0
 10
28.019279
 20
87.864443
 30
0.0
 10
29.233721
 20
88.367482
 30
0.0
  0
SPLINE
  5
110
100
AcDbEntity
  8
Cut
 62
7
100
AcDbSpline
 70
8
 71
3
 72
8
 73
4
 74
0
 40
0
 40
0
 40
0
 40
0
 40
1
 40
1
 40
1
 40
1
 10
29.233721
 20
88.367482
 30
0.0
 10
30.448163
 20
88.870520
 30
0.0
 10
31.240000
 20
90.055588
 30
0.0
 10
31.240000
 20
91.370090
 30
0.0
  0
SPLINE
  5
111
100
AcDbEntity
  8
Cut
 62
7
100
AcDbSpline
 70
8
 71
3
 72
8
 73
4
 74
0
 40
0
 40
0
 40
0
 40
0
 40
1
 40
1
 40
1
 40
1
 10
31.240000
 20
91.370090
 30
0.0
 10
31.240000
 20
92.232044
 30
0.0
 10
30.897590
 20
93.058694
 30
0.0
 10
30.288097
 20
93.668187
 30
0.0
  0
SPLINE
  5
112
100
AcDbEntity
  8
Cut
 62
7
100
AcDbSpline
 70
8
 71
3
 72
8
 73
4
 74
0
 40
0
 40
0
 40
0
 40
0
 40
1
 40
1
 40
1
 40
1
 10
30.288097
 20
93.668187
 30
0.0
 10
29.678604
 20
94.277680
 30
0.0
 10
28.851954
 20
94.620090
 30
0.0
 10
27.990000
 20
94.620090
 30
0.0
  0
LWPOLYLINE
  5
113
100
AcDbEntity
  8
Cut
 62
7
100
AcDbPolyline
 90
1
 70
1
 10
27.990000
 20
59.060090
 30
0.0
  0
SPLINE
  5
114
100
AcDbEntity
  8
Cut
 62
7
100
AcDbSpline
 70
8
 71
3
 72
8
 73
4
 74
0
 40
0
 40
0
 40
0
 40
0
 40
1
 40
1
 40
1
 40
1
 10
27.990000
 20
76.840090
 30
0.0
 10
26.675498
 20
76.840090
 30
0.0
 10
25.490430
 20
76.048253
 30
0.0
 10
24.987392
 20
74.833811
 30
0.0
  0
SPLINE
  5
115
100
AcDbEntity
  8
Cut
 62
7
100
AcDbSpline
 70
8
 71
3
 72
8
 73
4
 74
0
 40
0
 40
0
 40
0
 40
0
 40
1
 40
1
 40
1
 40
1
 10
24.987392
 20
74.833811
 30
0.0
 10
24.484353
 20
73.619369
 30
0.0
 10
24.762409
 20
72.221486
 30
0.0
 10
25.691903
 20
71.291993
 30
0.0
  0
SPLINE
  5
116
100
AcDbEntity
  8
Cut
 62
7
100
AcDbSpline
 70
8
 71
3
 72
8
 73
4
 74
0
 40
0
 40
0
 40
0
 40
0
 40
1
 40
1
 40
1
 40
1
 10
25.691903
 20
71.291993
 30
0.0
 10
26.621396
 20
70.362499
 30
0.0
 10
28.019279
 20
70.084443
 30
0.0
 10
29.233721
 20
70.587482
 30
0.0
  0
SPLINE
  5
117
100
AcDbEntity
  8
Cut
 62
7
100
AcDbSpline
 70
8
 71
3
 72
8
 73
4
 74
0
 40
0
 40
0
 40
0
 40
0
 40
1
 40
1
 40
1
 40
1
 10
29.233721
 20
70.587482
 30
0.0
 10
30.448163
 20
71.090520
 30
0.0
 10
31.240000
 20
72.275588
 30
0.0
 10
31.240000
 20
73.590090
 30
0.0
  0
SPLINE
  5
118
100
AcDbEntity
  8
Cut
 62
7
100
AcDbSpline
 70
8
 71
3
 72
8
 73
4
 74
0
 40
0
 40
0
 40
0
 40
0
 40
1
 40
1
 40
1
 40
1
 10
31.240000
 20
73.590090
 30
0.0
 10
31.240000
 20
74.452044
 30
0.0
 10
30.897590
 20
75.278694
 30
0.0
 10
30.288097
 20
75.888187
 30
0.0
  0
SPLINE
  5
119
100
AcDbEntity
  8
Cut
 62
7
100
AcDbSpline
 70
8
 71
3
 72
8
 73
4
 74
0
 40
0
 40
0
 40
0
 40
0
 40
1
 40
1
 40
1
 40
1
 10
30.288097
 20
75.888187
 30
0.0
 10
29.678604
 20
76.497680
 30
0.0
 10
28.851954
 20
76.840090
 30
0.0
 10
27.990000
 20
76.840090
 30
0.0
  0
LWPOLYLINE
  5
11a
100
AcDbEntity
  8
Cut
 62
7
100
AcDbPolyline
 90
1
 70
1
 10
27.990000
 20
94.620090
 30
0.0
  0
SPLINE
  5
11b
100
AcDbEntity
  8
Cut
 62
7
100
AcDbSpline
 70
8
 71
3
 72
8
 73
4
 74
0
 40
0
 40
0
 40
0
 40
0
 40
1
 40
1
 40
1
 40
1
 10
27.990000
 20
112.400090
 30
0.0
 10
26.675498
 20
112.400090
 30
0.0
 10
25.490430
 20
111.608253
 30
0.0
 10
24.987392
 20
110.393811
 30
0.0
  0
SPLINE
  5
11c
100
AcDbEntity
  8
Cut
 62
7
100
AcDbSpline
 70
8
 71
3
 72
8
 73
4
 74
0
 40
0
 40
0
 40
0
 40
0
 40
1
 40
1
 40
1
 40
1
 10
24.987392
 20
110.393811
 30
0.0
 10
24.484353
 20
109.179369
 30
0.0
 10
24.762409
 20
107.781486
 30
0.0
 10
25.691903
 20
106.851993
 30
0.0
  0
SPLINE
  5
11d
100
AcDbEntity
  8
Cut
 62
7
100
AcDbSpline
 70
8
 71
3
 72
8
 73
4
 74
0
 40
0
 40
0
 40
0
 40
0
 40
1
 40
1
 40
1
 40
1
 10
25.691903
 20
106.851993
 30
0.0
 10
26.621396
 20
105.922499
 30
0.0
 10
28.019279
 20
105.644443
 30
0.0
 10
29.233721
 20
106.147482
 30
0.0
  0
SPLINE
  5
11e
100
AcDbEntity
  8
Cut
 62
7
100
AcDbSpline
 70
8
 71
3
 72
8
 73
4
 74
0
 40
0
 40
0
 40
0
 40
0
 40
1
 40
1
 40
1
 40
1
 10
29.233721
 20
106.147482
 30
0.0
 10
30.448163
 20
106.650520
 30
0.0
 10
31.240000
 20
107.835588
 30
0.0
 10
31.240000
 20
109.150090
 30
0.0
  0
SPLINE
  5
11f
100
AcDbEntity
  8
Cut
 62
7
100
AcDbSpline
 70
8
 71
3
 72
8
 73
4
 74
0
 40
0
 40
0
 40
0
 40
0
 40
1
 40
1
 40
1
 40
1
 10
31.240000
 20
109.150090
 30
0.0
 10
31.240000
 20
110.012044
 30
0.0
 10
30.897590
 20
110.838694
 30
0.0
 10
30.288097
 20
111.448187
 30
0.0
  0
SPLINE
  5
120
100
AcDbEntity
  8
Cut
 62
7
100
AcDbSpline
 70
8
 71
3
 72
8
 73
4
 74
0
 40
0
 40
0
 40
0
 40
0
 40
1
 40
1
 40
1
 40
1
 10
30.288097
 20
111.448187
 30
0.0
 10
29.678604
 20
112.057680
 30
0.0
 10
28.851954
 20
112.400090
 30
0.0
 10
27.990000
 20
112.400090
 30
0.0
  0
LWPOLYLINE
  5
121
100
AcDbEntity
  8
Cut
 62
7
100
AcDbPolyline
 90
1
 70
1
 10
27.990000
 20
76.840090
 30
0.0
  0
SPLINE
  5
122
100
AcDbEntity
  8
Cut
 62
7
100
AcDbSpline
 70
8
 71
3
 72
8
 73
4
 74
0
 40
0
 40
0
 40
0
 40
0
 40
1
 40
1
 40
1
 40
1
 10
48.310000
 20
23.260090
 30
0.0
 10
46.995498
 20
23.260090
 30
0.0
 10
45.810430
 20
22.468253
 30
0.0
 10
45.307392
 20
21.253811
 30
0.0
  0
SPLINE
  5
123
100
AcDbEntity
  8
Cut
 62
7
100
AcDbSpline
 70
8
 71
3
 72
8
 73
4
 74
0
 40
0
 40
0
 40
0
 40
0
 40
1
 40
1
 40
1
 40
1
 10
45.307392
 20
21.253811
 30
0.0
 10
44.804353
 20
20.039369
 30
0.0
 10
45.082409
 20
18.641486
 30
0.0
 10
46.011903
 20
17.711993
 30
0.0
  0
SPLINE
  5
124
100
AcDbEntity
  8
Cut
 62
7
100
AcDbSpline
 70
8
 71
3
 72
8
 73
4
 74
0
 40
0
 40
0
 40
0
 40
0
 40
1
 40
1
 40
1
 40
1
 10
46.011903
 20
17.711993
 30
0.0
 10
46.941396
 20
16.782499
 30
0.0
 10
48.339279
 20
16.504443
 30
0.0
 10
49.553721
 20
17.007482
 30
0.0
  0
SPLINE
  5
125
100
AcDbEntity
  8
Cut
 62
7
100
AcDbSpline
 70
8
 71
3
 72
8
 73
4
 74
0
 40
0
 40
0
 40
0
 40
0
 40
1
 40
1
 40
1
 40
1
 10
49.553721
 20
17.007482
 30
0.0
 10
50.768163
 20
17.510520
 30
0.0
 10
51.560000
 20
18.695588
 30
0.0
 10
51.560000
 20
20.010090
 30
0.0
  0
SPLINE
  5
126
100
AcDbEntity
  8
Cut
 62
7
100
AcDbSpline
 70
8
 71
3
 72
8
 73
4
 74
0
 40
0
 40
0
 40
0
 40
0
 40
1
 40
1
 40
1
 40
1
 10
51.560000
 20
20.010090
 30
0.0
 10
51.560000
 20
20.872044
 30
0.0
 10
51.217590
 20
21.698694
 30
0.0
 10
50.608097
 20
22.308187
 30
0.0
  0
SPLINE
  5
127
100
AcDbEntity
  8
Cut
 62
7
100
AcDbSpline
 70
8
 71
3
 72
8
 73
4
 74
0
 40
0
 40
0
 40
0
 40
0
 40
1
 40
1
 40
1
 40
1
 10
50.608097
 20
22.308187
 30
0.0
 10
49.998604
 20
22.917680
 30
0.0
 10
49.171954
 20
23.260090
 30
0.0
 10
48.310000
 20
23.260090
 30
0.0
  0
LWPOLYLINE
  5
128
100
AcDbEntity
  8
Cut
 62
7
100
AcDbPolyline
 90
1
 70
1
 10
27.990000
 20
112.400090
 30
0.0
  0
SPLINE
  5
129
100
AcDbEntity
  8
Cut
 62
7
100
AcDbSpline
 70
8
 71
3
 72
8
 73
4
 74
0
 40
0
 40
0
 40
0
 40
0
 40
1
 40
1
 40
1
 40
1
 10
10.210000
 20
74.060090
 30
0.0
 10
8.895498
 20
74.060090
 30
0.0
 10
7.710430
 20
73.268253
 30
0.0
 10
7.207392
 20
72.053811
 30
0.0
  0
SPLINE
  5
12a
100
AcDbEntity
  8
Cut
 62
7
100
AcDbSpline
 70
8
 71
3
 72
8
 73
4
 74
0
 40
0
 40
0
 40
0
 40
0
 40
1
 40
1
 40
1
 40
1
 10
7.207392
 20
72.053811
 30
0.0
 10
6.704353
 20
70.839369
 30
0.0
 10
6.982409
 20
69.441486
 30
0.0
 10
7.911903
 20
68.511993
 30
0.0
  0
SPLINE
  5
12b
100
AcDbEntity
  8
Cut
 62
7
100
AcDbSpline
 70
8
 71
3
 72
8
 73
4
 74
0
 40
0
 40
0
 40
0
 40
0
 40
1
 40
1
 40
1
 40
1
 10
7.911903
 20
68.511993
 30
0.0
 10
8.841396
 20
67.582499
 30
0.0
 10
10.239279
 20
67.304443
 30
0.0
 10
11.453721
 20
67.807482
 30
0.0
  0
SPLINE
  5
12c
100
AcDbEntity
  8
Cut
 62
7
100
AcDbSpline
 70
8
 71
3
 72
8
 73
4
 74
0
 40
0
 40
0
 40
0
 40
0
 40
1
 40
1
 40
1
 40
1
 10
11.453721
 20
67.807482
 30
0.0
 10
12.668163
 20
68.310520
 30
0.0
 10
13.460000
 20
69.495588
 30
0.0
 10
13.460000
 20
70.810090
 30
0.0
  0
SPLINE
  5
12d
100
AcDbEntity
  8
Cut
 62
7
100
AcDbSpline
 70
8
 71
3
 72
8
 73
4
 74
0
 40
0
 40
0
 40
0
 40
0
 40
1
 40
1
 40
1
 40
1
 10
13.460000
 20
70.810090
 30
0.0
 10
13.460000
 20
71.672044
 30
0.0
 10
13.117590
 20
72.498694
 30
0.0
 10
12.508097
 20
73.108187
 30
0.0
  0
SPLINE
  5
12e
100
AcDbEntity
  8
Cut
 62
7
100
AcDbSpline
 70
8
 71
3
 72
8
 73
4
 74
0
 40
0
 40
0
 40
0
 40
0
 40
1
 40
1
 40
1
 40
1
 10
12.508097
 20
73.108187
 30
0.0
 10
11.898604
 20
73.717680
 30
0.0
 10
11.071954
 20
74.060090
 30
0.0
 10
10.210000
 20
74.060090
 30
0.0
  0
LWPOLYLINE
  5
12f
100
AcDbEntity
  8
Cut
 62
7
100
AcDbPolyline
 90
1
 70
1
 10
48.310000
 20
23.260090
 30
0.0
  0
SPLINE
  5
130
100
AcDbEntity
  8
Cut
 62
7
100
AcDbSpline
 70
8
 71
3
 72
8
 73
4
 74
0
 40
0
 40
0
 40
0
 40
0
 40
1
 40
1
 40
1
 40
1
 10
10.210000
 20
23.500090
 30
0.0
 10
8.895498
 20
23.500090
 30
0.0
 10
7.710430
 20
22.708253
 30
0.0
 10
7.207392
 20
21.493811
 30
0.0
  0
SPLINE
  5
131
100
AcDbEntity
  8
Cut
 62
7
100
AcDbSpline
 70
8
 71
3
 72
8
 73
4
 74
0
 40
0
 40
0
 40
0
 40
0
 40
1
 40
1
 40
1
 40
1
 10
7.207392
 20
21.493811
 30
0.0
 10
6.704353
 20
20.279369
 30
0.0
 10
6.982409
 20
18.881486
 30
0.0
 10
7.911903
 20
17.951993
 30
0.0
  0
SPLINE
  5
132
100
AcDbEntity
  8
Cut
 62
7
100
AcDbSpline
 70
8
 71
3
 72
8
 73
4
 74
0
 40
0
 40
0
 40
0
 40
0
 40
1
 40
1
 40
1
 40
1
 10
7.911903
 20
17.951993
 30
0.0
 10
8.841396
 20
17.022499
 30
0.0
 10
10.239279
 20
16.744443
 30
0.0
 10
11.453721
 20
17.247482
 30
0.0
  0
SPLINE
  5
133
100
AcDbEntity
  8
Cut
 62
7
100
AcDbSpline
 70
8
 71
3
 72
8
 73
4
 74
0
 40
0
 40
0
 40
0
 40
0
 40
1
 40
1
 40
1
 40
1
 10
11.453721
 20
17.247482
 30
0.0
 10
12.668163
 20
17.750520
 30
0.0
 10
13.460000
 20
18.935588
 30
0.0
 10
13.460000
 20
20.250090
 30
0.0
  0
SPLINE
  5
134
100
AcDbEntity
  8
Cut
 62
7
100
AcDbSpline
 70
8
 71
3
 72
8
 73
4
 74
0
 40
0
 40
0
 40
0
 40
0
 40
1
 40
1
 40
1
 40
1
 10
13.460000
 20
20.250090
 30
0.0
 10
13.460000
 20
21.112044
 30
0.0
 10
13.117590
 20
21.938694
 30
0.0
 10
12.508097
 20
22.548187
 30
0.0
  0
SPLINE
  5
135
100
AcDbEntity
  8
Cut
 62
7
100
AcDbSpline
 70
8
 71
3
 72
8
 73
4
 74
0
 40
0
 40
0
 40
0
 40
0
 40
1
 40
1
 40
1
 40
1
 10
12.508097
 20
22.548187
 30
0.0
 10
11.898604
 20
23.157680
 30
0.0
 10
11.071954
 20
23.500090
 30
0.0
 10
10.210000
 20
23.500090
 30
0.0
  0
LWPOLYLINE
  5
136
100
AcDbEntity
  8
Cut
 62
7
100
AcDbPolyline
 90
1
 70
1
 10
10.210000
 20
74.060090
 30
0.0
  0
SPLINE
  5
137
100
AcDbEntity
  8
Cut
 62
7
100
AcDbSpline
 70
8
 71
3
 72
8
 73
4
 74
0
 40
0
 40
0
 40
0
 40
0
 40
1
 40
1
 40
1
 40
1
 10
10.210000
 20
109.620090
 30
0.0
 10
8.895498
 20
109.620090
 30
0.0
 10
7.710430
 20
108.828253
 30
0.0
 10
7.207392
 20
107.613811
 30
0.0
  0
SPLINE
  5
138
100
AcDbEntity
  8
Cut
 62
7
100
AcDbSpline
 70
8
 71
3
 72
8
 73
4
 74
0
 40
0
 40
0
 40
0
 40
0
 40
1
 40
1
 40
1
 40
1
 10
7.207392
 20
107.613811
 30
0.0
 10
6.704353
 20
106.399369
 30
0.0
 10
6.982409
 20
105.001486
 30
0.0
 10
7.911903
 20
104.071993
 30
0.0
  0
SPLINE
  5
139
100
AcDbEntity
  8
Cut
 62
7
100
AcDbSpline
 70
8
 71
3
 72
8
 73
4
 74
0
 40
0
 40
0
 40
0
 40
0
 40
1
 40
1
 40
1
 40
1
 10
7.911903
 20
104.071993
 30
0.0
 10
8.841396
 20
103.142499
 30
0.0
 10
10.239279
 20
102.864443
 30
0.0
 10
11.453721
 20
103.367482
 30
0.0
  0
SPLINE
  5
13a
100
AcDbEntity
  8
Cut
 62
7
100
AcDbSpline
 70
8
 71
3
 72
8
 73
4
 74
0
 40
0
 40
0
 40
0
 40
0
 40
1
 40
1
 40
1
 40
1
 10
11.453721
 20
103.367482
 30
0.0
 10
12.668163
 20
103.870520
 30
0.0
 10
13.460000
 20
105.055588
 30
0.0
 10
13.460000
 20
106.370090
 30
0.0
  0
SPLINE
  5
13b
100
AcDbEntity
  8
Cut
 62
7
100
AcDbSpline
 70
8
 71
3
 72
8
 73
4
 74
0
 40
0
 40
0
 40
0
 40
0
 40
1
 40
1
 40
1
 40
1
 10
13.460000
 20
106.370090
 30
0.0
 10
13.460000
 20
107.232044
 30
0.0
 10
13.117590
 20
108.058694
 30
0.0
 10
12.508097
 20
108.668187
 30
0.0
  0
SPLINE
  5
13c
100
AcDbEntity
  8
Cut
 62
7
100
AcDbSpline
 70
8
 71
3
 72
8
 73
4
 74
0
 40
0
 40
0
 40
0
 40
0
 40
1
 40
1
 40
1
 40
1
 10
12.508097
 20
108.668187
 30
0.0
 10
11.898604
 20
109.277680
 30
0.0
 10
11.071954
 20
109.620090
 30
0.0
 10
10.210000
 20
109.620090
 30
0.0
  0
LWPOLYLINE
  5
13d
100
AcDbEntity
  8
Cut
 62
7
100
AcDbPolyline
 90
1
 70
1
 10
10.210000
 20
23.500090
 30
0.0
  0
SPLINE
  5
13e
100
AcDbEntity
  8
Cut
 62
7
100
AcDbSpline
 70
8
 71
3
 72
8
 73
4
 74
0
 40
0
 40
0
 40
0
 40
0
 40
1
 40
1
 40
1
 40
1
 10
10.210000
 20
94.620090
 30
0.0
 10
8.895498
 20
94.620090
 30
0.0
 10
7.710430
 20
93.828253
 30
0.0
 10
7.207392
 20
92.613811
 30
0.0
  0
SPLINE
  5
13f
100
AcDbEntity
  8
Cut
 62
7
100
AcDbSpline
 70
8
 71
3
 72
8
 73
4
 74
0
 40
0
 40
0
 40
0
 40
0
 40
1
 40
1
 40
1
 40
1
 10
7.207392
 20
92.613811
 30
0.0
 10
6.704353
 20
91.399369
 30
0.0
 10
6.982409
 20
90.001486
 30
0.0
 10
7.911903
 20
89.071993
 30
0.0
  0
SPLINE
  5
140
100
AcDbEntity
  8
Cut
 62
7
100
AcDbSpline
 70
8
 71
3
 72
8
 73
4
 74
0
 40
0
 40
0
 40
0
 40
0
 40
1
 40
1
 40
1
 40
1
 10
7.911903
 20
89.071993
 30
0.0
 10
8.841396
 20
88.142499
 30
0.0
 10
10.239279
 20
87.864443
 30
0.0
 10
11.453721
 20
88.367482
 30
0.0
  0
SPLINE
  5
141
100
AcDbEntity
  8
Cut
 62
7
100
AcDbSpline
 70
8
 71
3
 72
8
 73
4
 74
0
 40
0
 40
0
 40
0
 40
0
 40
1
 40
1
 40
1
 40
1
 10
11.453721
 20
88.367482
 30
0.0
 10
12.668163
 20
88.870520
 30
0.0
 10
13.460000
 20
90.055588
 30
0.0
 10
13.460000
 20
91.370090
 30
0.0
  0
SPLINE
  5
142
100
AcDbEntity
  8
Cut
 62
7
100
AcDbSpline
 70
8
 71
3
 72
8
 73
4
 74
0
 40
0
 40
0
 40
0
 40
0
 40
1
 40
1
 40
1
 40
1
 10
13.460000
 20
91.370090
 30
0.0
 10
13.460000
 20
92.232044
 30
0.0
 10
13.117590
 20
93.058694
 30
0.0
 10
12.508097
 20
93.668187
 30
0.0
  0
SPLINE
  5
143
100
AcDbEntity
  8
Cut
 62
7
100
AcDbSpline
 70
8
 71
3
 72
8
 73
4
 74
0
 40
0
 40
0
 40
0
 40
0
 40
1
 40
1
 40
1
 40
1
 10
12.508097
 20
93.668187
 30
0.0
 10
11.898604
 20
94.277680
 30
0.0
 10
11.071954
 20
94.620090
 30
0.0
 10
10.210000
 20
94.620090
 30
0.0
  0
LWPOLYLINE
  5
144
100
AcDbEntity
  8
Cut
 62
7
100
AcDbPolyline
 90
1
 70
1
 10
10.210000
 20
109.620090
 30
0.0
  0
SPLINE
  5
145
100
AcDbEntity
  8
Cut
 62
7
100
AcDbSpline
 70
8
 71
3
 72
8
 73
4
 74
0
 40
0
 40
0
 40
0
 40
0
 40
1
 40
1
 40
1
 40
1
 10
48.310000
 20
38.500090
 30
0.0
 10
46.995498
 20
38.500090
 30
0.0
 10
45.810430
 20
37.708253
 30
0.0
 10
45.307392
 20
36.493811
 30
0.0
  0
SPLINE
  5
146
100
AcDbEntity
  8
Cut
 62
7
100
AcDbSpline
 70
8
 71
3
 72
8
 73
4
 74
0
 40
0
 40
0
 40
0
 40
0
 40
1
 40
1
 40
1
 40
1
 10
45.307392
 20
36.493811
 30
0.0
 10
44.804353
 20
35.279369
 30
0.0
 10
45.082409
 20
33.881486
 30
0.0
 10
46.011903
 20
32.951993
 30
0.0
  0
SPLINE
  5
147
100
AcDbEntity
  8
Cut
 62
7
100
AcDbSpline
 70
8
 71
3
 72
8
 73
4
 74
0
 40
0
 40
0
 40
0
 40
0
 40
1
 40
1
 40
1
 40
1
 10
46.011903
 20
32.951993
 30
0.0
 10
46.941396
 20
32.022499
 30
0.0
 10
48.339279
 20
31.744443
 30
0.0
 10
49.553721
 20
32.247482
 30
0.0
  0
SPLINE
  5
148
100
AcDbEntity
  8
Cut
 62
7
100
AcDbSpline
 70
8
 71
3
 72
8
 73
4
 74
0
 40
0
 40
0
 40
0
 40
0
 40
1
 40
1
 40
1
 40
1
 10
49.553721
 20
32.247482
 30
0.0
 10
50.768163
 20
32.750520
 30
0.0
 10
51.560000
 20
33.935588
 30
0.0
 10
51.560000
 20
35.250090
 30
0.0
  0
SPLINE
  5
149
100
AcDbEntity
  8
Cut
 62
7
100
AcDbSpline
 70
8
 71
3
 72
8
 73
4
 74
0
 40
0
 40
0
 40
0
 40
0
 40
1
 40
1
 40
1
 40
1
 10
51.560000
 20
35.250090
 30
0.0
 10
51.560000
 20
36.112044
 30
0.0
 10
51.217590
 20
36.938694
 30
0.0
 10
50.608097
 20
37.548187
 30
0.0
  0
SPLINE
  5
14a
100
AcDbEntity
  8
Cut
 62
7
100
AcDbSpline
 70
8
 71
3
 72
8
 73
4
 74
0
 40
0
 40
0
 40
0
 40
0
 40
1
 40
1
 40
1
 40
1
 10
50.608097
 20
37.548187
 30
0.0
 10
49.998604
 20
38.157680
 30
0.0
 10
49.171954
 20
38.500090
 30
0.0
 10
48.310000
 20
38.500090
 30
0.0
  0
LWPOLYLINE
  5
14b
100
AcDbEntity
  8
Cut
 62
7
100
AcDbPolyline
 90
1
 70
1
 10
10.210000
 20
94.620090
 30
0.0
  0
SPLINE
  5
14c
100
AcDbEntity
  8
Cut
 62
7
100
AcDbSpline
 70
8
 71
3
 72
8
 73
4
 74
0
 40
0
 40
0
 40
0
 40
0
 40
1
 40
1
 40
1
 40
1
 10
48.310000
 20
53.980090
 30
0.0
 10
46.995498
 20
53.980090
 30
0.0
 10
45.810430
 20
53.188253
 30
0.0
 10
45.307392
 20
51.973811
 30
0.0
  0
SPLINE
  5
14d
100
AcDbEntity
  8
Cut
 62
7
100
AcDbSpline
 70
8
 71
3
 72
8
 73
4
 74
0
 40
0
 40
0
 40
0
 40
0
 40
1
 40
1
 40
1
 40
1
 10
45.307392
 20
51.973811
 30
0.0
 10
44.804353
 20
50.759369
 30
0.0
 10
45.082409
 20
49.361486
 30
0.0
 10
46.011903
 20
48.431993
 30
0.0
  0
SPLINE
  5
14e
100
AcDbEntity
  8
Cut
 62
7
100
AcDbSpline
 70
8
 71
3
 72
8
 73
4
 74
0
 40
0
 40
0
 40
0
 40
0
 40
1
 40
1
 40
1
 40
1
 10
46.011903
 20
48.431993
 30
0.0
 10
46.941396
 20
47.502499
 30
0.0
 10
48.339279
 20
47.224443
 30
0.0
 10
49.553721
 20
47.727482
 30
0.0
  0
SPLINE
  5
14f
100
AcDbEntity
  8
Cut
 62
7
100
AcDbSpline
 70
8
 71
3
 72
8
 73
4
 74
0
 40
0
 40
0
 40
0
 40
0
 40
1
 40
1
 40
1
 40
1
 10
49.553721
 20
47.727482
 30
0.0
 10
50.768163
 20
48.230520
 30
0.0
 10
51.560000
 20
49.415588
 30
0.0
 10
51.560000
 20
50.730090
 30
0.0
  0
SPLINE
  5
150
100
AcDbEntity
  8
Cut
 62
7
100
AcDbSpline
 70
8
 71
3
 72
8
 73
4
 74
0
 40
0
 40
0
 40
0
 40
0
 40
1
 40
1
 40
1
 40
1
 10
51.560000
 20
50.730090
 30
0.0
 10
51.560000
 20
51.592044
 30
0.0
 10
51.217590
 20
52.418694
 30
0.0
 10
50.608097
 20
53.028187
 30
0.0
  0
SPLINE
  5
151
100
AcDbEntity
  8
Cut
 62
7
100
AcDbSpline
 70
8
 71
3
 72
8
 73
4
 74
0
 40
0
 40
0
 40
0
 40
0
 40
1
 40
1
 40
1
 40
1
 10
50.608097
 20
53.028187
 30
0.0
 10
49.998604
 20
53.637680
 30
0.0
 10
49.171954
 20
53.980090
 30
0.0
 10
48.310000
 20
53.980090
 30
0.0
  0
LWPOLYLINE
  5
152
100
AcDbEntity
  8
Cut
 62
7
100
AcDbPolyline
 90
1
 70
1
 10
48.310000
 20
38.500090
 30
0.0
  0
LWPOLYLINE
  5
153
100
AcDbEntity
  8
Cut
 62
7
100
AcDbPolyline
 90
1
 70
1
 10
48.310000
 20
53.980090
 30
0.0
  0
LWPOLYLINE
  5
154
100
AcDbEntity
  8
Cut
 62
7
100
AcDbPolyline
 90
2
 70
0
 10
49.580000
 20
126.900090
 30
0.0
 10
52.120000
 20
126.900090
 30
0.0
  0
LWPOLYLINE
  5
155
100
AcDbEntity
  8
Cut
 62
7
100
AcDbPolyline
 90
2
 70
0
 10
49.580000
 20
123.700090
 30
0.0
 10
52.120000
 20
123.700090
 30
0.0
  0
LWPOLYLINE
  5
156
100
AcDbEntity
  8
Cut
 62
7
100
AcDbPolyline
 90
2
 70
0
 10
49.580000
 20
4.400090
 30
0.0
 10
52.120000
 20
4.400090
 30
0.0
  0
SPLINE
  5
157
100
AcDbEntity
  8
Cut
 62
7
100
AcDbSpline
 70
8
 71
3
 72
8
 73
4
 74
0
 40
0
 40
0
 40
0
 40
0
 40
1
 40
1
 40
1
 40
1
 10
52.120000
 20
1.200090
 30
0.0
 10
52.691625
 20
1.200090
 30
0.0
 10
53.219828
 20
1.505048
 30
0.0
 10
53.505641
 20
2.000090
 30
0.0
  0
SPLINE
  5
158
100
AcDbEntity
  8
Cut
 62
7
100
AcDbSpline
 70
8
 71
3
 72
8
 73
4
 74
0
 40
0
 40
0
 40
0
 40
0
 40
1
 40
1
 40
1
 40
1
 10
53.505641
 20
2.000090
 30
0.0
 10
53.791453
 20
2.495132
 30
0.0
 10
53.791453
 20
3.105048
 30
0.0
 10
53.505641
 20
3.600090
 30
0.0
  0
SPLINE
  5
159
100
AcDbEntity
  8
Cut
 62
7
100
AcDbSpline
 70
8
 71
3
 72
8
 73
4
 74
0
 40
0
 40
0
 40
0
 40
0
 40
1
 40
1
 40
1
 40
1
 10
53.505641
 20
3.600090
 30
0.0
 10
53.219828
 20
4.095132
 30
0.0
 10
52.691625
 20
4.400090
 30
0.0
 10
52.120000
 20
4.400090
 30
0.0
  0
SPLINE
  5
15a
100
AcDbEntity
  8
Cut
 62
7
100
AcDbSpline
 70
8
 71
3
 72
8
 73
4
 74
0
 40
0
 40
0
 40
0
 40
0
 40
1
 40
1
 40
1
 40
1
 10
49.580000
 20
4.400090
 30
0.0
 10
49.008375
 20
4.400090
 30
0.0
 10
48.480172
 20
4.095132
 30
0.0
 10
48.194359
 20
3.600090
 30
0.0
  0
SPLINE
  5
15b
100
AcDbEntity
  8
Cut
 62
7
100
AcDbSpline
 70
8
 71
3
 72
8
 73
4
 74
0
 40
0
 40
0
 40
0
 40
0
 40
1
 40
1
 40
1
 40
1
 10
48.194359
 20
3.600090
 30
0.0
 10
47.908547
 20
3.105048
 30
0.0
 10
47.908547
 20
2.495132
 30
0.0
 10
48.194359
 20
2.000090
 30
0.0
  0
SPLINE
  5
15c
100
AcDbEntity
  8
Cut
 62
7
100
AcDbSpline
 70
8
 71
3
 72
8
 73
4
 74
0
 40
0
 40
0
 40
0
 40
0
 40
1
 40
1
 40
1
 40
1
 10
48.194359
 20
2.000090
 30
0.0
 10
48.480172
 20
1.505048
 30
0.0
 10
49.008375
 20
1.200090
 30
0.0
 10
49.580000
 20
1.200090
 30
0.0
  0
SPLINE
  5
15d
100
AcDbEntity
  8
Cut
 62
7
100
AcDbSpline
 70
8
 71
3
 72
8
 73
4
 74
0
 40
0
 40
0
 40
0
 40
0
 40
1
 40
1
 40
1
 40
1
 10
52.120000
 20
123.700090
 30
0.0
 10
52.691625
 20
123.700090
 30
0.0
 10
53.219828
 20
124.005048
 30
0.0
 10
53.505641
 20
124.500090
 30
0.0
  0
SPLINE
  5
15e
100
AcDbEntity
  8
Cut
 62
7
100
AcDbSpline
 70
8
 71
3
 72
8
 73
4
 74
0
 40
0
 40
0
 40
0
 40
0
 40
1
 40
1
 40
1
 40
1
 10
53.505641
 20
124.500090
 30
0.0
 10
53.791453
 20
124.995132
 30
0.0
 10
53.791453
 20
125.605048
 30
0.0
 10
53.505641
 20
126.100090
 30
0.0
  0
SPLINE
  5
15f
100
AcDbEntity
  8
Cut
 62
7
100
AcDbSpline
 70
8
 71
3
 72
8
 73
4
 74
0
 40
0
 40
0
 40
0
 40
0
 40
1
 40
1
 40
1
 40
1
 10
53.505641
 20
126.100090
 30
0.0
 10
53.219828
 20
126.595132
 30
0.0
 10
52.691625
 20
126.900090
 30
0.0
 10
52.120000
 20
126.900090
 30
0.0
  0
SPLINE
  5
160
100
AcDbEntity
  8
Cut
 62
7
100
AcDbSpline
 70
8
 71
3
 72
8
 73
4
 74
0
 40
0
 40
0
 40
0
 40
0
 40
1
 40
1
 40
1
 40
1
 10
49.580000
 20
126.900090
 30
0.0
 10
49.008375
 20
126.900090
 30
0.0
 10
48.480172
 20
126.595132
 30
0.0
 10
48.194359
 20
126.100090
 30
0.0
  0
SPLINE
  5
161
100
AcDbEntity
  8
Cut
 62
7
100
AcDbSpline
 70
8
 71
3
 72
8
 73
4
 74
0
 40
0
 40
0
 40
0
 40
0
 40
1
 40
1
 40
1
 40
1
 10
48.194359
 20
126.100090
 30
0.0
 10
47.908547
 20
125.605048
 30
0.0
 10
47.908547
 20
124.995132
 30
0.0
 10
48.194359
 20
124.500090
 30
0.0
  0
SPLINE
  5
162
100
AcDbEntity
  8
Cut
 62
7
100
AcDbSpline
 70
8
 71
3
 72
8
 73
4
 74
0
 40
0
 40
0
 40
0
 40
0
 40
1
 40
1
 40
1
 40
1
 10
48.194359
 20
124.500090
 30
0.0
 10
48.480172
 20
124.005048
 30
0.0
 10
49.008375
 20
123.700090
 30
0.0
 10
49.580000
 20
123.700090
 30
0.0
  0
SPLINE
  5
163
100
AcDbEntity
  8
Cut
 62
7
100
AcDbSpline
 70
8
 71
3
 72
8
 73
4
 74
0
 40
0
 40
0
 40
0
 40
0
 40
1
 40
1
 40
1
 40
1
 10
10.210000
 20
59.060090
 30
0.0
 10
8.895498
 20
59.060090
 30
0.0
 10
7.710430
 20
58.268253
 30
0.0
 10
7.207392
 20
57.053811
 30
0.0
  0
SPLINE
  5
164
100
AcDbEntity
  8
Cut
 62
7
100
AcDbSpline
 70
8
 71
3
 72
8
 73
4
 74
0
 40
0
 40
0
 40
0
 40
0
 40
1
 40
1
 40
1
 40
1
 10
7.207392
 20
57.053811
 30
0.0
 10
6.704353
 20
55.839369
 30
0.0
 10
6.982409
 20
54.441486
 30
0.0
 10
7.911903
 20
53.511993
 30
0.0
  0
SPLINE
  5
165
100
AcDbEntity
  8
Cut
 62
7
100
AcDbSpline
 70
8
 71
3
 72
8
 73
4
 74
0
 40
0
 40
0
 40
0
 40
0
 40
1
 40
1
 40
1
 40
1
 10
7.911903
 20
53.511993
 30
0.0
 10
8.841396
 20
52.582499
 30
0.0
 10
10.239279
 20
52.304443
 30
0.0
 10
11.453721
 20
52.807482
 30
0.0
  0
SPLINE
  5
166
100
AcDbEntity
  8
Cut
 62
7
100
AcDbSpline
 70
8
 71
3
 72
8
 73
4
 74
0
 40
0
 40
0
 40
0
 40
0
 40
1
 40
1
 40
1
 40
1
 10
11.453721
 20
52.807482
 30
0.0
 10
12.668163
 20
53.310520
 30
0.0
 10
13.460000
 20
54.495588
 30
0.0
 10
13.460000
 20
55.810090
 30
0.0
  0
SPLINE
  5
167
100
AcDbEntity
  8
Cut
 62
7
100
AcDbSpline
 70
8
 71
3
 72
8
 73
4
 74
0
 40
0
 40
0
 40
0
 40
0
 40
1
 40
1
 40
1
 40
1
 10
13.460000
 20
55.810090
 30
0.0
 10
13.460000
 20
56.672044
 30
0.0
 10
13.117590
 20
57.498694
 30
0.0
 10
12.508097
 20
58.108187
 30
0.0
  0
SPLINE
  5
168
100
AcDbEntity
  8
Cut
 62
7
100
AcDbSpline
 70
8
 71
3
 72
8
 73
4
 74
0
 40
0
 40
0
 40
0
 40
0
 40
1
 40
1
 40
1
 40
1
 10
12.508097
 20
58.108187
 30
0.0
 10
11.898604
 20
58.717680
 30
0.0
 10
11.071954
 20
59.060090
 30
0.0
 10
10.210000
 20
59.060090
 30
0.0
  0
LWPOLYLINE
  5
169
100
AcDbEntity
  8
Cut
 62
7
100
AcDbPolyline
 90
2
 70
0
 10
49.580000
 20
1.200090
 30
0.0
 10
52.120000
 20
1.200090
 30
0.0
  0
SPLINE
  5
16a
100
AcDbEntity
  8
Cut
 62
7
100
AcDbSpline
 70
8
 71
3
 72
8
 73
4
 74
0
 40
0
 40
0
 40
0
 40
0
 40
1
 40
1
 40
1
 40
1
 10
27.990000
 20
41.280090
 30
0.0
 10
26.675498
 20
41.280090
 30
0.0
 10
25.490430
 20
40.488253
 30
0.0
 10
24.987392
 20
39.273811
 30
0.0
  0
SPLINE
  5
16b
100
AcDbEntity
  8
Cut
 62
7
100
AcDbSpline
 70
8
 71
3
 72
8
 73
4
 74
0
 40
0
 40
0
 40
0
 40
0
 40
1
 40
1
 40
1
 40
1
 10
24.987392
 20
39.273811
 30
0.0
 10
24.484353
 20
38.059369
 30
0.0
 10
24.762409
 20
36.661486
 30
0.0
 10
25.691903
 20
35.731993
 30
0.0
  0
SPLINE
  5
16c
100
AcDbEntity
  8
Cut
 62
7
100
AcDbSpline
 70
8
 71
3
 72
8
 73
4
 74
0
 40
0
 40
0
 40
0
 40
0
 40
1
 40
1
 40
1
 40
1
 10
25.691903
 20
35.731993
 30
0.0
 10
26.621396
 20
34.802499
 30
0.0
 10
28.019279
 20
34.524443
 30
0.0
 10
29.233721
 20
35.027482
 30
0.0
  0
SPLINE
  5
16d
100
AcDbEntity
  8
Cut
 62
7
100
AcDbSpline
 70
8
 71
3
 72
8
 73
4
 74
0
 40
0
 40
0
 40
0
 40
0
 40
1
 40
1
 40
1
 40
1
 10
29.233721
 20
35.027482
 30
0.0
 10
30.448163
 20
35.530520
 30
0.0
 10
31.240000
 20
36.715588
 30
0.0
 10
31.240000
 20
38.030090
 30
0.0
  0
SPLINE
  5
16e
100
AcDbEntity
  8
Cut
 62
7
100
AcDbSpline
 70
8
 71
3
 72
8
 73
4
 74
0
 40
0
 40
0
 40
0
 40
0
 40
1
 40
1
 40
1
 40
1
 10
31.240000
 20
38.030090
 30
0.0
 10
31.240000
 20
38.892044
 30
0.0
 10
30.897590
 20
39.718694
 30
0.0
 10
30.288097
 20
40.328187
 30
0.0
  0
SPLINE
  5
16f
100
AcDbEntity
  8
Cut
 62
7
100
AcDbSpline
 70
8
 71
3
 72
8
 73
4
 74
0
 40
0
 40
0
 40
0
 40
0
 40
1
 40
1
 40
1
 40
1
 10
30.288097
 20
40.328187
 30
0.0
 10
29.678604
 20
40.937680
 30
0.0
 10
28.851954
 20
41.280090
 30
0.0
 10
27.990000
 20
41.280090
 30
0.0
  0
LWPOLYLINE
  5
170
100
AcDbEntity
  8
Cut
 62
7
100
AcDbPolyline
 90
1
 70
1
 10
10.210000
 20
59.060090
 30
0.0
  0
LWPOLYLINE
  5
171
100
AcDbEntity
  8
Cut
 62
7
100
AcDbPolyline
 90
1
 70
1
 10
27.990000
 20
41.280090
 30
0.0
  0
LWPOLYLINE
  5
172
100
AcDbEntity
  8
Cut
 62
7
100
AcDbPolyline
 90
2
 70
0
 10
6.400000
 20
126.900090
 30
0.0
 10
8.940000
 20
126.900090
 30
0.0
  0
LWPOLYLINE
  5
173
100
AcDbEntity
  8
Cut
 62
7
100
AcDbPolyline
 90
2
 70
0
 10
6.400000
 20
123.700090
 30
0.0
 10
8.940000
 20
123.700090
 30
0.0
  0
LWPOLYLINE
  5
174
100
AcDbEntity
  8
Cut
 62
7
100
AcDbPolyline
 90
2
 70
0
 10
6.400000
 20
4.400090
 30
0.0
 10
8.940000
 20
4.400090
 30
0.0
  0
SPLINE
  5
175
100
AcDbEntity
  8
Cut
 62
7
100
AcDbSpline
 70
8
 71
3
 72
8
 73
4
 74
0
 40
0
 40
0
 40
0
 40
0
 40
1
 40
1
 40
1
 40
1
 10
8.940000
 20
1.200090
 30
0.0
 10
9.511625
 20
1.200090
 30
0.0
 10
10.039828
 20
1.505048
 30
0.0
 10
10.325641
 20
2.000090
 30
0.0
  0
SPLINE
  5
176
100
AcDbEntity
  8
Cut
 62
7
100
AcDbSpline
 70
8
 71
3
 72
8
 73
4
 74
0
 40
0
 40
0
 40
0
 40
0
 40
1
 40
1
 40
1
 40
1
 10
10.325641
 20
2.000090
 30
0.0
 10
10.611453
 20
2.495132
 30
0.0
 10
10.611453
 20
3.105048
 30
0.0
 10
10.325641
 20
3.600090
 30
0.0
  0
SPLINE
  5
177
100
AcDbEntity
  8
Cut
 62
7
100
AcDbSpline
 70
8
 71
3
 72
8
 73
4
 74
0
 40
0
 40
0
 40
0
 40
0
 40
1
 40
1
 40
1
 40
1
 10
10.325641
 20
3.600090
 30
0.0
 10
10.039828
 20
4.095132
 30
0.0
 10
9.511625
 20
4.400090
 30
0.0
 10
8.940000
 20
4.400090
 30
0.0
  0
SPLINE
  5
178
100
AcDbEntity
  8
Cut
 62
7
100
AcDbSpline
 70
8
 71
3
 72
8
 73
4
 74
0
 40
0
 40
0
 40
0
 40
0
 40
1
 40
1
 40
1
 40
1
 10
6.400000
 20
4.400090
 30
0.0
 10
5.828375
 20
4.400090
 30
0.0
 10
5.300172
 20
4.095132
 30
0.0
 10
5.014359
 20
3.600090
 30
0.0
  0
SPLINE
  5
179
100
AcDbEntity
  8
Cut
 62
7
100
AcDbSpline
 70
8
 71
3
 72
8
 73
4
 74
0
 40
0
 40
0
 40
0
 40
0
 40
1
 40
1
 40
1
 40
1
 10
5.014359
 20
3.600090
 30
0.0
 10
4.728547
 20
3.105048
 30
0.0
 10
4.728547
 20
2.495132
 30
0.0
 10
5.014359
 20
2.000090
 30
0.0
  0
SPLINE
  5
17a
100
AcDbEntity
  8
Cut
 62
7
100
AcDbSpline
 70
8
 71
3
 72
8
 73
4
 74
0
 40
0
 40
0
 40
0
 40
0
 40
1
 40
1
 40
1
 40
1
 10
5.014359
 20
2.000090
 30
0.0
 10
5.300172
 20
1.505048
 30
0.0
 10
5.828375
 20
1.200090
 30
0.0
 10
6.400000
 20
1.200090
 30
0.0
  0
SPLINE
  5
17b
100
AcDbEntity
  8
Cut
 62
7
100
AcDbSpline
 70
8
 71
3
 72
8
 73
4
 74
0
 40
0
 40
0
 40
0
 40
0
 40
1
 40
1
 40
1
 40
1
 10
6.400000
 20
126.900090
 30
0.0
 10
5.828375
 20
126.900090
 30
0.0
 10
5.300172
 20
126.595132
 30
0.0
 10
5.014359
 20
126.100090
 30
0.0
  0
SPLINE
  5
17c
100
AcDbEntity
  8
Cut
 62
7
100
AcDbSpline
 70
8
 71
3
 72
8
 73
4
 74
0
 40
0
 40
0
 40
0
 40
0
 40
1
 40
1
 40
1
 40
1
 10
5.014359
 20
126.100090
 30
0.0
 10
4.728547
 20
125.605048
 30
0.0
 10
4.728547
 20
124.995132
 30
0.0
 10
5.014359
 20
124.500090
 30
0.0
  0
SPLINE
  5
17d
100
AcDbEntity
  8
Cut
 62
7
100
AcDbSpline
 70
8
 71
3
 72
8
 73
4
 74
0
 40
0
 40
0
 40
0
 40
0
 40
1
 40
1
 40
1
 40
1
 10
5.014359
 20
124.500090
 30
0.0
 10
5.300172
 20
124.005048
 30
0.0
 10
5.828375
 20
123.700090
 30
0.0
 10
6.400000
 20
123.700090
 30
0.0
  0
SPLINE
  5
17e
100
AcDbEntity
  8
Cut
 62
7
100
AcDbSpline
 70
8
 71
3
 72
8
 73
4
 74
0
 40
0
 40
0
 40
0
 40
0
 40
1
 40
1
 40
1
 40
1
 10
8.940000
 20
123.700090
 30
0.0
 10
9.511625
 20
123.700090
 30
0.0
 10
10.039828
 20
124.005048
 30
0.0
 10
10.325641
 20
124.500090
 30
0.0
  0
SPLINE
  5
17f
100
AcDbEntity
  8
Cut
 62
7
100
AcDbSpline
 70
8
 71
3
 72
8
 73
4
 74
0
 40
0
 40
0
 40
0
 40
0
 40
1
 40
1
 40
1
 40
1
 10
10.325641
 20
124.500090
 30
0.0
 10
10.611453
 20
124.995132
 30
0.0
 10
10.611453
 20
125.605048
 30
0.0
 10
10.325641
 20
126.100090
 30
0.0
  0
SPLINE
  5
180
100
AcDbEntity
  8
Cut
 62
7
100
AcDbSpline
 70
8
 71
3
 72
8
 73
4
 74
0
 40
0
 40
0
 40
0
 40
0
 40
1
 40
1
 40
1
 40
1
 10
10.325641
 20
126.100090
 30
0.0
 10
10.039828
 20
126.595132
 30
0.0
 10
9.511625
 20
126.900090
 30
0.0
 10
8.940000
 20
126.900090
 30
0.0
  0
SPLINE
  5
181
100
AcDbEntity
  8
Cut
 62
7
100
AcDbSpline
 70
8
 71
3
 72
8
 73
4
 74
0
 40
0
 40
0
 40
0
 40
0
 40
1
 40
1
 40
1
 40
1
 10
48.310000
 20
109.620090
 30
0.0
 10
46.995498
 20
109.620090
 30
0.0
 10
45.810430
 20
108.828253
 30
0.0
 10
45.307392
 20
107.613811
 30
0.0
  0
SPLINE
  5
182
100
AcDbEntity
  8
Cut
 62
7
100
AcDbSpline
 70
8
 71
3
 72
8
 73
4
 74
0
 40
0
 40
0
 40
0
 40
0
 40
1
 40
1
 40
1
 40
1
 10
45.307392
 20
107.613811
 30
0.0
 10
44.804353
 20
106.399369
 30
0.0
 10
45.082409
 20
105.001486
 30
0.0
 10
46.011903
 20
104.071993
 30
0.0
  0
SPLINE
  5
183
100
AcDbEntity
  8
Cut
 62
7
100
AcDbSpline
 70
8
 71
3
 72
8
 73
4
 74
0
 40
0
 40
0
 40
0
 40
0
 40
1
 40
1
 40
1
 40
1
 10
46.011903
 20
104.071993
 30
0.0
 10
46.941396
 20
103.142499
 30
0.0
 10
48.339279
 20
102.864443
 30
0.0
 10
49.553721
 20
103.367482
 30
0.0
  0
SPLINE
  5
184
100
AcDbEntity
  8
Cut
 62
7
100
AcDbSpline
 70
8
 71
3
 72
8
 73
4
 74
0
 40
0
 40
0
 40
0
 40
0
 40
1
 40
1
 40
1
 40
1
 10
49.553721
 20
103.367482
 30
0.0
 10
50.768163
 20
103.870520
 30
0.0
 10
51.560000
 20
105.055588
 30
0.0
 10
51.560000
 20
106.370090
 30
0.0
  0
SPLINE
  5
185
100
AcDbEntity
  8
Cut
 62
7
100
AcDbSpline
 70
8
 71
3
 72
8
 73
4
 74
0
 40
0
 40
0
 40
0
 40
0
 40
1
 40
1
 40
1
 40
1
 10
51.560000
 20
106.370090
 30
0.0
 10
51.560000
 20
107.232044
 30
0.0
 10
51.217590
 20
108.058694
 30
0.0
 10
50.608097
 20
108.668187
 30
0.0
  0
SPLINE
  5
186
100
AcDbEntity
  8
Cut
 62
7
100
AcDbSpline
 70
8
 71
3
 72
8
 73
4
 74
0
 40
0
 40
0
 40
0
 40
0
 40
1
 40
1
 40
1
 40
1
 10
50.608097
 20
108.668187
 30
0.0
 10
49.998604
 20
109.277680
 30
0.0
 10
49.171954
 20
109.620090
 30
0.0
 10
48.310000
 20
109.620090
 30
0.0
  0
LWPOLYLINE
  5
187
100
AcDbEntity
  8
Cut
 62
7
100
AcDbPolyline
 90
2
 70
0
 10
6.400000
 20
1.200090
 30
0.0
 10
8.940000
 20
1.200090
 30
0.0
  0
SPLINE
  5
188
100
AcDbEntity
  8
Cut
 62
7
100
AcDbSpline
 70
8
 71
3
 72
8
 73
4
 74
0
 40
0
 40
0
 40
0
 40
0
 40
1
 40
1
 40
1
 40
1
 10
10.210000
 20
38.500090
 30
0.0
 10
8.895498
 20
38.500090
 30
0.0
 10
7.710430
 20
37.708253
 30
0.0
 10
7.207392
 20
36.493811
 30
0.0
  0
SPLINE
  5
189
100
AcDbEntity
  8
Cut
 62
7
100
AcDbSpline
 70
8
 71
3
 72
8
 73
4
 74
0
 40
0
 40
0
 40
0
 40
0
 40
1
 40
1
 40
1
 40
1
 10
7.207392
 20
36.493811
 30
0.0
 10
6.704353
 20
35.279369
 30
0.0
 10
6.982409
 20
33.881486
 30
0.0
 10
7.911903
 20
32.951993
 30
0.0
  0
SPLINE
  5
18a
100
AcDbEntity
  8
Cut
 62
7
100
AcDbSpline
 70
8
 71
3
 72
8
 73
4
 74
0
 40
0
 40
0
 40
0
 40
0
 40
1
 40
1
 40
1
 40
1
 10
7.911903
 20
32.951993
 30
0.0
 10
8.841396
 20
32.022499
 30
0.0
 10
10.239279
 20
31.744443
 30
0.0
 10
11.453721
 20
32.247482
 30
0.0
  0
SPLINE
  5
18b
100
AcDbEntity
  8
Cut
 62
7
100
AcDbSpline
 70
8
 71
3
 72
8
 73
4
 74
0
 40
0
 40
0
 40
0
 40
0
 40
1
 40
1
 40
1
 40
1
 10
11.453721
 20
32.247482
 30
0.0
 10
12.668163
 20
32.750520
 30
0.0
 10
13.460000
 20
33.935588
 30
0.0
 10
13.460000
 20
35.250090
 30
0.0
  0
SPLINE
  5
18c
100
AcDbEntity
  8
Cut
 62
7
100
AcDbSpline
 70
8
 71
3
 72
8
 73
4
 74
0
 40
0
 40
0
 40
0
 40
0
 40
1
 40
1
 40
1
 40
1
 10
13.460000
 20
35.250090
 30
0.0
 10
13.460000
 20
36.112044
 30
0.0
 10
13.117590
 20
36.938694
 30
0.0
 10
12.508097
 20
37.548187
 30
0.0
  0
SPLINE
  5
18d
100
AcDbEntity
  8
Cut
 62
7
100
AcDbSpline
 70
8
 71
3
 72
8
 73
4
 74
0
 40
0
 40
0
 40
0
 40
0
 40
1
 40
1
 40
1
 40
1
 10
12.508097
 20
37.548187
 30
0.0
 10
11.898604
 20
38.157680
 30
0.0
 10
11.071954
 20
38.500090
 30
0.0
 10
10.210000
 20
38.500090
 30
0.0
  0
LWPOLYLINE
  5
18e
100
AcDbEntity
  8
Cut
 62
7
100
AcDbPolyline
 90
1
 70
1
 10
48.310000
 20
109.620090
 30
0.0
  0
SPLINE
  5
18f
100
AcDbEntity
  8
Cut
 62
7
100
AcDbSpline
 70
8
 71
3
 72
8
 73
4
 74
0
 40
0
 40
0
 40
0
 40
0
 40
1
 40
1
 40
1
 40
1
 10
45.770000
 20
74.300090
 30
0.0
 10
44.455498
 20
74.300090
 30
0.0
 10
43.270430
 20
73.508253
 30
0.0
 10
42.767392
 20
72.293811
 30
0.0
  0
SPLINE
  5
190
100
AcDbEntity
  8
Cut
 62
7
100
AcDbSpline
 70
8
 71
3
 72
8
 73
4
 74
0
 40
0
 40
0
 40
0
 40
0
 40
1
 40
1
 40
1
 40
1
 10
42.767392
 20
72.293811
 30
0.0
 10
42.264353
 20
71.079369
 30
0.0
 10
42.542409
 20
69.681486
 30
0.0
 10
43.471903
 20
68.751993
 30
0.0
  0
SPLINE
  5
191
100
AcDbEntity
  8
Cut
 62
7
100
AcDbSpline
 70
8
 71
3
 72
8
 73
4
 74
0
 40
0
 40
0
 40
0
 40
0
 40
1
 40
1
 40
1
 40
1
 10
43.471903
 20
68.751993
 30
0.0
 10
44.401396
 20
67.822499
 30
0.0
 10
45.799279
 20
67.544443
 30
0.0
 10
47.013721
 20
68.047482
 30
0.0
  0
SPLINE
  5
192
100
AcDbEntity
  8
Cut
 62
7
100
AcDbSpline
 70
8
 71
3
 72
8
 73
4
 74
0
 40
0
 40
0
 40
0
 40
0
 40
1
 40
1
 40
1
 40
1
 10
47.013721
 20
68.047482
 30
0.0
 10
48.228163
 20
68.550520
 30
0.0
 10
49.020000
 20
69.735588
 30
0.0
 10
49.020000
 20
71.050090
 30
0.0
  0
SPLINE
  5
193
100
AcDbEntity
  8
Cut
 62
7
100
AcDbSpline
 70
8
 71
3
 72
8
 73
4
 74
0
 40
0
 40
0
 40
0
 40
0
 40
1
 40
1
 40
1
 40
1
 10
49.020000
 20
71.050090
 30
0.0
 10
49.020000
 20
71.912044
 30
0.0
 10
48.677590
 20
72.738694
 30
0.0
 10
48.068097
 20
73.348187
 30
0.0
  0
SPLINE
  5
194
100
AcDbEntity
  8
Cut
 62
7
100
AcDbSpline
 70
8
 71
3
 72
8
 73
4
 74
0
 40
0
 40
0
 40
0
 40
0
 40
1
 40
1
 40
1
 40
1
 10
48.068097
 20
73.348187
 30
0.0
 10
47.458604
 20
73.957680
 30
0.0
 10
46.631954
 20
74.300090
 30
0.0
 10
45.770000
 20
74.300090
 30
0.0
  0
LWPOLYLINE
  5
195
100
AcDbEntity
  8
Cut
 62
7
100
AcDbPolyline
 90
1
 70
1
 10
10.210000
 20
38.500090
 30
0.0
  0
SPLINE
  5
196
100
AcDbEntity
  8
Cut
 62
7
100
AcDbSpline
 70
8
 71
3
 72
8
 73
4
 74
0
 40
0
 40
0
 40
0
 40
0
 40
1
 40
1
 40
1
 40
1
 10
48.310000
 20
92.450090
 30
0.0
 10
47.096613
 20
92.450090
 30
0.0
 10
46.002704
 20
91.719163
 30
0.0
 10
45.538361
 20
90.598140
 30
0.0
  0
SPLINE
  5
197
100
AcDbEntity
  8
Cut
 62
7
100
AcDbSpline
 70
8
 71
3
 72
8
 73
4
 74
0
 40
0
 40
0
 40
0
 40
0
 40
1
 40
1
 40
1
 40
1
 10
45.538361
 20
90.598140
 30
0.0
 10
45.074018
 20
89.477117
 30
0.0
 10
45.330686
 20
88.186764
 30
0.0
 10
46.188680
 20
87.328770
 30
0.0
  0
SPLINE
  5
198
100
AcDbEntity
  8
Cut
 62
7
100
AcDbSpline
 70
8
 71
3
 72
8
 73
4
 74
0
 40
0
 40
0
 40
0
 40
0
 40
1
 40
1
 40
1
 40
1
 10
46.188680
 20
87.328770
 30
0.0
 10
47.046674
 20
86.470776
 30
0.0
 10
48.337027
 20
86.214108
 30
0.0
 10
49.458050
 20
86.678451
 30
0.0
  0
SPLINE
  5
199
100
AcDbEntity
  8
Cut
 62
7
100
AcDbSpline
 70
8
 71
3
 72
8
 73
4
 74
0
 40
0
 40
0
 40
0
 40
0
 40
1
 40
1
 40
1
 40
1
 10
49.458050
 20
86.678451
 30
0.0
 10
50.579073
 20
87.142794
 30
0.0
 10
51.310000
 20
88.236703
 30
0.0
 10
51.310000
 20
89.450090
 30
0.0
  0
SPLINE
  5
19a
100
AcDbEntity
  8
Cut
 62
7
100
AcDbSpline
 70
8
 71
3
 72
8
 73
4
 74
0
 40
0
 40
0
 40
0
 40
0
 40
1
 40
1
 40
1
 40
1
 10
51.310000
 20
89.450090
 30
0.0
 10
51.310000
 20
90.245739
 30
0.0
 10
50.993929
 20
91.008801
 30
0.0
 10
50.431320
 20
91.571410
 30
0.0
  0
SPLINE
  5
19b
100
AcDbEntity
  8
Cut
 62
7
100
AcDbSpline
 70
8
 71
3
 72
8
 73
4
 74
0
 40
0
 40
0
 40
0
 40
0
 40
1
 40
1
 40
1
 40
1
 10
50.431320
 20
91.571410
 30
0.0
 10
49.868711
 20
92.134019
 30
0.0
 10
49.105649
 20
92.450090
 30
0.0
 10
48.310000
 20
92.450090
 30
0.0
  0
LWPOLYLINE
  5
19c
100
AcDbEntity
  8
Cut
 62
7
100
AcDbPolyline
 90
1
 70
1
 10
45.770000
 20
74.300090
 30
0.0
  0
LWPOLYLINE
  5
19d
100
AcDbEntity
  8
Cut
 62
7
100
AcDbPolyline
 90
1
 70
1
 10
48.310000
 20
92.450090
 30
0.0
  0
LWPOLYLINE
  5
19e
100
AcDbEntity
  8
Cut
 62
7
100
AcDbPolyline
 90
4
 70
1
 10
0.050000
 20
128.050090
 30
0.0
 10
58.470000
 20
128.050090
 30
0.0
 10
58.470000
 20
0.050090
 30
0.0
 10
0.050000
 20
0.050090
 30
0.0
  0
ENDSEC
  0
SECTION
  2
OBJECTS
  0
DICTIONARY
  5
C
330
0
100
AcDbDictionary
  3
ACAD_GROUP
350
D
  3
ACAD_MLINESTYLE
350
17
  0
DICTIONARY
  5
D
330
C
100
AcDbDictionary
  0
DICTIONARY
  5
1A
330
C
100
AcDbDictionary
  0
DICTIONARY
  5
17
330
C
100
AcDbDictionary
  3
STANDARD
350
18
  0
DICTIONARY
  5
19
330
C
100
AcDbDictionary
  0
ENDSEC
  0
EOF
