  0
SECTION
  2
HEADER
  9
$ACADVER
  1
AC1014
  9
$HANDSEED
  5
FFFF
  9
$INSUNITS
 70
     4
  9
$MEASUREMENT
 70
     1
  0
ENDSEC
  0
SECTION
  2
TABLES
  0
TABLE
  2
VPORT
  5
8
330
0
100
AcDbSymbolTable
 70
     4
  0
VPORT
  5
2E
330
8
100
AcDbSymbolTableRecord
100
AcDbViewportTableRecord
  2
*ACTIVE
 70
     0
 10
0.0
 20
0.0
 11
1.0
 21
1.0
 12
210.0
 22
148.5
 13
0.0
 23
0.0
 14
10.0
 24
10.0
 15
10.0
 25
10.0
 16
0.0
 26
0.0
 36
1.0
 17
0.0
 27
0.0
 37
0.0
 40
341.0
 41
1.24
 42
50.0
 43
0.0
 44
0.0
 50
0.0
 51
0.0
 71
     0
 72
   100
 73
     1
 74
     3
 75
     0
 76
     0
 77
     0
 78
     0
  0
ENDTAB
  0
TABLE
  2
LTYPE
  5
5
330
0
100
AcDbSymbolTable
 70
     1
  0
LTYPE
  5
14
330
5
100
AcDbSymbolTableRecord
100
AcDbLinetypeTableRecord
  2
BYBLOCK
 70
     0
  3

 72
    65
 73
     0
 40
0.0
  0
LTYPE
  5
15
330
5
100
AcDbSymbolTableRecord
100
AcDbLinetypeTableRecord
  2
BYLAYER
 70
     0
  3

 72
    65
 73
     0
 40
0.0
  0
LTYPE
  5
16
330
5
100
AcDbSymbolTableRecord
100
AcDbLinetypeTableRecord
  2
CONTINUOUS
 70
     0
  3
Solid line
 72
    65
 73
     0
 40
0.0
  0
ENDTAB
  0
TABLE
  2
LAYER
  5
2
100
AcDbSymbolTable
 70
4
  0
LAYER
  5
50
100
AcDbSymbolTableRecord
100
AcDbLayerTableRecord
  2
0
 70
0
  6
CONTINUOUS
  0
LAYER
  5
51
100
AcDbSymbolTableRecord
100
AcDbLayerTableRecord
  2
Guidelines
 70
0
  6
CONTINUOUS
  0
LAYER
  5
52
100
AcDbSymbolTableRecord
100
AcDbLayerTableRecord
  2
Cut
 70
0
  6
CONTINUOUS
  0
LAYER
  5
53
100
AcDbSymbolTableRecord
100
AcDbLayerTableRecord
  2
Artwork
 70
0
  6
CONTINUOUS
  0
ENDTAB
  0
TABLE
  2
STYLE
  5
3
330
0
100
AcDbSymbolTable
 70
     1
  0
STYLE
  5
11
330
3
100
AcDbSymbolTableRecord
100
AcDbTextStyleTableRecord
  2
STANDARD
 70
     0
 40
0.0
 41
1.0
 50
0.0
 71
     0
 42
2.5
  3
txt
  4

  0
ENDTAB
  0
TABLE
  2
VIEW
  5
6
330
0
100
AcDbSymbolTable
 70
     0
  0
ENDTAB
  0
TABLE
  2
UCS
  5
7
330
0
100
AcDbSymbolTable
 70
     0
  0
ENDTAB
  0
TABLE
  2
APPID
  5
9
330
0
100
AcDbSymbolTable
 70
     2
  0
APPID
  5
12
330
9
100
AcDbSymbolTableRecord
100
AcDbRegAppTableRecord
  2
ACAD
 70
     0
  0
ENDTAB
  0
TABLE
  2
DIMSTYLE
  5
A
330
0
100
AcDbSymbolTable
 70
     1
  0
DIMSTYLE
105
27
330
A
100
AcDbSymbolTableRecord
100
AcDbDimStyleTableRecord
  2
ISO-25
 70
     0
  3

  4

  5

  6

  7

 40
1.0
 41
2.5
 42
0.625
 43
3.75
 44
1.25
 45
0.0
 46
0.0
 47
0.0
 48
0.0
140
2.5
141
2.5
142
0.0
143
0.03937007874016
144
1.0
145
0.0
146
1.0
147
0.625
 71
     0
 72
     0
 73
     0
 74
     0
 75
     0
 76
     0
 77
     1
 78
     8
170
     0
171
     3
172
     1
173
     0
174
     0
175
     0
176
     0
177
     0
178
     0
270
     2
271
     2
272
     2
273
     2
274
     3
340
11
275
     0
280
     0
281
     0
282
     0
283
     0
284
     8
285
     0
286
     0
287
     3
288
     0
  0
ENDTAB
  0
TABLE
  2
BLOCK_RECORD
  5
1
330
0
100
AcDbSymbolTable
 70
     1
  0
BLOCK_RECORD
  5
1F
330
1
100
AcDbSymbolTableRecord
100
AcDbBlockTableRecord
  2
*MODEL_SPACE
  0
BLOCK_RECORD
  5
1B
330
1
100
AcDbSymbolTableRecord
100
AcDbBlockTableRecord
  2
*PAPER_SPACE
  0
ENDTAB
  0
ENDSEC
  0
SECTION
  2
BLOCKS
  0
BLOCK
  5
20
330
1F
100
AcDbEntity
  8
0
100
AcDbBlockBegin
  2
*MODEL_SPACE
 70
     0
 10
0.0
 20
0.0
 30
0.0
  3
*MODEL_SPACE
  1

  0
ENDBLK
  5
21
330
1F
100
AcDbEntity
  8
0
100
AcDbBlockEnd
  0
BLOCK
  5
1C
330
1B
100
AcDbEntity
 67
     1
  8
0
100
AcDbBlockBegin
  2
*PAPER_SPACE
  1

  0
ENDBLK
  5
1D
330
1B
100
AcDbEntity
 67
     1
  8
0
100
AcDbBlockEnd
  0
ENDSEC
  0
SECTION
  2
ENTITIES
  0
SPLINE
  5
100
100
AcDbEntity
  8
Cut
 62
7
100
AcDbSpline
 70
8
 71
3
 72
8
 73
4
 74
0
 40
0
 40
0
 40
0
 40
0
 40
1
 40
1
 40
1
 40
1
 10
48.310010
 20
23.290110
 30
0.0
 10
46.995508
 20
23.290110
 30
0.0
 10
45.810440
 20
22.498273
 30
0.0
 10
45.307402
 20
21.283831
 30
0.0
  0
SPLINE
  5
101
100
AcDbEntity
  8
Cut
 62
7
100
AcDbSpline
 70
8
 71
3
 72
8
 73
4
 74
0
 40
0
 40
0
 40
0
 40
0
 40
1
 40
1
 40
1
 40
1
 10
45.307402
 20
21.283831
 30
0.0
 10
44.804363
 20
20.069389
 30
0.0
 10
45.082420
 20
18.671507
 30
0.0
 10
46.011913
 20
17.742013
 30
0.0
  0
SPLINE
  5
102
100
AcDbEntity
  8
Cut
 62
7
100
AcDbSpline
 70
8
 71
3
 72
8
 73
4
 74
0
 40
0
 40
0
 40
0
 40
0
 40
1
 40
1
 40
1
 40
1
 10
46.011913
 20
17.742013
 30
0.0
 10
46.941407
 20
16.812520
 30
0.0
 10
48.339289
 20
16.534463
 30
0.0
 10
49.553731
 20
17.037502
 30
0.0
  0
SPLINE
  5
103
100
AcDbEntity
  8
Cut
 62
7
100
AcDbSpline
 70
8
 71
3
 72
8
 73
4
 74
0
 40
0
 40
0
 40
0
 40
0
 40
1
 40
1
 40
1
 40
1
 10
49.553731
 20
17.037502
 30
0.0
 10
50.768173
 20
17.540540
 30
0.0
 10
51.560010
 20
18.725608
 30
0.0
 10
51.560010
 20
20.040110
 30
0.0
  0
SPLINE
  5
104
100
AcDbEntity
  8
Cut
 62
7
100
AcDbSpline
 70
8
 71
3
 72
8
 73
4
 74
0
 40
0
 40
0
 40
0
 40
0
 40
1
 40
1
 40
1
 40
1
 10
51.560010
 20
20.040110
 30
0.0
 10
51.560010
 20
20.902064
 30
0.0
 10
51.217600
 20
21.728714
 30
0.0
 10
50.608107
 20
22.338207
 30
0.0
  0
SPLINE
  5
105
100
AcDbEntity
  8
Cut
 62
7
100
AcDbSpline
 70
8
 71
3
 72
8
 73
4
 74
0
 40
0
 40
0
 40
0
 40
0
 40
1
 40
1
 40
1
 40
1
 10
50.608107
 20
22.338207
 30
0.0
 10
49.998614
 20
22.947700
 30
0.0
 10
49.171964
 20
23.290110
 30
0.0
 10
48.310010
 20
23.290110
 30
0.0
  0
SPLINE
  5
106
100
AcDbEntity
  8
Cut
 62
7
100
AcDbSpline
 70
8
 71
3
 72
8
 73
4
 74
0
 40
0
 40
0
 40
0
 40
0
 40
1
 40
1
 40
1
 40
1
 10
10.296002
 20
109.650090
 30
0.0
 10
8.981500
 20
109.650090
 30
0.0
 10
7.796432
 20
108.858253
 30
0.0
 10
7.293394
 20
107.643811
 30
0.0
  0
SPLINE
  5
107
100
AcDbEntity
  8
Cut
 62
7
100
AcDbSpline
 70
8
 71
3
 72
8
 73
4
 74
0
 40
0
 40
0
 40
0
 40
0
 40
1
 40
1
 40
1
 40
1
 10
7.293394
 20
107.643811
 30
0.0
 10
6.790355
 20
106.429369
 30
0.0
 10
7.068412
 20
105.031487
 30
0.0
 10
7.997905
 20
104.101993
 30
0.0
  0
SPLINE
  5
108
100
AcDbEntity
  8
Cut
 62
7
100
AcDbSpline
 70
8
 71
3
 72
8
 73
4
 74
0
 40
0
 40
0
 40
0
 40
0
 40
1
 40
1
 40
1
 40
1
 10
7.997905
 20
104.101993
 30
0.0
 10
8.927399
 20
103.172500
 30
0.0
 10
10.325281
 20
102.894443
 30
0.0
 10
11.539723
 20
103.397482
 30
0.0
  0
SPLINE
  5
109
100
AcDbEntity
  8
Cut
 62
7
100
AcDbSpline
 70
8
 71
3
 72
8
 73
4
 74
0
 40
0
 40
0
 40
0
 40
0
 40
1
 40
1
 40
1
 40
1
 10
11.539723
 20
103.397482
 30
0.0
 10
12.754165
 20
103.900520
 30
0.0
 10
13.546002
 20
105.085588
 30
0.0
 10
13.546002
 20
106.400090
 30
0.0
  0
SPLINE
  5
10a
100
AcDbEntity
  8
Cut
 62
7
100
AcDbSpline
 70
8
 71
3
 72
8
 73
4
 74
0
 40
0
 40
0
 40
0
 40
0
 40
1
 40
1
 40
1
 40
1
 10
13.546002
 20
106.400090
 30
0.0
 10
13.546002
 20
107.262044
 30
0.0
 10
13.203592
 20
108.088694
 30
0.0
 10
12.594099
 20
108.698187
 30
0.0
  0
SPLINE
  5
10b
100
AcDbEntity
  8
Cut
 62
7
100
AcDbSpline
 70
8
 71
3
 72
8
 73
4
 74
0
 40
0
 40
0
 40
0
 40
0
 40
1
 40
1
 40
1
 40
1
 10
12.594099
 20
108.698187
 30
0.0
 10
11.984606
 20
109.307680
 30
0.0
 10
11.157956
 20
109.650090
 30
0.0
 10
10.296002
 20
109.650090
 30
0.0
  0
LWPOLYLINE
  5
10c
100
AcDbEntity
  8
Cut
 62
7
100
AcDbPolyline
 90
1
 70
1
 10
48.310010
 20
23.290110
 30
0.0
  0
SPLINE
  5
10d
100
AcDbEntity
  8
Cut
 62
7
100
AcDbSpline
 70
8
 71
3
 72
8
 73
4
 74
0
 40
0
 40
0
 40
0
 40
0
 40
1
 40
1
 40
1
 40
1
 10
45.770000
 20
74.300110
 30
0.0
 10
44.455498
 20
74.300110
 30
0.0
 10
43.270430
 20
73.508273
 30
0.0
 10
42.767392
 20
72.293831
 30
0.0
  0
SPLINE
  5
10e
100
AcDbEntity
  8
Cut
 62
7
100
AcDbSpline
 70
8
 71
3
 72
8
 73
4
 74
0
 40
0
 40
0
 40
0
 40
0
 40
1
 40
1
 40
1
 40
1
 10
42.767392
 20
72.293831
 30
0.0
 10
42.264353
 20
71.079389
 30
0.0
 10
42.542410
 20
69.681507
 30
0.0
 10
43.471903
 20
68.752013
 30
0.0
  0
SPLINE
  5
10f
100
AcDbEntity
  8
Cut
 62
7
100
AcDbSpline
 70
8
 71
3
 72
8
 73
4
 74
0
 40
0
 40
0
 40
0
 40
0
 40
1
 40
1
 40
1
 40
1
 10
43.471903
 20
68.752013
 30
0.0
 10
44.401397
 20
67.822520
 30
0.0
 10
45.799279
 20
67.544463
 30
0.0
 10
47.013721
 20
68.047502
 30
0.0
  0
SPLINE
  5
110
100
AcDbEntity
  8
Cut
 62
7
100
AcDbSpline
 70
8
 71
3
 72
8
 73
4
 74
0
 40
0
 40
0
 40
0
 40
0
 40
1
 40
1
 40
1
 40
1
 10
47.013721
 20
68.047502
 30
0.0
 10
48.228163
 20
68.550540
 30
0.0
 10
49.020000
 20
69.735608
 30
0.0
 10
49.020000
 20
71.050110
 30
0.0
  0
SPLINE
  5
111
100
AcDbEntity
  8
Cut
 62
7
100
AcDbSpline
 70
8
 71
3
 72
8
 73
4
 74
0
 40
0
 40
0
 40
0
 40
0
 40
1
 40
1
 40
1
 40
1
 10
49.020000
 20
71.050110
 30
0.0
 10
49.020000
 20
71.912064
 30
0.0
 10
48.677590
 20
72.738714
 30
0.0
 10
48.068097
 20
73.348207
 30
0.0
  0
SPLINE
  5
112
100
AcDbEntity
  8
Cut
 62
7
100
AcDbSpline
 70
8
 71
3
 72
8
 73
4
 74
0
 40
0
 40
0
 40
0
 40
0
 40
1
 40
1
 40
1
 40
1
 10
48.068097
 20
73.348207
 30
0.0
 10
47.458604
 20
73.957700
 30
0.0
 10
46.631954
 20
74.300110
 30
0.0
 10
45.770000
 20
74.300110
 30
0.0
  0
LWPOLYLINE
  5
113
100
AcDbEntity
  8
Cut
 62
7
100
AcDbPolyline
 90
1
 70
1
 10
10.296002
 20
109.650090
 30
0.0
  0
SPLINE
  5
114
100
AcDbEntity
  8
Cut
 62
7
100
AcDbSpline
 70
8
 71
3
 72
8
 73
4
 74
0
 40
0
 40
0
 40
0
 40
0
 40
1
 40
1
 40
1
 40
1
 10
48.310010
 20
53.980100
 30
0.0
 10
46.995508
 20
53.980100
 30
0.0
 10
45.810440
 20
53.188263
 30
0.0
 10
45.307402
 20
51.973821
 30
0.0
  0
SPLINE
  5
115
100
AcDbEntity
  8
Cut
 62
7
100
AcDbSpline
 70
8
 71
3
 72
8
 73
4
 74
0
 40
0
 40
0
 40
0
 40
0
 40
1
 40
1
 40
1
 40
1
 10
45.307402
 20
51.973821
 30
0.0
 10
44.804363
 20
50.759379
 30
0.0
 10
45.082420
 20
49.361497
 30
0.0
 10
46.011913
 20
48.432003
 30
0.0
  0
SPLINE
  5
116
100
AcDbEntity
  8
Cut
 62
7
100
AcDbSpline
 70
8
 71
3
 72
8
 73
4
 74
0
 40
0
 40
0
 40
0
 40
0
 40
1
 40
1
 40
1
 40
1
 10
46.011913
 20
48.432003
 30
0.0
 10
46.941407
 20
47.502510
 30
0.0
 10
48.339289
 20
47.224453
 30
0.0
 10
49.553731
 20
47.727492
 30
0.0
  0
SPLINE
  5
117
100
AcDbEntity
  8
Cut
 62
7
100
AcDbSpline
 70
8
 71
3
 72
8
 73
4
 74
0
 40
0
 40
0
 40
0
 40
0
 40
1
 40
1
 40
1
 40
1
 10
49.553731
 20
47.727492
 30
0.0
 10
50.768173
 20
48.230530
 30
0.0
 10
51.560010
 20
49.415598
 30
0.0
 10
51.560010
 20
50.730100
 30
0.0
  0
SPLINE
  5
118
100
AcDbEntity
  8
Cut
 62
7
100
AcDbSpline
 70
8
 71
3
 72
8
 73
4
 74
0
 40
0
 40
0
 40
0
 40
0
 40
1
 40
1
 40
1
 40
1
 10
51.560010
 20
50.730100
 30
0.0
 10
51.560010
 20
51.592054
 30
0.0
 10
51.217600
 20
52.418704
 30
0.0
 10
50.608107
 20
53.028197
 30
0.0
  0
SPLINE
  5
119
100
AcDbEntity
  8
Cut
 62
7
100
AcDbSpline
 70
8
 71
3
 72
8
 73
4
 74
0
 40
0
 40
0
 40
0
 40
0
 40
1
 40
1
 40
1
 40
1
 10
50.608107
 20
53.028197
 30
0.0
 10
49.998614
 20
53.637690
 30
0.0
 10
49.171964
 20
53.980100
 30
0.0
 10
48.310010
 20
53.980100
 30
0.0
  0
LWPOLYLINE
  5
11a
100
AcDbEntity
  8
Cut
 62
7
100
AcDbPolyline
 90
1
 70
1
 10
45.770000
 20
74.300110
 30
0.0
  0
SPLINE
  5
11b
100
AcDbEntity
  8
Cut
 62
7
100
AcDbSpline
 70
8
 71
3
 72
8
 73
4
 74
0
 40
0
 40
0
 40
0
 40
0
 40
1
 40
1
 40
1
 40
1
 10
10.210004
 20
23.500110
 30
0.0
 10
8.895502
 20
23.500110
 30
0.0
 10
7.710434
 20
22.708273
 30
0.0
 10
7.207396
 20
21.493831
 30
0.0
  0
SPLINE
  5
11c
100
AcDbEntity
  8
Cut
 62
7
100
AcDbSpline
 70
8
 71
3
 72
8
 73
4
 74
0
 40
0
 40
0
 40
0
 40
0
 40
1
 40
1
 40
1
 40
1
 10
7.207396
 20
21.493831
 30
0.0
 10
6.704357
 20
20.279389
 30
0.0
 10
6.982414
 20
18.881507
 30
0.0
 10
7.911907
 20
17.952013
 30
0.0
  0
SPLINE
  5
11d
100
AcDbEntity
  8
Cut
 62
7
100
AcDbSpline
 70
8
 71
3
 72
8
 73
4
 74
0
 40
0
 40
0
 40
0
 40
0
 40
1
 40
1
 40
1
 40
1
 10
7.911907
 20
17.952013
 30
0.0
 10
8.841401
 20
17.022520
 30
0.0
 10
10.239283
 20
16.744463
 30
0.0
 10
11.453725
 20
17.247502
 30
0.0
  0
SPLINE
  5
11e
100
AcDbEntity
  8
Cut
 62
7
100
AcDbSpline
 70
8
 71
3
 72
8
 73
4
 74
0
 40
0
 40
0
 40
0
 40
0
 40
1
 40
1
 40
1
 40
1
 10
11.453725
 20
17.247502
 30
0.0
 10
12.668167
 20
17.750540
 30
0.0
 10
13.460004
 20
18.935608
 30
0.0
 10
13.460004
 20
20.250110
 30
0.0
  0
SPLINE
  5
11f
100
AcDbEntity
  8
Cut
 62
7
100
AcDbSpline
 70
8
 71
3
 72
8
 73
4
 74
0
 40
0
 40
0
 40
0
 40
0
 40
1
 40
1
 40
1
 40
1
 10
13.460004
 20
20.250110
 30
0.0
 10
13.460004
 20
21.112064
 30
0.0
 10
13.117594
 20
21.938714
 30
0.0
 10
12.508101
 20
22.548207
 30
0.0
  0
SPLINE
  5
120
100
AcDbEntity
  8
Cut
 62
7
100
AcDbSpline
 70
8
 71
3
 72
8
 73
4
 74
0
 40
0
 40
0
 40
0
 40
0
 40
1
 40
1
 40
1
 40
1
 10
12.508101
 20
22.548207
 30
0.0
 10
11.898608
 20
23.157700
 30
0.0
 10
11.071958
 20
23.500110
 30
0.0
 10
10.210004
 20
23.500110
 30
0.0
  0
LWPOLYLINE
  5
121
100
AcDbEntity
  8
Cut
 62
7
100
AcDbPolyline
 90
1
 70
1
 10
48.310010
 20
53.980100
 30
0.0
  0
SPLINE
  5
122
100
AcDbEntity
  8
Cut
 62
7
100
AcDbSpline
 70
8
 71
3
 72
8
 73
4
 74
0
 40
0
 40
0
 40
0
 40
0
 40
1
 40
1
 40
1
 40
1
 10
27.990000
 20
41.280100
 30
0.0
 10
26.675498
 20
41.280100
 30
0.0
 10
25.490430
 20
40.488263
 30
0.0
 10
24.987392
 20
39.273821
 30
0.0
  0
SPLINE
  5
123
100
AcDbEntity
  8
Cut
 62
7
100
AcDbSpline
 70
8
 71
3
 72
8
 73
4
 74
0
 40
0
 40
0
 40
0
 40
0
 40
1
 40
1
 40
1
 40
1
 10
24.987392
 20
39.273821
 30
0.0
 10
24.484353
 20
38.059379
 30
0.0
 10
24.762410
 20
36.661497
 30
0.0
 10
25.691903
 20
35.732003
 30
0.0
  0
SPLINE
  5
124
100
AcDbEntity
  8
Cut
 62
7
100
AcDbSpline
 70
8
 71
3
 72
8
 73
4
 74
0
 40
0
 40
0
 40
0
 40
0
 40
1
 40
1
 40
1
 40
1
 10
25.691903
 20
35.732003
 30
0.0
 10
26.621397
 20
34.802510
 30
0.0
 10
28.019279
 20
34.524453
 30
0.0
 10
29.233721
 20
35.027492
 30
0.0
  0
SPLINE
  5
125
100
AcDbEntity
  8
Cut
 62
7
100
AcDbSpline
 70
8
 71
3
 72
8
 73
4
 74
0
 40
0
 40
0
 40
0
 40
0
 40
1
 40
1
 40
1
 40
1
 10
29.233721
 20
35.027492
 30
0.0
 10
30.448163
 20
35.530530
 30
0.0
 10
31.240000
 20
36.715598
 30
0.0
 10
31.240000
 20
38.030100
 30
0.0
  0
SPLINE
  5
126
100
AcDbEntity
  8
Cut
 62
7
100
AcDbSpline
 70
8
 71
3
 72
8
 73
4
 74
0
 40
0
 40
0
 40
0
 40
0
 40
1
 40
1
 40
1
 40
1
 10
31.240000
 20
38.030100
 30
0.0
 10
31.240000
 20
38.892054
 30
0.0
 10
30.897590
 20
39.718704
 30
0.0
 10
30.288097
 20
40.328197
 30
0.0
  0
SPLINE
  5
127
100
AcDbEntity
  8
Cut
 62
7
100
AcDbSpline
 70
8
 71
3
 72
8
 73
4
 74
0
 40
0
 40
0
 40
0
 40
0
 40
1
 40
1
 40
1
 40
1
 10
30.288097
 20
40.328197
 30
0.0
 10
29.678604
 20
40.937690
 30
0.0
 10
28.851954
 20
41.280100
 30
0.0
 10
27.990000
 20
41.280100
 30
0.0
  0
LWPOLYLINE
  5
128
100
AcDbEntity
  8
Cut
 62
7
100
AcDbPolyline
 90
1
 70
1
 10
10.210004
 20
23.500110
 30
0.0
  0
SPLINE
  5
129
100
AcDbEntity
  8
Cut
 62
7
100
AcDbSpline
 70
8
 71
3
 72
8
 73
4
 74
0
 40
0
 40
0
 40
0
 40
0
 40
1
 40
1
 40
1
 40
1
 10
10.296002
 20
74.090100
 30
0.0
 10
8.981500
 20
74.090100
 30
0.0
 10
7.796432
 20
73.298263
 30
0.0
 10
7.293394
 20
72.083821
 30
0.0
  0
SPLINE
  5
12a
100
AcDbEntity
  8
Cut
 62
7
100
AcDbSpline
 70
8
 71
3
 72
8
 73
4
 74
0
 40
0
 40
0
 40
0
 40
0
 40
1
 40
1
 40
1
 40
1
 10
7.293394
 20
72.083821
 30
0.0
 10
6.790355
 20
70.869379
 30
0.0
 10
7.068412
 20
69.471497
 30
0.0
 10
7.997905
 20
68.542003
 30
0.0
  0
SPLINE
  5
12b
100
AcDbEntity
  8
Cut
 62
7
100
AcDbSpline
 70
8
 71
3
 72
8
 73
4
 74
0
 40
0
 40
0
 40
0
 40
0
 40
1
 40
1
 40
1
 40
1
 10
7.997905
 20
68.542003
 30
0.0
 10
8.927399
 20
67.612510
 30
0.0
 10
10.325281
 20
67.334453
 30
0.0
 10
11.539723
 20
67.837492
 30
0.0
  0
SPLINE
  5
12c
100
AcDbEntity
  8
Cut
 62
7
100
AcDbSpline
 70
8
 71
3
 72
8
 73
4
 74
0
 40
0
 40
0
 40
0
 40
0
 40
1
 40
1
 40
1
 40
1
 10
11.539723
 20
67.837492
 30
0.0
 10
12.754165
 20
68.340530
 30
0.0
 10
13.546002
 20
69.525598
 30
0.0
 10
13.546002
 20
70.840100
 30
0.0
  0
SPLINE
  5
12d
100
AcDbEntity
  8
Cut
 62
7
100
AcDbSpline
 70
8
 71
3
 72
8
 73
4
 74
0
 40
0
 40
0
 40
0
 40
0
 40
1
 40
1
 40
1
 40
1
 10
13.546002
 20
70.840100
 30
0.0
 10
13.546002
 20
71.702054
 30
0.0
 10
13.203592
 20
72.528704
 30
0.0
 10
12.594099
 20
73.138197
 30
0.0
  0
SPLINE
  5
12e
100
AcDbEntity
  8
Cut
 62
7
100
AcDbSpline
 70
8
 71
3
 72
8
 73
4
 74
0
 40
0
 40
0
 40
0
 40
0
 40
1
 40
1
 40
1
 40
1
 10
12.594099
 20
73.138197
 30
0.0
 10
11.984606
 20
73.747690
 30
0.0
 10
11.157956
 20
74.090100
 30
0.0
 10
10.296002
 20
74.090100
 30
0.0
  0
LWPOLYLINE
  5
12f
100
AcDbEntity
  8
Cut
 62
7
100
AcDbPolyline
 90
1
 70
1
 10
27.990000
 20
41.280100
 30
0.0
  0
SPLINE
  5
130
100
AcDbEntity
  8
Cut
 62
7
100
AcDbSpline
 70
8
 71
3
 72
8
 73
4
 74
0
 40
0
 40
0
 40
0
 40
0
 40
1
 40
1
 40
1
 40
1
 10
48.461510
 20
109.650090
 30
0.0
 10
47.147008
 20
109.650090
 30
0.0
 10
45.961940
 20
108.858253
 30
0.0
 10
45.458902
 20
107.643811
 30
0.0
  0
SPLINE
  5
131
100
AcDbEntity
  8
Cut
 62
7
100
AcDbSpline
 70
8
 71
3
 72
8
 73
4
 74
0
 40
0
 40
0
 40
0
 40
0
 40
1
 40
1
 40
1
 40
1
 10
45.458902
 20
107.643811
 30
0.0
 10
44.955863
 20
106.429369
 30
0.0
 10
45.233920
 20
105.031487
 30
0.0
 10
46.163413
 20
104.101993
 30
0.0
  0
SPLINE
  5
132
100
AcDbEntity
  8
Cut
 62
7
100
AcDbSpline
 70
8
 71
3
 72
8
 73
4
 74
0
 40
0
 40
0
 40
0
 40
0
 40
1
 40
1
 40
1
 40
1
 10
46.163413
 20
104.101993
 30
0.0
 10
47.092907
 20
103.172500
 30
0.0
 10
48.490789
 20
102.894443
 30
0.0
 10
49.705231
 20
103.397482
 30
0.0
  0
SPLINE
  5
133
100
AcDbEntity
  8
Cut
 62
7
100
AcDbSpline
 70
8
 71
3
 72
8
 73
4
 74
0
 40
0
 40
0
 40
0
 40
0
 40
1
 40
1
 40
1
 40
1
 10
49.705231
 20
103.397482
 30
0.0
 10
50.919673
 20
103.900520
 30
0.0
 10
51.711510
 20
105.085588
 30
0.0
 10
51.711510
 20
106.400090
 30
0.0
  0
SPLINE
  5
134
100
AcDbEntity
  8
Cut
 62
7
100
AcDbSpline
 70
8
 71
3
 72
8
 73
4
 74
0
 40
0
 40
0
 40
0
 40
0
 40
1
 40
1
 40
1
 40
1
 10
51.711510
 20
106.400090
 30
0.0
 10
51.711510
 20
107.262044
 30
0.0
 10
51.369100
 20
108.088694
 30
0.0
 10
50.759607
 20
108.698187
 30
0.0
  0
SPLINE
  5
135
100
AcDbEntity
  8
Cut
 62
7
100
AcDbSpline
 70
8
 71
3
 72
8
 73
4
 74
0
 40
0
 40
0
 40
0
 40
0
 40
1
 40
1
 40
1
 40
1
 10
50.759607
 20
108.698187
 30
0.0
 10
50.150114
 20
109.307680
 30
0.0
 10
49.323464
 20
109.650090
 30
0.0
 10
48.461510
 20
109.650090
 30
0.0
  0
LWPOLYLINE
  5
136
100
AcDbEntity
  8
Cut
 62
7
100
AcDbPolyline
 90
1
 70
1
 10
10.296002
 20
74.090100
 30
0.0
  0
SPLINE
  5
137
100
AcDbEntity
  8
Cut
 62
7
100
AcDbSpline
 70
8
 71
3
 72
8
 73
4
 74
0
 40
0
 40
0
 40
0
 40
0
 40
1
 40
1
 40
1
 40
1
 10
10.296002
 20
38.530100
 30
0.0
 10
8.981500
 20
38.530100
 30
0.0
 10
7.796432
 20
37.738263
 30
0.0
 10
7.293394
 20
36.523821
 30
0.0
  0
SPLINE
  5
138
100
AcDbEntity
  8
Cut
 62
7
100
AcDbSpline
 70
8
 71
3
 72
8
 73
4
 74
0
 40
0
 40
0
 40
0
 40
0
 40
1
 40
1
 40
1
 40
1
 10
7.293394
 20
36.523821
 30
0.0
 10
6.790355
 20
35.309379
 30
0.0
 10
7.068412
 20
33.911497
 30
0.0
 10
7.997905
 20
32.982003
 30
0.0
  0
SPLINE
  5
139
100
AcDbEntity
  8
Cut
 62
7
100
AcDbSpline
 70
8
 71
3
 72
8
 73
4
 74
0
 40
0
 40
0
 40
0
 40
0
 40
1
 40
1
 40
1
 40
1
 10
7.997905
 20
32.982003
 30
0.0
 10
8.927399
 20
32.052510
 30
0.0
 10
10.325281
 20
31.774453
 30
0.0
 10
11.539723
 20
32.277492
 30
0.0
  0
SPLINE
  5
13a
100
AcDbEntity
  8
Cut
 62
7
100
AcDbSpline
 70
8
 71
3
 72
8
 73
4
 74
0
 40
0
 40
0
 40
0
 40
0
 40
1
 40
1
 40
1
 40
1
 10
11.539723
 20
32.277492
 30
0.0
 10
12.754165
 20
32.780530
 30
0.0
 10
13.546002
 20
33.965598
 30
0.0
 10
13.546002
 20
35.280100
 30
0.0
  0
SPLINE
  5
13b
100
AcDbEntity
  8
Cut
 62
7
100
AcDbSpline
 70
8
 71
3
 72
8
 73
4
 74
0
 40
0
 40
0
 40
0
 40
0
 40
1
 40
1
 40
1
 40
1
 10
13.546002
 20
35.280100
 30
0.0
 10
13.546002
 20
36.142054
 30
0.0
 10
13.203592
 20
36.968704
 30
0.0
 10
12.594099
 20
37.578197
 30
0.0
  0
SPLINE
  5
13c
100
AcDbEntity
  8
Cut
 62
7
100
AcDbSpline
 70
8
 71
3
 72
8
 73
4
 74
0
 40
0
 40
0
 40
0
 40
0
 40
1
 40
1
 40
1
 40
1
 10
12.594099
 20
37.578197
 30
0.0
 10
11.984606
 20
38.187690
 30
0.0
 10
11.157956
 20
38.530100
 30
0.0
 10
10.296002
 20
38.530100
 30
0.0
  0
LWPOLYLINE
  5
13d
100
AcDbEntity
  8
Cut
 62
7
100
AcDbPolyline
 90
1
 70
1
 10
48.461510
 20
109.650090
 30
0.0
  0
SPLINE
  5
13e
100
AcDbEntity
  8
Cut
 62
7
100
AcDbSpline
 70
8
 71
3
 72
8
 73
4
 74
0
 40
0
 40
0
 40
0
 40
0
 40
1
 40
1
 40
1
 40
1
 10
27.990000
 20
59.060100
 30
0.0
 10
26.675498
 20
59.060100
 30
0.0
 10
25.490430
 20
58.268263
 30
0.0
 10
24.987392
 20
57.053821
 30
0.0
  0
SPLINE
  5
13f
100
AcDbEntity
  8
Cut
 62
7
100
AcDbSpline
 70
8
 71
3
 72
8
 73
4
 74
0
 40
0
 40
0
 40
0
 40
0
 40
1
 40
1
 40
1
 40
1
 10
24.987392
 20
57.053821
 30
0.0
 10
24.484353
 20
55.839379
 30
0.0
 10
24.762410
 20
54.441497
 30
0.0
 10
25.691903
 20
53.512003
 30
0.0
  0
SPLINE
  5
140
100
AcDbEntity
  8
Cut
 62
7
100
AcDbSpline
 70
8
 71
3
 72
8
 73
4
 74
0
 40
0
 40
0
 40
0
 40
0
 40
1
 40
1
 40
1
 40
1
 10
25.691903
 20
53.512003
 30
0.0
 10
26.621397
 20
52.582510
 30
0.0
 10
28.019279
 20
52.304453
 30
0.0
 10
29.233721
 20
52.807492
 30
0.0
  0
SPLINE
  5
141
100
AcDbEntity
  8
Cut
 62
7
100
AcDbSpline
 70
8
 71
3
 72
8
 73
4
 74
0
 40
0
 40
0
 40
0
 40
0
 40
1
 40
1
 40
1
 40
1
 10
29.233721
 20
52.807492
 30
0.0
 10
30.448163
 20
53.310530
 30
0.0
 10
31.240000
 20
54.495598
 30
0.0
 10
31.240000
 20
55.810100
 30
0.0
  0
SPLINE
  5
142
100
AcDbEntity
  8
Cut
 62
7
100
AcDbSpline
 70
8
 71
3
 72
8
 73
4
 74
0
 40
0
 40
0
 40
0
 40
0
 40
1
 40
1
 40
1
 40
1
 10
31.240000
 20
55.810100
 30
0.0
 10
31.240000
 20
56.672054
 30
0.0
 10
30.897590
 20
57.498704
 30
0.0
 10
30.288097
 20
58.108197
 30
0.0
  0
SPLINE
  5
143
100
AcDbEntity
  8
Cut
 62
7
100
AcDbSpline
 70
8
 71
3
 72
8
 73
4
 74
0
 40
0
 40
0
 40
0
 40
0
 40
1
 40
1
 40
1
 40
1
 10
30.288097
 20
58.108197
 30
0.0
 10
29.678604
 20
58.717690
 30
0.0
 10
28.851954
 20
59.060100
 30
0.0
 10
27.990000
 20
59.060100
 30
0.0
  0
LWPOLYLINE
  5
144
100
AcDbEntity
  8
Cut
 62
7
100
AcDbPolyline
 90
1
 70
1
 10
10.296002
 20
38.530100
 30
0.0
  0
SPLINE
  5
145
100
AcDbEntity
  8
Cut
 62
7
100
AcDbSpline
 70
8
 71
3
 72
8
 73
4
 74
0
 40
0
 40
0
 40
0
 40
0
 40
1
 40
1
 40
1
 40
1
 10
27.990000
 20
76.840100
 30
0.0
 10
26.675498
 20
76.840100
 30
0.0
 10
25.490430
 20
76.048263
 30
0.0
 10
24.987392
 20
74.833821
 30
0.0
  0
SPLINE
  5
146
100
AcDbEntity
  8
Cut
 62
7
100
AcDbSpline
 70
8
 71
3
 72
8
 73
4
 74
0
 40
0
 40
0
 40
0
 40
0
 40
1
 40
1
 40
1
 40
1
 10
24.987392
 20
74.833821
 30
0.0
 10
24.484353
 20
73.619379
 30
0.0
 10
24.762410
 20
72.221497
 30
0.0
 10
25.691903
 20
71.292003
 30
0.0
  0
SPLINE
  5
147
100
AcDbEntity
  8
Cut
 62
7
100
AcDbSpline
 70
8
 71
3
 72
8
 73
4
 74
0
 40
0
 40
0
 40
0
 40
0
 40
1
 40
1
 40
1
 40
1
 10
25.691903
 20
71.292003
 30
0.0
 10
26.621397
 20
70.362510
 30
0.0
 10
28.019279
 20
70.084453
 30
0.0
 10
29.233721
 20
70.587492
 30
0.0
  0
SPLINE
  5
148
100
AcDbEntity
  8
Cut
 62
7
100
AcDbSpline
 70
8
 71
3
 72
8
 73
4
 74
0
 40
0
 40
0
 40
0
 40
0
 40
1
 40
1
 40
1
 40
1
 10
29.233721
 20
70.587492
 30
0.0
 10
30.448163
 20
71.090530
 30
0.0
 10
31.240000
 20
72.275598
 30
0.0
 10
31.240000
 20
73.590100
 30
0.0
  0
SPLINE
  5
149
100
AcDbEntity
  8
Cut
 62
7
100
AcDbSpline
 70
8
 71
3
 72
8
 73
4
 74
0
 40
0
 40
0
 40
0
 40
0
 40
1
 40
1
 40
1
 40
1
 10
31.240000
 20
73.590100
 30
0.0
 10
31.240000
 20
74.452054
 30
0.0
 10
30.897590
 20
75.278704
 30
0.0
 10
30.288097
 20
75.888197
 30
0.0
  0
SPLINE
  5
14a
100
AcDbEntity
  8
Cut
 62
7
100
AcDbSpline
 70
8
 71
3
 72
8
 73
4
 74
0
 40
0
 40
0
 40
0
 40
0
 40
1
 40
1
 40
1
 40
1
 10
30.288097
 20
75.888197
 30
0.0
 10
29.678604
 20
76.497690
 30
0.0
 10
28.851954
 20
76.840100
 30
0.0
 10
27.990000
 20
76.840100
 30
0.0
  0
LWPOLYLINE
  5
14b
100
AcDbEntity
  8
Cut
 62
7
100
AcDbPolyline
 90
1
 70
1
 10
27.990000
 20
59.060100
 30
0.0
  0
SPLINE
  5
14c
100
AcDbEntity
  8
Cut
 62
7
100
AcDbSpline
 70
8
 71
3
 72
8
 73
4
 74
0
 40
0
 40
0
 40
0
 40
0
 40
1
 40
1
 40
1
 40
1
 10
27.990000
 20
94.620090
 30
0.0
 10
26.675498
 20
94.620090
 30
0.0
 10
25.490430
 20
93.828253
 30
0.0
 10
24.987392
 20
92.613811
 30
0.0
  0
SPLINE
  5
14d
100
AcDbEntity
  8
Cut
 62
7
100
AcDbSpline
 70
8
 71
3
 72
8
 73
4
 74
0
 40
0
 40
0
 40
0
 40
0
 40
1
 40
1
 40
1
 40
1
 10
24.987392
 20
92.613811
 30
0.0
 10
24.484353
 20
91.399369
 30
0.0
 10
24.762410
 20
90.001487
 30
0.0
 10
25.691903
 20
89.071993
 30
0.0
  0
SPLINE
  5
14e
100
AcDbEntity
  8
Cut
 62
7
100
AcDbSpline
 70
8
 71
3
 72
8
 73
4
 74
0
 40
0
 40
0
 40
0
 40
0
 40
1
 40
1
 40
1
 40
1
 10
25.691903
 20
89.071993
 30
0.0
 10
26.621397
 20
88.142500
 30
0.0
 10
28.019279
 20
87.864443
 30
0.0
 10
29.233721
 20
88.367482
 30
0.0
  0
SPLINE
  5
14f
100
AcDbEntity
  8
Cut
 62
7
100
AcDbSpline
 70
8
 71
3
 72
8
 73
4
 74
0
 40
0
 40
0
 40
0
 40
0
 40
1
 40
1
 40
1
 40
1
 10
29.233721
 20
88.367482
 30
0.0
 10
30.448163
 20
88.870520
 30
0.0
 10
31.240000
 20
90.055588
 30
0.0
 10
31.240000
 20
91.370090
 30
0.0
  0
SPLINE
  5
150
100
AcDbEntity
  8
Cut
 62
7
100
AcDbSpline
 70
8
 71
3
 72
8
 73
4
 74
0
 40
0
 40
0
 40
0
 40
0
 40
1
 40
1
 40
1
 40
1
 10
31.240000
 20
91.370090
 30
0.0
 10
31.240000
 20
92.232044
 30
0.0
 10
30.897590
 20
93.058694
 30
0.0
 10
30.288097
 20
93.668187
 30
0.0
  0
SPLINE
  5
151
100
AcDbEntity
  8
Cut
 62
7
100
AcDbSpline
 70
8
 71
3
 72
8
 73
4
 74
0
 40
0
 40
0
 40
0
 40
0
 40
1
 40
1
 40
1
 40
1
 10
30.288097
 20
93.668187
 30
0.0
 10
29.678604
 20
94.277680
 30
0.0
 10
28.851954
 20
94.620090
 30
0.0
 10
27.990000
 20
94.620090
 30
0.0
  0
LWPOLYLINE
  5
152
100
AcDbEntity
  8
Cut
 62
7
100
AcDbPolyline
 90
1
 70
1
 10
27.990000
 20
76.840100
 30
0.0
  0
SPLINE
  5
153
100
AcDbEntity
  8
Cut
 62
7
100
AcDbSpline
 70
8
 71
3
 72
8
 73
4
 74
0
 40
0
 40
0
 40
0
 40
0
 40
1
 40
1
 40
1
 40
1
 10
27.990000
 20
23.500110
 30
0.0
 10
26.675498
 20
23.500110
 30
0.0
 10
25.490430
 20
22.708273
 30
0.0
 10
24.987392
 20
21.493831
 30
0.0
  0
SPLINE
  5
154
100
AcDbEntity
  8
Cut
 62
7
100
AcDbSpline
 70
8
 71
3
 72
8
 73
4
 74
0
 40
0
 40
0
 40
0
 40
0
 40
1
 40
1
 40
1
 40
1
 10
24.987392
 20
21.493831
 30
0.0
 10
24.484353
 20
20.279389
 30
0.0
 10
24.762410
 20
18.881507
 30
0.0
 10
25.691903
 20
17.952013
 30
0.0
  0
SPLINE
  5
155
100
AcDbEntity
  8
Cut
 62
7
100
AcDbSpline
 70
8
 71
3
 72
8
 73
4
 74
0
 40
0
 40
0
 40
0
 40
0
 40
1
 40
1
 40
1
 40
1
 10
25.691903
 20
17.952013
 30
0.0
 10
26.621397
 20
17.022520
 30
0.0
 10
28.019279
 20
16.744463
 30
0.0
 10
29.233721
 20
17.247502
 30
0.0
  0
SPLINE
  5
156
100
AcDbEntity
  8
Cut
 62
7
100
AcDbSpline
 70
8
 71
3
 72
8
 73
4
 74
0
 40
0
 40
0
 40
0
 40
0
 40
1
 40
1
 40
1
 40
1
 10
29.233721
 20
17.247502
 30
0.0
 10
30.448163
 20
17.750540
 30
0.0
 10
31.240000
 20
18.935608
 30
0.0
 10
31.240000
 20
20.250110
 30
0.0
  0
SPLINE
  5
157
100
AcDbEntity
  8
Cut
 62
7
100
AcDbSpline
 70
8
 71
3
 72
8
 73
4
 74
0
 40
0
 40
0
 40
0
 40
0
 40
1
 40
1
 40
1
 40
1
 10
31.240000
 20
20.250110
 30
0.0
 10
31.240000
 20
21.112064
 30
0.0
 10
30.897590
 20
21.938714
 30
0.0
 10
30.288097
 20
22.548207
 30
0.0
  0
SPLINE
  5
158
100
AcDbEntity
  8
Cut
 62
7
100
AcDbSpline
 70
8
 71
3
 72
8
 73
4
 74
0
 40
0
 40
0
 40
0
 40
0
 40
1
 40
1
 40
1
 40
1
 10
30.288097
 20
22.548207
 30
0.0
 10
29.678604
 20
23.157700
 30
0.0
 10
28.851954
 20
23.500110
 30
0.0
 10
27.990000
 20
23.500110
 30
0.0
  0
LWPOLYLINE
  5
159
100
AcDbEntity
  8
Cut
 62
7
100
AcDbPolyline
 90
1
 70
1
 10
27.990000
 20
94.620090
 30
0.0
  0
SPLINE
  5
15a
100
AcDbEntity
  8
Cut
 62
7
100
AcDbSpline
 70
8
 71
3
 72
8
 73
4
 74
0
 40
0
 40
0
 40
0
 40
0
 40
1
 40
1
 40
1
 40
1
 10
48.310010
 20
38.530100
 30
0.0
 10
46.995508
 20
38.530100
 30
0.0
 10
45.810440
 20
37.738263
 30
0.0
 10
45.307402
 20
36.523821
 30
0.0
  0
SPLINE
  5
15b
100
AcDbEntity
  8
Cut
 62
7
100
AcDbSpline
 70
8
 71
3
 72
8
 73
4
 74
0
 40
0
 40
0
 40
0
 40
0
 40
1
 40
1
 40
1
 40
1
 10
45.307402
 20
36.523821
 30
0.0
 10
44.804363
 20
35.309379
 30
0.0
 10
45.082420
 20
33.911497
 30
0.0
 10
46.011913
 20
32.982003
 30
0.0
  0
SPLINE
  5
15c
100
AcDbEntity
  8
Cut
 62
7
100
AcDbSpline
 70
8
 71
3
 72
8
 73
4
 74
0
 40
0
 40
0
 40
0
 40
0
 40
1
 40
1
 40
1
 40
1
 10
46.011913
 20
32.982003
 30
0.0
 10
46.941407
 20
32.052510
 30
0.0
 10
48.339289
 20
31.774453
 30
0.0
 10
49.553731
 20
32.277492
 30
0.0
  0
SPLINE
  5
15d
100
AcDbEntity
  8
Cut
 62
7
100
AcDbSpline
 70
8
 71
3
 72
8
 73
4
 74
0
 40
0
 40
0
 40
0
 40
0
 40
1
 40
1
 40
1
 40
1
 10
49.553731
 20
32.277492
 30
0.0
 10
50.768173
 20
32.780530
 30
0.0
 10
51.560010
 20
33.965598
 30
0.0
 10
51.560010
 20
35.280100
 30
0.0
  0
SPLINE
  5
15e
100
AcDbEntity
  8
Cut
 62
7
100
AcDbSpline
 70
8
 71
3
 72
8
 73
4
 74
0
 40
0
 40
0
 40
0
 40
0
 40
1
 40
1
 40
1
 40
1
 10
51.560010
 20
35.280100
 30
0.0
 10
51.560010
 20
36.142054
 30
0.0
 10
51.217600
 20
36.968704
 30
0.0
 10
50.608107
 20
37.578197
 30
0.0
  0
SPLINE
  5
15f
100
AcDbEntity
  8
Cut
 62
7
100
AcDbSpline
 70
8
 71
3
 72
8
 73
4
 74
0
 40
0
 40
0
 40
0
 40
0
 40
1
 40
1
 40
1
 40
1
 10
50.608107
 20
37.578197
 30
0.0
 10
49.998614
 20
38.187690
 30
0.0
 10
49.171964
 20
38.530100
 30
0.0
 10
48.310010
 20
38.530100
 30
0.0
  0
LWPOLYLINE
  5
160
100
AcDbEntity
  8
Cut
 62
7
100
AcDbPolyline
 90
1
 70
1
 10
27.990000
 20
23.500110
 30
0.0
  0
SPLINE
  5
161
100
AcDbEntity
  8
Cut
 62
7
100
AcDbSpline
 70
8
 71
3
 72
8
 73
4
 74
0
 40
0
 40
0
 40
0
 40
0
 40
1
 40
1
 40
1
 40
1
 10
10.210004
 20
94.620090
 30
0.0
 10
8.895502
 20
94.620090
 30
0.0
 10
7.710434
 20
93.828253
 30
0.0
 10
7.207396
 20
92.613811
 30
0.0
  0
SPLINE
  5
162
100
AcDbEntity
  8
Cut
 62
7
100
AcDbSpline
 70
8
 71
3
 72
8
 73
4
 74
0
 40
0
 40
0
 40
0
 40
0
 40
1
 40
1
 40
1
 40
1
 10
7.207396
 20
92.613811
 30
0.0
 10
6.704357
 20
91.399369
 30
0.0
 10
6.982414
 20
90.001487
 30
0.0
 10
7.911907
 20
89.071993
 30
0.0
  0
SPLINE
  5
163
100
AcDbEntity
  8
Cut
 62
7
100
AcDbSpline
 70
8
 71
3
 72
8
 73
4
 74
0
 40
0
 40
0
 40
0
 40
0
 40
1
 40
1
 40
1
 40
1
 10
7.911907
 20
89.071993
 30
0.0
 10
8.841401
 20
88.142500
 30
0.0
 10
10.239283
 20
87.864443
 30
0.0
 10
11.453725
 20
88.367482
 30
0.0
  0
SPLINE
  5
164
100
AcDbEntity
  8
Cut
 62
7
100
AcDbSpline
 70
8
 71
3
 72
8
 73
4
 74
0
 40
0
 40
0
 40
0
 40
0
 40
1
 40
1
 40
1
 40
1
 10
11.453725
 20
88.367482
 30
0.0
 10
12.668167
 20
88.870520
 30
0.0
 10
13.460004
 20
90.055588
 30
0.0
 10
13.460004
 20
91.370090
 30
0.0
  0
SPLINE
  5
165
100
AcDbEntity
  8
Cut
 62
7
100
AcDbSpline
 70
8
 71
3
 72
8
 73
4
 74
0
 40
0
 40
0
 40
0
 40
0
 40
1
 40
1
 40
1
 40
1
 10
13.460004
 20
91.370090
 30
0.0
 10
13.460004
 20
92.232044
 30
0.0
 10
13.117594
 20
93.058694
 30
0.0
 10
12.508101
 20
93.668187
 30
0.0
  0
SPLINE
  5
166
100
AcDbEntity
  8
Cut
 62
7
100
AcDbSpline
 70
8
 71
3
 72
8
 73
4
 74
0
 40
0
 40
0
 40
0
 40
0
 40
1
 40
1
 40
1
 40
1
 10
12.508101
 20
93.668187
 30
0.0
 10
11.898608
 20
94.277680
 30
0.0
 10
11.071958
 20
94.620090
 30
0.0
 10
10.210004
 20
94.620090
 30
0.0
  0
LWPOLYLINE
  5
167
100
AcDbEntity
  8
Cut
 62
7
100
AcDbPolyline
 90
1
 70
1
 10
48.310010
 20
38.530100
 30
0.0
  0
SPLINE
  5
168
100
AcDbEntity
  8
Cut
 62
7
100
AcDbSpline
 70
8
 71
3
 72
8
 73
4
 74
0
 40
0
 40
0
 40
0
 40
0
 40
1
 40
1
 40
1
 40
1
 10
10.210004
 20
59.060100
 30
0.0
 10
8.895502
 20
59.060100
 30
0.0
 10
7.710434
 20
58.268263
 30
0.0
 10
7.207396
 20
57.053821
 30
0.0
  0
SPLINE
  5
169
100
AcDbEntity
  8
Cut
 62
7
100
AcDbSpline
 70
8
 71
3
 72
8
 73
4
 74
0
 40
0
 40
0
 40
0
 40
0
 40
1
 40
1
 40
1
 40
1
 10
7.207396
 20
57.053821
 30
0.0
 10
6.704357
 20
55.839379
 30
0.0
 10
6.982414
 20
54.441497
 30
0.0
 10
7.911907
 20
53.512003
 30
0.0
  0
SPLINE
  5
16a
100
AcDbEntity
  8
Cut
 62
7
100
AcDbSpline
 70
8
 71
3
 72
8
 73
4
 74
0
 40
0
 40
0
 40
0
 40
0
 40
1
 40
1
 40
1
 40
1
 10
7.911907
 20
53.512003
 30
0.0
 10
8.841401
 20
52.582510
 30
0.0
 10
10.239283
 20
52.304453
 30
0.0
 10
11.453725
 20
52.807492
 30
0.0
  0
SPLINE
  5
16b
100
AcDbEntity
  8
Cut
 62
7
100
AcDbSpline
 70
8
 71
3
 72
8
 73
4
 74
0
 40
0
 40
0
 40
0
 40
0
 40
1
 40
1
 40
1
 40
1
 10
11.453725
 20
52.807492
 30
0.0
 10
12.668167
 20
53.310530
 30
0.0
 10
13.460004
 20
54.495598
 30
0.0
 10
13.460004
 20
55.810100
 30
0.0
  0
SPLINE
  5
16c
100
AcDbEntity
  8
Cut
 62
7
100
AcDbSpline
 70
8
 71
3
 72
8
 73
4
 74
0
 40
0
 40
0
 40
0
 40
0
 40
1
 40
1
 40
1
 40
1
 10
13.460004
 20
55.810100
 30
0.0
 10
13.460004
 20
56.672054
 30
0.0
 10
13.117594
 20
57.498704
 30
0.0
 10
12.508101
 20
58.108197
 30
0.0
  0
SPLINE
  5
16d
100
AcDbEntity
  8
Cut
 62
7
100
AcDbSpline
 70
8
 71
3
 72
8
 73
4
 74
0
 40
0
 40
0
 40
0
 40
0
 40
1
 40
1
 40
1
 40
1
 10
12.508101
 20
58.108197
 30
0.0
 10
11.898608
 20
58.717690
 30
0.0
 10
11.071958
 20
59.060100
 30
0.0
 10
10.210004
 20
59.060100
 30
0.0
  0
LWPOLYLINE
  5
16e
100
AcDbEntity
  8
Cut
 62
7
100
AcDbPolyline
 90
1
 70
1
 10
10.210004
 20
94.620090
 30
0.0
  0
SPLINE
  5
16f
100
AcDbEntity
  8
Cut
 62
7
100
AcDbSpline
 70
8
 71
3
 72
8
 73
4
 74
0
 40
0
 40
0
 40
0
 40
0
 40
1
 40
1
 40
1
 40
1
 10
48.310010
 20
92.450090
 30
0.0
 10
47.096623
 20
92.450090
 30
0.0
 10
46.002715
 20
91.719163
 30
0.0
 10
45.538372
 20
90.598140
 30
0.0
  0
SPLINE
  5
170
100
AcDbEntity
  8
Cut
 62
7
100
AcDbSpline
 70
8
 71
3
 72
8
 73
4
 74
0
 40
0
 40
0
 40
0
 40
0
 40
1
 40
1
 40
1
 40
1
 10
45.538372
 20
90.598140
 30
0.0
 10
45.074029
 20
89.477117
 30
0.0
 10
45.330696
 20
88.186764
 30
0.0
 10
46.188690
 20
87.328770
 30
0.0
  0
SPLINE
  5
171
100
AcDbEntity
  8
Cut
 62
7
100
AcDbSpline
 70
8
 71
3
 72
8
 73
4
 74
0
 40
0
 40
0
 40
0
 40
0
 40
1
 40
1
 40
1
 40
1
 10
46.188690
 20
87.328770
 30
0.0
 10
47.046684
 20
86.470776
 30
0.0
 10
48.337037
 20
86.214109
 30
0.0
 10
49.458060
 20
86.678452
 30
0.0
  0
SPLINE
  5
172
100
AcDbEntity
  8
Cut
 62
7
100
AcDbSpline
 70
8
 71
3
 72
8
 73
4
 74
0
 40
0
 40
0
 40
0
 40
0
 40
1
 40
1
 40
1
 40
1
 10
49.458060
 20
86.678452
 30
0.0
 10
50.579083
 20
87.142795
 30
0.0
 10
51.310010
 20
88.236703
 30
0.0
 10
51.310010
 20
89.450090
 30
0.0
  0
SPLINE
  5
173
100
AcDbEntity
  8
Cut
 62
7
100
AcDbSpline
 70
8
 71
3
 72
8
 73
4
 74
0
 40
0
 40
0
 40
0
 40
0
 40
1
 40
1
 40
1
 40
1
 10
51.310010
 20
89.450090
 30
0.0
 10
51.310010
 20
90.245739
 30
0.0
 10
50.993939
 20
91.008801
 30
0.0
 10
50.431330
 20
91.571410
 30
0.0
  0
SPLINE
  5
174
100
AcDbEntity
  8
Cut
 62
7
100
AcDbSpline
 70
8
 71
3
 72
8
 73
4
 74
0
 40
0
 40
0
 40
0
 40
0
 40
1
 40
1
 40
1
 40
1
 10
50.431330
 20
91.571410
 30
0.0
 10
49.868721
 20
92.134019
 30
0.0
 10
49.105659
 20
92.450090
 30
0.0
 10
48.310010
 20
92.450090
 30
0.0
  0
LWPOLYLINE
  5
175
100
AcDbEntity
  8
Cut
 62
7
100
AcDbPolyline
 90
1
 70
1
 10
10.210004
 20
59.060100
 30
0.0
  0
SPLINE
  5
176
100
AcDbEntity
  8
Cut
 62
7
100
AcDbSpline
 70
8
 71
3
 72
8
 73
4
 74
0
 40
0
 40
0
 40
0
 40
0
 40
1
 40
1
 40
1
 40
1
 10
27.990000
 20
112.400092
 30
0.0
 10
26.675498
 20
112.400092
 30
0.0
 10
25.490430
 20
111.608255
 30
0.0
 10
24.987392
 20
110.393813
 30
0.0
  0
SPLINE
  5
177
100
AcDbEntity
  8
Cut
 62
7
100
AcDbSpline
 70
8
 71
3
 72
8
 73
4
 74
0
 40
0
 40
0
 40
0
 40
0
 40
1
 40
1
 40
1
 40
1
 10
24.987392
 20
110.393813
 30
0.0
 10
24.484353
 20
109.179371
 30
0.0
 10
24.762410
 20
107.781489
 30
0.0
 10
25.691903
 20
106.851995
 30
0.0
  0
SPLINE
  5
178
100
AcDbEntity
  8
Cut
 62
7
100
AcDbSpline
 70
8
 71
3
 72
8
 73
4
 74
0
 40
0
 40
0
 40
0
 40
0
 40
1
 40
1
 40
1
 40
1
 10
25.691903
 20
106.851995
 30
0.0
 10
26.621397
 20
105.922502
 30
0.0
 10
28.019279
 20
105.644445
 30
0.0
 10
29.233721
 20
106.147484
 30
0.0
  0
SPLINE
  5
179
100
AcDbEntity
  8
Cut
 62
7
100
AcDbSpline
 70
8
 71
3
 72
8
 73
4
 74
0
 40
0
 40
0
 40
0
 40
0
 40
1
 40
1
 40
1
 40
1
 10
29.233721
 20
106.147484
 30
0.0
 10
30.448163
 20
106.650522
 30
0.0
 10
31.240000
 20
107.835590
 30
0.0
 10
31.240000
 20
109.150092
 30
0.0
  0
SPLINE
  5
17a
100
AcDbEntity
  8
Cut
 62
7
100
AcDbSpline
 70
8
 71
3
 72
8
 73
4
 74
0
 40
0
 40
0
 40
0
 40
0
 40
1
 40
1
 40
1
 40
1
 10
31.240000
 20
109.150092
 30
0.0
 10
31.240000
 20
110.012046
 30
0.0
 10
30.897590
 20
110.838696
 30
0.0
 10
30.288097
 20
111.448189
 30
0.0
  0
SPLINE
  5
17b
100
AcDbEntity
  8
Cut
 62
7
100
AcDbSpline
 70
8
 71
3
 72
8
 73
4
 74
0
 40
0
 40
0
 40
0
 40
0
 40
1
 40
1
 40
1
 40
1
 10
30.288097
 20
111.448189
 30
0.0
 10
29.678604
 20
112.057682
 30
0.0
 10
28.851954
 20
112.400092
 30
0.0
 10
27.990000
 20
112.400092
 30
0.0
  0
LWPOLYLINE
  5
17c
100
AcDbEntity
  8
Cut
 62
7
100
AcDbPolyline
 90
1
 70
1
 10
48.310010
 20
92.450090
 30
0.0
  0
LWPOLYLINE
  5
17d
100
AcDbEntity
  8
Cut
 62
7
100
AcDbPolyline
 90
1
 70
1
 10
27.990000
 20
112.400092
 30
0.0
  0
SPLINE
  5
17e
100
AcDbEntity
  8
Cut
 62
7
100
AcDbSpline
 70
8
 71
3
 72
8
 73
4
 74
0
 40
0
 40
0
 40
0
 40
0
 40
1
 40
1
 40
1
 40
1
 10
52.205800
 20
123.700090
 30
0.0
 10
53.089143
 20
123.700532
 30
0.0
 10
53.805000
 20
124.416747
 30
0.0
 10
53.805000
 20
125.300090
 30
0.0
  0
SPLINE
  5
17f
100
AcDbEntity
  8
Cut
 62
7
100
AcDbSpline
 70
8
 71
3
 72
8
 73
4
 74
0
 40
0
 40
0
 40
0
 40
0
 40
1
 40
1
 40
1
 40
1
 10
53.805000
 20
125.300090
 30
0.0
 10
53.805000
 20
126.183433
 30
0.0
 10
53.089143
 20
126.899648
 30
0.0
 10
52.205800
 20
126.900090
 30
0.0
  0
LWPOLYLINE
  5
180
100
AcDbEntity
  8
Cut
 62
7
100
AcDbPolyline
 90
4
 70
1
 10
0.049939
 20
128.050093
 30
0.0
 10
58.470052
 20
128.050093
 30
0.0
 10
58.470052
 20
0.049983
 30
0.0
 10
0.049939
 20
0.049983
 30
0.0
  0
SPLINE
  5
181
100
AcDbEntity
  8
Cut
 62
7
100
AcDbSpline
 70
8
 71
3
 72
8
 73
4
 74
0
 40
0
 40
0
 40
0
 40
0
 40
1
 40
1
 40
1
 40
1
 10
49.665800
 20
126.900090
 30
0.0
 10
49.093985
 20
126.900376
 30
0.0
 10
48.565483
 20
126.595480
 30
0.0
 10
48.279493
 20
126.100321
 30
0.0
  0
SPLINE
  5
182
100
AcDbEntity
  8
Cut
 62
7
100
AcDbSpline
 70
8
 71
3
 72
8
 73
4
 74
0
 40
0
 40
0
 40
0
 40
0
 40
1
 40
1
 40
1
 40
1
 10
48.279493
 20
126.100321
 30
0.0
 10
47.993502
 20
125.605162
 30
0.0
 10
47.993502
 20
124.995018
 30
0.0
 10
48.279493
 20
124.499859
 30
0.0
  0
SPLINE
  5
183
100
AcDbEntity
  8
Cut
 62
7
100
AcDbSpline
 70
8
 71
3
 72
8
 73
4
 74
0
 40
0
 40
0
 40
0
 40
0
 40
1
 40
1
 40
1
 40
1
 10
48.279493
 20
124.499859
 30
0.0
 10
48.565483
 20
124.004700
 30
0.0
 10
49.093985
 20
123.699804
 30
0.0
 10
49.665800
 20
123.700090
 30
0.0
  0
LWPOLYLINE
  5
184
100
AcDbEntity
  8
Cut
 62
7
100
AcDbPolyline
 90
2
 70
0
 10
52.205800
 20
126.900090
 30
0.0
 10
49.665800
 20
126.900090
 30
0.0
  0
SPLINE
  5
185
100
AcDbEntity
  8
Cut
 62
7
100
AcDbSpline
 70
8
 71
3
 72
8
 73
4
 74
0
 40
0
 40
0
 40
0
 40
0
 40
1
 40
1
 40
1
 40
1
 10
9.026001
 20
123.700090
 30
0.0
 10
9.909344
 20
123.700532
 30
0.0
 10
10.625201
 20
124.416747
 30
0.0
 10
10.625201
 20
125.300090
 30
0.0
  0
SPLINE
  5
186
100
AcDbEntity
  8
Cut
 62
7
100
AcDbSpline
 70
8
 71
3
 72
8
 73
4
 74
0
 40
0
 40
0
 40
0
 40
0
 40
1
 40
1
 40
1
 40
1
 10
10.625201
 20
125.300090
 30
0.0
 10
10.625201
 20
126.183433
 30
0.0
 10
9.909344
 20
126.899648
 30
0.0
 10
9.026001
 20
126.900090
 30
0.0
  0
LWPOLYLINE
  5
187
100
AcDbEntity
  8
Cut
 62
7
100
AcDbPolyline
 90
2
 70
0
 10
49.665800
 20
123.700090
 30
0.0
 10
52.205800
 20
123.700090
 30
0.0
  0
SPLINE
  5
188
100
AcDbEntity
  8
Cut
 62
7
100
AcDbSpline
 70
8
 71
3
 72
8
 73
4
 74
0
 40
0
 40
0
 40
0
 40
0
 40
1
 40
1
 40
1
 40
1
 10
6.486001
 20
126.900090
 30
0.0
 10
5.914186
 20
126.900376
 30
0.0
 10
5.385684
 20
126.595480
 30
0.0
 10
5.099694
 20
126.100321
 30
0.0
  0
SPLINE
  5
189
100
AcDbEntity
  8
Cut
 62
7
100
AcDbSpline
 70
8
 71
3
 72
8
 73
4
 74
0
 40
0
 40
0
 40
0
 40
0
 40
1
 40
1
 40
1
 40
1
 10
5.099694
 20
126.100321
 30
0.0
 10
4.813703
 20
125.605162
 30
0.0
 10
4.813703
 20
124.995018
 30
0.0
 10
5.099694
 20
124.499859
 30
0.0
  0
SPLINE
  5
18a
100
AcDbEntity
  8
Cut
 62
7
100
AcDbSpline
 70
8
 71
3
 72
8
 73
4
 74
0
 40
0
 40
0
 40
0
 40
0
 40
1
 40
1
 40
1
 40
1
 10
5.099694
 20
124.499859
 30
0.0
 10
5.385684
 20
124.004700
 30
0.0
 10
5.914186
 20
123.699804
 30
0.0
 10
6.486001
 20
123.700090
 30
0.0
  0
LWPOLYLINE
  5
18b
100
AcDbEntity
  8
Cut
 62
7
100
AcDbPolyline
 90
2
 70
0
 10
9.026001
 20
126.900090
 30
0.0
 10
6.486001
 20
126.900090
 30
0.0
  0
SPLINE
  5
18c
100
AcDbEntity
  8
Cut
 62
7
100
AcDbSpline
 70
8
 71
3
 72
8
 73
4
 74
0
 40
0
 40
0
 40
0
 40
0
 40
1
 40
1
 40
1
 40
1
 10
52.187210
 20
1.200090
 30
0.0
 10
53.070553
 20
1.200532
 30
0.0
 10
53.786410
 20
1.916747
 30
0.0
 10
53.786410
 20
2.800090
 30
0.0
  0
SPLINE
  5
18d
100
AcDbEntity
  8
Cut
 62
7
100
AcDbSpline
 70
8
 71
3
 72
8
 73
4
 74
0
 40
0
 40
0
 40
0
 40
0
 40
1
 40
1
 40
1
 40
1
 10
53.786410
 20
2.800090
 30
0.0
 10
53.786410
 20
3.683433
 30
0.0
 10
53.070553
 20
4.399648
 30
0.0
 10
52.187210
 20
4.400090
 30
0.0
  0
LWPOLYLINE
  5
18e
100
AcDbEntity
  8
Cut
 62
7
100
AcDbPolyline
 90
2
 70
0
 10
6.486001
 20
123.700090
 30
0.0
 10
9.026001
 20
123.700090
 30
0.0
  0
SPLINE
  5
18f
100
AcDbEntity
  8
Cut
 62
7
100
AcDbSpline
 70
8
 71
3
 72
8
 73
4
 74
0
 40
0
 40
0
 40
0
 40
0
 40
1
 40
1
 40
1
 40
1
 10
49.647210
 20
4.400090
 30
0.0
 10
49.075395
 20
4.400376
 30
0.0
 10
48.546893
 20
4.095480
 30
0.0
 10
48.260903
 20
3.600321
 30
0.0
  0
SPLINE
  5
190
100
AcDbEntity
  8
Cut
 62
7
100
AcDbSpline
 70
8
 71
3
 72
8
 73
4
 74
0
 40
0
 40
0
 40
0
 40
0
 40
1
 40
1
 40
1
 40
1
 10
48.260903
 20
3.600321
 30
0.0
 10
47.974912
 20
3.105162
 30
0.0
 10
47.974912
 20
2.495018
 30
0.0
 10
48.260903
 20
1.999859
 30
0.0
  0
SPLINE
  5
191
100
AcDbEntity
  8
Cut
 62
7
100
AcDbSpline
 70
8
 71
3
 72
8
 73
4
 74
0
 40
0
 40
0
 40
0
 40
0
 40
1
 40
1
 40
1
 40
1
 10
48.260903
 20
1.999859
 30
0.0
 10
48.546893
 20
1.504700
 30
0.0
 10
49.075395
 20
1.199804
 30
0.0
 10
49.647210
 20
1.200090
 30
0.0
  0
LWPOLYLINE
  5
192
100
AcDbEntity
  8
Cut
 62
7
100
AcDbPolyline
 90
2
 70
0
 10
52.187210
 20
4.400090
 30
0.0
 10
49.647210
 20
4.400090
 30
0.0
  0
SPLINE
  5
193
100
AcDbEntity
  8
Cut
 62
7
100
AcDbSpline
 70
8
 71
3
 72
8
 73
4
 74
0
 40
0
 40
0
 40
0
 40
0
 40
1
 40
1
 40
1
 40
1
 10
9.007405
 20
1.200090
 30
0.0
 10
9.890748
 20
1.200532
 30
0.0
 10
10.606605
 20
1.916747
 30
0.0
 10
10.606605
 20
2.800090
 30
0.0
  0
SPLINE
  5
194
100
AcDbEntity
  8
Cut
 62
7
100
AcDbSpline
 70
8
 71
3
 72
8
 73
4
 74
0
 40
0
 40
0
 40
0
 40
0
 40
1
 40
1
 40
1
 40
1
 10
10.606605
 20
2.800090
 30
0.0
 10
10.606605
 20
3.683433
 30
0.0
 10
9.890748
 20
4.399648
 30
0.0
 10
9.007405
 20
4.400090
 30
0.0
  0
LWPOLYLINE
  5
195
100
AcDbEntity
  8
Cut
 62
7
100
AcDbPolyline
 90
2
 70
0
 10
49.647210
 20
1.200090
 30
0.0
 10
52.187210
 20
1.200090
 30
0.0
  0
SPLINE
  5
196
100
AcDbEntity
  8
Cut
 62
7
100
AcDbSpline
 70
8
 71
3
 72
8
 73
4
 74
0
 40
0
 40
0
 40
0
 40
0
 40
1
 40
1
 40
1
 40
1
 10
6.467405
 20
4.400090
 30
0.0
 10
5.895590
 20
4.400376
 30
0.0
 10
5.367088
 20
4.095480
 30
0.0
 10
5.081098
 20
3.600321
 30
0.0
  0
SPLINE
  5
197
100
AcDbEntity
  8
Cut
 62
7
100
AcDbSpline
 70
8
 71
3
 72
8
 73
4
 74
0
 40
0
 40
0
 40
0
 40
0
 40
1
 40
1
 40
1
 40
1
 10
5.081098
 20
3.600321
 30
0.0
 10
4.795107
 20
3.105162
 30
0.0
 10
4.795107
 20
2.495018
 30
0.0
 10
5.081098
 20
1.999859
 30
0.0
  0
SPLINE
  5
198
100
AcDbEntity
  8
Cut
 62
7
100
AcDbSpline
 70
8
 71
3
 72
8
 73
4
 74
0
 40
0
 40
0
 40
0
 40
0
 40
1
 40
1
 40
1
 40
1
 10
5.081098
 20
1.999859
 30
0.0
 10
5.367088
 20
1.504700
 30
0.0
 10
5.895590
 20
1.199804
 30
0.0
 10
6.467405
 20
1.200090
 30
0.0
  0
LWPOLYLINE
  5
199
100
AcDbEntity
  8
Cut
 62
7
100
AcDbPolyline
 90
2
 70
0
 10
9.007405
 20
4.400090
 30
0.0
 10
6.467405
 20
4.400090
 30
0.0
  0
LWPOLYLINE
  5
19a
100
AcDbEntity
  8
Cut
 62
7
100
AcDbPolyline
 90
2
 70
0
 10
6.467405
 20
1.200090
 30
0.0
 10
9.007405
 20
1.200090
 30
0.0
  0
ENDSEC
  0
SECTION
  2
OBJECTS
  0
DICTIONARY
  5
C
330
0
100
AcDbDictionary
  3
ACAD_GROUP
350
D
  3
ACAD_MLINESTYLE
350
17
  0
DICTIONARY
  5
D
330
C
100
AcDbDictionary
  0
DICTIONARY
  5
1A
330
C
100
AcDbDictionary
  0
DICTIONARY
  5
17
330
C
100
AcDbDictionary
  3
STANDARD
350
18
  0
DICTIONARY
  5
19
330
C
100
AcDbDictionary
  0
ENDSEC
  0
EOF
