  0
SECTION
  2
HEADER
  9
$ACADVER
  1
AC1014
  9
$HANDSEED
  5
FFFF
  9
$INSUNITS
 70
     4
  9
$MEASUREMENT
 70
     1
  0
ENDSEC
  0
SECTION
  2
TABLES
  0
TABLE
  2
VPORT
  5
8
330
0
100
AcDbSymbolTable
 70
     4
  0
VPORT
  5
2E
330
8
100
AcDbSymbolTableRecord
100
AcDbViewportTableRecord
  2
*ACTIVE
 70
     0
 10
0.0
 20
0.0
 11
1.0
 21
1.0
 12
210.0
 22
148.5
 13
0.0
 23
0.0
 14
10.0
 24
10.0
 15
10.0
 25
10.0
 16
0.0
 26
0.0
 36
1.0
 17
0.0
 27
0.0
 37
0.0
 40
341.0
 41
1.24
 42
50.0
 43
0.0
 44
0.0
 50
0.0
 51
0.0
 71
     0
 72
   100
 73
     1
 74
     3
 75
     0
 76
     0
 77
     0
 78
     0
  0
ENDTAB
  0
TABLE
  2
LTYPE
  5
5
330
0
100
AcDbSymbolTable
 70
     1
  0
LTYPE
  5
14
330
5
100
AcDbSymbolTableRecord
100
AcDbLinetypeTableRecord
  2
BYBLOCK
 70
     0
  3

 72
    65
 73
     0
 40
0.0
  0
LTYPE
  5
15
330
5
100
AcDbSymbolTableRecord
100
AcDbLinetypeTableRecord
  2
BYLAYER
 70
     0
  3

 72
    65
 73
     0
 40
0.0
  0
LTYPE
  5
16
330
5
100
AcDbSymbolTableRecord
100
AcDbLinetypeTableRecord
  2
CONTINUOUS
 70
     0
  3
Solid line
 72
    65
 73
     0
 40
0.0
  0
ENDTAB
  0
TABLE
  2
LAYER
  5
2
100
AcDbSymbolTable
 70
4
  0
LAYER
  5
50
100
AcDbSymbolTableRecord
100
AcDbLayerTableRecord
  2
0
 70
0
  6
CONTINUOUS
  0
LAYER
  5
51
100
AcDbSymbolTableRecord
100
AcDbLayerTableRecord
  2
Guidelines
 70
0
  6
CONTINUOUS
  0
LAYER
  5
52
100
AcDbSymbolTableRecord
100
AcDbLayerTableRecord
  2
Cut
 70
0
  6
CONTINUOUS
  0
LAYER
  5
53
100
AcDbSymbolTableRecord
100
AcDbLayerTableRecord
  2
Artwork
 70
0
  6
CONTINUOUS
  0
ENDTAB
  0
TABLE
  2
STYLE
  5
3
330
0
100
AcDbSymbolTable
 70
     1
  0
STYLE
  5
11
330
3
100
AcDbSymbolTableRecord
100
AcDbTextStyleTableRecord
  2
STANDARD
 70
     0
 40
0.0
 41
1.0
 50
0.0
 71
     0
 42
2.5
  3
txt
  4

  0
ENDTAB
  0
TABLE
  2
VIEW
  5
6
330
0
100
AcDbSymbolTable
 70
     0
  0
ENDTAB
  0
TABLE
  2
UCS
  5
7
330
0
100
AcDbSymbolTable
 70
     0
  0
ENDTAB
  0
TABLE
  2
APPID
  5
9
330
0
100
AcDbSymbolTable
 70
     2
  0
APPID
  5
12
330
9
100
AcDbSymbolTableRecord
100
AcDbRegAppTableRecord
  2
ACAD
 70
     0
  0
ENDTAB
  0
TABLE
  2
DIMSTYLE
  5
A
330
0
100
AcDbSymbolTable
 70
     1
  0
DIMSTYLE
105
27
330
A
100
AcDbSymbolTableRecord
100
AcDbDimStyleTableRecord
  2
ISO-25
 70
     0
  3

  4

  5

  6

  7

 40
1.0
 41
2.5
 42
0.625
 43
3.75
 44
1.25
 45
0.0
 46
0.0
 47
0.0
 48
0.0
140
2.5
141
2.5
142
0.0
143
0.03937007874016
144
1.0
145
0.0
146
1.0
147
0.625
 71
     0
 72
     0
 73
     0
 74
     0
 75
     0
 76
     0
 77
     1
 78
     8
170
     0
171
     3
172
     1
173
     0
174
     0
175
     0
176
     0
177
     0
178
     0
270
     2
271
     2
272
     2
273
     2
274
     3
340
11
275
     0
280
     0
281
     0
282
     0
283
     0
284
     8
285
     0
286
     0
287
     3
288
     0
  0
ENDTAB
  0
TABLE
  2
BLOCK_RECORD
  5
1
330
0
100
AcDbSymbolTable
 70
     1
  0
BLOCK_RECORD
  5
1F
330
1
100
AcDbSymbolTableRecord
100
AcDbBlockTableRecord
  2
*MODEL_SPACE
  0
BLOCK_RECORD
  5
1B
330
1
100
AcDbSymbolTableRecord
100
AcDbBlockTableRecord
  2
*PAPER_SPACE
  0
ENDTAB
  0
ENDSEC
  0
SECTION
  2
BLOCKS
  0
BLOCK
  5
20
330
1F
100
AcDbEntity
  8
0
100
AcDbBlockBegin
  2
*MODEL_SPACE
 70
     0
 10
0.0
 20
0.0
 30
0.0
  3
*MODEL_SPACE
  1

  0
ENDBLK
  5
21
330
1F
100
AcDbEntity
  8
0
100
AcDbBlockEnd
  0
BLOCK
  5
1C
330
1B
100
AcDbEntity
 67
     1
  8
0
100
AcDbBlockBegin
  2
*PAPER_SPACE
  1

  0
ENDBLK
  5
1D
330
1B
100
AcDbEntity
 67
     1
  8
0
100
AcDbBlockEnd
  0
ENDSEC
  0
SECTION
  2
ENTITIES
  0
SPLINE
  5
100
100
AcDbEntity
  8
Cut
 62
7
100
AcDbSpline
 70
8
 71
3
 72
8
 73
4
 74
0
 40
0
 40
0
 40
0
 40
0
 40
1
 40
1
 40
1
 40
1
 10
43.134970
 20
109.772522
 30
0.0
 10
41.820468
 20
109.772522
 30
0.0
 10
40.635400
 20
108.980685
 30
0.0
 10
40.132362
 20
107.766243
 30
0.0
  0
SPLINE
  5
101
100
AcDbEntity
  8
Cut
 62
7
100
AcDbSpline
 70
8
 71
3
 72
8
 73
4
 74
0
 40
0
 40
0
 40
0
 40
0
 40
1
 40
1
 40
1
 40
1
 10
40.132362
 20
107.766243
 30
0.0
 10
39.629323
 20
106.551801
 30
0.0
 10
39.907379
 20
105.153918
 30
0.0
 10
40.836873
 20
104.224425
 30
0.0
  0
SPLINE
  5
102
100
AcDbEntity
  8
Cut
 62
7
100
AcDbSpline
 70
8
 71
3
 72
8
 73
4
 74
0
 40
0
 40
0
 40
0
 40
0
 40
1
 40
1
 40
1
 40
1
 10
40.836873
 20
104.224425
 30
0.0
 10
41.766366
 20
103.294931
 30
0.0
 10
43.164249
 20
103.016875
 30
0.0
 10
44.378691
 20
103.519914
 30
0.0
  0
SPLINE
  5
103
100
AcDbEntity
  8
Cut
 62
7
100
AcDbSpline
 70
8
 71
3
 72
8
 73
4
 74
0
 40
0
 40
0
 40
0
 40
0
 40
1
 40
1
 40
1
 40
1
 10
44.378691
 20
103.519914
 30
0.0
 10
45.593133
 20
104.022952
 30
0.0
 10
46.384970
 20
105.208020
 30
0.0
 10
46.384970
 20
106.522522
 30
0.0
  0
SPLINE
  5
104
100
AcDbEntity
  8
Cut
 62
7
100
AcDbSpline
 70
8
 71
3
 72
8
 73
4
 74
0
 40
0
 40
0
 40
0
 40
0
 40
1
 40
1
 40
1
 40
1
 10
46.384970
 20
106.522522
 30
0.0
 10
46.384970
 20
107.384476
 30
0.0
 10
46.042560
 20
108.211126
 30
0.0
 10
45.433067
 20
108.820619
 30
0.0
  0
SPLINE
  5
105
100
AcDbEntity
  8
Cut
 62
7
100
AcDbSpline
 70
8
 71
3
 72
8
 73
4
 74
0
 40
0
 40
0
 40
0
 40
0
 40
1
 40
1
 40
1
 40
1
 10
45.433067
 20
108.820619
 30
0.0
 10
44.823574
 20
109.430112
 30
0.0
 10
43.996924
 20
109.772522
 30
0.0
 10
43.134970
 20
109.772522
 30
0.0
  0
LWPOLYLINE
  5
106
100
AcDbEntity
  8
Cut
 62
7
100
AcDbPolyline
 90
4
 70
1
 10
0.052480
 20
127.947517
 30
0.0
 10
55.827516
 20
127.947517
 30
0.0
 10
55.827516
 20
0.052477
 30
0.0
 10
0.052480
 20
0.052477
 30
0.0
  0
SPLINE
  5
107
100
AcDbEntity
  8
Cut
 62
7
100
AcDbSpline
 70
8
 71
3
 72
8
 73
4
 74
0
 40
0
 40
0
 40
0
 40
0
 40
1
 40
1
 40
1
 40
1
 10
43.134970
 20
38.652523
 30
0.0
 10
41.820468
 20
38.652523
 30
0.0
 10
40.635400
 20
37.860686
 30
0.0
 10
40.132362
 20
36.646244
 30
0.0
  0
SPLINE
  5
108
100
AcDbEntity
  8
Cut
 62
7
100
AcDbSpline
 70
8
 71
3
 72
8
 73
4
 74
0
 40
0
 40
0
 40
0
 40
0
 40
1
 40
1
 40
1
 40
1
 10
40.132362
 20
36.646244
 30
0.0
 10
39.629323
 20
35.431802
 30
0.0
 10
39.907379
 20
34.033919
 30
0.0
 10
40.836873
 20
33.104426
 30
0.0
  0
SPLINE
  5
109
100
AcDbEntity
  8
Cut
 62
7
100
AcDbSpline
 70
8
 71
3
 72
8
 73
4
 74
0
 40
0
 40
0
 40
0
 40
0
 40
1
 40
1
 40
1
 40
1
 10
40.836873
 20
33.104426
 30
0.0
 10
41.766366
 20
32.174932
 30
0.0
 10
43.164249
 20
31.896876
 30
0.0
 10
44.378691
 20
32.399915
 30
0.0
  0
SPLINE
  5
10a
100
AcDbEntity
  8
Cut
 62
7
100
AcDbSpline
 70
8
 71
3
 72
8
 73
4
 74
0
 40
0
 40
0
 40
0
 40
0
 40
1
 40
1
 40
1
 40
1
 10
44.378691
 20
32.399915
 30
0.0
 10
45.593133
 20
32.902953
 30
0.0
 10
46.384970
 20
34.088021
 30
0.0
 10
46.384970
 20
35.402523
 30
0.0
  0
SPLINE
  5
10b
100
AcDbEntity
  8
Cut
 62
7
100
AcDbSpline
 70
8
 71
3
 72
8
 73
4
 74
0
 40
0
 40
0
 40
0
 40
0
 40
1
 40
1
 40
1
 40
1
 10
46.384970
 20
35.402523
 30
0.0
 10
46.384970
 20
36.264477
 30
0.0
 10
46.042560
 20
37.091127
 30
0.0
 10
45.433067
 20
37.700620
 30
0.0
  0
SPLINE
  5
10c
100
AcDbEntity
  8
Cut
 62
7
100
AcDbSpline
 70
8
 71
3
 72
8
 73
4
 74
0
 40
0
 40
0
 40
0
 40
0
 40
1
 40
1
 40
1
 40
1
 10
45.433067
 20
37.700620
 30
0.0
 10
44.823574
 20
38.310113
 30
0.0
 10
43.996924
 20
38.652523
 30
0.0
 10
43.134970
 20
38.652523
 30
0.0
  0
LWPOLYLINE
  5
10d
100
AcDbEntity
  8
Cut
 62
7
100
AcDbPolyline
 90
1
 70
1
 10
43.134970
 20
109.772522
 30
0.0
  0
SPLINE
  5
10e
100
AcDbEntity
  8
Cut
 62
7
100
AcDbSpline
 70
8
 71
3
 72
8
 73
4
 74
0
 40
0
 40
0
 40
0
 40
0
 40
1
 40
1
 40
1
 40
1
 10
43.134970
 20
74.212518
 30
0.0
 10
41.820468
 20
74.212518
 30
0.0
 10
40.635400
 20
73.420681
 30
0.0
 10
40.132362
 20
72.206239
 30
0.0
  0
SPLINE
  5
10f
100
AcDbEntity
  8
Cut
 62
7
100
AcDbSpline
 70
8
 71
3
 72
8
 73
4
 74
0
 40
0
 40
0
 40
0
 40
0
 40
1
 40
1
 40
1
 40
1
 10
40.132362
 20
72.206239
 30
0.0
 10
39.629323
 20
70.991797
 30
0.0
 10
39.907379
 20
69.593914
 30
0.0
 10
40.836873
 20
68.664421
 30
0.0
  0
SPLINE
  5
110
100
AcDbEntity
  8
Cut
 62
7
100
AcDbSpline
 70
8
 71
3
 72
8
 73
4
 74
0
 40
0
 40
0
 40
0
 40
0
 40
1
 40
1
 40
1
 40
1
 10
40.836873
 20
68.664421
 30
0.0
 10
41.766366
 20
67.734927
 30
0.0
 10
43.164249
 20
67.456871
 30
0.0
 10
44.378691
 20
67.959910
 30
0.0
  0
SPLINE
  5
111
100
AcDbEntity
  8
Cut
 62
7
100
AcDbSpline
 70
8
 71
3
 72
8
 73
4
 74
0
 40
0
 40
0
 40
0
 40
0
 40
1
 40
1
 40
1
 40
1
 10
44.378691
 20
67.959910
 30
0.0
 10
45.593133
 20
68.462948
 30
0.0
 10
46.384970
 20
69.648016
 30
0.0
 10
46.384970
 20
70.962518
 30
0.0
  0
SPLINE
  5
112
100
AcDbEntity
  8
Cut
 62
7
100
AcDbSpline
 70
8
 71
3
 72
8
 73
4
 74
0
 40
0
 40
0
 40
0
 40
0
 40
1
 40
1
 40
1
 40
1
 10
46.384970
 20
70.962518
 30
0.0
 10
46.384970
 20
71.824472
 30
0.0
 10
46.042560
 20
72.651122
 30
0.0
 10
45.433067
 20
73.260615
 30
0.0
  0
SPLINE
  5
113
100
AcDbEntity
  8
Cut
 62
7
100
AcDbSpline
 70
8
 71
3
 72
8
 73
4
 74
0
 40
0
 40
0
 40
0
 40
0
 40
1
 40
1
 40
1
 40
1
 10
45.433067
 20
73.260615
 30
0.0
 10
44.823574
 20
73.870108
 30
0.0
 10
43.996924
 20
74.212518
 30
0.0
 10
43.134970
 20
74.212518
 30
0.0
  0
LWPOLYLINE
  5
114
100
AcDbEntity
  8
Cut
 62
7
100
AcDbPolyline
 90
1
 70
1
 10
43.134970
 20
38.652523
 30
0.0
  0
SPLINE
  5
115
100
AcDbEntity
  8
Cut
 62
7
100
AcDbSpline
 70
8
 71
3
 72
8
 73
4
 74
0
 40
0
 40
0
 40
0
 40
0
 40
1
 40
1
 40
1
 40
1
 10
10.159980
 20
109.547519
 30
0.0
 10
8.845478
 20
109.547519
 30
0.0
 10
7.660410
 20
108.755682
 30
0.0
 10
7.157372
 20
107.541240
 30
0.0
  0
SPLINE
  5
116
100
AcDbEntity
  8
Cut
 62
7
100
AcDbSpline
 70
8
 71
3
 72
8
 73
4
 74
0
 40
0
 40
0
 40
0
 40
0
 40
1
 40
1
 40
1
 40
1
 10
7.157372
 20
107.541240
 30
0.0
 10
6.654333
 20
106.326798
 30
0.0
 10
6.932389
 20
104.928915
 30
0.0
 10
7.861883
 20
103.999422
 30
0.0
  0
SPLINE
  5
117
100
AcDbEntity
  8
Cut
 62
7
100
AcDbSpline
 70
8
 71
3
 72
8
 73
4
 74
0
 40
0
 40
0
 40
0
 40
0
 40
1
 40
1
 40
1
 40
1
 10
7.861883
 20
103.999422
 30
0.0
 10
8.791376
 20
103.069928
 30
0.0
 10
10.189259
 20
102.791872
 30
0.0
 10
11.403701
 20
103.294911
 30
0.0
  0
SPLINE
  5
118
100
AcDbEntity
  8
Cut
 62
7
100
AcDbSpline
 70
8
 71
3
 72
8
 73
4
 74
0
 40
0
 40
0
 40
0
 40
0
 40
1
 40
1
 40
1
 40
1
 10
11.403701
 20
103.294911
 30
0.0
 10
12.618143
 20
103.797949
 30
0.0
 10
13.409980
 20
104.983017
 30
0.0
 10
13.409980
 20
106.297519
 30
0.0
  0
SPLINE
  5
119
100
AcDbEntity
  8
Cut
 62
7
100
AcDbSpline
 70
8
 71
3
 72
8
 73
4
 74
0
 40
0
 40
0
 40
0
 40
0
 40
1
 40
1
 40
1
 40
1
 10
13.409980
 20
106.297519
 30
0.0
 10
13.409980
 20
107.159473
 30
0.0
 10
13.067570
 20
107.986123
 30
0.0
 10
12.458077
 20
108.595616
 30
0.0
  0
SPLINE
  5
11a
100
AcDbEntity
  8
Cut
 62
7
100
AcDbSpline
 70
8
 71
3
 72
8
 73
4
 74
0
 40
0
 40
0
 40
0
 40
0
 40
1
 40
1
 40
1
 40
1
 10
12.458077
 20
108.595616
 30
0.0
 10
11.848584
 20
109.205109
 30
0.0
 10
11.021934
 20
109.547519
 30
0.0
 10
10.159980
 20
109.547519
 30
0.0
  0
LWPOLYLINE
  5
11b
100
AcDbEntity
  8
Cut
 62
7
100
AcDbPolyline
 90
1
 70
1
 10
43.134970
 20
74.212518
 30
0.0
  0
SPLINE
  5
11c
100
AcDbEntity
  8
Cut
 62
7
100
AcDbSpline
 70
8
 71
3
 72
8
 73
4
 74
0
 40
0
 40
0
 40
0
 40
0
 40
1
 40
1
 40
1
 40
1
 10
10.159980
 20
91.767520
 30
0.0
 10
8.845478
 20
91.767520
 30
0.0
 10
7.660410
 20
90.975683
 30
0.0
 10
7.157372
 20
89.761241
 30
0.0
  0
SPLINE
  5
11d
100
AcDbEntity
  8
Cut
 62
7
100
AcDbSpline
 70
8
 71
3
 72
8
 73
4
 74
0
 40
0
 40
0
 40
0
 40
0
 40
1
 40
1
 40
1
 40
1
 10
7.157372
 20
89.761241
 30
0.0
 10
6.654333
 20
88.546799
 30
0.0
 10
6.932389
 20
87.148916
 30
0.0
 10
7.861883
 20
86.219423
 30
0.0
  0
SPLINE
  5
11e
100
AcDbEntity
  8
Cut
 62
7
100
AcDbSpline
 70
8
 71
3
 72
8
 73
4
 74
0
 40
0
 40
0
 40
0
 40
0
 40
1
 40
1
 40
1
 40
1
 10
7.861883
 20
86.219423
 30
0.0
 10
8.791376
 20
85.289929
 30
0.0
 10
10.189259
 20
85.011873
 30
0.0
 10
11.403701
 20
85.514912
 30
0.0
  0
SPLINE
  5
11f
100
AcDbEntity
  8
Cut
 62
7
100
AcDbSpline
 70
8
 71
3
 72
8
 73
4
 74
0
 40
0
 40
0
 40
0
 40
0
 40
1
 40
1
 40
1
 40
1
 10
11.403701
 20
85.514912
 30
0.0
 10
12.618143
 20
86.017950
 30
0.0
 10
13.409980
 20
87.203018
 30
0.0
 10
13.409980
 20
88.517520
 30
0.0
  0
SPLINE
  5
120
100
AcDbEntity
  8
Cut
 62
7
100
AcDbSpline
 70
8
 71
3
 72
8
 73
4
 74
0
 40
0
 40
0
 40
0
 40
0
 40
1
 40
1
 40
1
 40
1
 10
13.409980
 20
88.517520
 30
0.0
 10
13.409980
 20
89.379474
 30
0.0
 10
13.067570
 20
90.206124
 30
0.0
 10
12.458077
 20
90.815617
 30
0.0
  0
SPLINE
  5
121
100
AcDbEntity
  8
Cut
 62
7
100
AcDbSpline
 70
8
 71
3
 72
8
 73
4
 74
0
 40
0
 40
0
 40
0
 40
0
 40
1
 40
1
 40
1
 40
1
 10
12.458077
 20
90.815617
 30
0.0
 10
11.848584
 20
91.425110
 30
0.0
 10
11.021934
 20
91.767520
 30
0.0
 10
10.159980
 20
91.767520
 30
0.0
  0
LWPOLYLINE
  5
122
100
AcDbEntity
  8
Cut
 62
7
100
AcDbPolyline
 90
1
 70
1
 10
10.159980
 20
109.547519
 30
0.0
  0
SPLINE
  5
123
100
AcDbEntity
  8
Cut
 62
7
100
AcDbSpline
 70
8
 71
3
 72
8
 73
4
 74
0
 40
0
 40
0
 40
0
 40
0
 40
1
 40
1
 40
1
 40
1
 10
10.159980
 20
56.207514
 30
0.0
 10
8.845478
 20
56.207514
 30
0.0
 10
7.660410
 20
55.415677
 30
0.0
 10
7.157372
 20
54.201235
 30
0.0
  0
SPLINE
  5
124
100
AcDbEntity
  8
Cut
 62
7
100
AcDbSpline
 70
8
 71
3
 72
8
 73
4
 74
0
 40
0
 40
0
 40
0
 40
0
 40
1
 40
1
 40
1
 40
1
 10
7.157372
 20
54.201235
 30
0.0
 10
6.654333
 20
52.986793
 30
0.0
 10
6.932389
 20
51.588911
 30
0.0
 10
7.861883
 20
50.659417
 30
0.0
  0
SPLINE
  5
125
100
AcDbEntity
  8
Cut
 62
7
100
AcDbSpline
 70
8
 71
3
 72
8
 73
4
 74
0
 40
0
 40
0
 40
0
 40
0
 40
1
 40
1
 40
1
 40
1
 10
7.861883
 20
50.659417
 30
0.0
 10
8.791376
 20
49.729924
 30
0.0
 10
10.189259
 20
49.451867
 30
0.0
 10
11.403701
 20
49.954906
 30
0.0
  0
SPLINE
  5
126
100
AcDbEntity
  8
Cut
 62
7
100
AcDbSpline
 70
8
 71
3
 72
8
 73
4
 74
0
 40
0
 40
0
 40
0
 40
0
 40
1
 40
1
 40
1
 40
1
 10
11.403701
 20
49.954906
 30
0.0
 10
12.618143
 20
50.457944
 30
0.0
 10
13.409980
 20
51.643012
 30
0.0
 10
13.409980
 20
52.957514
 30
0.0
  0
SPLINE
  5
127
100
AcDbEntity
  8
Cut
 62
7
100
AcDbSpline
 70
8
 71
3
 72
8
 73
4
 74
0
 40
0
 40
0
 40
0
 40
0
 40
1
 40
1
 40
1
 40
1
 10
13.409980
 20
52.957514
 30
0.0
 10
13.409980
 20
53.819468
 30
0.0
 10
13.067570
 20
54.646118
 30
0.0
 10
12.458077
 20
55.255611
 30
0.0
  0
SPLINE
  5
128
100
AcDbEntity
  8
Cut
 62
7
100
AcDbSpline
 70
8
 71
3
 72
8
 73
4
 74
0
 40
0
 40
0
 40
0
 40
0
 40
1
 40
1
 40
1
 40
1
 10
12.458077
 20
55.255611
 30
0.0
 10
11.848584
 20
55.865104
 30
0.0
 10
11.021934
 20
56.207514
 30
0.0
 10
10.159980
 20
56.207514
 30
0.0
  0
LWPOLYLINE
  5
129
100
AcDbEntity
  8
Cut
 62
7
100
AcDbPolyline
 90
1
 70
1
 10
10.159980
 20
91.767520
 30
0.0
  0
SPLINE
  5
12a
100
AcDbEntity
  8
Cut
 62
7
100
AcDbSpline
 70
8
 71
3
 72
8
 73
4
 74
0
 40
0
 40
0
 40
0
 40
0
 40
1
 40
1
 40
1
 40
1
 10
25.399990
 20
58.957518
 30
0.0
 10
24.085488
 20
58.957518
 30
0.0
 10
22.900420
 20
58.165681
 30
0.0
 10
22.397382
 20
56.951239
 30
0.0
  0
SPLINE
  5
12b
100
AcDbEntity
  8
Cut
 62
7
100
AcDbSpline
 70
8
 71
3
 72
8
 73
4
 74
0
 40
0
 40
0
 40
0
 40
0
 40
1
 40
1
 40
1
 40
1
 10
22.397382
 20
56.951239
 30
0.0
 10
21.894343
 20
55.736797
 30
0.0
 10
22.172399
 20
54.338914
 30
0.0
 10
23.101893
 20
53.409421
 30
0.0
  0
SPLINE
  5
12c
100
AcDbEntity
  8
Cut
 62
7
100
AcDbSpline
 70
8
 71
3
 72
8
 73
4
 74
0
 40
0
 40
0
 40
0
 40
0
 40
1
 40
1
 40
1
 40
1
 10
23.101893
 20
53.409421
 30
0.0
 10
24.031386
 20
52.479927
 30
0.0
 10
25.429269
 20
52.201871
 30
0.0
 10
26.643711
 20
52.704909
 30
0.0
  0
SPLINE
  5
12d
100
AcDbEntity
  8
Cut
 62
7
100
AcDbSpline
 70
8
 71
3
 72
8
 73
4
 74
0
 40
0
 40
0
 40
0
 40
0
 40
1
 40
1
 40
1
 40
1
 10
26.643711
 20
52.704909
 30
0.0
 10
27.858153
 20
53.207948
 30
0.0
 10
28.649990
 20
54.393015
 30
0.0
 10
28.649990
 20
55.707518
 30
0.0
  0
SPLINE
  5
12e
100
AcDbEntity
  8
Cut
 62
7
100
AcDbSpline
 70
8
 71
3
 72
8
 73
4
 74
0
 40
0
 40
0
 40
0
 40
0
 40
1
 40
1
 40
1
 40
1
 10
28.649990
 20
55.707518
 30
0.0
 10
28.649990
 20
56.569471
 30
0.0
 10
28.307580
 20
57.396122
 30
0.0
 10
27.698087
 20
58.005615
 30
0.0
  0
SPLINE
  5
12f
100
AcDbEntity
  8
Cut
 62
7
100
AcDbSpline
 70
8
 71
3
 72
8
 73
4
 74
0
 40
0
 40
0
 40
0
 40
0
 40
1
 40
1
 40
1
 40
1
 10
27.698087
 20
58.005615
 30
0.0
 10
27.088594
 20
58.615108
 30
0.0
 10
26.261944
 20
58.957518
 30
0.0
 10
25.399990
 20
58.957518
 30
0.0
  0
LWPOLYLINE
  5
130
100
AcDbEntity
  8
Cut
 62
7
100
AcDbPolyline
 90
1
 70
1
 10
10.159980
 20
56.207514
 30
0.0
  0
SPLINE
  5
131
100
AcDbEntity
  8
Cut
 62
7
100
AcDbSpline
 70
8
 71
3
 72
8
 73
4
 74
0
 40
0
 40
0
 40
0
 40
0
 40
1
 40
1
 40
1
 40
1
 10
25.399990
 20
23.397514
 30
0.0
 10
24.085488
 20
23.397514
 30
0.0
 10
22.900420
 20
22.605677
 30
0.0
 10
22.397382
 20
21.391235
 30
0.0
  0
SPLINE
  5
132
100
AcDbEntity
  8
Cut
 62
7
100
AcDbSpline
 70
8
 71
3
 72
8
 73
4
 74
0
 40
0
 40
0
 40
0
 40
0
 40
1
 40
1
 40
1
 40
1
 10
22.397382
 20
21.391235
 30
0.0
 10
21.894343
 20
20.176793
 30
0.0
 10
22.172399
 20
18.778910
 30
0.0
 10
23.101893
 20
17.849417
 30
0.0
  0
SPLINE
  5
133
100
AcDbEntity
  8
Cut
 62
7
100
AcDbSpline
 70
8
 71
3
 72
8
 73
4
 74
0
 40
0
 40
0
 40
0
 40
0
 40
1
 40
1
 40
1
 40
1
 10
23.101893
 20
17.849417
 30
0.0
 10
24.031386
 20
16.919923
 30
0.0
 10
25.429269
 20
16.641867
 30
0.0
 10
26.643711
 20
17.144906
 30
0.0
  0
SPLINE
  5
134
100
AcDbEntity
  8
Cut
 62
7
100
AcDbSpline
 70
8
 71
3
 72
8
 73
4
 74
0
 40
0
 40
0
 40
0
 40
0
 40
1
 40
1
 40
1
 40
1
 10
26.643711
 20
17.144906
 30
0.0
 10
27.858153
 20
17.647944
 30
0.0
 10
28.649990
 20
18.833012
 30
0.0
 10
28.649990
 20
20.147514
 30
0.0
  0
SPLINE
  5
135
100
AcDbEntity
  8
Cut
 62
7
100
AcDbSpline
 70
8
 71
3
 72
8
 73
4
 74
0
 40
0
 40
0
 40
0
 40
0
 40
1
 40
1
 40
1
 40
1
 10
28.649990
 20
20.147514
 30
0.0
 10
28.649990
 20
21.009468
 30
0.0
 10
28.307580
 20
21.836118
 30
0.0
 10
27.698087
 20
22.445611
 30
0.0
  0
SPLINE
  5
136
100
AcDbEntity
  8
Cut
 62
7
100
AcDbSpline
 70
8
 71
3
 72
8
 73
4
 74
0
 40
0
 40
0
 40
0
 40
0
 40
1
 40
1
 40
1
 40
1
 10
27.698087
 20
22.445611
 30
0.0
 10
27.088594
 20
23.055104
 30
0.0
 10
26.261944
 20
23.397514
 30
0.0
 10
25.399990
 20
23.397514
 30
0.0
  0
LWPOLYLINE
  5
137
100
AcDbEntity
  8
Cut
 62
7
100
AcDbPolyline
 90
1
 70
1
 10
25.399990
 20
58.957518
 30
0.0
  0
SPLINE
  5
138
100
AcDbEntity
  8
Cut
 62
7
100
AcDbSpline
 70
8
 71
3
 72
8
 73
4
 74
0
 40
0
 40
0
 40
0
 40
0
 40
1
 40
1
 40
1
 40
1
 10
43.179990
 20
20.647514
 30
0.0
 10
41.865488
 20
20.647514
 30
0.0
 10
40.680420
 20
19.855677
 30
0.0
 10
40.177382
 20
18.641235
 30
0.0
  0
SPLINE
  5
139
100
AcDbEntity
  8
Cut
 62
7
100
AcDbSpline
 70
8
 71
3
 72
8
 73
4
 74
0
 40
0
 40
0
 40
0
 40
0
 40
1
 40
1
 40
1
 40
1
 10
40.177382
 20
18.641235
 30
0.0
 10
39.674343
 20
17.426793
 30
0.0
 10
39.952399
 20
16.028910
 30
0.0
 10
40.881893
 20
15.099417
 30
0.0
  0
SPLINE
  5
13a
100
AcDbEntity
  8
Cut
 62
7
100
AcDbSpline
 70
8
 71
3
 72
8
 73
4
 74
0
 40
0
 40
0
 40
0
 40
0
 40
1
 40
1
 40
1
 40
1
 10
40.881893
 20
15.099417
 30
0.0
 10
41.811386
 20
14.169923
 30
0.0
 10
43.209269
 20
13.891867
 30
0.0
 10
44.423711
 20
14.394906
 30
0.0
  0
SPLINE
  5
13b
100
AcDbEntity
  8
Cut
 62
7
100
AcDbSpline
 70
8
 71
3
 72
8
 73
4
 74
0
 40
0
 40
0
 40
0
 40
0
 40
1
 40
1
 40
1
 40
1
 10
44.423711
 20
14.394906
 30
0.0
 10
45.638153
 20
14.897944
 30
0.0
 10
46.429990
 20
16.083012
 30
0.0
 10
46.429990
 20
17.397514
 30
0.0
  0
SPLINE
  5
13c
100
AcDbEntity
  8
Cut
 62
7
100
AcDbSpline
 70
8
 71
3
 72
8
 73
4
 74
0
 40
0
 40
0
 40
0
 40
0
 40
1
 40
1
 40
1
 40
1
 10
46.429990
 20
17.397514
 30
0.0
 10
46.429990
 20
18.259468
 30
0.0
 10
46.087580
 20
19.086118
 30
0.0
 10
45.478087
 20
19.695611
 30
0.0
  0
SPLINE
  5
13d
100
AcDbEntity
  8
Cut
 62
7
100
AcDbSpline
 70
8
 71
3
 72
8
 73
4
 74
0
 40
0
 40
0
 40
0
 40
0
 40
1
 40
1
 40
1
 40
1
 10
45.478087
 20
19.695611
 30
0.0
 10
44.868594
 20
20.305104
 30
0.0
 10
44.041944
 20
20.647514
 30
0.0
 10
43.179990
 20
20.647514
 30
0.0
  0
LWPOLYLINE
  5
13e
100
AcDbEntity
  8
Cut
 62
7
100
AcDbPolyline
 90
1
 70
1
 10
25.399990
 20
23.397514
 30
0.0
  0
SPLINE
  5
13f
100
AcDbEntity
  8
Cut
 62
7
100
AcDbSpline
 70
8
 71
3
 72
8
 73
4
 74
0
 40
0
 40
0
 40
0
 40
0
 40
1
 40
1
 40
1
 40
1
 10
10.159980
 20
20.647514
 30
0.0
 10
8.845478
 20
20.647514
 30
0.0
 10
7.660410
 20
19.855677
 30
0.0
 10
7.157372
 20
18.641235
 30
0.0
  0
SPLINE
  5
140
100
AcDbEntity
  8
Cut
 62
7
100
AcDbSpline
 70
8
 71
3
 72
8
 73
4
 74
0
 40
0
 40
0
 40
0
 40
0
 40
1
 40
1
 40
1
 40
1
 10
7.157372
 20
18.641235
 30
0.0
 10
6.654333
 20
17.426793
 30
0.0
 10
6.932389
 20
16.028910
 30
0.0
 10
7.861883
 20
15.099417
 30
0.0
  0
SPLINE
  5
141
100
AcDbEntity
  8
Cut
 62
7
100
AcDbSpline
 70
8
 71
3
 72
8
 73
4
 74
0
 40
0
 40
0
 40
0
 40
0
 40
1
 40
1
 40
1
 40
1
 10
7.861883
 20
15.099417
 30
0.0
 10
8.791376
 20
14.169923
 30
0.0
 10
10.189259
 20
13.891867
 30
0.0
 10
11.403701
 20
14.394906
 30
0.0
  0
SPLINE
  5
142
100
AcDbEntity
  8
Cut
 62
7
100
AcDbSpline
 70
8
 71
3
 72
8
 73
4
 74
0
 40
0
 40
0
 40
0
 40
0
 40
1
 40
1
 40
1
 40
1
 10
11.403701
 20
14.394906
 30
0.0
 10
12.618143
 20
14.897944
 30
0.0
 10
13.409980
 20
16.083012
 30
0.0
 10
13.409980
 20
17.397514
 30
0.0
  0
SPLINE
  5
143
100
AcDbEntity
  8
Cut
 62
7
100
AcDbSpline
 70
8
 71
3
 72
8
 73
4
 74
0
 40
0
 40
0
 40
0
 40
0
 40
1
 40
1
 40
1
 40
1
 10
13.409980
 20
17.397514
 30
0.0
 10
13.409980
 20
18.259468
 30
0.0
 10
13.067570
 20
19.086118
 30
0.0
 10
12.458077
 20
19.695611
 30
0.0
  0
SPLINE
  5
144
100
AcDbEntity
  8
Cut
 62
7
100
AcDbSpline
 70
8
 71
3
 72
8
 73
4
 74
0
 40
0
 40
0
 40
0
 40
0
 40
1
 40
1
 40
1
 40
1
 10
12.458077
 20
19.695611
 30
0.0
 10
11.848584
 20
20.305104
 30
0.0
 10
11.021934
 20
20.647514
 30
0.0
 10
10.159980
 20
20.647514
 30
0.0
  0
LWPOLYLINE
  5
145
100
AcDbEntity
  8
Cut
 62
7
100
AcDbPolyline
 90
1
 70
1
 10
43.179990
 20
20.647514
 30
0.0
  0
SPLINE
  5
146
100
AcDbEntity
  8
Cut
 62
7
100
AcDbSpline
 70
8
 71
3
 72
8
 73
4
 74
0
 40
0
 40
0
 40
0
 40
0
 40
1
 40
1
 40
1
 40
1
 10
10.159980
 20
73.987518
 30
0.0
 10
8.845478
 20
73.987518
 30
0.0
 10
7.660410
 20
73.195681
 30
0.0
 10
7.157372
 20
71.981239
 30
0.0
  0
SPLINE
  5
147
100
AcDbEntity
  8
Cut
 62
7
100
AcDbSpline
 70
8
 71
3
 72
8
 73
4
 74
0
 40
0
 40
0
 40
0
 40
0
 40
1
 40
1
 40
1
 40
1
 10
7.157372
 20
71.981239
 30
0.0
 10
6.654333
 20
70.766797
 30
0.0
 10
6.932389
 20
69.368914
 30
0.0
 10
7.861883
 20
68.439421
 30
0.0
  0
SPLINE
  5
148
100
AcDbEntity
  8
Cut
 62
7
100
AcDbSpline
 70
8
 71
3
 72
8
 73
4
 74
0
 40
0
 40
0
 40
0
 40
0
 40
1
 40
1
 40
1
 40
1
 10
7.861883
 20
68.439421
 30
0.0
 10
8.791376
 20
67.509927
 30
0.0
 10
10.189259
 20
67.231871
 30
0.0
 10
11.403701
 20
67.734910
 30
0.0
  0
SPLINE
  5
149
100
AcDbEntity
  8
Cut
 62
7
100
AcDbSpline
 70
8
 71
3
 72
8
 73
4
 74
0
 40
0
 40
0
 40
0
 40
0
 40
1
 40
1
 40
1
 40
1
 10
11.403701
 20
67.734910
 30
0.0
 10
12.618143
 20
68.237948
 30
0.0
 10
13.409980
 20
69.423016
 30
0.0
 10
13.409980
 20
70.737518
 30
0.0
  0
SPLINE
  5
14a
100
AcDbEntity
  8
Cut
 62
7
100
AcDbSpline
 70
8
 71
3
 72
8
 73
4
 74
0
 40
0
 40
0
 40
0
 40
0
 40
1
 40
1
 40
1
 40
1
 10
13.409980
 20
70.737518
 30
0.0
 10
13.409980
 20
71.599472
 30
0.0
 10
13.067570
 20
72.426122
 30
0.0
 10
12.458077
 20
73.035615
 30
0.0
  0
SPLINE
  5
14b
100
AcDbEntity
  8
Cut
 62
7
100
AcDbSpline
 70
8
 71
3
 72
8
 73
4
 74
0
 40
0
 40
0
 40
0
 40
0
 40
1
 40
1
 40
1
 40
1
 10
12.458077
 20
73.035615
 30
0.0
 10
11.848584
 20
73.645108
 30
0.0
 10
11.021934
 20
73.987518
 30
0.0
 10
10.159980
 20
73.987518
 30
0.0
  0
LWPOLYLINE
  5
14c
100
AcDbEntity
  8
Cut
 62
7
100
AcDbPolyline
 90
1
 70
1
 10
10.159980
 20
20.647514
 30
0.0
  0
SPLINE
  5
14d
100
AcDbEntity
  8
Cut
 62
7
100
AcDbSpline
 70
8
 71
3
 72
8
 73
4
 74
0
 40
0
 40
0
 40
0
 40
0
 40
1
 40
1
 40
1
 40
1
 10
25.354970
 20
112.312519
 30
0.0
 10
24.040468
 20
112.312519
 30
0.0
 10
22.855400
 20
111.520682
 30
0.0
 10
22.352362
 20
110.306240
 30
0.0
  0
SPLINE
  5
14e
100
AcDbEntity
  8
Cut
 62
7
100
AcDbSpline
 70
8
 71
3
 72
8
 73
4
 74
0
 40
0
 40
0
 40
0
 40
0
 40
1
 40
1
 40
1
 40
1
 10
22.352362
 20
110.306240
 30
0.0
 10
21.849323
 20
109.091798
 30
0.0
 10
22.127379
 20
107.693915
 30
0.0
 10
23.056873
 20
106.764422
 30
0.0
  0
SPLINE
  5
14f
100
AcDbEntity
  8
Cut
 62
7
100
AcDbSpline
 70
8
 71
3
 72
8
 73
4
 74
0
 40
0
 40
0
 40
0
 40
0
 40
1
 40
1
 40
1
 40
1
 10
23.056873
 20
106.764422
 30
0.0
 10
23.986366
 20
105.834928
 30
0.0
 10
25.384249
 20
105.556872
 30
0.0
 10
26.598691
 20
106.059911
 30
0.0
  0
SPLINE
  5
150
100
AcDbEntity
  8
Cut
 62
7
100
AcDbSpline
 70
8
 71
3
 72
8
 73
4
 74
0
 40
0
 40
0
 40
0
 40
0
 40
1
 40
1
 40
1
 40
1
 10
26.598691
 20
106.059911
 30
0.0
 10
27.813133
 20
106.562949
 30
0.0
 10
28.604970
 20
107.748017
 30
0.0
 10
28.604970
 20
109.062519
 30
0.0
  0
SPLINE
  5
151
100
AcDbEntity
  8
Cut
 62
7
100
AcDbSpline
 70
8
 71
3
 72
8
 73
4
 74
0
 40
0
 40
0
 40
0
 40
0
 40
1
 40
1
 40
1
 40
1
 10
28.604970
 20
109.062519
 30
0.0
 10
28.604970
 20
109.924473
 30
0.0
 10
28.262560
 20
110.751123
 30
0.0
 10
27.653067
 20
111.360616
 30
0.0
  0
SPLINE
  5
152
100
AcDbEntity
  8
Cut
 62
7
100
AcDbSpline
 70
8
 71
3
 72
8
 73
4
 74
0
 40
0
 40
0
 40
0
 40
0
 40
1
 40
1
 40
1
 40
1
 10
27.653067
 20
111.360616
 30
0.0
 10
27.043574
 20
111.970109
 30
0.0
 10
26.216924
 20
112.312519
 30
0.0
 10
25.354970
 20
112.312519
 30
0.0
  0
LWPOLYLINE
  5
153
100
AcDbEntity
  8
Cut
 62
7
100
AcDbPolyline
 90
1
 70
1
 10
10.159980
 20
73.987518
 30
0.0
  0
SPLINE
  5
154
100
AcDbEntity
  8
Cut
 62
7
100
AcDbSpline
 70
8
 71
3
 72
8
 73
4
 74
0
 40
0
 40
0
 40
0
 40
0
 40
1
 40
1
 40
1
 40
1
 10
25.399990
 20
94.517520
 30
0.0
 10
24.085488
 20
94.517520
 30
0.0
 10
22.900420
 20
93.725683
 30
0.0
 10
22.397382
 20
92.511241
 30
0.0
  0
SPLINE
  5
155
100
AcDbEntity
  8
Cut
 62
7
100
AcDbSpline
 70
8
 71
3
 72
8
 73
4
 74
0
 40
0
 40
0
 40
0
 40
0
 40
1
 40
1
 40
1
 40
1
 10
22.397382
 20
92.511241
 30
0.0
 10
21.894343
 20
91.296799
 30
0.0
 10
22.172399
 20
89.898916
 30
0.0
 10
23.101893
 20
88.969423
 30
0.0
  0
SPLINE
  5
156
100
AcDbEntity
  8
Cut
 62
7
100
AcDbSpline
 70
8
 71
3
 72
8
 73
4
 74
0
 40
0
 40
0
 40
0
 40
0
 40
1
 40
1
 40
1
 40
1
 10
23.101893
 20
88.969423
 30
0.0
 10
24.031386
 20
88.039929
 30
0.0
 10
25.429269
 20
87.761873
 30
0.0
 10
26.643711
 20
88.264912
 30
0.0
  0
SPLINE
  5
157
100
AcDbEntity
  8
Cut
 62
7
100
AcDbSpline
 70
8
 71
3
 72
8
 73
4
 74
0
 40
0
 40
0
 40
0
 40
0
 40
1
 40
1
 40
1
 40
1
 10
26.643711
 20
88.264912
 30
0.0
 10
27.858153
 20
88.767950
 30
0.0
 10
28.649990
 20
89.953018
 30
0.0
 10
28.649990
 20
91.267520
 30
0.0
  0
SPLINE
  5
158
100
AcDbEntity
  8
Cut
 62
7
100
AcDbSpline
 70
8
 71
3
 72
8
 73
4
 74
0
 40
0
 40
0
 40
0
 40
0
 40
1
 40
1
 40
1
 40
1
 10
28.649990
 20
91.267520
 30
0.0
 10
28.649990
 20
92.129474
 30
0.0
 10
28.307580
 20
92.956124
 30
0.0
 10
27.698087
 20
93.565617
 30
0.0
  0
SPLINE
  5
159
100
AcDbEntity
  8
Cut
 62
7
100
AcDbSpline
 70
8
 71
3
 72
8
 73
4
 74
0
 40
0
 40
0
 40
0
 40
0
 40
1
 40
1
 40
1
 40
1
 10
27.698087
 20
93.565617
 30
0.0
 10
27.088594
 20
94.175110
 30
0.0
 10
26.261944
 20
94.517520
 30
0.0
 10
25.399990
 20
94.517520
 30
0.0
  0
LWPOLYLINE
  5
15a
100
AcDbEntity
  8
Cut
 62
7
100
AcDbPolyline
 90
1
 70
1
 10
25.354970
 20
112.312519
 30
0.0
  0
SPLINE
  5
15b
100
AcDbEntity
  8
Cut
 62
7
100
AcDbSpline
 70
8
 71
3
 72
8
 73
4
 74
0
 40
0
 40
0
 40
0
 40
0
 40
1
 40
1
 40
1
 40
1
 10
25.399990
 20
41.177515
 30
0.0
 10
24.085488
 20
41.177515
 30
0.0
 10
22.900420
 20
40.385678
 30
0.0
 10
22.397382
 20
39.171236
 30
0.0
  0
SPLINE
  5
15c
100
AcDbEntity
  8
Cut
 62
7
100
AcDbSpline
 70
8
 71
3
 72
8
 73
4
 74
0
 40
0
 40
0
 40
0
 40
0
 40
1
 40
1
 40
1
 40
1
 10
22.397382
 20
39.171236
 30
0.0
 10
21.894343
 20
37.956794
 30
0.0
 10
22.172399
 20
36.558911
 30
0.0
 10
23.101893
 20
35.629418
 30
0.0
  0
SPLINE
  5
15d
100
AcDbEntity
  8
Cut
 62
7
100
AcDbSpline
 70
8
 71
3
 72
8
 73
4
 74
0
 40
0
 40
0
 40
0
 40
0
 40
1
 40
1
 40
1
 40
1
 10
23.101893
 20
35.629418
 30
0.0
 10
24.031386
 20
34.699924
 30
0.0
 10
25.429269
 20
34.421868
 30
0.0
 10
26.643711
 20
34.924907
 30
0.0
  0
SPLINE
  5
15e
100
AcDbEntity
  8
Cut
 62
7
100
AcDbSpline
 70
8
 71
3
 72
8
 73
4
 74
0
 40
0
 40
0
 40
0
 40
0
 40
1
 40
1
 40
1
 40
1
 10
26.643711
 20
34.924907
 30
0.0
 10
27.858153
 20
35.427945
 30
0.0
 10
28.649990
 20
36.613013
 30
0.0
 10
28.649990
 20
37.927515
 30
0.0
  0
SPLINE
  5
15f
100
AcDbEntity
  8
Cut
 62
7
100
AcDbSpline
 70
8
 71
3
 72
8
 73
4
 74
0
 40
0
 40
0
 40
0
 40
0
 40
1
 40
1
 40
1
 40
1
 10
28.649990
 20
37.927515
 30
0.0
 10
28.649990
 20
38.789469
 30
0.0
 10
28.307580
 20
39.616119
 30
0.0
 10
27.698087
 20
40.225612
 30
0.0
  0
SPLINE
  5
160
100
AcDbEntity
  8
Cut
 62
7
100
AcDbSpline
 70
8
 71
3
 72
8
 73
4
 74
0
 40
0
 40
0
 40
0
 40
0
 40
1
 40
1
 40
1
 40
1
 10
27.698087
 20
40.225612
 30
0.0
 10
27.088594
 20
40.835105
 30
0.0
 10
26.261944
 20
41.177515
 30
0.0
 10
25.399990
 20
41.177515
 30
0.0
  0
LWPOLYLINE
  5
161
100
AcDbEntity
  8
Cut
 62
7
100
AcDbPolyline
 90
1
 70
1
 10
25.399990
 20
94.517520
 30
0.0
  0
SPLINE
  5
162
100
AcDbEntity
  8
Cut
 62
7
100
AcDbSpline
 70
8
 71
3
 72
8
 73
4
 74
0
 40
0
 40
0
 40
0
 40
0
 40
1
 40
1
 40
1
 40
1
 10
43.179990
 20
91.767520
 30
0.0
 10
41.865488
 20
91.767520
 30
0.0
 10
40.680420
 20
90.975683
 30
0.0
 10
40.177382
 20
89.761241
 30
0.0
  0
SPLINE
  5
163
100
AcDbEntity
  8
Cut
 62
7
100
AcDbSpline
 70
8
 71
3
 72
8
 73
4
 74
0
 40
0
 40
0
 40
0
 40
0
 40
1
 40
1
 40
1
 40
1
 10
40.177382
 20
89.761241
 30
0.0
 10
39.674343
 20
88.546799
 30
0.0
 10
39.952399
 20
87.148916
 30
0.0
 10
40.881893
 20
86.219423
 30
0.0
  0
SPLINE
  5
164
100
AcDbEntity
  8
Cut
 62
7
100
AcDbSpline
 70
8
 71
3
 72
8
 73
4
 74
0
 40
0
 40
0
 40
0
 40
0
 40
1
 40
1
 40
1
 40
1
 10
40.881893
 20
86.219423
 30
0.0
 10
41.811386
 20
85.289929
 30
0.0
 10
43.209269
 20
85.011873
 30
0.0
 10
44.423711
 20
85.514912
 30
0.0
  0
SPLINE
  5
165
100
AcDbEntity
  8
Cut
 62
7
100
AcDbSpline
 70
8
 71
3
 72
8
 73
4
 74
0
 40
0
 40
0
 40
0
 40
0
 40
1
 40
1
 40
1
 40
1
 10
44.423711
 20
85.514912
 30
0.0
 10
45.638153
 20
86.017950
 30
0.0
 10
46.429990
 20
87.203018
 30
0.0
 10
46.429990
 20
88.517520
 30
0.0
  0
SPLINE
  5
166
100
AcDbEntity
  8
Cut
 62
7
100
AcDbSpline
 70
8
 71
3
 72
8
 73
4
 74
0
 40
0
 40
0
 40
0
 40
0
 40
1
 40
1
 40
1
 40
1
 10
46.429990
 20
88.517520
 30
0.0
 10
46.429990
 20
89.379474
 30
0.0
 10
46.087580
 20
90.206124
 30
0.0
 10
45.478087
 20
90.815617
 30
0.0
  0
SPLINE
  5
167
100
AcDbEntity
  8
Cut
 62
7
100
AcDbSpline
 70
8
 71
3
 72
8
 73
4
 74
0
 40
0
 40
0
 40
0
 40
0
 40
1
 40
1
 40
1
 40
1
 10
45.478087
 20
90.815617
 30
0.0
 10
44.868594
 20
91.425110
 30
0.0
 10
44.041944
 20
91.767520
 30
0.0
 10
43.179990
 20
91.767520
 30
0.0
  0
LWPOLYLINE
  5
168
100
AcDbEntity
  8
Cut
 62
7
100
AcDbPolyline
 90
1
 70
1
 10
25.399990
 20
41.177515
 30
0.0
  0
SPLINE
  5
169
100
AcDbEntity
  8
Cut
 62
7
100
AcDbSpline
 70
8
 71
3
 72
8
 73
4
 74
0
 40
0
 40
0
 40
0
 40
0
 40
1
 40
1
 40
1
 40
1
 10
43.179990
 20
56.207514
 30
0.0
 10
41.865488
 20
56.207514
 30
0.0
 10
40.680420
 20
55.415677
 30
0.0
 10
40.177382
 20
54.201235
 30
0.0
  0
SPLINE
  5
16a
100
AcDbEntity
  8
Cut
 62
7
100
AcDbSpline
 70
8
 71
3
 72
8
 73
4
 74
0
 40
0
 40
0
 40
0
 40
0
 40
1
 40
1
 40
1
 40
1
 10
40.177382
 20
54.201235
 30
0.0
 10
39.674343
 20
52.986793
 30
0.0
 10
39.952399
 20
51.588911
 30
0.0
 10
40.881893
 20
50.659417
 30
0.0
  0
SPLINE
  5
16b
100
AcDbEntity
  8
Cut
 62
7
100
AcDbSpline
 70
8
 71
3
 72
8
 73
4
 74
0
 40
0
 40
0
 40
0
 40
0
 40
1
 40
1
 40
1
 40
1
 10
40.881893
 20
50.659417
 30
0.0
 10
41.811386
 20
49.729924
 30
0.0
 10
43.209269
 20
49.451867
 30
0.0
 10
44.423711
 20
49.954906
 30
0.0
  0
SPLINE
  5
16c
100
AcDbEntity
  8
Cut
 62
7
100
AcDbSpline
 70
8
 71
3
 72
8
 73
4
 74
0
 40
0
 40
0
 40
0
 40
0
 40
1
 40
1
 40
1
 40
1
 10
44.423711
 20
49.954906
 30
0.0
 10
45.638153
 20
50.457944
 30
0.0
 10
46.429990
 20
51.643012
 30
0.0
 10
46.429990
 20
52.957514
 30
0.0
  0
SPLINE
  5
16d
100
AcDbEntity
  8
Cut
 62
7
100
AcDbSpline
 70
8
 71
3
 72
8
 73
4
 74
0
 40
0
 40
0
 40
0
 40
0
 40
1
 40
1
 40
1
 40
1
 10
46.429990
 20
52.957514
 30
0.0
 10
46.429990
 20
53.819468
 30
0.0
 10
46.087580
 20
54.646118
 30
0.0
 10
45.478087
 20
55.255611
 30
0.0
  0
SPLINE
  5
16e
100
AcDbEntity
  8
Cut
 62
7
100
AcDbSpline
 70
8
 71
3
 72
8
 73
4
 74
0
 40
0
 40
0
 40
0
 40
0
 40
1
 40
1
 40
1
 40
1
 10
45.478087
 20
55.255611
 30
0.0
 10
44.868594
 20
55.865104
 30
0.0
 10
44.041944
 20
56.207514
 30
0.0
 10
43.179990
 20
56.207514
 30
0.0
  0
LWPOLYLINE
  5
16f
100
AcDbEntity
  8
Cut
 62
7
100
AcDbPolyline
 90
1
 70
1
 10
43.179990
 20
91.767520
 30
0.0
  0
SPLINE
  5
170
100
AcDbEntity
  8
Cut
 62
7
100
AcDbSpline
 70
8
 71
3
 72
8
 73
4
 74
0
 40
0
 40
0
 40
0
 40
0
 40
1
 40
1
 40
1
 40
1
 10
25.399990
 20
76.737518
 30
0.0
 10
24.085488
 20
76.737518
 30
0.0
 10
22.900420
 20
75.945681
 30
0.0
 10
22.397382
 20
74.731239
 30
0.0
  0
SPLINE
  5
171
100
AcDbEntity
  8
Cut
 62
7
100
AcDbSpline
 70
8
 71
3
 72
8
 73
4
 74
0
 40
0
 40
0
 40
0
 40
0
 40
1
 40
1
 40
1
 40
1
 10
22.397382
 20
74.731239
 30
0.0
 10
21.894343
 20
73.516797
 30
0.0
 10
22.172399
 20
72.118914
 30
0.0
 10
23.101893
 20
71.189421
 30
0.0
  0
SPLINE
  5
172
100
AcDbEntity
  8
Cut
 62
7
100
AcDbSpline
 70
8
 71
3
 72
8
 73
4
 74
0
 40
0
 40
0
 40
0
 40
0
 40
1
 40
1
 40
1
 40
1
 10
23.101893
 20
71.189421
 30
0.0
 10
24.031386
 20
70.259927
 30
0.0
 10
25.429269
 20
69.981871
 30
0.0
 10
26.643711
 20
70.484910
 30
0.0
  0
SPLINE
  5
173
100
AcDbEntity
  8
Cut
 62
7
100
AcDbSpline
 70
8
 71
3
 72
8
 73
4
 74
0
 40
0
 40
0
 40
0
 40
0
 40
1
 40
1
 40
1
 40
1
 10
26.643711
 20
70.484910
 30
0.0
 10
27.858153
 20
70.987948
 30
0.0
 10
28.649990
 20
72.173016
 30
0.0
 10
28.649990
 20
73.487518
 30
0.0
  0
SPLINE
  5
174
100
AcDbEntity
  8
Cut
 62
7
100
AcDbSpline
 70
8
 71
3
 72
8
 73
4
 74
0
 40
0
 40
0
 40
0
 40
0
 40
1
 40
1
 40
1
 40
1
 10
28.649990
 20
73.487518
 30
0.0
 10
28.649990
 20
74.349472
 30
0.0
 10
28.307580
 20
75.176122
 30
0.0
 10
27.698087
 20
75.785615
 30
0.0
  0
SPLINE
  5
175
100
AcDbEntity
  8
Cut
 62
7
100
AcDbSpline
 70
8
 71
3
 72
8
 73
4
 74
0
 40
0
 40
0
 40
0
 40
0
 40
1
 40
1
 40
1
 40
1
 10
27.698087
 20
75.785615
 30
0.0
 10
27.088594
 20
76.395108
 30
0.0
 10
26.261944
 20
76.737518
 30
0.0
 10
25.399990
 20
76.737518
 30
0.0
  0
LWPOLYLINE
  5
176
100
AcDbEntity
  8
Cut
 62
7
100
AcDbPolyline
 90
1
 70
1
 10
43.179990
 20
56.207514
 30
0.0
  0
SPLINE
  5
177
100
AcDbEntity
  8
Cut
 62
7
100
AcDbSpline
 70
8
 71
3
 72
8
 73
4
 74
0
 40
0
 40
0
 40
0
 40
0
 40
1
 40
1
 40
1
 40
1
 10
10.159980
 20
38.427515
 30
0.0
 10
8.845478
 20
38.427515
 30
0.0
 10
7.660410
 20
37.635678
 30
0.0
 10
7.157372
 20
36.421236
 30
0.0
  0
SPLINE
  5
178
100
AcDbEntity
  8
Cut
 62
7
100
AcDbSpline
 70
8
 71
3
 72
8
 73
4
 74
0
 40
0
 40
0
 40
0
 40
0
 40
1
 40
1
 40
1
 40
1
 10
7.157372
 20
36.421236
 30
0.0
 10
6.654333
 20
35.206794
 30
0.0
 10
6.932389
 20
33.808911
 30
0.0
 10
7.861883
 20
32.879418
 30
0.0
  0
SPLINE
  5
179
100
AcDbEntity
  8
Cut
 62
7
100
AcDbSpline
 70
8
 71
3
 72
8
 73
4
 74
0
 40
0
 40
0
 40
0
 40
0
 40
1
 40
1
 40
1
 40
1
 10
7.861883
 20
32.879418
 30
0.0
 10
8.791376
 20
31.949924
 30
0.0
 10
10.189259
 20
31.671868
 30
0.0
 10
11.403701
 20
32.174907
 30
0.0
  0
SPLINE
  5
17a
100
AcDbEntity
  8
Cut
 62
7
100
AcDbSpline
 70
8
 71
3
 72
8
 73
4
 74
0
 40
0
 40
0
 40
0
 40
0
 40
1
 40
1
 40
1
 40
1
 10
11.403701
 20
32.174907
 30
0.0
 10
12.618143
 20
32.677945
 30
0.0
 10
13.409980
 20
33.863013
 30
0.0
 10
13.409980
 20
35.177515
 30
0.0
  0
SPLINE
  5
17b
100
AcDbEntity
  8
Cut
 62
7
100
AcDbSpline
 70
8
 71
3
 72
8
 73
4
 74
0
 40
0
 40
0
 40
0
 40
0
 40
1
 40
1
 40
1
 40
1
 10
13.409980
 20
35.177515
 30
0.0
 10
13.409980
 20
36.039469
 30
0.0
 10
13.067570
 20
36.866119
 30
0.0
 10
12.458077
 20
37.475612
 30
0.0
  0
SPLINE
  5
17c
100
AcDbEntity
  8
Cut
 62
7
100
AcDbSpline
 70
8
 71
3
 72
8
 73
4
 74
0
 40
0
 40
0
 40
0
 40
0
 40
1
 40
1
 40
1
 40
1
 10
12.458077
 20
37.475612
 30
0.0
 10
11.848584
 20
38.085105
 30
0.0
 10
11.021934
 20
38.427515
 30
0.0
 10
10.159980
 20
38.427515
 30
0.0
  0
LWPOLYLINE
  5
17d
100
AcDbEntity
  8
Cut
 62
7
100
AcDbPolyline
 90
1
 70
1
 10
25.399990
 20
76.737518
 30
0.0
  0
SPLINE
  5
17e
100
AcDbEntity
  8
Cut
 62
7
100
AcDbSpline
 70
8
 71
3
 72
8
 73
4
 74
0
 40
0
 40
0
 40
0
 40
0
 40
1
 40
1
 40
1
 40
1
 10
8.890400
 20
123.597520
 30
0.0
 10
9.773743
 20
123.597962
 30
0.0
 10
10.489600
 20
124.314177
 30
0.0
 10
10.489600
 20
125.197520
 30
0.0
  0
SPLINE
  5
17f
100
AcDbEntity
  8
Cut
 62
7
100
AcDbSpline
 70
8
 71
3
 72
8
 73
4
 74
0
 40
0
 40
0
 40
0
 40
0
 40
1
 40
1
 40
1
 40
1
 10
10.489600
 20
125.197520
 30
0.0
 10
10.489600
 20
126.080863
 30
0.0
 10
9.773743
 20
126.797078
 30
0.0
 10
8.890400
 20
126.797520
 30
0.0
  0
LWPOLYLINE
  5
180
100
AcDbEntity
  8
Cut
 62
7
100
AcDbPolyline
 90
1
 70
1
 10
10.159980
 20
38.427515
 30
0.0
  0
SPLINE
  5
181
100
AcDbEntity
  8
Cut
 62
7
100
AcDbSpline
 70
8
 71
3
 72
8
 73
4
 74
0
 40
0
 40
0
 40
0
 40
0
 40
1
 40
1
 40
1
 40
1
 10
6.350400
 20
126.797520
 30
0.0
 10
5.778585
 20
126.797806
 30
0.0
 10
5.250083
 20
126.492910
 30
0.0
 10
4.964093
 20
125.997751
 30
0.0
  0
SPLINE
  5
182
100
AcDbEntity
  8
Cut
 62
7
100
AcDbSpline
 70
8
 71
3
 72
8
 73
4
 74
0
 40
0
 40
0
 40
0
 40
0
 40
1
 40
1
 40
1
 40
1
 10
4.964093
 20
125.997751
 30
0.0
 10
4.678102
 20
125.502592
 30
0.0
 10
4.678102
 20
124.892448
 30
0.0
 10
4.964093
 20
124.397289
 30
0.0
  0
SPLINE
  5
183
100
AcDbEntity
  8
Cut
 62
7
100
AcDbSpline
 70
8
 71
3
 72
8
 73
4
 74
0
 40
0
 40
0
 40
0
 40
0
 40
1
 40
1
 40
1
 40
1
 10
4.964093
 20
124.397289
 30
0.0
 10
5.250083
 20
123.902130
 30
0.0
 10
5.778585
 20
123.597234
 30
0.0
 10
6.350400
 20
123.597520
 30
0.0
  0
LWPOLYLINE
  5
184
100
AcDbEntity
  8
Cut
 62
7
100
AcDbPolyline
 90
2
 70
0
 10
8.890400
 20
126.797520
 30
0.0
 10
6.350400
 20
126.797520
 30
0.0
  0
SPLINE
  5
185
100
AcDbEntity
  8
Cut
 62
7
100
AcDbSpline
 70
8
 71
3
 72
8
 73
4
 74
0
 40
0
 40
0
 40
0
 40
0
 40
1
 40
1
 40
1
 40
1
 10
8.871800
 20
1.197520
 30
0.0
 10
9.755143
 20
1.197962
 30
0.0
 10
10.471000
 20
1.914177
 30
0.0
 10
10.471000
 20
2.797520
 30
0.0
  0
SPLINE
  5
186
100
AcDbEntity
  8
Cut
 62
7
100
AcDbSpline
 70
8
 71
3
 72
8
 73
4
 74
0
 40
0
 40
0
 40
0
 40
0
 40
1
 40
1
 40
1
 40
1
 10
10.471000
 20
2.797520
 30
0.0
 10
10.471000
 20
3.680863
 30
0.0
 10
9.755143
 20
4.397078
 30
0.0
 10
8.871800
 20
4.397520
 30
0.0
  0
LWPOLYLINE
  5
187
100
AcDbEntity
  8
Cut
 62
7
100
AcDbPolyline
 90
2
 70
0
 10
6.350400
 20
123.597520
 30
0.0
 10
8.890400
 20
123.597520
 30
0.0
  0
SPLINE
  5
188
100
AcDbEntity
  8
Cut
 62
7
100
AcDbSpline
 70
8
 71
3
 72
8
 73
4
 74
0
 40
0
 40
0
 40
0
 40
0
 40
1
 40
1
 40
1
 40
1
 10
6.331800
 20
4.397520
 30
0.0
 10
5.759985
 20
4.397806
 30
0.0
 10
5.231483
 20
4.092910
 30
0.0
 10
4.945493
 20
3.597751
 30
0.0
  0
SPLINE
  5
189
100
AcDbEntity
  8
Cut
 62
7
100
AcDbSpline
 70
8
 71
3
 72
8
 73
4
 74
0
 40
0
 40
0
 40
0
 40
0
 40
1
 40
1
 40
1
 40
1
 10
4.945493
 20
3.597751
 30
0.0
 10
4.659502
 20
3.102592
 30
0.0
 10
4.659502
 20
2.492448
 30
0.0
 10
4.945493
 20
1.997289
 30
0.0
  0
SPLINE
  5
18a
100
AcDbEntity
  8
Cut
 62
7
100
AcDbSpline
 70
8
 71
3
 72
8
 73
4
 74
0
 40
0
 40
0
 40
0
 40
0
 40
1
 40
1
 40
1
 40
1
 10
4.945493
 20
1.997289
 30
0.0
 10
5.231483
 20
1.502130
 30
0.0
 10
5.759985
 20
1.197234
 30
0.0
 10
6.331800
 20
1.197520
 30
0.0
  0
LWPOLYLINE
  5
18b
100
AcDbEntity
  8
Cut
 62
7
100
AcDbPolyline
 90
2
 70
0
 10
8.871800
 20
4.397520
 30
0.0
 10
6.331800
 20
4.397520
 30
0.0
  0
SPLINE
  5
18c
100
AcDbEntity
  8
Cut
 62
7
100
AcDbSpline
 70
8
 71
3
 72
8
 73
4
 74
0
 40
0
 40
0
 40
0
 40
0
 40
1
 40
1
 40
1
 40
1
 10
49.530400
 20
123.597520
 30
0.0
 10
50.413743
 20
123.597962
 30
0.0
 10
51.129600
 20
124.314177
 30
0.0
 10
51.129600
 20
125.197520
 30
0.0
  0
SPLINE
  5
18d
100
AcDbEntity
  8
Cut
 62
7
100
AcDbSpline
 70
8
 71
3
 72
8
 73
4
 74
0
 40
0
 40
0
 40
0
 40
0
 40
1
 40
1
 40
1
 40
1
 10
51.129600
 20
125.197520
 30
0.0
 10
51.129600
 20
126.080863
 30
0.0
 10
50.413743
 20
126.797078
 30
0.0
 10
49.530400
 20
126.797520
 30
0.0
  0
LWPOLYLINE
  5
18e
100
AcDbEntity
  8
Cut
 62
7
100
AcDbPolyline
 90
2
 70
0
 10
6.331800
 20
1.197520
 30
0.0
 10
8.871800
 20
1.197520
 30
0.0
  0
SPLINE
  5
18f
100
AcDbEntity
  8
Cut
 62
7
100
AcDbSpline
 70
8
 71
3
 72
8
 73
4
 74
0
 40
0
 40
0
 40
0
 40
0
 40
1
 40
1
 40
1
 40
1
 10
46.990400
 20
126.797520
 30
0.0
 10
46.418585
 20
126.797806
 30
0.0
 10
45.890083
 20
126.492910
 30
0.0
 10
45.604093
 20
125.997751
 30
0.0
  0
SPLINE
  5
190
100
AcDbEntity
  8
Cut
 62
7
100
AcDbSpline
 70
8
 71
3
 72
8
 73
4
 74
0
 40
0
 40
0
 40
0
 40
0
 40
1
 40
1
 40
1
 40
1
 10
45.604093
 20
125.997751
 30
0.0
 10
45.318102
 20
125.502592
 30
0.0
 10
45.318102
 20
124.892448
 30
0.0
 10
45.604093
 20
124.397289
 30
0.0
  0
SPLINE
  5
191
100
AcDbEntity
  8
Cut
 62
7
100
AcDbSpline
 70
8
 71
3
 72
8
 73
4
 74
0
 40
0
 40
0
 40
0
 40
0
 40
1
 40
1
 40
1
 40
1
 10
45.604093
 20
124.397289
 30
0.0
 10
45.890083
 20
123.902130
 30
0.0
 10
46.418585
 20
123.597234
 30
0.0
 10
46.990400
 20
123.597520
 30
0.0
  0
LWPOLYLINE
  5
192
100
AcDbEntity
  8
Cut
 62
7
100
AcDbPolyline
 90
2
 70
0
 10
49.530400
 20
126.797520
 30
0.0
 10
46.990400
 20
126.797520
 30
0.0
  0
SPLINE
  5
193
100
AcDbEntity
  8
Cut
 62
7
100
AcDbSpline
 70
8
 71
3
 72
8
 73
4
 74
0
 40
0
 40
0
 40
0
 40
0
 40
1
 40
1
 40
1
 40
1
 10
49.511800
 20
1.197520
 30
0.0
 10
50.395143
 20
1.197962
 30
0.0
 10
51.111000
 20
1.914177
 30
0.0
 10
51.111000
 20
2.797520
 30
0.0
  0
SPLINE
  5
194
100
AcDbEntity
  8
Cut
 62
7
100
AcDbSpline
 70
8
 71
3
 72
8
 73
4
 74
0
 40
0
 40
0
 40
0
 40
0
 40
1
 40
1
 40
1
 40
1
 10
51.111000
 20
2.797520
 30
0.0
 10
51.111000
 20
3.680863
 30
0.0
 10
50.395143
 20
4.397078
 30
0.0
 10
49.511800
 20
4.397520
 30
0.0
  0
LWPOLYLINE
  5
195
100
AcDbEntity
  8
Cut
 62
7
100
AcDbPolyline
 90
2
 70
0
 10
46.990400
 20
123.597520
 30
0.0
 10
49.530400
 20
123.597520
 30
0.0
  0
SPLINE
  5
196
100
AcDbEntity
  8
Cut
 62
7
100
AcDbSpline
 70
8
 71
3
 72
8
 73
4
 74
0
 40
0
 40
0
 40
0
 40
0
 40
1
 40
1
 40
1
 40
1
 10
46.971800
 20
4.397520
 30
0.0
 10
46.399985
 20
4.397806
 30
0.0
 10
45.871483
 20
4.092910
 30
0.0
 10
45.585493
 20
3.597751
 30
0.0
  0
SPLINE
  5
197
100
AcDbEntity
  8
Cut
 62
7
100
AcDbSpline
 70
8
 71
3
 72
8
 73
4
 74
0
 40
0
 40
0
 40
0
 40
0
 40
1
 40
1
 40
1
 40
1
 10
45.585493
 20
3.597751
 30
0.0
 10
45.299502
 20
3.102592
 30
0.0
 10
45.299502
 20
2.492448
 30
0.0
 10
45.585493
 20
1.997289
 30
0.0
  0
SPLINE
  5
198
100
AcDbEntity
  8
Cut
 62
7
100
AcDbSpline
 70
8
 71
3
 72
8
 73
4
 74
0
 40
0
 40
0
 40
0
 40
0
 40
1
 40
1
 40
1
 40
1
 10
45.585493
 20
1.997289
 30
0.0
 10
45.871483
 20
1.502130
 30
0.0
 10
46.399985
 20
1.197234
 30
0.0
 10
46.971800
 20
1.197520
 30
0.0
  0
LWPOLYLINE
  5
199
100
AcDbEntity
  8
Cut
 62
7
100
AcDbPolyline
 90
2
 70
0
 10
49.511800
 20
4.397520
 30
0.0
 10
46.971800
 20
4.397520
 30
0.0
  0
LWPOLYLINE
  5
19a
100
AcDbEntity
  8
Cut
 62
7
100
AcDbPolyline
 90
2
 70
0
 10
46.971800
 20
1.197520
 30
0.0
 10
49.511800
 20
1.197520
 30
0.0
  0
ENDSEC
  0
SECTION
  2
OBJECTS
  0
DICTIONARY
  5
C
330
0
100
AcDbDictionary
  3
ACAD_GROUP
350
D
  3
ACAD_MLINESTYLE
350
17
  0
DICTIONARY
  5
D
330
C
100
AcDbDictionary
  0
DICTIONARY
  5
1A
330
C
100
AcDbDictionary
  0
DICTIONARY
  5
17
330
C
100
AcDbDictionary
  3
STANDARD
350
18
  0
DICTIONARY
  5
19
330
C
100
AcDbDictionary
  0
ENDSEC
  0
EOF
