  0
SECTION
  2
HEADER
  9
$ACADVER
  1
AC1014
  9
$HANDSEED
  5
FFFF
  9
$INSUNITS
 70
     4
  9
$MEASUREMENT
 70
     1
  0
ENDSEC
  0
SECTION
  2
TABLES
  0
TABLE
  2
VPORT
  5
8
330
0
100
AcDbSymbolTable
 70
     4
  0
VPORT
  5
2E
330
8
100
AcDbSymbolTableRecord
100
AcDbViewportTableRecord
  2
*ACTIVE
 70
     0
 10
0.0
 20
0.0
 11
1.0
 21
1.0
 12
210.0
 22
148.5
 13
0.0
 23
0.0
 14
10.0
 24
10.0
 15
10.0
 25
10.0
 16
0.0
 26
0.0
 36
1.0
 17
0.0
 27
0.0
 37
0.0
 40
341.0
 41
1.24
 42
50.0
 43
0.0
 44
0.0
 50
0.0
 51
0.0
 71
     0
 72
   100
 73
     1
 74
     3
 75
     0
 76
     0
 77
     0
 78
     0
  0
ENDTAB
  0
TABLE
  2
LTYPE
  5
5
330
0
100
AcDbSymbolTable
 70
     1
  0
LTYPE
  5
14
330
5
100
AcDbSymbolTableRecord
100
AcDbLinetypeTableRecord
  2
BYBLOCK
 70
     0
  3

 72
    65
 73
     0
 40
0.0
  0
LTYPE
  5
15
330
5
100
AcDbSymbolTableRecord
100
AcDbLinetypeTableRecord
  2
BYLAYER
 70
     0
  3

 72
    65
 73
     0
 40
0.0
  0
LTYPE
  5
16
330
5
100
AcDbSymbolTableRecord
100
AcDbLinetypeTableRecord
  2
CONTINUOUS
 70
     0
  3
Solid line
 72
    65
 73
     0
 40
0.0
  0
ENDTAB
  0
TABLE
  2
LAYER
  5
2
100
AcDbSymbolTable
 70
4
  0
LAYER
  5
50
100
AcDbSymbolTableRecord
100
AcDbLayerTableRecord
  2
0
 70
0
  6
CONTINUOUS
  0
LAYER
  5
51
100
AcDbSymbolTableRecord
100
AcDbLayerTableRecord
  2
Guidelines
 70
0
  6
CONTINUOUS
  0
LAYER
  5
52
100
AcDbSymbolTableRecord
100
AcDbLayerTableRecord
  2
Cut
 70
0
  6
CONTINUOUS
  0
LAYER
  5
53
100
AcDbSymbolTableRecord
100
AcDbLayerTableRecord
  2
Artwork
 70
0
  6
CONTINUOUS
  0
ENDTAB
  0
TABLE
  2
STYLE
  5
3
330
0
100
AcDbSymbolTable
 70
     1
  0
STYLE
  5
11
330
3
100
AcDbSymbolTableRecord
100
AcDbTextStyleTableRecord
  2
STANDARD
 70
     0
 40
0.0
 41
1.0
 50
0.0
 71
     0
 42
2.5
  3
txt
  4

  0
ENDTAB
  0
TABLE
  2
VIEW
  5
6
330
0
100
AcDbSymbolTable
 70
     0
  0
ENDTAB
  0
TABLE
  2
UCS
  5
7
330
0
100
AcDbSymbolTable
 70
     0
  0
ENDTAB
  0
TABLE
  2
APPID
  5
9
330
0
100
AcDbSymbolTable
 70
     2
  0
APPID
  5
12
330
9
100
AcDbSymbolTableRecord
100
AcDbRegAppTableRecord
  2
ACAD
 70
     0
  0
ENDTAB
  0
TABLE
  2
DIMSTYLE
  5
A
330
0
100
AcDbSymbolTable
 70
     1
  0
DIMSTYLE
105
27
330
A
100
AcDbSymbolTableRecord
100
AcDbDimStyleTableRecord
  2
ISO-25
 70
     0
  3

  4

  5

  6

  7

 40
1.0
 41
2.5
 42
0.625
 43
3.75
 44
1.25
 45
0.0
 46
0.0
 47
0.0
 48
0.0
140
2.5
141
2.5
142
0.0
143
0.03937007874016
144
1.0
145
0.0
146
1.0
147
0.625
 71
     0
 72
     0
 73
     0
 74
     0
 75
     0
 76
     0
 77
     1
 78
     8
170
     0
171
     3
172
     1
173
     0
174
     0
175
     0
176
     0
177
     0
178
     0
270
     2
271
     2
272
     2
273
     2
274
     3
340
11
275
     0
280
     0
281
     0
282
     0
283
     0
284
     8
285
     0
286
     0
287
     3
288
     0
  0
ENDTAB
  0
TABLE
  2
BLOCK_RECORD
  5
1
330
0
100
AcDbSymbolTable
 70
     1
  0
BLOCK_RECORD
  5
1F
330
1
100
AcDbSymbolTableRecord
100
AcDbBlockTableRecord
  2
*MODEL_SPACE
  0
BLOCK_RECORD
  5
1B
330
1
100
AcDbSymbolTableRecord
100
AcDbBlockTableRecord
  2
*PAPER_SPACE
  0
ENDTAB
  0
ENDSEC
  0
SECTION
  2
BLOCKS
  0
BLOCK
  5
20
330
1F
100
AcDbEntity
  8
0
100
AcDbBlockBegin
  2
*MODEL_SPACE
 70
     0
 10
0.0
 20
0.0
 30
0.0
  3
*MODEL_SPACE
  1

  0
ENDBLK
  5
21
330
1F
100
AcDbEntity
  8
0
100
AcDbBlockEnd
  0
BLOCK
  5
1C
330
1B
100
AcDbEntity
 67
     1
  8
0
100
AcDbBlockBegin
  2
*PAPER_SPACE
  1

  0
ENDBLK
  5
1D
330
1B
100
AcDbEntity
 67
     1
  8
0
100
AcDbBlockEnd
  0
ENDSEC
  0
SECTION
  2
ENTITIES
  0
SPLINE
  5
100
100
AcDbEntity
  8
Cut
 62
7
100
AcDbSpline
 70
8
 71
3
 72
8
 73
4
 74
0
 40
0
 40
0
 40
0
 40
0
 40
1
 40
1
 40
1
 40
1
 10
35.559990
 20
20.571850
 30
0.0
 10
34.245488
 20
20.571850
 30
0.0
 10
33.060420
 20
19.780013
 30
0.0
 10
32.557382
 20
18.565571
 30
0.0
  0
SPLINE
  5
101
100
AcDbEntity
  8
Cut
 62
7
100
AcDbSpline
 70
8
 71
3
 72
8
 73
4
 74
0
 40
0
 40
0
 40
0
 40
0
 40
1
 40
1
 40
1
 40
1
 10
32.557382
 20
18.565571
 30
0.0
 10
32.054343
 20
17.351129
 30
0.0
 10
32.332399
 20
15.953246
 30
0.0
 10
33.261893
 20
15.023753
 30
0.0
  0
SPLINE
  5
102
100
AcDbEntity
  8
Cut
 62
7
100
AcDbSpline
 70
8
 71
3
 72
8
 73
4
 74
0
 40
0
 40
0
 40
0
 40
0
 40
1
 40
1
 40
1
 40
1
 10
33.261893
 20
15.023753
 30
0.0
 10
34.191386
 20
14.094259
 30
0.0
 10
35.589269
 20
13.816203
 30
0.0
 10
36.803711
 20
14.319242
 30
0.0
  0
SPLINE
  5
103
100
AcDbEntity
  8
Cut
 62
7
100
AcDbSpline
 70
8
 71
3
 72
8
 73
4
 74
0
 40
0
 40
0
 40
0
 40
0
 40
1
 40
1
 40
1
 40
1
 10
36.803711
 20
14.319242
 30
0.0
 10
38.018153
 20
14.822280
 30
0.0
 10
38.809990
 20
16.007348
 30
0.0
 10
38.809990
 20
17.321850
 30
0.0
  0
SPLINE
  5
104
100
AcDbEntity
  8
Cut
 62
7
100
AcDbSpline
 70
8
 71
3
 72
8
 73
4
 74
0
 40
0
 40
0
 40
0
 40
0
 40
1
 40
1
 40
1
 40
1
 10
38.809990
 20
17.321850
 30
0.0
 10
38.809990
 20
18.183804
 30
0.0
 10
38.467580
 20
19.010454
 30
0.0
 10
37.858087
 20
19.619947
 30
0.0
  0
SPLINE
  5
105
100
AcDbEntity
  8
Cut
 62
7
100
AcDbSpline
 70
8
 71
3
 72
8
 73
4
 74
0
 40
0
 40
0
 40
0
 40
0
 40
1
 40
1
 40
1
 40
1
 10
37.858087
 20
19.619947
 30
0.0
 10
37.248594
 20
20.229440
 30
0.0
 10
36.421944
 20
20.571850
 30
0.0
 10
35.559990
 20
20.571850
 30
0.0
  0
LWPOLYLINE
  5
106
100
AcDbEntity
  8
Cut
 62
7
100
AcDbPolyline
 90
4
 70
1
 10
12.699991
 20
114.591999
 30
0.0
 10
48.259990
 20
114.591999
 30
0.0
 10
48.259990
 20
89.192000
 30
0.0
 10
12.699991
 20
89.192000
 30
0.0
  0
SPLINE
  5
107
100
AcDbEntity
  8
Cut
 62
7
100
AcDbSpline
 70
8
 71
3
 72
8
 73
4
 74
0
 40
0
 40
0
 40
0
 40
0
 40
1
 40
1
 40
1
 40
1
 10
30.480000
 20
41.101850
 30
0.0
 10
29.165498
 20
41.101850
 30
0.0
 10
27.980430
 20
40.310013
 30
0.0
 10
27.477392
 20
39.095571
 30
0.0
  0
SPLINE
  5
108
100
AcDbEntity
  8
Cut
 62
7
100
AcDbSpline
 70
8
 71
3
 72
8
 73
4
 74
0
 40
0
 40
0
 40
0
 40
0
 40
1
 40
1
 40
1
 40
1
 10
27.477392
 20
39.095571
 30
0.0
 10
26.974353
 20
37.881129
 30
0.0
 10
27.252409
 20
36.483246
 30
0.0
 10
28.181903
 20
35.553753
 30
0.0
  0
SPLINE
  5
109
100
AcDbEntity
  8
Cut
 62
7
100
AcDbSpline
 70
8
 71
3
 72
8
 73
4
 74
0
 40
0
 40
0
 40
0
 40
0
 40
1
 40
1
 40
1
 40
1
 10
28.181903
 20
35.553753
 30
0.0
 10
29.111396
 20
34.624259
 30
0.0
 10
30.509279
 20
34.346203
 30
0.0
 10
31.723721
 20
34.849242
 30
0.0
  0
SPLINE
  5
10a
100
AcDbEntity
  8
Cut
 62
7
100
AcDbSpline
 70
8
 71
3
 72
8
 73
4
 74
0
 40
0
 40
0
 40
0
 40
0
 40
1
 40
1
 40
1
 40
1
 10
31.723721
 20
34.849242
 30
0.0
 10
32.938163
 20
35.352280
 30
0.0
 10
33.730000
 20
36.537348
 30
0.0
 10
33.730000
 20
37.851850
 30
0.0
  0
SPLINE
  5
10b
100
AcDbEntity
  8
Cut
 62
7
100
AcDbSpline
 70
8
 71
3
 72
8
 73
4
 74
0
 40
0
 40
0
 40
0
 40
0
 40
1
 40
1
 40
1
 40
1
 10
33.730000
 20
37.851850
 30
0.0
 10
33.730000
 20
38.713804
 30
0.0
 10
33.387590
 20
39.540454
 30
0.0
 10
32.778097
 20
40.149947
 30
0.0
  0
SPLINE
  5
10c
100
AcDbEntity
  8
Cut
 62
7
100
AcDbSpline
 70
8
 71
3
 72
8
 73
4
 74
0
 40
0
 40
0
 40
0
 40
0
 40
1
 40
1
 40
1
 40
1
 10
32.778097
 20
40.149947
 30
0.0
 10
32.168604
 20
40.759440
 30
0.0
 10
31.341954
 20
41.101850
 30
0.0
 10
30.480000
 20
41.101850
 30
0.0
  0
LWPOLYLINE
  5
10d
100
AcDbEntity
  8
Cut
 62
7
100
AcDbPolyline
 90
1
 70
1
 10
35.559990
 20
20.571850
 30
0.0
  0
SPLINE
  5
10e
100
AcDbEntity
  8
Cut
 62
7
100
AcDbSpline
 70
8
 71
3
 72
8
 73
4
 74
0
 40
0
 40
0
 40
0
 40
0
 40
1
 40
1
 40
1
 40
1
 10
12.699989
 20
79.201840
 30
0.0
 10
11.385487
 20
79.201840
 30
0.0
 10
10.200419
 20
78.410003
 30
0.0
 10
9.697381
 20
77.195561
 30
0.0
  0
SPLINE
  5
10f
100
AcDbEntity
  8
Cut
 62
7
100
AcDbSpline
 70
8
 71
3
 72
8
 73
4
 74
0
 40
0
 40
0
 40
0
 40
0
 40
1
 40
1
 40
1
 40
1
 10
9.697381
 20
77.195561
 30
0.0
 10
9.194342
 20
75.981119
 30
0.0
 10
9.472398
 20
74.583236
 30
0.0
 10
10.401892
 20
73.653743
 30
0.0
  0
SPLINE
  5
110
100
AcDbEntity
  8
Cut
 62
7
100
AcDbSpline
 70
8
 71
3
 72
8
 73
4
 74
0
 40
0
 40
0
 40
0
 40
0
 40
1
 40
1
 40
1
 40
1
 10
10.401892
 20
73.653743
 30
0.0
 10
11.331385
 20
72.724249
 30
0.0
 10
12.729268
 20
72.446193
 30
0.0
 10
13.943710
 20
72.949232
 30
0.0
  0
SPLINE
  5
111
100
AcDbEntity
  8
Cut
 62
7
100
AcDbSpline
 70
8
 71
3
 72
8
 73
4
 74
0
 40
0
 40
0
 40
0
 40
0
 40
1
 40
1
 40
1
 40
1
 10
13.943710
 20
72.949232
 30
0.0
 10
15.158152
 20
73.452270
 30
0.0
 10
15.949989
 20
74.637338
 30
0.0
 10
15.949989
 20
75.951840
 30
0.0
  0
SPLINE
  5
112
100
AcDbEntity
  8
Cut
 62
7
100
AcDbSpline
 70
8
 71
3
 72
8
 73
4
 74
0
 40
0
 40
0
 40
0
 40
0
 40
1
 40
1
 40
1
 40
1
 10
15.949989
 20
75.951840
 30
0.0
 10
15.949989
 20
76.813794
 30
0.0
 10
15.607579
 20
77.640444
 30
0.0
 10
14.998086
 20
78.249937
 30
0.0
  0
SPLINE
  5
113
100
AcDbEntity
  8
Cut
 62
7
100
AcDbSpline
 70
8
 71
3
 72
8
 73
4
 74
0
 40
0
 40
0
 40
0
 40
0
 40
1
 40
1
 40
1
 40
1
 10
14.998086
 20
78.249937
 30
0.0
 10
14.388593
 20
78.859430
 30
0.0
 10
13.561943
 20
79.201840
 30
0.0
 10
12.699989
 20
79.201840
 30
0.0
  0
LWPOLYLINE
  5
114
100
AcDbEntity
  8
Cut
 62
7
100
AcDbPolyline
 90
1
 70
1
 10
30.480000
 20
41.101850
 30
0.0
  0
SPLINE
  5
115
100
AcDbEntity
  8
Cut
 62
7
100
AcDbSpline
 70
8
 71
3
 72
8
 73
4
 74
0
 40
0
 40
0
 40
0
 40
0
 40
1
 40
1
 40
1
 40
1
 10
50.800000
 20
20.571850
 30
0.0
 10
49.485498
 20
20.571850
 30
0.0
 10
48.300430
 20
19.780013
 30
0.0
 10
47.797392
 20
18.565571
 30
0.0
  0
SPLINE
  5
116
100
AcDbEntity
  8
Cut
 62
7
100
AcDbSpline
 70
8
 71
3
 72
8
 73
4
 74
0
 40
0
 40
0
 40
0
 40
0
 40
1
 40
1
 40
1
 40
1
 10
47.797392
 20
18.565571
 30
0.0
 10
47.294353
 20
17.351129
 30
0.0
 10
47.572409
 20
15.953246
 30
0.0
 10
48.501903
 20
15.023753
 30
0.0
  0
SPLINE
  5
117
100
AcDbEntity
  8
Cut
 62
7
100
AcDbSpline
 70
8
 71
3
 72
8
 73
4
 74
0
 40
0
 40
0
 40
0
 40
0
 40
1
 40
1
 40
1
 40
1
 10
48.501903
 20
15.023753
 30
0.0
 10
49.431396
 20
14.094259
 30
0.0
 10
50.829279
 20
13.816203
 30
0.0
 10
52.043721
 20
14.319242
 30
0.0
  0
SPLINE
  5
118
100
AcDbEntity
  8
Cut
 62
7
100
AcDbSpline
 70
8
 71
3
 72
8
 73
4
 74
0
 40
0
 40
0
 40
0
 40
0
 40
1
 40
1
 40
1
 40
1
 10
52.043721
 20
14.319242
 30
0.0
 10
53.258163
 20
14.822280
 30
0.0
 10
54.050000
 20
16.007348
 30
0.0
 10
54.050000
 20
17.321850
 30
0.0
  0
SPLINE
  5
119
100
AcDbEntity
  8
Cut
 62
7
100
AcDbSpline
 70
8
 71
3
 72
8
 73
4
 74
0
 40
0
 40
0
 40
0
 40
0
 40
1
 40
1
 40
1
 40
1
 10
54.050000
 20
17.321850
 30
0.0
 10
54.050000
 20
18.183804
 30
0.0
 10
53.707590
 20
19.010454
 30
0.0
 10
53.098097
 20
19.619947
 30
0.0
  0
SPLINE
  5
11a
100
AcDbEntity
  8
Cut
 62
7
100
AcDbSpline
 70
8
 71
3
 72
8
 73
4
 74
0
 40
0
 40
0
 40
0
 40
0
 40
1
 40
1
 40
1
 40
1
 10
53.098097
 20
19.619947
 30
0.0
 10
52.488604
 20
20.229440
 30
0.0
 10
51.661954
 20
20.571850
 30
0.0
 10
50.800000
 20
20.571850
 30
0.0
  0
LWPOLYLINE
  5
11b
100
AcDbEntity
  8
Cut
 62
7
100
AcDbPolyline
 90
1
 70
1
 10
12.699989
 20
79.201840
 30
0.0
  0
SPLINE
  5
11c
100
AcDbEntity
  8
Cut
 62
7
100
AcDbSpline
 70
8
 71
3
 72
8
 73
4
 74
0
 40
0
 40
0
 40
0
 40
0
 40
1
 40
1
 40
1
 40
1
 10
30.480000
 20
63.961850
 30
0.0
 10
29.165498
 20
63.961850
 30
0.0
 10
27.980430
 20
63.170013
 30
0.0
 10
27.477392
 20
61.955571
 30
0.0
  0
SPLINE
  5
11d
100
AcDbEntity
  8
Cut
 62
7
100
AcDbSpline
 70
8
 71
3
 72
8
 73
4
 74
0
 40
0
 40
0
 40
0
 40
0
 40
1
 40
1
 40
1
 40
1
 10
27.477392
 20
61.955571
 30
0.0
 10
26.974353
 20
60.741129
 30
0.0
 10
27.252409
 20
59.343246
 30
0.0
 10
28.181903
 20
58.413753
 30
0.0
  0
SPLINE
  5
11e
100
AcDbEntity
  8
Cut
 62
7
100
AcDbSpline
 70
8
 71
3
 72
8
 73
4
 74
0
 40
0
 40
0
 40
0
 40
0
 40
1
 40
1
 40
1
 40
1
 10
28.181903
 20
58.413753
 30
0.0
 10
29.111396
 20
57.484259
 30
0.0
 10
30.509279
 20
57.206203
 30
0.0
 10
31.723721
 20
57.709242
 30
0.0
  0
SPLINE
  5
11f
100
AcDbEntity
  8
Cut
 62
7
100
AcDbSpline
 70
8
 71
3
 72
8
 73
4
 74
0
 40
0
 40
0
 40
0
 40
0
 40
1
 40
1
 40
1
 40
1
 10
31.723721
 20
57.709242
 30
0.0
 10
32.938163
 20
58.212280
 30
0.0
 10
33.730000
 20
59.397348
 30
0.0
 10
33.730000
 20
60.711850
 30
0.0
  0
SPLINE
  5
120
100
AcDbEntity
  8
Cut
 62
7
100
AcDbSpline
 70
8
 71
3
 72
8
 73
4
 74
0
 40
0
 40
0
 40
0
 40
0
 40
1
 40
1
 40
1
 40
1
 10
33.730000
 20
60.711850
 30
0.0
 10
33.730000
 20
61.573804
 30
0.0
 10
33.387590
 20
62.400454
 30
0.0
 10
32.778097
 20
63.009947
 30
0.0
  0
SPLINE
  5
121
100
AcDbEntity
  8
Cut
 62
7
100
AcDbSpline
 70
8
 71
3
 72
8
 73
4
 74
0
 40
0
 40
0
 40
0
 40
0
 40
1
 40
1
 40
1
 40
1
 10
32.778097
 20
63.009947
 30
0.0
 10
32.168604
 20
63.619440
 30
0.0
 10
31.341954
 20
63.961850
 30
0.0
 10
30.480000
 20
63.961850
 30
0.0
  0
LWPOLYLINE
  5
122
100
AcDbEntity
  8
Cut
 62
7
100
AcDbPolyline
 90
1
 70
1
 10
50.800000
 20
20.571850
 30
0.0
  0
SPLINE
  5
123
100
AcDbEntity
  8
Cut
 62
7
100
AcDbSpline
 70
8
 71
3
 72
8
 73
4
 74
0
 40
0
 40
0
 40
0
 40
0
 40
1
 40
1
 40
1
 40
1
 10
10.159996
 20
20.571850
 30
0.0
 10
8.845494
 20
20.571850
 30
0.0
 10
7.660426
 20
19.780013
 30
0.0
 10
7.157388
 20
18.565571
 30
0.0
  0
SPLINE
  5
124
100
AcDbEntity
  8
Cut
 62
7
100
AcDbSpline
 70
8
 71
3
 72
8
 73
4
 74
0
 40
0
 40
0
 40
0
 40
0
 40
1
 40
1
 40
1
 40
1
 10
7.157388
 20
18.565571
 30
0.0
 10
6.654349
 20
17.351129
 30
0.0
 10
6.932405
 20
15.953246
 30
0.0
 10
7.861899
 20
15.023753
 30
0.0
  0
SPLINE
  5
125
100
AcDbEntity
  8
Cut
 62
7
100
AcDbSpline
 70
8
 71
3
 72
8
 73
4
 74
0
 40
0
 40
0
 40
0
 40
0
 40
1
 40
1
 40
1
 40
1
 10
7.861899
 20
15.023753
 30
0.0
 10
8.791392
 20
14.094259
 30
0.0
 10
10.189275
 20
13.816203
 30
0.0
 10
11.403717
 20
14.319242
 30
0.0
  0
SPLINE
  5
126
100
AcDbEntity
  8
Cut
 62
7
100
AcDbSpline
 70
8
 71
3
 72
8
 73
4
 74
0
 40
0
 40
0
 40
0
 40
0
 40
1
 40
1
 40
1
 40
1
 10
11.403717
 20
14.319242
 30
0.0
 10
12.618159
 20
14.822280
 30
0.0
 10
13.409996
 20
16.007348
 30
0.0
 10
13.409996
 20
17.321850
 30
0.0
  0
SPLINE
  5
127
100
AcDbEntity
  8
Cut
 62
7
100
AcDbSpline
 70
8
 71
3
 72
8
 73
4
 74
0
 40
0
 40
0
 40
0
 40
0
 40
1
 40
1
 40
1
 40
1
 10
13.409996
 20
17.321850
 30
0.0
 10
13.409996
 20
18.183804
 30
0.0
 10
13.067586
 20
19.010454
 30
0.0
 10
12.458093
 20
19.619947
 30
0.0
  0
SPLINE
  5
128
100
AcDbEntity
  8
Cut
 62
7
100
AcDbSpline
 70
8
 71
3
 72
8
 73
4
 74
0
 40
0
 40
0
 40
0
 40
0
 40
1
 40
1
 40
1
 40
1
 10
12.458093
 20
19.619947
 30
0.0
 10
11.848600
 20
20.229440
 30
0.0
 10
11.021950
 20
20.571850
 30
0.0
 10
10.159996
 20
20.571850
 30
0.0
  0
LWPOLYLINE
  5
129
100
AcDbEntity
  8
Cut
 62
7
100
AcDbPolyline
 90
1
 70
1
 10
30.480000
 20
63.961850
 30
0.0
  0
SPLINE
  5
12a
100
AcDbEntity
  8
Cut
 62
7
100
AcDbSpline
 70
8
 71
3
 72
8
 73
4
 74
0
 40
0
 40
0
 40
0
 40
0
 40
1
 40
1
 40
1
 40
1
 10
48.259990
 20
79.201840
 30
0.0
 10
46.945488
 20
79.201840
 30
0.0
 10
45.760420
 20
78.410003
 30
0.0
 10
45.257382
 20
77.195561
 30
0.0
  0
SPLINE
  5
12b
100
AcDbEntity
  8
Cut
 62
7
100
AcDbSpline
 70
8
 71
3
 72
8
 73
4
 74
0
 40
0
 40
0
 40
0
 40
0
 40
1
 40
1
 40
1
 40
1
 10
45.257382
 20
77.195561
 30
0.0
 10
44.754343
 20
75.981119
 30
0.0
 10
45.032399
 20
74.583236
 30
0.0
 10
45.961893
 20
73.653743
 30
0.0
  0
SPLINE
  5
12c
100
AcDbEntity
  8
Cut
 62
7
100
AcDbSpline
 70
8
 71
3
 72
8
 73
4
 74
0
 40
0
 40
0
 40
0
 40
0
 40
1
 40
1
 40
1
 40
1
 10
45.961893
 20
73.653743
 30
0.0
 10
46.891386
 20
72.724249
 30
0.0
 10
48.289269
 20
72.446193
 30
0.0
 10
49.503711
 20
72.949232
 30
0.0
  0
SPLINE
  5
12d
100
AcDbEntity
  8
Cut
 62
7
100
AcDbSpline
 70
8
 71
3
 72
8
 73
4
 74
0
 40
0
 40
0
 40
0
 40
0
 40
1
 40
1
 40
1
 40
1
 10
49.503711
 20
72.949232
 30
0.0
 10
50.718153
 20
73.452270
 30
0.0
 10
51.509990
 20
74.637338
 30
0.0
 10
51.509990
 20
75.951840
 30
0.0
  0
SPLINE
  5
12e
100
AcDbEntity
  8
Cut
 62
7
100
AcDbSpline
 70
8
 71
3
 72
8
 73
4
 74
0
 40
0
 40
0
 40
0
 40
0
 40
1
 40
1
 40
1
 40
1
 10
51.509990
 20
75.951840
 30
0.0
 10
51.509990
 20
76.813794
 30
0.0
 10
51.167580
 20
77.640444
 30
0.0
 10
50.558087
 20
78.249937
 30
0.0
  0
SPLINE
  5
12f
100
AcDbEntity
  8
Cut
 62
7
100
AcDbSpline
 70
8
 71
3
 72
8
 73
4
 74
0
 40
0
 40
0
 40
0
 40
0
 40
1
 40
1
 40
1
 40
1
 10
50.558087
 20
78.249937
 30
0.0
 10
49.948594
 20
78.859430
 30
0.0
 10
49.121944
 20
79.201840
 30
0.0
 10
48.259990
 20
79.201840
 30
0.0
  0
LWPOLYLINE
  5
130
100
AcDbEntity
  8
Cut
 62
7
100
AcDbPolyline
 90
1
 70
1
 10
10.159996
 20
20.571850
 30
0.0
  0
SPLINE
  5
131
100
AcDbEntity
  8
Cut
 62
7
100
AcDbSpline
 70
8
 71
3
 72
8
 73
4
 74
0
 40
0
 40
0
 40
0
 40
0
 40
1
 40
1
 40
1
 40
1
 10
10.159996
 20
33.271850
 30
0.0
 10
8.845494
 20
33.271850
 30
0.0
 10
7.660426
 20
32.480013
 30
0.0
 10
7.157388
 20
31.265571
 30
0.0
  0
SPLINE
  5
132
100
AcDbEntity
  8
Cut
 62
7
100
AcDbSpline
 70
8
 71
3
 72
8
 73
4
 74
0
 40
0
 40
0
 40
0
 40
0
 40
1
 40
1
 40
1
 40
1
 10
7.157388
 20
31.265571
 30
0.0
 10
6.654349
 20
30.051129
 30
0.0
 10
6.932405
 20
28.653246
 30
0.0
 10
7.861899
 20
27.723753
 30
0.0
  0
SPLINE
  5
133
100
AcDbEntity
  8
Cut
 62
7
100
AcDbSpline
 70
8
 71
3
 72
8
 73
4
 74
0
 40
0
 40
0
 40
0
 40
0
 40
1
 40
1
 40
1
 40
1
 10
7.861899
 20
27.723753
 30
0.0
 10
8.791392
 20
26.794259
 30
0.0
 10
10.189275
 20
26.516203
 30
0.0
 10
11.403717
 20
27.019242
 30
0.0
  0
SPLINE
  5
134
100
AcDbEntity
  8
Cut
 62
7
100
AcDbSpline
 70
8
 71
3
 72
8
 73
4
 74
0
 40
0
 40
0
 40
0
 40
0
 40
1
 40
1
 40
1
 40
1
 10
11.403717
 20
27.019242
 30
0.0
 10
12.618159
 20
27.522280
 30
0.0
 10
13.409996
 20
28.707348
 30
0.0
 10
13.409996
 20
30.021850
 30
0.0
  0
SPLINE
  5
135
100
AcDbEntity
  8
Cut
 62
7
100
AcDbSpline
 70
8
 71
3
 72
8
 73
4
 74
0
 40
0
 40
0
 40
0
 40
0
 40
1
 40
1
 40
1
 40
1
 10
13.409996
 20
30.021850
 30
0.0
 10
13.409996
 20
30.883804
 30
0.0
 10
13.067586
 20
31.710454
 30
0.0
 10
12.458093
 20
32.319947
 30
0.0
  0
SPLINE
  5
136
100
AcDbEntity
  8
Cut
 62
7
100
AcDbSpline
 70
8
 71
3
 72
8
 73
4
 74
0
 40
0
 40
0
 40
0
 40
0
 40
1
 40
1
 40
1
 40
1
 10
12.458093
 20
32.319947
 30
0.0
 10
11.848600
 20
32.929440
 30
0.0
 10
11.021950
 20
33.271850
 30
0.0
 10
10.159996
 20
33.271850
 30
0.0
  0
LWPOLYLINE
  5
137
100
AcDbEntity
  8
Cut
 62
7
100
AcDbPolyline
 90
1
 70
1
 10
48.259990
 20
79.201840
 30
0.0
  0
SPLINE
  5
138
100
AcDbEntity
  8
Cut
 62
7
100
AcDbSpline
 70
8
 71
3
 72
8
 73
4
 74
0
 40
0
 40
0
 40
0
 40
0
 40
1
 40
1
 40
1
 40
1
 10
22.859993
 20
20.571850
 30
0.0
 10
21.545491
 20
20.571850
 30
0.0
 10
20.360423
 20
19.780013
 30
0.0
 10
19.857385
 20
18.565571
 30
0.0
  0
SPLINE
  5
139
100
AcDbEntity
  8
Cut
 62
7
100
AcDbSpline
 70
8
 71
3
 72
8
 73
4
 74
0
 40
0
 40
0
 40
0
 40
0
 40
1
 40
1
 40
1
 40
1
 10
19.857385
 20
18.565571
 30
0.0
 10
19.354346
 20
17.351129
 30
0.0
 10
19.632402
 20
15.953246
 30
0.0
 10
20.561896
 20
15.023753
 30
0.0
  0
SPLINE
  5
13a
100
AcDbEntity
  8
Cut
 62
7
100
AcDbSpline
 70
8
 71
3
 72
8
 73
4
 74
0
 40
0
 40
0
 40
0
 40
0
 40
1
 40
1
 40
1
 40
1
 10
20.561896
 20
15.023753
 30
0.0
 10
21.491389
 20
14.094259
 30
0.0
 10
22.889272
 20
13.816203
 30
0.0
 10
24.103714
 20
14.319242
 30
0.0
  0
SPLINE
  5
13b
100
AcDbEntity
  8
Cut
 62
7
100
AcDbSpline
 70
8
 71
3
 72
8
 73
4
 74
0
 40
0
 40
0
 40
0
 40
0
 40
1
 40
1
 40
1
 40
1
 10
24.103714
 20
14.319242
 30
0.0
 10
25.318156
 20
14.822280
 30
0.0
 10
26.109993
 20
16.007348
 30
0.0
 10
26.109993
 20
17.321850
 30
0.0
  0
SPLINE
  5
13c
100
AcDbEntity
  8
Cut
 62
7
100
AcDbSpline
 70
8
 71
3
 72
8
 73
4
 74
0
 40
0
 40
0
 40
0
 40
0
 40
1
 40
1
 40
1
 40
1
 10
26.109993
 20
17.321850
 30
0.0
 10
26.109993
 20
18.183804
 30
0.0
 10
25.767583
 20
19.010454
 30
0.0
 10
25.158090
 20
19.619947
 30
0.0
  0
SPLINE
  5
13d
100
AcDbEntity
  8
Cut
 62
7
100
AcDbSpline
 70
8
 71
3
 72
8
 73
4
 74
0
 40
0
 40
0
 40
0
 40
0
 40
1
 40
1
 40
1
 40
1
 10
25.158090
 20
19.619947
 30
0.0
 10
24.548597
 20
20.229440
 30
0.0
 10
23.721947
 20
20.571850
 30
0.0
 10
22.859993
 20
20.571850
 30
0.0
  0
LWPOLYLINE
  5
13e
100
AcDbEntity
  8
Cut
 62
7
100
AcDbPolyline
 90
1
 70
1
 10
10.159996
 20
33.271850
 30
0.0
  0
SPLINE
  5
13f
100
AcDbEntity
  8
Cut
 62
7
100
AcDbSpline
 70
8
 71
3
 72
8
 73
4
 74
0
 40
0
 40
0
 40
0
 40
0
 40
1
 40
1
 40
1
 40
1
 10
10.074989
 20
53.816850
 30
0.0
 10
8.760487
 20
53.816850
 30
0.0
 10
7.575419
 20
53.025013
 30
0.0
 10
7.072381
 20
51.810571
 30
0.0
  0
SPLINE
  5
140
100
AcDbEntity
  8
Cut
 62
7
100
AcDbSpline
 70
8
 71
3
 72
8
 73
4
 74
0
 40
0
 40
0
 40
0
 40
0
 40
1
 40
1
 40
1
 40
1
 10
7.072381
 20
51.810571
 30
0.0
 10
6.569342
 20
50.596129
 30
0.0
 10
6.847398
 20
49.198246
 30
0.0
 10
7.776892
 20
48.268753
 30
0.0
  0
SPLINE
  5
141
100
AcDbEntity
  8
Cut
 62
7
100
AcDbSpline
 70
8
 71
3
 72
8
 73
4
 74
0
 40
0
 40
0
 40
0
 40
0
 40
1
 40
1
 40
1
 40
1
 10
7.776892
 20
48.268753
 30
0.0
 10
8.706385
 20
47.339259
 30
0.0
 10
10.104268
 20
47.061203
 30
0.0
 10
11.318710
 20
47.564242
 30
0.0
  0
SPLINE
  5
142
100
AcDbEntity
  8
Cut
 62
7
100
AcDbSpline
 70
8
 71
3
 72
8
 73
4
 74
0
 40
0
 40
0
 40
0
 40
0
 40
1
 40
1
 40
1
 40
1
 10
11.318710
 20
47.564242
 30
0.0
 10
12.533152
 20
48.067280
 30
0.0
 10
13.324989
 20
49.252348
 30
0.0
 10
13.324989
 20
50.566850
 30
0.0
  0
SPLINE
  5
143
100
AcDbEntity
  8
Cut
 62
7
100
AcDbSpline
 70
8
 71
3
 72
8
 73
4
 74
0
 40
0
 40
0
 40
0
 40
0
 40
1
 40
1
 40
1
 40
1
 10
13.324989
 20
50.566850
 30
0.0
 10
13.324989
 20
51.428804
 30
0.0
 10
12.982579
 20
52.255454
 30
0.0
 10
12.373086
 20
52.864947
 30
0.0
  0
SPLINE
  5
144
100
AcDbEntity
  8
Cut
 62
7
100
AcDbSpline
 70
8
 71
3
 72
8
 73
4
 74
0
 40
0
 40
0
 40
0
 40
0
 40
1
 40
1
 40
1
 40
1
 10
12.373086
 20
52.864947
 30
0.0
 10
11.763593
 20
53.474440
 30
0.0
 10
10.936943
 20
53.816850
 30
0.0
 10
10.074989
 20
53.816850
 30
0.0
  0
LWPOLYLINE
  5
145
100
AcDbEntity
  8
Cut
 62
7
100
AcDbPolyline
 90
1
 70
1
 10
22.859993
 20
20.571850
 30
0.0
  0
SPLINE
  5
146
100
AcDbEntity
  8
Cut
 62
7
100
AcDbSpline
 70
8
 71
3
 72
8
 73
4
 74
0
 40
0
 40
0
 40
0
 40
0
 40
1
 40
1
 40
1
 40
1
 10
50.755000
 20
53.816850
 30
0.0
 10
48.960075
 20
53.816850
 30
0.0
 10
47.505000
 20
52.361775
 30
0.0
 10
47.505000
 20
50.566850
 30
0.0
  0
SPLINE
  5
147
100
AcDbEntity
  8
Cut
 62
7
100
AcDbSpline
 70
8
 71
3
 72
8
 73
4
 74
0
 40
0
 40
0
 40
0
 40
0
 40
1
 40
1
 40
1
 40
1
 10
47.505000
 20
50.566850
 30
0.0
 10
47.505000
 20
48.771925
 30
0.0
 10
48.960075
 20
47.316850
 30
0.0
 10
50.755000
 20
47.316850
 30
0.0
  0
SPLINE
  5
148
100
AcDbEntity
  8
Cut
 62
7
100
AcDbSpline
 70
8
 71
3
 72
8
 73
4
 74
0
 40
0
 40
0
 40
0
 40
0
 40
1
 40
1
 40
1
 40
1
 10
50.755000
 20
47.316850
 30
0.0
 10
52.549925
 20
47.316850
 30
0.0
 10
54.005000
 20
48.771925
 30
0.0
 10
54.005000
 20
50.566850
 30
0.0
  0
SPLINE
  5
149
100
AcDbEntity
  8
Cut
 62
7
100
AcDbSpline
 70
8
 71
3
 72
8
 73
4
 74
0
 40
0
 40
0
 40
0
 40
0
 40
1
 40
1
 40
1
 40
1
 10
54.005000
 20
50.566850
 30
0.0
 10
54.005000
 20
51.428804
 30
0.0
 10
53.662590
 20
52.255454
 30
0.0
 10
53.053097
 20
52.864947
 30
0.0
  0
SPLINE
  5
14a
100
AcDbEntity
  8
Cut
 62
7
100
AcDbSpline
 70
8
 71
3
 72
8
 73
4
 74
0
 40
0
 40
0
 40
0
 40
0
 40
1
 40
1
 40
1
 40
1
 10
53.053097
 20
52.864947
 30
0.0
 10
52.443604
 20
53.474440
 30
0.0
 10
51.616954
 20
53.816850
 30
0.0
 10
50.755000
 20
53.816850
 30
0.0
  0
LWPOLYLINE
  5
14b
100
AcDbEntity
  8
Cut
 62
7
100
AcDbPolyline
 90
1
 70
1
 10
10.074989
 20
53.816850
 30
0.0
  0
SPLINE
  5
14c
100
AcDbEntity
  8
Cut
 62
7
100
AcDbSpline
 70
8
 71
3
 72
8
 73
4
 74
0
 40
0
 40
0
 40
0
 40
0
 40
1
 40
1
 40
1
 40
1
 10
35.560000
 20
81.116627
 30
0.0
 10
34.749139
 20
81.116627
 30
0.0
 10
34.018121
 20
80.628176
 30
0.0
 10
33.707818
 20
79.879039
 30
0.0
  0
SPLINE
  5
14d
100
AcDbEntity
  8
Cut
 62
7
100
AcDbSpline
 70
8
 71
3
 72
8
 73
4
 74
0
 40
0
 40
0
 40
0
 40
0
 40
1
 40
1
 40
1
 40
1
 10
33.707818
 20
79.879039
 30
0.0
 10
33.397515
 20
79.129901
 30
0.0
 10
33.569036
 20
78.267607
 30
0.0
 10
34.142402
 20
77.694242
 30
0.0
  0
SPLINE
  5
14e
100
AcDbEntity
  8
Cut
 62
7
100
AcDbSpline
 70
8
 71
3
 72
8
 73
4
 74
0
 40
0
 40
0
 40
0
 40
0
 40
1
 40
1
 40
1
 40
1
 10
34.142402
 20
77.694242
 30
0.0
 10
34.715767
 20
77.120876
 30
0.0
 10
35.578061
 20
76.949355
 30
0.0
 10
36.327199
 20
77.259658
 30
0.0
  0
SPLINE
  5
14f
100
AcDbEntity
  8
Cut
 62
7
100
AcDbSpline
 70
8
 71
3
 72
8
 73
4
 74
0
 40
0
 40
0
 40
0
 40
0
 40
1
 40
1
 40
1
 40
1
 10
36.327199
 20
77.259658
 30
0.0
 10
37.076336
 20
77.569961
 30
0.0
 10
37.564787
 20
78.300979
 30
0.0
 10
37.564787
 20
79.111840
 30
0.0
  0
SPLINE
  5
150
100
AcDbEntity
  8
Cut
 62
7
100
AcDbSpline
 70
8
 71
3
 72
8
 73
4
 74
0
 40
0
 40
0
 40
0
 40
0
 40
1
 40
1
 40
1
 40
1
 10
37.564787
 20
79.111840
 30
0.0
 10
37.564787
 20
79.643543
 30
0.0
 10
37.353569
 20
80.153468
 30
0.0
 10
36.977598
 20
80.529438
 30
0.0
  0
SPLINE
  5
151
100
AcDbEntity
  8
Cut
 62
7
100
AcDbSpline
 70
8
 71
3
 72
8
 73
4
 74
0
 40
0
 40
0
 40
0
 40
0
 40
1
 40
1
 40
1
 40
1
 10
36.977598
 20
80.529438
 30
0.0
 10
36.601628
 20
80.905409
 30
0.0
 10
36.091703
 20
81.116627
 30
0.0
 10
35.560000
 20
81.116627
 30
0.0
  0
LWPOLYLINE
  5
152
100
AcDbEntity
  8
Cut
 62
7
100
AcDbPolyline
 90
1
 70
1
 10
50.755000
 20
53.816850
 30
0.0
  0
LWPOLYLINE
  5
153
100
AcDbEntity
  8
Cut
 62
7
100
AcDbPolyline
 90
1
 70
1
 10
35.560000
 20
81.116627
 30
0.0
  0
SPLINE
  5
154
100
AcDbEntity
  8
Cut
 62
7
100
AcDbSpline
 70
8
 71
3
 72
8
 73
4
 74
0
 40
0
 40
0
 40
0
 40
0
 40
1
 40
1
 40
1
 40
1
 10
8.890689
 20
123.700020
 30
0.0
 10
9.774032
 20
123.700462
 30
0.0
 10
10.489889
 20
124.416677
 30
0.0
 10
10.489889
 20
125.300020
 30
0.0
  0
SPLINE
  5
155
100
AcDbEntity
  8
Cut
 62
7
100
AcDbSpline
 70
8
 71
3
 72
8
 73
4
 74
0
 40
0
 40
0
 40
0
 40
0
 40
1
 40
1
 40
1
 40
1
 10
10.489889
 20
125.300020
 30
0.0
 10
10.489889
 20
126.183363
 30
0.0
 10
9.774032
 20
126.899578
 30
0.0
 10
8.890689
 20
126.900020
 30
0.0
  0
LWPOLYLINE
  5
156
100
AcDbEntity
  8
Cut
 62
7
100
AcDbPolyline
 90
4
 70
1
 10
0.067962
 20
127.932035
 30
0.0
 10
60.892036
 20
127.932035
 30
0.0
 10
60.892036
 20
0.067955
 30
0.0
 10
0.067962
 20
0.067955
 30
0.0
  0
SPLINE
  5
157
100
AcDbEntity
  8
Cut
 62
7
100
AcDbSpline
 70
8
 71
3
 72
8
 73
4
 74
0
 40
0
 40
0
 40
0
 40
0
 40
1
 40
1
 40
1
 40
1
 10
6.350689
 20
126.900020
 30
0.0
 10
5.778874
 20
126.900306
 30
0.0
 10
5.250372
 20
126.595410
 30
0.0
 10
4.964382
 20
126.100251
 30
0.0
  0
SPLINE
  5
158
100
AcDbEntity
  8
Cut
 62
7
100
AcDbSpline
 70
8
 71
3
 72
8
 73
4
 74
0
 40
0
 40
0
 40
0
 40
0
 40
1
 40
1
 40
1
 40
1
 10
4.964382
 20
126.100251
 30
0.0
 10
4.678391
 20
125.605092
 30
0.0
 10
4.678391
 20
124.994948
 30
0.0
 10
4.964382
 20
124.499789
 30
0.0
  0
SPLINE
  5
159
100
AcDbEntity
  8
Cut
 62
7
100
AcDbSpline
 70
8
 71
3
 72
8
 73
4
 74
0
 40
0
 40
0
 40
0
 40
0
 40
1
 40
1
 40
1
 40
1
 10
4.964382
 20
124.499789
 30
0.0
 10
5.250372
 20
124.004630
 30
0.0
 10
5.778874
 20
123.699734
 30
0.0
 10
6.350689
 20
123.700020
 30
0.0
  0
LWPOLYLINE
  5
15a
100
AcDbEntity
  8
Cut
 62
7
100
AcDbPolyline
 90
2
 70
0
 10
8.890689
 20
126.900020
 30
0.0
 10
6.350689
 20
126.900020
 30
0.0
  0
SPLINE
  5
15b
100
AcDbEntity
  8
Cut
 62
7
100
AcDbSpline
 70
8
 71
3
 72
8
 73
4
 74
0
 40
0
 40
0
 40
0
 40
0
 40
1
 40
1
 40
1
 40
1
 10
8.872099
 20
1.200010
 30
0.0
 10
9.755442
 20
1.200452
 30
0.0
 10
10.471299
 20
1.916667
 30
0.0
 10
10.471299
 20
2.800010
 30
0.0
  0
SPLINE
  5
15c
100
AcDbEntity
  8
Cut
 62
7
100
AcDbSpline
 70
8
 71
3
 72
8
 73
4
 74
0
 40
0
 40
0
 40
0
 40
0
 40
1
 40
1
 40
1
 40
1
 10
10.471299
 20
2.800010
 30
0.0
 10
10.471299
 20
3.683353
 30
0.0
 10
9.755442
 20
4.399568
 30
0.0
 10
8.872099
 20
4.400010
 30
0.0
  0
LWPOLYLINE
  5
15d
100
AcDbEntity
  8
Cut
 62
7
100
AcDbPolyline
 90
2
 70
0
 10
6.350689
 20
123.700020
 30
0.0
 10
8.890689
 20
123.700020
 30
0.0
  0
SPLINE
  5
15e
100
AcDbEntity
  8
Cut
 62
7
100
AcDbSpline
 70
8
 71
3
 72
8
 73
4
 74
0
 40
0
 40
0
 40
0
 40
0
 40
1
 40
1
 40
1
 40
1
 10
6.332099
 20
4.400010
 30
0.0
 10
5.760284
 20
4.400296
 30
0.0
 10
5.231782
 20
4.095400
 30
0.0
 10
4.945792
 20
3.600241
 30
0.0
  0
SPLINE
  5
15f
100
AcDbEntity
  8
Cut
 62
7
100
AcDbSpline
 70
8
 71
3
 72
8
 73
4
 74
0
 40
0
 40
0
 40
0
 40
0
 40
1
 40
1
 40
1
 40
1
 10
4.945792
 20
3.600241
 30
0.0
 10
4.659801
 20
3.105082
 30
0.0
 10
4.659801
 20
2.494938
 30
0.0
 10
4.945792
 20
1.999779
 30
0.0
  0
SPLINE
  5
160
100
AcDbEntity
  8
Cut
 62
7
100
AcDbSpline
 70
8
 71
3
 72
8
 73
4
 74
0
 40
0
 40
0
 40
0
 40
0
 40
1
 40
1
 40
1
 40
1
 10
4.945792
 20
1.999779
 30
0.0
 10
5.231782
 20
1.504620
 30
0.0
 10
5.760284
 20
1.199724
 30
0.0
 10
6.332099
 20
1.200010
 30
0.0
  0
LWPOLYLINE
  5
161
100
AcDbEntity
  8
Cut
 62
7
100
AcDbPolyline
 90
2
 70
0
 10
8.872099
 20
4.400010
 30
0.0
 10
6.332099
 20
4.400010
 30
0.0
  0
SPLINE
  5
162
100
AcDbEntity
  8
Cut
 62
7
100
AcDbSpline
 70
8
 71
3
 72
8
 73
4
 74
0
 40
0
 40
0
 40
0
 40
0
 40
1
 40
1
 40
1
 40
1
 10
54.610690
 20
123.700020
 30
0.0
 10
55.494033
 20
123.700462
 30
0.0
 10
56.209890
 20
124.416677
 30
0.0
 10
56.209890
 20
125.300020
 30
0.0
  0
SPLINE
  5
163
100
AcDbEntity
  8
Cut
 62
7
100
AcDbSpline
 70
8
 71
3
 72
8
 73
4
 74
0
 40
0
 40
0
 40
0
 40
0
 40
1
 40
1
 40
1
 40
1
 10
56.209890
 20
125.300020
 30
0.0
 10
56.209890
 20
126.183363
 30
0.0
 10
55.494033
 20
126.899578
 30
0.0
 10
54.610690
 20
126.900020
 30
0.0
  0
LWPOLYLINE
  5
164
100
AcDbEntity
  8
Cut
 62
7
100
AcDbPolyline
 90
2
 70
0
 10
6.332099
 20
1.200010
 30
0.0
 10
8.872099
 20
1.200010
 30
0.0
  0
SPLINE
  5
165
100
AcDbEntity
  8
Cut
 62
7
100
AcDbSpline
 70
8
 71
3
 72
8
 73
4
 74
0
 40
0
 40
0
 40
0
 40
0
 40
1
 40
1
 40
1
 40
1
 10
52.070690
 20
126.900020
 30
0.0
 10
51.498875
 20
126.900306
 30
0.0
 10
50.970373
 20
126.595410
 30
0.0
 10
50.684383
 20
126.100251
 30
0.0
  0
SPLINE
  5
166
100
AcDbEntity
  8
Cut
 62
7
100
AcDbSpline
 70
8
 71
3
 72
8
 73
4
 74
0
 40
0
 40
0
 40
0
 40
0
 40
1
 40
1
 40
1
 40
1
 10
50.684383
 20
126.100251
 30
0.0
 10
50.398392
 20
125.605092
 30
0.0
 10
50.398392
 20
124.994948
 30
0.0
 10
50.684383
 20
124.499789
 30
0.0
  0
SPLINE
  5
167
100
AcDbEntity
  8
Cut
 62
7
100
AcDbSpline
 70
8
 71
3
 72
8
 73
4
 74
0
 40
0
 40
0
 40
0
 40
0
 40
1
 40
1
 40
1
 40
1
 10
50.684383
 20
124.499789
 30
0.0
 10
50.970373
 20
124.004630
 30
0.0
 10
51.498875
 20
123.699734
 30
0.0
 10
52.070690
 20
123.700020
 30
0.0
  0
LWPOLYLINE
  5
168
100
AcDbEntity
  8
Cut
 62
7
100
AcDbPolyline
 90
2
 70
0
 10
54.610690
 20
126.900020
 30
0.0
 10
52.070690
 20
126.900020
 30
0.0
  0
SPLINE
  5
169
100
AcDbEntity
  8
Cut
 62
7
100
AcDbSpline
 70
8
 71
3
 72
8
 73
4
 74
0
 40
0
 40
0
 40
0
 40
0
 40
1
 40
1
 40
1
 40
1
 10
54.592100
 20
1.200010
 30
0.0
 10
55.475443
 20
1.200452
 30
0.0
 10
56.191300
 20
1.916667
 30
0.0
 10
56.191300
 20
2.800010
 30
0.0
  0
SPLINE
  5
16a
100
AcDbEntity
  8
Cut
 62
7
100
AcDbSpline
 70
8
 71
3
 72
8
 73
4
 74
0
 40
0
 40
0
 40
0
 40
0
 40
1
 40
1
 40
1
 40
1
 10
56.191300
 20
2.800010
 30
0.0
 10
56.191300
 20
3.683353
 30
0.0
 10
55.475443
 20
4.399568
 30
0.0
 10
54.592100
 20
4.400010
 30
0.0
  0
LWPOLYLINE
  5
16b
100
AcDbEntity
  8
Cut
 62
7
100
AcDbPolyline
 90
2
 70
0
 10
52.070690
 20
123.700020
 30
0.0
 10
54.610690
 20
123.700020
 30
0.0
  0
SPLINE
  5
16c
100
AcDbEntity
  8
Cut
 62
7
100
AcDbSpline
 70
8
 71
3
 72
8
 73
4
 74
0
 40
0
 40
0
 40
0
 40
0
 40
1
 40
1
 40
1
 40
1
 10
52.052100
 20
4.400010
 30
0.0
 10
51.480285
 20
4.400296
 30
0.0
 10
50.951783
 20
4.095400
 30
0.0
 10
50.665793
 20
3.600241
 30
0.0
  0
SPLINE
  5
16d
100
AcDbEntity
  8
Cut
 62
7
100
AcDbSpline
 70
8
 71
3
 72
8
 73
4
 74
0
 40
0
 40
0
 40
0
 40
0
 40
1
 40
1
 40
1
 40
1
 10
50.665793
 20
3.600241
 30
0.0
 10
50.379802
 20
3.105082
 30
0.0
 10
50.379802
 20
2.494938
 30
0.0
 10
50.665793
 20
1.999779
 30
0.0
  0
SPLINE
  5
16e
100
AcDbEntity
  8
Cut
 62
7
100
AcDbSpline
 70
8
 71
3
 72
8
 73
4
 74
0
 40
0
 40
0
 40
0
 40
0
 40
1
 40
1
 40
1
 40
1
 10
50.665793
 20
1.999779
 30
0.0
 10
50.951783
 20
1.504620
 30
0.0
 10
51.480285
 20
1.199724
 30
0.0
 10
52.052100
 20
1.200010
 30
0.0
  0
LWPOLYLINE
  5
16f
100
AcDbEntity
  8
Cut
 62
7
100
AcDbPolyline
 90
2
 70
0
 10
54.592100
 20
4.400010
 30
0.0
 10
52.052100
 20
4.400010
 30
0.0
  0
LWPOLYLINE
  5
170
100
AcDbEntity
  8
Cut
 62
7
100
AcDbPolyline
 90
2
 70
0
 10
52.052100
 20
1.200010
 30
0.0
 10
54.592100
 20
1.200010
 30
0.0
  0
ENDSEC
  0
SECTION
  2
OBJECTS
  0
DICTIONARY
  5
C
330
0
100
AcDbDictionary
  3
ACAD_GROUP
350
D
  3
ACAD_MLINESTYLE
350
17
  0
DICTIONARY
  5
D
330
C
100
AcDbDictionary
  0
DICTIONARY
  5
1A
330
C
100
AcDbDictionary
  0
DICTIONARY
  5
17
330
C
100
AcDbDictionary
  3
STANDARD
350
18
  0
DICTIONARY
  5
19
330
C
100
AcDbDictionary
  0
ENDSEC
  0
EOF
