  0
SECTION
  2
HEADER
  9
$ACADVER
  1
AC1014
  9
$HANDSEED
  5
FFFF
  9
$INSUNITS
 70
     4
  9
$MEASUREMENT
 70
     1
  0
ENDSEC
  0
SECTION
  2
TABLES
  0
TABLE
  2
VPORT
  5
8
330
0
100
AcDbSymbolTable
 70
     4
  0
VPORT
  5
2E
330
8
100
AcDbSymbolTableRecord
100
AcDbViewportTableRecord
  2
*ACTIVE
 70
     0
 10
0.0
 20
0.0
 11
1.0
 21
1.0
 12
210.0
 22
148.5
 13
0.0
 23
0.0
 14
10.0
 24
10.0
 15
10.0
 25
10.0
 16
0.0
 26
0.0
 36
1.0
 17
0.0
 27
0.0
 37
0.0
 40
341.0
 41
1.24
 42
50.0
 43
0.0
 44
0.0
 50
0.0
 51
0.0
 71
     0
 72
   100
 73
     1
 74
     3
 75
     0
 76
     0
 77
     0
 78
     0
  0
ENDTAB
  0
TABLE
  2
LTYPE
  5
5
330
0
100
AcDbSymbolTable
 70
     1
  0
LTYPE
  5
14
330
5
100
AcDbSymbolTableRecord
100
AcDbLinetypeTableRecord
  2
BYBLOCK
 70
     0
  3

 72
    65
 73
     0
 40
0.0
  0
LTYPE
  5
15
330
5
100
AcDbSymbolTableRecord
100
AcDbLinetypeTableRecord
  2
BYLAYER
 70
     0
  3

 72
    65
 73
     0
 40
0.0
  0
LTYPE
  5
16
330
5
100
AcDbSymbolTableRecord
100
AcDbLinetypeTableRecord
  2
CONTINUOUS
 70
     0
  3
Solid line
 72
    65
 73
     0
 40
0.0
  0
ENDTAB
  0
TABLE
  2
LAYER
  5
2
100
AcDbSymbolTable
 70
4
  0
LAYER
  5
50
100
AcDbSymbolTableRecord
100
AcDbLayerTableRecord
  2
0
 70
0
  6
CONTINUOUS
  0
LAYER
  5
51
100
AcDbSymbolTableRecord
100
AcDbLayerTableRecord
  2
Guidelines
 70
0
  6
CONTINUOUS
  0
LAYER
  5
52
100
AcDbSymbolTableRecord
100
AcDbLayerTableRecord
  2
Cut
 70
0
  6
CONTINUOUS
  0
LAYER
  5
53
100
AcDbSymbolTableRecord
100
AcDbLayerTableRecord
  2
Artwork
 70
0
  6
CONTINUOUS
  0
ENDTAB
  0
TABLE
  2
STYLE
  5
3
330
0
100
AcDbSymbolTable
 70
     1
  0
STYLE
  5
11
330
3
100
AcDbSymbolTableRecord
100
AcDbTextStyleTableRecord
  2
STANDARD
 70
     0
 40
0.0
 41
1.0
 50
0.0
 71
     0
 42
2.5
  3
txt
  4

  0
ENDTAB
  0
TABLE
  2
VIEW
  5
6
330
0
100
AcDbSymbolTable
 70
     0
  0
ENDTAB
  0
TABLE
  2
UCS
  5
7
330
0
100
AcDbSymbolTable
 70
     0
  0
ENDTAB
  0
TABLE
  2
APPID
  5
9
330
0
100
AcDbSymbolTable
 70
     2
  0
APPID
  5
12
330
9
100
AcDbSymbolTableRecord
100
AcDbRegAppTableRecord
  2
ACAD
 70
     0
  0
ENDTAB
  0
TABLE
  2
DIMSTYLE
  5
A
330
0
100
AcDbSymbolTable
 70
     1
  0
DIMSTYLE
105
27
330
A
100
AcDbSymbolTableRecord
100
AcDbDimStyleTableRecord
  2
ISO-25
 70
     0
  3

  4

  5

  6

  7

 40
1.0
 41
2.5
 42
0.625
 43
3.75
 44
1.25
 45
0.0
 46
0.0
 47
0.0
 48
0.0
140
2.5
141
2.5
142
0.0
143
0.03937007874016
144
1.0
145
0.0
146
1.0
147
0.625
 71
     0
 72
     0
 73
     0
 74
     0
 75
     0
 76
     0
 77
     1
 78
     8
170
     0
171
     3
172
     1
173
     0
174
     0
175
     0
176
     0
177
     0
178
     0
270
     2
271
     2
272
     2
273
     2
274
     3
340
11
275
     0
280
     0
281
     0
282
     0
283
     0
284
     8
285
     0
286
     0
287
     3
288
     0
  0
ENDTAB
  0
TABLE
  2
BLOCK_RECORD
  5
1
330
0
100
AcDbSymbolTable
 70
     1
  0
BLOCK_RECORD
  5
1F
330
1
100
AcDbSymbolTableRecord
100
AcDbBlockTableRecord
  2
*MODEL_SPACE
  0
BLOCK_RECORD
  5
1B
330
1
100
AcDbSymbolTableRecord
100
AcDbBlockTableRecord
  2
*PAPER_SPACE
  0
ENDTAB
  0
ENDSEC
  0
SECTION
  2
BLOCKS
  0
BLOCK
  5
20
330
1F
100
AcDbEntity
  8
0
100
AcDbBlockBegin
  2
*MODEL_SPACE
 70
     0
 10
0.0
 20
0.0
 30
0.0
  3
*MODEL_SPACE
  1

  0
ENDBLK
  5
21
330
1F
100
AcDbEntity
  8
0
100
AcDbBlockEnd
  0
BLOCK
  5
1C
330
1B
100
AcDbEntity
 67
     1
  8
0
100
AcDbBlockBegin
  2
*PAPER_SPACE
  1

  0
ENDBLK
  5
1D
330
1B
100
AcDbEntity
 67
     1
  8
0
100
AcDbBlockEnd
  0
ENDSEC
  0
SECTION
  2
ENTITIES
  0
SPLINE
  5
100
100
AcDbEntity
  8
Cut
 62
7
100
AcDbSpline
 70
8
 71
3
 72
8
 73
4
 74
0
 40
0
 40
0
 40
0
 40
0
 40
1
 40
1
 40
1
 40
1
 10
35.559990
 20
23.172020
 30
0.0
 10
34.245488
 20
23.172020
 30
0.0
 10
33.060420
 20
22.380183
 30
0.0
 10
32.557382
 20
21.165741
 30
0.0
  0
SPLINE
  5
101
100
AcDbEntity
  8
Cut
 62
7
100
AcDbSpline
 70
8
 71
3
 72
8
 73
4
 74
0
 40
0
 40
0
 40
0
 40
0
 40
1
 40
1
 40
1
 40
1
 10
32.557382
 20
21.165741
 30
0.0
 10
32.054343
 20
19.951299
 30
0.0
 10
32.332399
 20
18.553416
 30
0.0
 10
33.261893
 20
17.623923
 30
0.0
  0
SPLINE
  5
102
100
AcDbEntity
  8
Cut
 62
7
100
AcDbSpline
 70
8
 71
3
 72
8
 73
4
 74
0
 40
0
 40
0
 40
0
 40
0
 40
1
 40
1
 40
1
 40
1
 10
33.261893
 20
17.623923
 30
0.0
 10
34.191386
 20
16.694429
 30
0.0
 10
35.589269
 20
16.416373
 30
0.0
 10
36.803711
 20
16.919412
 30
0.0
  0
SPLINE
  5
103
100
AcDbEntity
  8
Cut
 62
7
100
AcDbSpline
 70
8
 71
3
 72
8
 73
4
 74
0
 40
0
 40
0
 40
0
 40
0
 40
1
 40
1
 40
1
 40
1
 10
36.803711
 20
16.919412
 30
0.0
 10
38.018153
 20
17.422450
 30
0.0
 10
38.809990
 20
18.607518
 30
0.0
 10
38.809990
 20
19.922020
 30
0.0
  0
SPLINE
  5
104
100
AcDbEntity
  8
Cut
 62
7
100
AcDbSpline
 70
8
 71
3
 72
8
 73
4
 74
0
 40
0
 40
0
 40
0
 40
0
 40
1
 40
1
 40
1
 40
1
 10
38.809990
 20
19.922020
 30
0.0
 10
38.809990
 20
20.783974
 30
0.0
 10
38.467580
 20
21.610624
 30
0.0
 10
37.858087
 20
22.220117
 30
0.0
  0
SPLINE
  5
105
100
AcDbEntity
  8
Cut
 62
7
100
AcDbSpline
 70
8
 71
3
 72
8
 73
4
 74
0
 40
0
 40
0
 40
0
 40
0
 40
1
 40
1
 40
1
 40
1
 10
37.858087
 20
22.220117
 30
0.0
 10
37.248594
 20
22.829610
 30
0.0
 10
36.421944
 20
23.172020
 30
0.0
 10
35.559990
 20
23.172020
 30
0.0
  0
LWPOLYLINE
  5
106
100
AcDbEntity
  8
Cut
 62
7
100
AcDbPolyline
 90
4
 70
1
 10
12.699991
 20
118.192018
 30
0.0
 10
48.259990
 20
118.192018
 30
0.0
 10
48.259990
 20
92.792020
 30
0.0
 10
12.699991
 20
92.792020
 30
0.0
  0
SPLINE
  5
107
100
AcDbEntity
  8
Cut
 62
7
100
AcDbSpline
 70
8
 71
3
 72
8
 73
4
 74
0
 40
0
 40
0
 40
0
 40
0
 40
1
 40
1
 40
1
 40
1
 10
30.480000
 20
43.702020
 30
0.0
 10
29.165498
 20
43.702020
 30
0.0
 10
27.980430
 20
42.910183
 30
0.0
 10
27.477392
 20
41.695741
 30
0.0
  0
SPLINE
  5
108
100
AcDbEntity
  8
Cut
 62
7
100
AcDbSpline
 70
8
 71
3
 72
8
 73
4
 74
0
 40
0
 40
0
 40
0
 40
0
 40
1
 40
1
 40
1
 40
1
 10
27.477392
 20
41.695741
 30
0.0
 10
26.974353
 20
40.481299
 30
0.0
 10
27.252409
 20
39.083416
 30
0.0
 10
28.181903
 20
38.153923
 30
0.0
  0
SPLINE
  5
109
100
AcDbEntity
  8
Cut
 62
7
100
AcDbSpline
 70
8
 71
3
 72
8
 73
4
 74
0
 40
0
 40
0
 40
0
 40
0
 40
1
 40
1
 40
1
 40
1
 10
28.181903
 20
38.153923
 30
0.0
 10
29.111396
 20
37.224429
 30
0.0
 10
30.509279
 20
36.946373
 30
0.0
 10
31.723721
 20
37.449412
 30
0.0
  0
SPLINE
  5
10a
100
AcDbEntity
  8
Cut
 62
7
100
AcDbSpline
 70
8
 71
3
 72
8
 73
4
 74
0
 40
0
 40
0
 40
0
 40
0
 40
1
 40
1
 40
1
 40
1
 10
31.723721
 20
37.449412
 30
0.0
 10
32.938163
 20
37.952450
 30
0.0
 10
33.730000
 20
39.137518
 30
0.0
 10
33.730000
 20
40.452020
 30
0.0
  0
SPLINE
  5
10b
100
AcDbEntity
  8
Cut
 62
7
100
AcDbSpline
 70
8
 71
3
 72
8
 73
4
 74
0
 40
0
 40
0
 40
0
 40
0
 40
1
 40
1
 40
1
 40
1
 10
33.730000
 20
40.452020
 30
0.0
 10
33.730000
 20
41.313974
 30
0.0
 10
33.387590
 20
42.140624
 30
0.0
 10
32.778097
 20
42.750117
 30
0.0
  0
SPLINE
  5
10c
100
AcDbEntity
  8
Cut
 62
7
100
AcDbSpline
 70
8
 71
3
 72
8
 73
4
 74
0
 40
0
 40
0
 40
0
 40
0
 40
1
 40
1
 40
1
 40
1
 10
32.778097
 20
42.750117
 30
0.0
 10
32.168604
 20
43.359610
 30
0.0
 10
31.341954
 20
43.702020
 30
0.0
 10
30.480000
 20
43.702020
 30
0.0
  0
LWPOLYLINE
  5
10d
100
AcDbEntity
  8
Cut
 62
7
100
AcDbPolyline
 90
1
 70
1
 10
35.559990
 20
23.172020
 30
0.0
  0
SPLINE
  5
10e
100
AcDbEntity
  8
Cut
 62
7
100
AcDbSpline
 70
8
 71
3
 72
8
 73
4
 74
0
 40
0
 40
0
 40
0
 40
0
 40
1
 40
1
 40
1
 40
1
 10
12.699989
 20
81.802010
 30
0.0
 10
11.385487
 20
81.802010
 30
0.0
 10
10.200419
 20
81.010173
 30
0.0
 10
9.697381
 20
79.795731
 30
0.0
  0
SPLINE
  5
10f
100
AcDbEntity
  8
Cut
 62
7
100
AcDbSpline
 70
8
 71
3
 72
8
 73
4
 74
0
 40
0
 40
0
 40
0
 40
0
 40
1
 40
1
 40
1
 40
1
 10
9.697381
 20
79.795731
 30
0.0
 10
9.194342
 20
78.581289
 30
0.0
 10
9.472398
 20
77.183406
 30
0.0
 10
10.401892
 20
76.253913
 30
0.0
  0
SPLINE
  5
110
100
AcDbEntity
  8
Cut
 62
7
100
AcDbSpline
 70
8
 71
3
 72
8
 73
4
 74
0
 40
0
 40
0
 40
0
 40
0
 40
1
 40
1
 40
1
 40
1
 10
10.401892
 20
76.253913
 30
0.0
 10
11.331385
 20
75.324419
 30
0.0
 10
12.729268
 20
75.046363
 30
0.0
 10
13.943710
 20
75.549402
 30
0.0
  0
SPLINE
  5
111
100
AcDbEntity
  8
Cut
 62
7
100
AcDbSpline
 70
8
 71
3
 72
8
 73
4
 74
0
 40
0
 40
0
 40
0
 40
0
 40
1
 40
1
 40
1
 40
1
 10
13.943710
 20
75.549402
 30
0.0
 10
15.158152
 20
76.052440
 30
0.0
 10
15.949989
 20
77.237508
 30
0.0
 10
15.949989
 20
78.552010
 30
0.0
  0
SPLINE
  5
112
100
AcDbEntity
  8
Cut
 62
7
100
AcDbSpline
 70
8
 71
3
 72
8
 73
4
 74
0
 40
0
 40
0
 40
0
 40
0
 40
1
 40
1
 40
1
 40
1
 10
15.949989
 20
78.552010
 30
0.0
 10
15.949989
 20
79.413964
 30
0.0
 10
15.607579
 20
80.240614
 30
0.0
 10
14.998086
 20
80.850107
 30
0.0
  0
SPLINE
  5
113
100
AcDbEntity
  8
Cut
 62
7
100
AcDbSpline
 70
8
 71
3
 72
8
 73
4
 74
0
 40
0
 40
0
 40
0
 40
0
 40
1
 40
1
 40
1
 40
1
 10
14.998086
 20
80.850107
 30
0.0
 10
14.388593
 20
81.459600
 30
0.0
 10
13.561943
 20
81.802010
 30
0.0
 10
12.699989
 20
81.802010
 30
0.0
  0
LWPOLYLINE
  5
114
100
AcDbEntity
  8
Cut
 62
7
100
AcDbPolyline
 90
1
 70
1
 10
30.480000
 20
43.702020
 30
0.0
  0
SPLINE
  5
115
100
AcDbEntity
  8
Cut
 62
7
100
AcDbSpline
 70
8
 71
3
 72
8
 73
4
 74
0
 40
0
 40
0
 40
0
 40
0
 40
1
 40
1
 40
1
 40
1
 10
50.800000
 20
23.172020
 30
0.0
 10
49.485498
 20
23.172020
 30
0.0
 10
48.300430
 20
22.380183
 30
0.0
 10
47.797392
 20
21.165741
 30
0.0
  0
SPLINE
  5
116
100
AcDbEntity
  8
Cut
 62
7
100
AcDbSpline
 70
8
 71
3
 72
8
 73
4
 74
0
 40
0
 40
0
 40
0
 40
0
 40
1
 40
1
 40
1
 40
1
 10
47.797392
 20
21.165741
 30
0.0
 10
47.294353
 20
19.951299
 30
0.0
 10
47.572409
 20
18.553416
 30
0.0
 10
48.501903
 20
17.623923
 30
0.0
  0
SPLINE
  5
117
100
AcDbEntity
  8
Cut
 62
7
100
AcDbSpline
 70
8
 71
3
 72
8
 73
4
 74
0
 40
0
 40
0
 40
0
 40
0
 40
1
 40
1
 40
1
 40
1
 10
48.501903
 20
17.623923
 30
0.0
 10
49.431396
 20
16.694429
 30
0.0
 10
50.829279
 20
16.416373
 30
0.0
 10
52.043721
 20
16.919412
 30
0.0
  0
SPLINE
  5
118
100
AcDbEntity
  8
Cut
 62
7
100
AcDbSpline
 70
8
 71
3
 72
8
 73
4
 74
0
 40
0
 40
0
 40
0
 40
0
 40
1
 40
1
 40
1
 40
1
 10
52.043721
 20
16.919412
 30
0.0
 10
53.258163
 20
17.422450
 30
0.0
 10
54.050000
 20
18.607518
 30
0.0
 10
54.050000
 20
19.922020
 30
0.0
  0
SPLINE
  5
119
100
AcDbEntity
  8
Cut
 62
7
100
AcDbSpline
 70
8
 71
3
 72
8
 73
4
 74
0
 40
0
 40
0
 40
0
 40
0
 40
1
 40
1
 40
1
 40
1
 10
54.050000
 20
19.922020
 30
0.0
 10
54.050000
 20
20.783974
 30
0.0
 10
53.707590
 20
21.610624
 30
0.0
 10
53.098097
 20
22.220117
 30
0.0
  0
SPLINE
  5
11a
100
AcDbEntity
  8
Cut
 62
7
100
AcDbSpline
 70
8
 71
3
 72
8
 73
4
 74
0
 40
0
 40
0
 40
0
 40
0
 40
1
 40
1
 40
1
 40
1
 10
53.098097
 20
22.220117
 30
0.0
 10
52.488604
 20
22.829610
 30
0.0
 10
51.661954
 20
23.172020
 30
0.0
 10
50.800000
 20
23.172020
 30
0.0
  0
LWPOLYLINE
  5
11b
100
AcDbEntity
  8
Cut
 62
7
100
AcDbPolyline
 90
1
 70
1
 10
12.699989
 20
81.802010
 30
0.0
  0
SPLINE
  5
11c
100
AcDbEntity
  8
Cut
 62
7
100
AcDbSpline
 70
8
 71
3
 72
8
 73
4
 74
0
 40
0
 40
0
 40
0
 40
0
 40
1
 40
1
 40
1
 40
1
 10
30.480000
 20
66.562020
 30
0.0
 10
29.165498
 20
66.562020
 30
0.0
 10
27.980430
 20
65.770183
 30
0.0
 10
27.477392
 20
64.555741
 30
0.0
  0
SPLINE
  5
11d
100
AcDbEntity
  8
Cut
 62
7
100
AcDbSpline
 70
8
 71
3
 72
8
 73
4
 74
0
 40
0
 40
0
 40
0
 40
0
 40
1
 40
1
 40
1
 40
1
 10
27.477392
 20
64.555741
 30
0.0
 10
26.974353
 20
63.341299
 30
0.0
 10
27.252409
 20
61.943416
 30
0.0
 10
28.181903
 20
61.013923
 30
0.0
  0
SPLINE
  5
11e
100
AcDbEntity
  8
Cut
 62
7
100
AcDbSpline
 70
8
 71
3
 72
8
 73
4
 74
0
 40
0
 40
0
 40
0
 40
0
 40
1
 40
1
 40
1
 40
1
 10
28.181903
 20
61.013923
 30
0.0
 10
29.111396
 20
60.084429
 30
0.0
 10
30.509279
 20
59.806373
 30
0.0
 10
31.723721
 20
60.309412
 30
0.0
  0
SPLINE
  5
11f
100
AcDbEntity
  8
Cut
 62
7
100
AcDbSpline
 70
8
 71
3
 72
8
 73
4
 74
0
 40
0
 40
0
 40
0
 40
0
 40
1
 40
1
 40
1
 40
1
 10
31.723721
 20
60.309412
 30
0.0
 10
32.938163
 20
60.812450
 30
0.0
 10
33.730000
 20
61.997518
 30
0.0
 10
33.730000
 20
63.312020
 30
0.0
  0
SPLINE
  5
120
100
AcDbEntity
  8
Cut
 62
7
100
AcDbSpline
 70
8
 71
3
 72
8
 73
4
 74
0
 40
0
 40
0
 40
0
 40
0
 40
1
 40
1
 40
1
 40
1
 10
33.730000
 20
63.312020
 30
0.0
 10
33.730000
 20
64.173974
 30
0.0
 10
33.387590
 20
65.000624
 30
0.0
 10
32.778097
 20
65.610117
 30
0.0
  0
SPLINE
  5
121
100
AcDbEntity
  8
Cut
 62
7
100
AcDbSpline
 70
8
 71
3
 72
8
 73
4
 74
0
 40
0
 40
0
 40
0
 40
0
 40
1
 40
1
 40
1
 40
1
 10
32.778097
 20
65.610117
 30
0.0
 10
32.168604
 20
66.219610
 30
0.0
 10
31.341954
 20
66.562020
 30
0.0
 10
30.480000
 20
66.562020
 30
0.0
  0
LWPOLYLINE
  5
122
100
AcDbEntity
  8
Cut
 62
7
100
AcDbPolyline
 90
1
 70
1
 10
50.800000
 20
23.172020
 30
0.0
  0
SPLINE
  5
123
100
AcDbEntity
  8
Cut
 62
7
100
AcDbSpline
 70
8
 71
3
 72
8
 73
4
 74
0
 40
0
 40
0
 40
0
 40
0
 40
1
 40
1
 40
1
 40
1
 10
10.159996
 20
23.172020
 30
0.0
 10
8.845494
 20
23.172020
 30
0.0
 10
7.660426
 20
22.380183
 30
0.0
 10
7.157388
 20
21.165741
 30
0.0
  0
SPLINE
  5
124
100
AcDbEntity
  8
Cut
 62
7
100
AcDbSpline
 70
8
 71
3
 72
8
 73
4
 74
0
 40
0
 40
0
 40
0
 40
0
 40
1
 40
1
 40
1
 40
1
 10
7.157388
 20
21.165741
 30
0.0
 10
6.654349
 20
19.951299
 30
0.0
 10
6.932405
 20
18.553416
 30
0.0
 10
7.861899
 20
17.623923
 30
0.0
  0
SPLINE
  5
125
100
AcDbEntity
  8
Cut
 62
7
100
AcDbSpline
 70
8
 71
3
 72
8
 73
4
 74
0
 40
0
 40
0
 40
0
 40
0
 40
1
 40
1
 40
1
 40
1
 10
7.861899
 20
17.623923
 30
0.0
 10
8.791392
 20
16.694429
 30
0.0
 10
10.189275
 20
16.416373
 30
0.0
 10
11.403717
 20
16.919412
 30
0.0
  0
SPLINE
  5
126
100
AcDbEntity
  8
Cut
 62
7
100
AcDbSpline
 70
8
 71
3
 72
8
 73
4
 74
0
 40
0
 40
0
 40
0
 40
0
 40
1
 40
1
 40
1
 40
1
 10
11.403717
 20
16.919412
 30
0.0
 10
12.618159
 20
17.422450
 30
0.0
 10
13.409996
 20
18.607518
 30
0.0
 10
13.409996
 20
19.922020
 30
0.0
  0
SPLINE
  5
127
100
AcDbEntity
  8
Cut
 62
7
100
AcDbSpline
 70
8
 71
3
 72
8
 73
4
 74
0
 40
0
 40
0
 40
0
 40
0
 40
1
 40
1
 40
1
 40
1
 10
13.409996
 20
19.922020
 30
0.0
 10
13.409996
 20
20.783974
 30
0.0
 10
13.067586
 20
21.610624
 30
0.0
 10
12.458093
 20
22.220117
 30
0.0
  0
SPLINE
  5
128
100
AcDbEntity
  8
Cut
 62
7
100
AcDbSpline
 70
8
 71
3
 72
8
 73
4
 74
0
 40
0
 40
0
 40
0
 40
0
 40
1
 40
1
 40
1
 40
1
 10
12.458093
 20
22.220117
 30
0.0
 10
11.848600
 20
22.829610
 30
0.0
 10
11.021950
 20
23.172020
 30
0.0
 10
10.159996
 20
23.172020
 30
0.0
  0
LWPOLYLINE
  5
129
100
AcDbEntity
  8
Cut
 62
7
100
AcDbPolyline
 90
1
 70
1
 10
30.480000
 20
66.562020
 30
0.0
  0
SPLINE
  5
12a
100
AcDbEntity
  8
Cut
 62
7
100
AcDbSpline
 70
8
 71
3
 72
8
 73
4
 74
0
 40
0
 40
0
 40
0
 40
0
 40
1
 40
1
 40
1
 40
1
 10
48.259990
 20
81.802010
 30
0.0
 10
46.945488
 20
81.802010
 30
0.0
 10
45.760420
 20
81.010173
 30
0.0
 10
45.257382
 20
79.795731
 30
0.0
  0
SPLINE
  5
12b
100
AcDbEntity
  8
Cut
 62
7
100
AcDbSpline
 70
8
 71
3
 72
8
 73
4
 74
0
 40
0
 40
0
 40
0
 40
0
 40
1
 40
1
 40
1
 40
1
 10
45.257382
 20
79.795731
 30
0.0
 10
44.754343
 20
78.581289
 30
0.0
 10
45.032399
 20
77.183406
 30
0.0
 10
45.961893
 20
76.253913
 30
0.0
  0
SPLINE
  5
12c
100
AcDbEntity
  8
Cut
 62
7
100
AcDbSpline
 70
8
 71
3
 72
8
 73
4
 74
0
 40
0
 40
0
 40
0
 40
0
 40
1
 40
1
 40
1
 40
1
 10
45.961893
 20
76.253913
 30
0.0
 10
46.891386
 20
75.324419
 30
0.0
 10
48.289269
 20
75.046363
 30
0.0
 10
49.503711
 20
75.549402
 30
0.0
  0
SPLINE
  5
12d
100
AcDbEntity
  8
Cut
 62
7
100
AcDbSpline
 70
8
 71
3
 72
8
 73
4
 74
0
 40
0
 40
0
 40
0
 40
0
 40
1
 40
1
 40
1
 40
1
 10
49.503711
 20
75.549402
 30
0.0
 10
50.718153
 20
76.052440
 30
0.0
 10
51.509990
 20
77.237508
 30
0.0
 10
51.509990
 20
78.552010
 30
0.0
  0
SPLINE
  5
12e
100
AcDbEntity
  8
Cut
 62
7
100
AcDbSpline
 70
8
 71
3
 72
8
 73
4
 74
0
 40
0
 40
0
 40
0
 40
0
 40
1
 40
1
 40
1
 40
1
 10
51.509990
 20
78.552010
 30
0.0
 10
51.509990
 20
79.413964
 30
0.0
 10
51.167580
 20
80.240614
 30
0.0
 10
50.558087
 20
80.850107
 30
0.0
  0
SPLINE
  5
12f
100
AcDbEntity
  8
Cut
 62
7
100
AcDbSpline
 70
8
 71
3
 72
8
 73
4
 74
0
 40
0
 40
0
 40
0
 40
0
 40
1
 40
1
 40
1
 40
1
 10
50.558087
 20
80.850107
 30
0.0
 10
49.948594
 20
81.459600
 30
0.0
 10
49.121944
 20
81.802010
 30
0.0
 10
48.259990
 20
81.802010
 30
0.0
  0
LWPOLYLINE
  5
130
100
AcDbEntity
  8
Cut
 62
7
100
AcDbPolyline
 90
1
 70
1
 10
10.159996
 20
23.172020
 30
0.0
  0
SPLINE
  5
131
100
AcDbEntity
  8
Cut
 62
7
100
AcDbSpline
 70
8
 71
3
 72
8
 73
4
 74
0
 40
0
 40
0
 40
0
 40
0
 40
1
 40
1
 40
1
 40
1
 10
10.159996
 20
35.872020
 30
0.0
 10
8.845494
 20
35.872020
 30
0.0
 10
7.660426
 20
35.080183
 30
0.0
 10
7.157388
 20
33.865741
 30
0.0
  0
SPLINE
  5
132
100
AcDbEntity
  8
Cut
 62
7
100
AcDbSpline
 70
8
 71
3
 72
8
 73
4
 74
0
 40
0
 40
0
 40
0
 40
0
 40
1
 40
1
 40
1
 40
1
 10
7.157388
 20
33.865741
 30
0.0
 10
6.654349
 20
32.651299
 30
0.0
 10
6.932405
 20
31.253416
 30
0.0
 10
7.861899
 20
30.323923
 30
0.0
  0
SPLINE
  5
133
100
AcDbEntity
  8
Cut
 62
7
100
AcDbSpline
 70
8
 71
3
 72
8
 73
4
 74
0
 40
0
 40
0
 40
0
 40
0
 40
1
 40
1
 40
1
 40
1
 10
7.861899
 20
30.323923
 30
0.0
 10
8.791392
 20
29.394429
 30
0.0
 10
10.189275
 20
29.116373
 30
0.0
 10
11.403717
 20
29.619412
 30
0.0
  0
SPLINE
  5
134
100
AcDbEntity
  8
Cut
 62
7
100
AcDbSpline
 70
8
 71
3
 72
8
 73
4
 74
0
 40
0
 40
0
 40
0
 40
0
 40
1
 40
1
 40
1
 40
1
 10
11.403717
 20
29.619412
 30
0.0
 10
12.618159
 20
30.122450
 30
0.0
 10
13.409996
 20
31.307518
 30
0.0
 10
13.409996
 20
32.622020
 30
0.0
  0
SPLINE
  5
135
100
AcDbEntity
  8
Cut
 62
7
100
AcDbSpline
 70
8
 71
3
 72
8
 73
4
 74
0
 40
0
 40
0
 40
0
 40
0
 40
1
 40
1
 40
1
 40
1
 10
13.409996
 20
32.622020
 30
0.0
 10
13.409996
 20
33.483974
 30
0.0
 10
13.067586
 20
34.310624
 30
0.0
 10
12.458093
 20
34.920117
 30
0.0
  0
SPLINE
  5
136
100
AcDbEntity
  8
Cut
 62
7
100
AcDbSpline
 70
8
 71
3
 72
8
 73
4
 74
0
 40
0
 40
0
 40
0
 40
0
 40
1
 40
1
 40
1
 40
1
 10
12.458093
 20
34.920117
 30
0.0
 10
11.848600
 20
35.529610
 30
0.0
 10
11.021950
 20
35.872020
 30
0.0
 10
10.159996
 20
35.872020
 30
0.0
  0
LWPOLYLINE
  5
137
100
AcDbEntity
  8
Cut
 62
7
100
AcDbPolyline
 90
1
 70
1
 10
48.259990
 20
81.802010
 30
0.0
  0
SPLINE
  5
138
100
AcDbEntity
  8
Cut
 62
7
100
AcDbSpline
 70
8
 71
3
 72
8
 73
4
 74
0
 40
0
 40
0
 40
0
 40
0
 40
1
 40
1
 40
1
 40
1
 10
22.859993
 20
23.172020
 30
0.0
 10
21.545491
 20
23.172020
 30
0.0
 10
20.360423
 20
22.380183
 30
0.0
 10
19.857385
 20
21.165741
 30
0.0
  0
SPLINE
  5
139
100
AcDbEntity
  8
Cut
 62
7
100
AcDbSpline
 70
8
 71
3
 72
8
 73
4
 74
0
 40
0
 40
0
 40
0
 40
0
 40
1
 40
1
 40
1
 40
1
 10
19.857385
 20
21.165741
 30
0.0
 10
19.354346
 20
19.951299
 30
0.0
 10
19.632402
 20
18.553416
 30
0.0
 10
20.561896
 20
17.623923
 30
0.0
  0
SPLINE
  5
13a
100
AcDbEntity
  8
Cut
 62
7
100
AcDbSpline
 70
8
 71
3
 72
8
 73
4
 74
0
 40
0
 40
0
 40
0
 40
0
 40
1
 40
1
 40
1
 40
1
 10
20.561896
 20
17.623923
 30
0.0
 10
21.491389
 20
16.694429
 30
0.0
 10
22.889272
 20
16.416373
 30
0.0
 10
24.103714
 20
16.919412
 30
0.0
  0
SPLINE
  5
13b
100
AcDbEntity
  8
Cut
 62
7
100
AcDbSpline
 70
8
 71
3
 72
8
 73
4
 74
0
 40
0
 40
0
 40
0
 40
0
 40
1
 40
1
 40
1
 40
1
 10
24.103714
 20
16.919412
 30
0.0
 10
25.318156
 20
17.422450
 30
0.0
 10
26.109993
 20
18.607518
 30
0.0
 10
26.109993
 20
19.922020
 30
0.0
  0
SPLINE
  5
13c
100
AcDbEntity
  8
Cut
 62
7
100
AcDbSpline
 70
8
 71
3
 72
8
 73
4
 74
0
 40
0
 40
0
 40
0
 40
0
 40
1
 40
1
 40
1
 40
1
 10
26.109993
 20
19.922020
 30
0.0
 10
26.109993
 20
20.783974
 30
0.0
 10
25.767583
 20
21.610624
 30
0.0
 10
25.158090
 20
22.220117
 30
0.0
  0
SPLINE
  5
13d
100
AcDbEntity
  8
Cut
 62
7
100
AcDbSpline
 70
8
 71
3
 72
8
 73
4
 74
0
 40
0
 40
0
 40
0
 40
0
 40
1
 40
1
 40
1
 40
1
 10
25.158090
 20
22.220117
 30
0.0
 10
24.548597
 20
22.829610
 30
0.0
 10
23.721947
 20
23.172020
 30
0.0
 10
22.859993
 20
23.172020
 30
0.0
  0
LWPOLYLINE
  5
13e
100
AcDbEntity
  8
Cut
 62
7
100
AcDbPolyline
 90
1
 70
1
 10
10.159996
 20
35.872020
 30
0.0
  0
SPLINE
  5
13f
100
AcDbEntity
  8
Cut
 62
7
100
AcDbSpline
 70
8
 71
3
 72
8
 73
4
 74
0
 40
0
 40
0
 40
0
 40
0
 40
1
 40
1
 40
1
 40
1
 10
10.074989
 20
56.417020
 30
0.0
 10
8.760487
 20
56.417020
 30
0.0
 10
7.575419
 20
55.625183
 30
0.0
 10
7.072381
 20
54.410741
 30
0.0
  0
SPLINE
  5
140
100
AcDbEntity
  8
Cut
 62
7
100
AcDbSpline
 70
8
 71
3
 72
8
 73
4
 74
0
 40
0
 40
0
 40
0
 40
0
 40
1
 40
1
 40
1
 40
1
 10
7.072381
 20
54.410741
 30
0.0
 10
6.569342
 20
53.196299
 30
0.0
 10
6.847398
 20
51.798416
 30
0.0
 10
7.776892
 20
50.868923
 30
0.0
  0
SPLINE
  5
141
100
AcDbEntity
  8
Cut
 62
7
100
AcDbSpline
 70
8
 71
3
 72
8
 73
4
 74
0
 40
0
 40
0
 40
0
 40
0
 40
1
 40
1
 40
1
 40
1
 10
7.776892
 20
50.868923
 30
0.0
 10
8.706385
 20
49.939429
 30
0.0
 10
10.104268
 20
49.661373
 30
0.0
 10
11.318710
 20
50.164412
 30
0.0
  0
SPLINE
  5
142
100
AcDbEntity
  8
Cut
 62
7
100
AcDbSpline
 70
8
 71
3
 72
8
 73
4
 74
0
 40
0
 40
0
 40
0
 40
0
 40
1
 40
1
 40
1
 40
1
 10
11.318710
 20
50.164412
 30
0.0
 10
12.533152
 20
50.667450
 30
0.0
 10
13.324989
 20
51.852518
 30
0.0
 10
13.324989
 20
53.167020
 30
0.0
  0
SPLINE
  5
143
100
AcDbEntity
  8
Cut
 62
7
100
AcDbSpline
 70
8
 71
3
 72
8
 73
4
 74
0
 40
0
 40
0
 40
0
 40
0
 40
1
 40
1
 40
1
 40
1
 10
13.324989
 20
53.167020
 30
0.0
 10
13.324989
 20
54.028974
 30
0.0
 10
12.982579
 20
54.855624
 30
0.0
 10
12.373086
 20
55.465117
 30
0.0
  0
SPLINE
  5
144
100
AcDbEntity
  8
Cut
 62
7
100
AcDbSpline
 70
8
 71
3
 72
8
 73
4
 74
0
 40
0
 40
0
 40
0
 40
0
 40
1
 40
1
 40
1
 40
1
 10
12.373086
 20
55.465117
 30
0.0
 10
11.763593
 20
56.074610
 30
0.0
 10
10.936943
 20
56.417020
 30
0.0
 10
10.074989
 20
56.417020
 30
0.0
  0
LWPOLYLINE
  5
145
100
AcDbEntity
  8
Cut
 62
7
100
AcDbPolyline
 90
1
 70
1
 10
22.859993
 20
23.172020
 30
0.0
  0
SPLINE
  5
146
100
AcDbEntity
  8
Cut
 62
7
100
AcDbSpline
 70
8
 71
3
 72
8
 73
4
 74
0
 40
0
 40
0
 40
0
 40
0
 40
1
 40
1
 40
1
 40
1
 10
50.755000
 20
56.417020
 30
0.0
 10
48.960075
 20
56.417020
 30
0.0
 10
47.505000
 20
54.961945
 30
0.0
 10
47.505000
 20
53.167020
 30
0.0
  0
SPLINE
  5
147
100
AcDbEntity
  8
Cut
 62
7
100
AcDbSpline
 70
8
 71
3
 72
8
 73
4
 74
0
 40
0
 40
0
 40
0
 40
0
 40
1
 40
1
 40
1
 40
1
 10
47.505000
 20
53.167020
 30
0.0
 10
47.505000
 20
51.372095
 30
0.0
 10
48.960075
 20
49.917020
 30
0.0
 10
50.755000
 20
49.917020
 30
0.0
  0
SPLINE
  5
148
100
AcDbEntity
  8
Cut
 62
7
100
AcDbSpline
 70
8
 71
3
 72
8
 73
4
 74
0
 40
0
 40
0
 40
0
 40
0
 40
1
 40
1
 40
1
 40
1
 10
50.755000
 20
49.917020
 30
0.0
 10
52.549925
 20
49.917020
 30
0.0
 10
54.005000
 20
51.372095
 30
0.0
 10
54.005000
 20
53.167020
 30
0.0
  0
SPLINE
  5
149
100
AcDbEntity
  8
Cut
 62
7
100
AcDbSpline
 70
8
 71
3
 72
8
 73
4
 74
0
 40
0
 40
0
 40
0
 40
0
 40
1
 40
1
 40
1
 40
1
 10
54.005000
 20
53.167020
 30
0.0
 10
54.005000
 20
54.028974
 30
0.0
 10
53.662590
 20
54.855624
 30
0.0
 10
53.053097
 20
55.465117
 30
0.0
  0
SPLINE
  5
14a
100
AcDbEntity
  8
Cut
 62
7
100
AcDbSpline
 70
8
 71
3
 72
8
 73
4
 74
0
 40
0
 40
0
 40
0
 40
0
 40
1
 40
1
 40
1
 40
1
 10
53.053097
 20
55.465117
 30
0.0
 10
52.443604
 20
56.074610
 30
0.0
 10
51.616954
 20
56.417020
 30
0.0
 10
50.755000
 20
56.417020
 30
0.0
  0
LWPOLYLINE
  5
14b
100
AcDbEntity
  8
Cut
 62
7
100
AcDbPolyline
 90
1
 70
1
 10
10.074989
 20
56.417020
 30
0.0
  0
SPLINE
  5
14c
100
AcDbEntity
  8
Cut
 62
7
100
AcDbSpline
 70
8
 71
3
 72
8
 73
4
 74
0
 40
0
 40
0
 40
0
 40
0
 40
1
 40
1
 40
1
 40
1
 10
35.560000
 20
83.716807
 30
0.0
 10
34.749139
 20
83.716807
 30
0.0
 10
34.018121
 20
83.228356
 30
0.0
 10
33.707818
 20
82.479219
 30
0.0
  0
SPLINE
  5
14d
100
AcDbEntity
  8
Cut
 62
7
100
AcDbSpline
 70
8
 71
3
 72
8
 73
4
 74
0
 40
0
 40
0
 40
0
 40
0
 40
1
 40
1
 40
1
 40
1
 10
33.707818
 20
82.479219
 30
0.0
 10
33.397515
 20
81.730081
 30
0.0
 10
33.569036
 20
80.867787
 30
0.0
 10
34.142402
 20
80.294422
 30
0.0
  0
SPLINE
  5
14e
100
AcDbEntity
  8
Cut
 62
7
100
AcDbSpline
 70
8
 71
3
 72
8
 73
4
 74
0
 40
0
 40
0
 40
0
 40
0
 40
1
 40
1
 40
1
 40
1
 10
34.142402
 20
80.294422
 30
0.0
 10
34.715767
 20
79.721056
 30
0.0
 10
35.578061
 20
79.549535
 30
0.0
 10
36.327199
 20
79.859838
 30
0.0
  0
SPLINE
  5
14f
100
AcDbEntity
  8
Cut
 62
7
100
AcDbSpline
 70
8
 71
3
 72
8
 73
4
 74
0
 40
0
 40
0
 40
0
 40
0
 40
1
 40
1
 40
1
 40
1
 10
36.327199
 20
79.859838
 30
0.0
 10
37.076336
 20
80.170141
 30
0.0
 10
37.564787
 20
80.901159
 30
0.0
 10
37.564787
 20
81.712020
 30
0.0
  0
SPLINE
  5
150
100
AcDbEntity
  8
Cut
 62
7
100
AcDbSpline
 70
8
 71
3
 72
8
 73
4
 74
0
 40
0
 40
0
 40
0
 40
0
 40
1
 40
1
 40
1
 40
1
 10
37.564787
 20
81.712020
 30
0.0
 10
37.564787
 20
82.243723
 30
0.0
 10
37.353569
 20
82.753648
 30
0.0
 10
36.977598
 20
83.129618
 30
0.0
  0
SPLINE
  5
151
100
AcDbEntity
  8
Cut
 62
7
100
AcDbSpline
 70
8
 71
3
 72
8
 73
4
 74
0
 40
0
 40
0
 40
0
 40
0
 40
1
 40
1
 40
1
 40
1
 10
36.977598
 20
83.129618
 30
0.0
 10
36.601628
 20
83.505589
 30
0.0
 10
36.091703
 20
83.716807
 30
0.0
 10
35.560000
 20
83.716807
 30
0.0
  0
LWPOLYLINE
  5
152
100
AcDbEntity
  8
Cut
 62
7
100
AcDbPolyline
 90
1
 70
1
 10
50.755000
 20
56.417020
 30
0.0
  0
LWPOLYLINE
  5
153
100
AcDbEntity
  8
Cut
 62
7
100
AcDbPolyline
 90
1
 70
1
 10
35.560000
 20
83.716807
 30
0.0
  0
SPLINE
  5
154
100
AcDbEntity
  8
Cut
 62
7
100
AcDbSpline
 70
8
 71
3
 72
8
 73
4
 74
0
 40
0
 40
0
 40
0
 40
0
 40
1
 40
1
 40
1
 40
1
 10
8.890689
 20
123.700020
 30
0.0
 10
9.774032
 20
123.700462
 30
0.0
 10
10.489889
 20
124.416677
 30
0.0
 10
10.489889
 20
125.300020
 30
0.0
  0
SPLINE
  5
155
100
AcDbEntity
  8
Cut
 62
7
100
AcDbSpline
 70
8
 71
3
 72
8
 73
4
 74
0
 40
0
 40
0
 40
0
 40
0
 40
1
 40
1
 40
1
 40
1
 10
10.489889
 20
125.300020
 30
0.0
 10
10.489889
 20
126.183363
 30
0.0
 10
9.774032
 20
126.899578
 30
0.0
 10
8.890689
 20
126.900020
 30
0.0
  0
LWPOLYLINE
  5
156
100
AcDbEntity
  8
Cut
 62
7
100
AcDbPolyline
 90
4
 70
1
 10
0.067962
 20
127.932035
 30
0.0
 10
60.892036
 20
127.932035
 30
0.0
 10
60.892036
 20
0.067955
 30
0.0
 10
0.067962
 20
0.067955
 30
0.0
  0
SPLINE
  5
157
100
AcDbEntity
  8
Cut
 62
7
100
AcDbSpline
 70
8
 71
3
 72
8
 73
4
 74
0
 40
0
 40
0
 40
0
 40
0
 40
1
 40
1
 40
1
 40
1
 10
6.350689
 20
126.900020
 30
0.0
 10
5.778874
 20
126.900306
 30
0.0
 10
5.250372
 20
126.595410
 30
0.0
 10
4.964382
 20
126.100251
 30
0.0
  0
SPLINE
  5
158
100
AcDbEntity
  8
Cut
 62
7
100
AcDbSpline
 70
8
 71
3
 72
8
 73
4
 74
0
 40
0
 40
0
 40
0
 40
0
 40
1
 40
1
 40
1
 40
1
 10
4.964382
 20
126.100251
 30
0.0
 10
4.678391
 20
125.605092
 30
0.0
 10
4.678391
 20
124.994948
 30
0.0
 10
4.964382
 20
124.499789
 30
0.0
  0
SPLINE
  5
159
100
AcDbEntity
  8
Cut
 62
7
100
AcDbSpline
 70
8
 71
3
 72
8
 73
4
 74
0
 40
0
 40
0
 40
0
 40
0
 40
1
 40
1
 40
1
 40
1
 10
4.964382
 20
124.499789
 30
0.0
 10
5.250372
 20
124.004630
 30
0.0
 10
5.778874
 20
123.699734
 30
0.0
 10
6.350689
 20
123.700020
 30
0.0
  0
LWPOLYLINE
  5
15a
100
AcDbEntity
  8
Cut
 62
7
100
AcDbPolyline
 90
2
 70
0
 10
8.890689
 20
126.900020
 30
0.0
 10
6.350689
 20
126.900020
 30
0.0
  0
SPLINE
  5
15b
100
AcDbEntity
  8
Cut
 62
7
100
AcDbSpline
 70
8
 71
3
 72
8
 73
4
 74
0
 40
0
 40
0
 40
0
 40
0
 40
1
 40
1
 40
1
 40
1
 10
8.872099
 20
1.200010
 30
0.0
 10
9.755442
 20
1.200452
 30
0.0
 10
10.471299
 20
1.916667
 30
0.0
 10
10.471299
 20
2.800010
 30
0.0
  0
SPLINE
  5
15c
100
AcDbEntity
  8
Cut
 62
7
100
AcDbSpline
 70
8
 71
3
 72
8
 73
4
 74
0
 40
0
 40
0
 40
0
 40
0
 40
1
 40
1
 40
1
 40
1
 10
10.471299
 20
2.800010
 30
0.0
 10
10.471299
 20
3.683353
 30
0.0
 10
9.755442
 20
4.399568
 30
0.0
 10
8.872099
 20
4.400010
 30
0.0
  0
LWPOLYLINE
  5
15d
100
AcDbEntity
  8
Cut
 62
7
100
AcDbPolyline
 90
2
 70
0
 10
6.350689
 20
123.700020
 30
0.0
 10
8.890689
 20
123.700020
 30
0.0
  0
SPLINE
  5
15e
100
AcDbEntity
  8
Cut
 62
7
100
AcDbSpline
 70
8
 71
3
 72
8
 73
4
 74
0
 40
0
 40
0
 40
0
 40
0
 40
1
 40
1
 40
1
 40
1
 10
6.332099
 20
4.400010
 30
0.0
 10
5.760284
 20
4.400296
 30
0.0
 10
5.231782
 20
4.095400
 30
0.0
 10
4.945792
 20
3.600241
 30
0.0
  0
SPLINE
  5
15f
100
AcDbEntity
  8
Cut
 62
7
100
AcDbSpline
 70
8
 71
3
 72
8
 73
4
 74
0
 40
0
 40
0
 40
0
 40
0
 40
1
 40
1
 40
1
 40
1
 10
4.945792
 20
3.600241
 30
0.0
 10
4.659801
 20
3.105082
 30
0.0
 10
4.659801
 20
2.494938
 30
0.0
 10
4.945792
 20
1.999779
 30
0.0
  0
SPLINE
  5
160
100
AcDbEntity
  8
Cut
 62
7
100
AcDbSpline
 70
8
 71
3
 72
8
 73
4
 74
0
 40
0
 40
0
 40
0
 40
0
 40
1
 40
1
 40
1
 40
1
 10
4.945792
 20
1.999779
 30
0.0
 10
5.231782
 20
1.504620
 30
0.0
 10
5.760284
 20
1.199724
 30
0.0
 10
6.332099
 20
1.200010
 30
0.0
  0
LWPOLYLINE
  5
161
100
AcDbEntity
  8
Cut
 62
7
100
AcDbPolyline
 90
2
 70
0
 10
8.872099
 20
4.400010
 30
0.0
 10
6.332099
 20
4.400010
 30
0.0
  0
SPLINE
  5
162
100
AcDbEntity
  8
Cut
 62
7
100
AcDbSpline
 70
8
 71
3
 72
8
 73
4
 74
0
 40
0
 40
0
 40
0
 40
0
 40
1
 40
1
 40
1
 40
1
 10
54.610690
 20
123.700020
 30
0.0
 10
55.494033
 20
123.700462
 30
0.0
 10
56.209890
 20
124.416677
 30
0.0
 10
56.209890
 20
125.300020
 30
0.0
  0
SPLINE
  5
163
100
AcDbEntity
  8
Cut
 62
7
100
AcDbSpline
 70
8
 71
3
 72
8
 73
4
 74
0
 40
0
 40
0
 40
0
 40
0
 40
1
 40
1
 40
1
 40
1
 10
56.209890
 20
125.300020
 30
0.0
 10
56.209890
 20
126.183363
 30
0.0
 10
55.494033
 20
126.899578
 30
0.0
 10
54.610690
 20
126.900020
 30
0.0
  0
LWPOLYLINE
  5
164
100
AcDbEntity
  8
Cut
 62
7
100
AcDbPolyline
 90
2
 70
0
 10
6.332099
 20
1.200010
 30
0.0
 10
8.872099
 20
1.200010
 30
0.0
  0
SPLINE
  5
165
100
AcDbEntity
  8
Cut
 62
7
100
AcDbSpline
 70
8
 71
3
 72
8
 73
4
 74
0
 40
0
 40
0
 40
0
 40
0
 40
1
 40
1
 40
1
 40
1
 10
52.070690
 20
126.900020
 30
0.0
 10
51.498875
 20
126.900306
 30
0.0
 10
50.970373
 20
126.595410
 30
0.0
 10
50.684383
 20
126.100251
 30
0.0
  0
SPLINE
  5
166
100
AcDbEntity
  8
Cut
 62
7
100
AcDbSpline
 70
8
 71
3
 72
8
 73
4
 74
0
 40
0
 40
0
 40
0
 40
0
 40
1
 40
1
 40
1
 40
1
 10
50.684383
 20
126.100251
 30
0.0
 10
50.398392
 20
125.605092
 30
0.0
 10
50.398392
 20
124.994948
 30
0.0
 10
50.684383
 20
124.499789
 30
0.0
  0
SPLINE
  5
167
100
AcDbEntity
  8
Cut
 62
7
100
AcDbSpline
 70
8
 71
3
 72
8
 73
4
 74
0
 40
0
 40
0
 40
0
 40
0
 40
1
 40
1
 40
1
 40
1
 10
50.684383
 20
124.499789
 30
0.0
 10
50.970373
 20
124.004630
 30
0.0
 10
51.498875
 20
123.699734
 30
0.0
 10
52.070690
 20
123.700020
 30
0.0
  0
LWPOLYLINE
  5
168
100
AcDbEntity
  8
Cut
 62
7
100
AcDbPolyline
 90
2
 70
0
 10
54.610690
 20
126.900020
 30
0.0
 10
52.070690
 20
126.900020
 30
0.0
  0
SPLINE
  5
169
100
AcDbEntity
  8
Cut
 62
7
100
AcDbSpline
 70
8
 71
3
 72
8
 73
4
 74
0
 40
0
 40
0
 40
0
 40
0
 40
1
 40
1
 40
1
 40
1
 10
54.592100
 20
1.200010
 30
0.0
 10
55.475443
 20
1.200452
 30
0.0
 10
56.191300
 20
1.916667
 30
0.0
 10
56.191300
 20
2.800010
 30
0.0
  0
SPLINE
  5
16a
100
AcDbEntity
  8
Cut
 62
7
100
AcDbSpline
 70
8
 71
3
 72
8
 73
4
 74
0
 40
0
 40
0
 40
0
 40
0
 40
1
 40
1
 40
1
 40
1
 10
56.191300
 20
2.800010
 30
0.0
 10
56.191300
 20
3.683353
 30
0.0
 10
55.475443
 20
4.399568
 30
0.0
 10
54.592100
 20
4.400010
 30
0.0
  0
LWPOLYLINE
  5
16b
100
AcDbEntity
  8
Cut
 62
7
100
AcDbPolyline
 90
2
 70
0
 10
52.070690
 20
123.700020
 30
0.0
 10
54.610690
 20
123.700020
 30
0.0
  0
SPLINE
  5
16c
100
AcDbEntity
  8
Cut
 62
7
100
AcDbSpline
 70
8
 71
3
 72
8
 73
4
 74
0
 40
0
 40
0
 40
0
 40
0
 40
1
 40
1
 40
1
 40
1
 10
52.052100
 20
4.400010
 30
0.0
 10
51.480285
 20
4.400296
 30
0.0
 10
50.951783
 20
4.095400
 30
0.0
 10
50.665793
 20
3.600241
 30
0.0
  0
SPLINE
  5
16d
100
AcDbEntity
  8
Cut
 62
7
100
AcDbSpline
 70
8
 71
3
 72
8
 73
4
 74
0
 40
0
 40
0
 40
0
 40
0
 40
1
 40
1
 40
1
 40
1
 10
50.665793
 20
3.600241
 30
0.0
 10
50.379802
 20
3.105082
 30
0.0
 10
50.379802
 20
2.494938
 30
0.0
 10
50.665793
 20
1.999779
 30
0.0
  0
SPLINE
  5
16e
100
AcDbEntity
  8
Cut
 62
7
100
AcDbSpline
 70
8
 71
3
 72
8
 73
4
 74
0
 40
0
 40
0
 40
0
 40
0
 40
1
 40
1
 40
1
 40
1
 10
50.665793
 20
1.999779
 30
0.0
 10
50.951783
 20
1.504620
 30
0.0
 10
51.480285
 20
1.199724
 30
0.0
 10
52.052100
 20
1.200010
 30
0.0
  0
LWPOLYLINE
  5
16f
100
AcDbEntity
  8
Cut
 62
7
100
AcDbPolyline
 90
2
 70
0
 10
54.592100
 20
4.400010
 30
0.0
 10
52.052100
 20
4.400010
 30
0.0
  0
LWPOLYLINE
  5
170
100
AcDbEntity
  8
Cut
 62
7
100
AcDbPolyline
 90
2
 70
0
 10
52.052100
 20
1.200010
 30
0.0
 10
54.592100
 20
1.200010
 30
0.0
  0
ENDSEC
  0
SECTION
  2
OBJECTS
  0
DICTIONARY
  5
C
330
0
100
AcDbDictionary
  3
ACAD_GROUP
350
D
  3
ACAD_MLINESTYLE
350
17
  0
DICTIONARY
  5
D
330
C
100
AcDbDictionary
  0
DICTIONARY
  5
1A
330
C
100
AcDbDictionary
  0
DICTIONARY
  5
17
330
C
100
AcDbDictionary
  3
STANDARD
350
18
  0
DICTIONARY
  5
19
330
C
100
AcDbDictionary
  0
ENDSEC
  0
EOF
