  0
SECTION
  2
HEADER
  9
$ACADVER
  1
AC1014
  9
$HANDSEED
  5
FFFF
  9
$INSUNITS
 70
     4
  9
$MEASUREMENT
 70
     1
  0
ENDSEC
  0
SECTION
  2
TABLES
  0
TABLE
  2
VPORT
  5
8
330
0
100
AcDbSymbolTable
 70
     4
  0
VPORT
  5
2E
330
8
100
AcDbSymbolTableRecord
100
AcDbViewportTableRecord
  2
*ACTIVE
 70
     0
 10
0.0
 20
0.0
 11
1.0
 21
1.0
 12
210.0
 22
148.5
 13
0.0
 23
0.0
 14
10.0
 24
10.0
 15
10.0
 25
10.0
 16
0.0
 26
0.0
 36
1.0
 17
0.0
 27
0.0
 37
0.0
 40
341.0
 41
1.24
 42
50.0
 43
0.0
 44
0.0
 50
0.0
 51
0.0
 71
     0
 72
   100
 73
     1
 74
     3
 75
     0
 76
     0
 77
     0
 78
     0
  0
ENDTAB
  0
TABLE
  2
LTYPE
  5
5
330
0
100
AcDbSymbolTable
 70
     1
  0
LTYPE
  5
14
330
5
100
AcDbSymbolTableRecord
100
AcDbLinetypeTableRecord
  2
BYBLOCK
 70
     0
  3

 72
    65
 73
     0
 40
0.0
  0
LTYPE
  5
15
330
5
100
AcDbSymbolTableRecord
100
AcDbLinetypeTableRecord
  2
BYLAYER
 70
     0
  3

 72
    65
 73
     0
 40
0.0
  0
LTYPE
  5
16
330
5
100
AcDbSymbolTableRecord
100
AcDbLinetypeTableRecord
  2
CONTINUOUS
 70
     0
  3
Solid line
 72
    65
 73
     0
 40
0.0
  0
ENDTAB
  0
TABLE
  2
LAYER
  5
2
100
AcDbSymbolTable
 70
4
  0
LAYER
  5
50
100
AcDbSymbolTableRecord
100
AcDbLayerTableRecord
  2
0
 70
0
  6
CONTINUOUS
  0
LAYER
  5
51
100
AcDbSymbolTableRecord
100
AcDbLayerTableRecord
  2
Guidelines
 70
0
  6
CONTINUOUS
  0
LAYER
  5
52
100
AcDbSymbolTableRecord
100
AcDbLayerTableRecord
  2
Cut
 70
0
  6
CONTINUOUS
  0
LAYER
  5
53
100
AcDbSymbolTableRecord
100
AcDbLayerTableRecord
  2
Artwork
 70
0
  6
CONTINUOUS
  0
ENDTAB
  0
TABLE
  2
STYLE
  5
3
330
0
100
AcDbSymbolTable
 70
     1
  0
STYLE
  5
11
330
3
100
AcDbSymbolTableRecord
100
AcDbTextStyleTableRecord
  2
STANDARD
 70
     0
 40
0.0
 41
1.0
 50
0.0
 71
     0
 42
2.5
  3
txt
  4

  0
ENDTAB
  0
TABLE
  2
VIEW
  5
6
330
0
100
AcDbSymbolTable
 70
     0
  0
ENDTAB
  0
TABLE
  2
UCS
  5
7
330
0
100
AcDbSymbolTable
 70
     0
  0
ENDTAB
  0
TABLE
  2
APPID
  5
9
330
0
100
AcDbSymbolTable
 70
     2
  0
APPID
  5
12
330
9
100
AcDbSymbolTableRecord
100
AcDbRegAppTableRecord
  2
ACAD
 70
     0
  0
ENDTAB
  0
TABLE
  2
DIMSTYLE
  5
A
330
0
100
AcDbSymbolTable
 70
     1
  0
DIMSTYLE
105
27
330
A
100
AcDbSymbolTableRecord
100
AcDbDimStyleTableRecord
  2
ISO-25
 70
     0
  3

  4

  5

  6

  7

 40
1.0
 41
2.5
 42
0.625
 43
3.75
 44
1.25
 45
0.0
 46
0.0
 47
0.0
 48
0.0
140
2.5
141
2.5
142
0.0
143
0.03937007874016
144
1.0
145
0.0
146
1.0
147
0.625
 71
     0
 72
     0
 73
     0
 74
     0
 75
     0
 76
     0
 77
     1
 78
     8
170
     0
171
     3
172
     1
173
     0
174
     0
175
     0
176
     0
177
     0
178
     0
270
     2
271
     2
272
     2
273
     2
274
     3
340
11
275
     0
280
     0
281
     0
282
     0
283
     0
284
     8
285
     0
286
     0
287
     3
288
     0
  0
ENDTAB
  0
TABLE
  2
BLOCK_RECORD
  5
1
330
0
100
AcDbSymbolTable
 70
     1
  0
BLOCK_RECORD
  5
1F
330
1
100
AcDbSymbolTableRecord
100
AcDbBlockTableRecord
  2
*MODEL_SPACE
  0
BLOCK_RECORD
  5
1B
330
1
100
AcDbSymbolTableRecord
100
AcDbBlockTableRecord
  2
*PAPER_SPACE
  0
ENDTAB
  0
ENDSEC
  0
SECTION
  2
BLOCKS
  0
BLOCK
  5
20
330
1F
100
AcDbEntity
  8
0
100
AcDbBlockBegin
  2
*MODEL_SPACE
 70
     0
 10
0.0
 20
0.0
 30
0.0
  3
*MODEL_SPACE
  1

  0
ENDBLK
  5
21
330
1F
100
AcDbEntity
  8
0
100
AcDbBlockEnd
  0
BLOCK
  5
1C
330
1B
100
AcDbEntity
 67
     1
  8
0
100
AcDbBlockBegin
  2
*PAPER_SPACE
  1

  0
ENDBLK
  5
1D
330
1B
100
AcDbEntity
 67
     1
  8
0
100
AcDbBlockEnd
  0
ENDSEC
  0
SECTION
  2
ENTITIES
  0
SPLINE
  5
100
100
AcDbEntity
  8
Cut
 62
7
100
AcDbSpline
 70
8
 71
3
 72
8
 73
4
 74
0
 40
0
 40
0
 40
0
 40
0
 40
1
 40
1
 40
1
 40
1
 10
8.890000
 20
123.594000
 30
0.0
 10
9.773343
 20
123.594442
 30
0.0
 10
10.489200
 20
124.310657
 30
0.0
 10
10.489200
 20
125.194000
 30
0.0
  0
SPLINE
  5
101
100
AcDbEntity
  8
Cut
 62
7
100
AcDbSpline
 70
8
 71
3
 72
8
 73
4
 74
0
 40
0
 40
0
 40
0
 40
0
 40
1
 40
1
 40
1
 40
1
 10
10.489200
 20
125.194000
 30
0.0
 10
10.489200
 20
126.077343
 30
0.0
 10
9.773343
 20
126.793558
 30
0.0
 10
8.890000
 20
126.794000
 30
0.0
  0
LWPOLYLINE
  5
102
100
AcDbEntity
  8
Cut
 62
7
100
AcDbPolyline
 90
4
 70
1
 10
0.056376
 20
127.944010
 30
0.0
 10
60.903632
 20
127.944010
 30
0.0
 10
60.903632
 20
0.056760
 30
0.0
 10
0.056376
 20
0.056760
 30
0.0
  0
SPLINE
  5
103
100
AcDbEntity
  8
Cut
 62
7
100
AcDbSpline
 70
8
 71
3
 72
8
 73
4
 74
0
 40
0
 40
0
 40
0
 40
0
 40
1
 40
1
 40
1
 40
1
 10
6.350001
 20
126.794000
 30
0.0
 10
5.778186
 20
126.794286
 30
0.0
 10
5.249684
 20
126.489390
 30
0.0
 10
4.963694
 20
125.994231
 30
0.0
  0
SPLINE
  5
104
100
AcDbEntity
  8
Cut
 62
7
100
AcDbSpline
 70
8
 71
3
 72
8
 73
4
 74
0
 40
0
 40
0
 40
0
 40
0
 40
1
 40
1
 40
1
 40
1
 10
4.963694
 20
125.994231
 30
0.0
 10
4.677703
 20
125.499072
 30
0.0
 10
4.677703
 20
124.888928
 30
0.0
 10
4.963694
 20
124.393769
 30
0.0
  0
SPLINE
  5
105
100
AcDbEntity
  8
Cut
 62
7
100
AcDbSpline
 70
8
 71
3
 72
8
 73
4
 74
0
 40
0
 40
0
 40
0
 40
0
 40
1
 40
1
 40
1
 40
1
 10
4.963694
 20
124.393769
 30
0.0
 10
5.249684
 20
123.898610
 30
0.0
 10
5.778186
 20
123.593714
 30
0.0
 10
6.350001
 20
123.594000
 30
0.0
  0
LWPOLYLINE
  5
106
100
AcDbEntity
  8
Cut
 62
7
100
AcDbPolyline
 90
2
 70
0
 10
8.890000
 20
126.794000
 30
0.0
 10
6.350001
 20
126.794000
 30
0.0
  0
SPLINE
  5
107
100
AcDbEntity
  8
Cut
 62
7
100
AcDbSpline
 70
8
 71
3
 72
8
 73
4
 74
0
 40
0
 40
0
 40
0
 40
0
 40
1
 40
1
 40
1
 40
1
 10
8.890000
 20
1.200000
 30
0.0
 10
9.773343
 20
1.200442
 30
0.0
 10
10.489200
 20
1.916657
 30
0.0
 10
10.489200
 20
2.800000
 30
0.0
  0
SPLINE
  5
108
100
AcDbEntity
  8
Cut
 62
7
100
AcDbSpline
 70
8
 71
3
 72
8
 73
4
 74
0
 40
0
 40
0
 40
0
 40
0
 40
1
 40
1
 40
1
 40
1
 10
10.489200
 20
2.800000
 30
0.0
 10
10.489200
 20
3.683343
 30
0.0
 10
9.773343
 20
4.399558
 30
0.0
 10
8.890000
 20
4.400000
 30
0.0
  0
LWPOLYLINE
  5
109
100
AcDbEntity
  8
Cut
 62
7
100
AcDbPolyline
 90
2
 70
0
 10
6.350001
 20
123.594000
 30
0.0
 10
8.890000
 20
123.594000
 30
0.0
  0
SPLINE
  5
10a
100
AcDbEntity
  8
Cut
 62
7
100
AcDbSpline
 70
8
 71
3
 72
8
 73
4
 74
0
 40
0
 40
0
 40
0
 40
0
 40
1
 40
1
 40
1
 40
1
 10
6.350001
 20
4.400000
 30
0.0
 10
5.778186
 20
4.400286
 30
0.0
 10
5.249684
 20
4.095390
 30
0.0
 10
4.963694
 20
3.600231
 30
0.0
  0
SPLINE
  5
10b
100
AcDbEntity
  8
Cut
 62
7
100
AcDbSpline
 70
8
 71
3
 72
8
 73
4
 74
0
 40
0
 40
0
 40
0
 40
0
 40
1
 40
1
 40
1
 40
1
 10
4.963694
 20
3.600231
 30
0.0
 10
4.677703
 20
3.105072
 30
0.0
 10
4.677703
 20
2.494928
 30
0.0
 10
4.963694
 20
1.999769
 30
0.0
  0
SPLINE
  5
10c
100
AcDbEntity
  8
Cut
 62
7
100
AcDbSpline
 70
8
 71
3
 72
8
 73
4
 74
0
 40
0
 40
0
 40
0
 40
0
 40
1
 40
1
 40
1
 40
1
 10
4.963694
 20
1.999769
 30
0.0
 10
5.249684
 20
1.504610
 30
0.0
 10
5.778186
 20
1.199714
 30
0.0
 10
6.350001
 20
1.200000
 30
0.0
  0
LWPOLYLINE
  5
10d
100
AcDbEntity
  8
Cut
 62
7
100
AcDbPolyline
 90
2
 70
0
 10
8.890000
 20
4.400000
 30
0.0
 10
6.350001
 20
4.400000
 30
0.0
  0
SPLINE
  5
10e
100
AcDbEntity
  8
Cut
 62
7
100
AcDbSpline
 70
8
 71
3
 72
8
 73
4
 74
0
 40
0
 40
0
 40
0
 40
0
 40
1
 40
1
 40
1
 40
1
 10
54.610000
 20
123.594000
 30
0.0
 10
55.493343
 20
123.594442
 30
0.0
 10
56.209200
 20
124.310657
 30
0.0
 10
56.209200
 20
125.194000
 30
0.0
  0
SPLINE
  5
10f
100
AcDbEntity
  8
Cut
 62
7
100
AcDbSpline
 70
8
 71
3
 72
8
 73
4
 74
0
 40
0
 40
0
 40
0
 40
0
 40
1
 40
1
 40
1
 40
1
 10
56.209200
 20
125.194000
 30
0.0
 10
56.209200
 20
126.077343
 30
0.0
 10
55.493343
 20
126.793558
 30
0.0
 10
54.610000
 20
126.794000
 30
0.0
  0
LWPOLYLINE
  5
110
100
AcDbEntity
  8
Cut
 62
7
100
AcDbPolyline
 90
2
 70
0
 10
6.350001
 20
1.200000
 30
0.0
 10
8.890000
 20
1.200000
 30
0.0
  0
SPLINE
  5
111
100
AcDbEntity
  8
Cut
 62
7
100
AcDbSpline
 70
8
 71
3
 72
8
 73
4
 74
0
 40
0
 40
0
 40
0
 40
0
 40
1
 40
1
 40
1
 40
1
 10
52.070000
 20
126.794000
 30
0.0
 10
51.498185
 20
126.794286
 30
0.0
 10
50.969683
 20
126.489390
 30
0.0
 10
50.683693
 20
125.994231
 30
0.0
  0
SPLINE
  5
112
100
AcDbEntity
  8
Cut
 62
7
100
AcDbSpline
 70
8
 71
3
 72
8
 73
4
 74
0
 40
0
 40
0
 40
0
 40
0
 40
1
 40
1
 40
1
 40
1
 10
50.683693
 20
125.994231
 30
0.0
 10
50.397702
 20
125.499072
 30
0.0
 10
50.397702
 20
124.888928
 30
0.0
 10
50.683693
 20
124.393769
 30
0.0
  0
SPLINE
  5
113
100
AcDbEntity
  8
Cut
 62
7
100
AcDbSpline
 70
8
 71
3
 72
8
 73
4
 74
0
 40
0
 40
0
 40
0
 40
0
 40
1
 40
1
 40
1
 40
1
 10
50.683693
 20
124.393769
 30
0.0
 10
50.969683
 20
123.898610
 30
0.0
 10
51.498185
 20
123.593714
 30
0.0
 10
52.070000
 20
123.594000
 30
0.0
  0
LWPOLYLINE
  5
114
100
AcDbEntity
  8
Cut
 62
7
100
AcDbPolyline
 90
2
 70
0
 10
54.610000
 20
126.794000
 30
0.0
 10
52.070000
 20
126.794000
 30
0.0
  0
SPLINE
  5
115
100
AcDbEntity
  8
Cut
 62
7
100
AcDbSpline
 70
8
 71
3
 72
8
 73
4
 74
0
 40
0
 40
0
 40
0
 40
0
 40
1
 40
1
 40
1
 40
1
 10
54.610000
 20
1.200000
 30
0.0
 10
55.493343
 20
1.200442
 30
0.0
 10
56.209200
 20
1.916657
 30
0.0
 10
56.209200
 20
2.800000
 30
0.0
  0
SPLINE
  5
116
100
AcDbEntity
  8
Cut
 62
7
100
AcDbSpline
 70
8
 71
3
 72
8
 73
4
 74
0
 40
0
 40
0
 40
0
 40
0
 40
1
 40
1
 40
1
 40
1
 10
56.209200
 20
2.800000
 30
0.0
 10
56.209200
 20
3.683343
 30
0.0
 10
55.493343
 20
4.399558
 30
0.0
 10
54.610000
 20
4.400000
 30
0.0
  0
LWPOLYLINE
  5
117
100
AcDbEntity
  8
Cut
 62
7
100
AcDbPolyline
 90
2
 70
0
 10
52.070000
 20
123.594000
 30
0.0
 10
54.610000
 20
123.594000
 30
0.0
  0
SPLINE
  5
118
100
AcDbEntity
  8
Cut
 62
7
100
AcDbSpline
 70
8
 71
3
 72
8
 73
4
 74
0
 40
0
 40
0
 40
0
 40
0
 40
1
 40
1
 40
1
 40
1
 10
52.070000
 20
4.400000
 30
0.0
 10
51.498185
 20
4.400286
 30
0.0
 10
50.969683
 20
4.095390
 30
0.0
 10
50.683693
 20
3.600231
 30
0.0
  0
SPLINE
  5
119
100
AcDbEntity
  8
Cut
 62
7
100
AcDbSpline
 70
8
 71
3
 72
8
 73
4
 74
0
 40
0
 40
0
 40
0
 40
0
 40
1
 40
1
 40
1
 40
1
 10
50.683693
 20
3.600231
 30
0.0
 10
50.397702
 20
3.105072
 30
0.0
 10
50.397702
 20
2.494928
 30
0.0
 10
50.683693
 20
1.999769
 30
0.0
  0
SPLINE
  5
11a
100
AcDbEntity
  8
Cut
 62
7
100
AcDbSpline
 70
8
 71
3
 72
8
 73
4
 74
0
 40
0
 40
0
 40
0
 40
0
 40
1
 40
1
 40
1
 40
1
 10
50.683693
 20
1.999769
 30
0.0
 10
50.969683
 20
1.504610
 30
0.0
 10
51.498185
 20
1.199714
 30
0.0
 10
52.070000
 20
1.200000
 30
0.0
  0
LWPOLYLINE
  5
11b
100
AcDbEntity
  8
Cut
 62
7
100
AcDbPolyline
 90
2
 70
0
 10
54.610000
 20
4.400000
 30
0.0
 10
52.070000
 20
4.400000
 30
0.0
  0
LWPOLYLINE
  5
11c
100
AcDbEntity
  8
Cut
 62
7
100
AcDbPolyline
 90
2
 70
0
 10
52.070000
 20
1.200000
 30
0.0
 10
54.610000
 20
1.200000
 30
0.0
  0
LWPOLYLINE
  5
11d
100
AcDbEntity
  8
Cut
 62
7
100
AcDbPolyline
 90
4
 70
1
 10
4.912630
 20
113.942271
 30
0.0
 10
17.984200
 20
113.942271
 30
0.0
 10
17.984200
 20
101.139884
 30
0.0
 10
4.912630
 20
101.139884
 30
0.0
  0
SPLINE
  5
11e
100
AcDbEntity
  8
Cut
 62
7
100
AcDbSpline
 70
8
 71
3
 72
8
 73
4
 74
0
 40
0
 40
0
 40
0
 40
0
 40
1
 40
1
 40
1
 40
1
 10
38.094992
 20
23.394000
 30
0.0
 10
36.780490
 20
23.394000
 30
0.0
 10
35.595422
 20
22.602163
 30
0.0
 10
35.092384
 20
21.387721
 30
0.0
  0
SPLINE
  5
11f
100
AcDbEntity
  8
Cut
 62
7
100
AcDbSpline
 70
8
 71
3
 72
8
 73
4
 74
0
 40
0
 40
0
 40
0
 40
0
 40
1
 40
1
 40
1
 40
1
 10
35.092384
 20
21.387721
 30
0.0
 10
34.589345
 20
20.173279
 30
0.0
 10
34.867401
 20
18.775396
 30
0.0
 10
35.796895
 20
17.845903
 30
0.0
  0
SPLINE
  5
120
100
AcDbEntity
  8
Cut
 62
7
100
AcDbSpline
 70
8
 71
3
 72
8
 73
4
 74
0
 40
0
 40
0
 40
0
 40
0
 40
1
 40
1
 40
1
 40
1
 10
35.796895
 20
17.845903
 30
0.0
 10
36.726388
 20
16.916409
 30
0.0
 10
38.124271
 20
16.638353
 30
0.0
 10
39.338713
 20
17.141392
 30
0.0
  0
SPLINE
  5
121
100
AcDbEntity
  8
Cut
 62
7
100
AcDbSpline
 70
8
 71
3
 72
8
 73
4
 74
0
 40
0
 40
0
 40
0
 40
0
 40
1
 40
1
 40
1
 40
1
 10
39.338713
 20
17.141392
 30
0.0
 10
40.553155
 20
17.644430
 30
0.0
 10
41.344992
 20
18.829498
 30
0.0
 10
41.344992
 20
20.144000
 30
0.0
  0
SPLINE
  5
122
100
AcDbEntity
  8
Cut
 62
7
100
AcDbSpline
 70
8
 71
3
 72
8
 73
4
 74
0
 40
0
 40
0
 40
0
 40
0
 40
1
 40
1
 40
1
 40
1
 10
41.344992
 20
20.144000
 30
0.0
 10
41.344992
 20
21.005954
 30
0.0
 10
41.002582
 20
21.832604
 30
0.0
 10
40.393089
 20
22.442097
 30
0.0
  0
SPLINE
  5
123
100
AcDbEntity
  8
Cut
 62
7
100
AcDbSpline
 70
8
 71
3
 72
8
 73
4
 74
0
 40
0
 40
0
 40
0
 40
0
 40
1
 40
1
 40
1
 40
1
 10
40.393089
 20
22.442097
 30
0.0
 10
39.783596
 20
23.051590
 30
0.0
 10
38.956946
 20
23.394000
 30
0.0
 10
38.094992
 20
23.394000
 30
0.0
  0
LWPOLYLINE
  5
124
100
AcDbEntity
  8
Cut
 62
7
100
AcDbPolyline
 90
4
 70
1
 10
53.970000
 20
114.998001
 30
0.0
 10
45.588000
 20
114.998001
 30
0.0
 10
45.588000
 20
99.250001
 30
0.0
 10
53.970000
 20
99.250001
 30
0.0
  0
SPLINE
  5
125
100
AcDbEntity
  8
Cut
 62
7
100
AcDbSpline
 70
8
 71
3
 72
8
 73
4
 74
0
 40
0
 40
0
 40
0
 40
0
 40
1
 40
1
 40
1
 40
1
 10
50.800000
 20
68.904000
 30
0.0
 10
49.485498
 20
68.904000
 30
0.0
 10
48.300430
 20
68.112163
 30
0.0
 10
47.797392
 20
66.897721
 30
0.0
  0
SPLINE
  5
126
100
AcDbEntity
  8
Cut
 62
7
100
AcDbSpline
 70
8
 71
3
 72
8
 73
4
 74
0
 40
0
 40
0
 40
0
 40
0
 40
1
 40
1
 40
1
 40
1
 10
47.797392
 20
66.897721
 30
0.0
 10
47.294353
 20
65.683279
 30
0.0
 10
47.572409
 20
64.285396
 30
0.0
 10
48.501903
 20
63.355903
 30
0.0
  0
SPLINE
  5
127
100
AcDbEntity
  8
Cut
 62
7
100
AcDbSpline
 70
8
 71
3
 72
8
 73
4
 74
0
 40
0
 40
0
 40
0
 40
0
 40
1
 40
1
 40
1
 40
1
 10
48.501903
 20
63.355903
 30
0.0
 10
49.431396
 20
62.426409
 30
0.0
 10
50.829279
 20
62.148353
 30
0.0
 10
52.043721
 20
62.651392
 30
0.0
  0
SPLINE
  5
128
100
AcDbEntity
  8
Cut
 62
7
100
AcDbSpline
 70
8
 71
3
 72
8
 73
4
 74
0
 40
0
 40
0
 40
0
 40
0
 40
1
 40
1
 40
1
 40
1
 10
52.043721
 20
62.651392
 30
0.0
 10
53.258163
 20
63.154430
 30
0.0
 10
54.050000
 20
64.339498
 30
0.0
 10
54.050000
 20
65.654000
 30
0.0
  0
SPLINE
  5
129
100
AcDbEntity
  8
Cut
 62
7
100
AcDbSpline
 70
8
 71
3
 72
8
 73
4
 74
0
 40
0
 40
0
 40
0
 40
0
 40
1
 40
1
 40
1
 40
1
 10
54.050000
 20
65.654000
 30
0.0
 10
54.050000
 20
66.515954
 30
0.0
 10
53.707590
 20
67.342604
 30
0.0
 10
53.098097
 20
67.952097
 30
0.0
  0
SPLINE
  5
12a
100
AcDbEntity
  8
Cut
 62
7
100
AcDbSpline
 70
8
 71
3
 72
8
 73
4
 74
0
 40
0
 40
0
 40
0
 40
0
 40
1
 40
1
 40
1
 40
1
 10
53.098097
 20
67.952097
 30
0.0
 10
52.488604
 20
68.561590
 30
0.0
 10
51.661954
 20
68.904000
 30
0.0
 10
50.800000
 20
68.904000
 30
0.0
  0
LWPOLYLINE
  5
12b
100
AcDbEntity
  8
Cut
 62
7
100
AcDbPolyline
 90
1
 70
1
 10
38.094992
 20
23.394000
 30
0.0
  0
SPLINE
  5
12c
100
AcDbEntity
  8
Cut
 62
7
100
AcDbSpline
 70
8
 71
3
 72
8
 73
4
 74
0
 40
0
 40
0
 40
0
 40
0
 40
1
 40
1
 40
1
 40
1
 10
50.800000
 20
77.152000
 30
0.0
 10
50.080866
 20
77.152000
 30
0.0
 10
49.432543
 20
76.718804
 30
0.0
 10
49.157342
 20
76.054411
 30
0.0
  0
SPLINE
  5
12d
100
AcDbEntity
  8
Cut
 62
7
100
AcDbSpline
 70
8
 71
3
 72
8
 73
4
 74
0
 40
0
 40
0
 40
0
 40
0
 40
1
 40
1
 40
1
 40
1
 10
49.157342
 20
76.054411
 30
0.0
 10
48.882142
 20
75.390018
 30
0.0
 10
49.034260
 20
74.625269
 30
0.0
 10
49.542764
 20
74.116764
 30
0.0
  0
SPLINE
  5
12e
100
AcDbEntity
  8
Cut
 62
7
100
AcDbSpline
 70
8
 71
3
 72
8
 73
4
 74
0
 40
0
 40
0
 40
0
 40
0
 40
1
 40
1
 40
1
 40
1
 10
49.542764
 20
74.116764
 30
0.0
 10
50.051269
 20
73.608260
 30
0.0
 10
50.816018
 20
73.456142
 30
0.0
 10
51.480411
 20
73.731342
 30
0.0
  0
SPLINE
  5
12f
100
AcDbEntity
  8
Cut
 62
7
100
AcDbSpline
 70
8
 71
3
 72
8
 73
4
 74
0
 40
0
 40
0
 40
0
 40
0
 40
1
 40
1
 40
1
 40
1
 10
51.480411
 20
73.731342
 30
0.0
 10
52.144804
 20
74.006543
 30
0.0
 10
52.578000
 20
74.654866
 30
0.0
 10
52.578000
 20
75.374000
 30
0.0
  0
SPLINE
  5
130
100
AcDbEntity
  8
Cut
 62
7
100
AcDbSpline
 70
8
 71
3
 72
8
 73
4
 74
0
 40
0
 40
0
 40
0
 40
0
 40
1
 40
1
 40
1
 40
1
 10
52.578000
 20
75.374000
 30
0.0
 10
52.578000
 20
75.845555
 30
0.0
 10
52.390676
 20
76.297796
 30
0.0
 10
52.057236
 20
76.631236
 30
0.0
  0
SPLINE
  5
131
100
AcDbEntity
  8
Cut
 62
7
100
AcDbSpline
 70
8
 71
3
 72
8
 73
4
 74
0
 40
0
 40
0
 40
0
 40
0
 40
1
 40
1
 40
1
 40
1
 10
52.057236
 20
76.631236
 30
0.0
 10
51.723796
 20
76.964676
 30
0.0
 10
51.271555
 20
77.152000
 30
0.0
 10
50.800000
 20
77.152000
 30
0.0
  0
LWPOLYLINE
  5
132
100
AcDbEntity
  8
Cut
 62
7
100
AcDbPolyline
 90
1
 70
1
 10
50.800000
 20
68.904000
 30
0.0
  0
SPLINE
  5
133
100
AcDbEntity
  8
Cut
 62
7
100
AcDbSpline
 70
8
 71
3
 72
8
 73
4
 74
0
 40
0
 40
0
 40
0
 40
0
 40
1
 40
1
 40
1
 40
1
 10
50.800000
 20
91.764000
 30
0.0
 10
49.485498
 20
91.764000
 30
0.0
 10
48.300430
 20
90.972163
 30
0.0
 10
47.797392
 20
89.757721
 30
0.0
  0
SPLINE
  5
134
100
AcDbEntity
  8
Cut
 62
7
100
AcDbSpline
 70
8
 71
3
 72
8
 73
4
 74
0
 40
0
 40
0
 40
0
 40
0
 40
1
 40
1
 40
1
 40
1
 10
47.797392
 20
89.757721
 30
0.0
 10
47.294353
 20
88.543279
 30
0.0
 10
47.572409
 20
87.145396
 30
0.0
 10
48.501903
 20
86.215903
 30
0.0
  0
SPLINE
  5
135
100
AcDbEntity
  8
Cut
 62
7
100
AcDbSpline
 70
8
 71
3
 72
8
 73
4
 74
0
 40
0
 40
0
 40
0
 40
0
 40
1
 40
1
 40
1
 40
1
 10
48.501903
 20
86.215903
 30
0.0
 10
49.431396
 20
85.286409
 30
0.0
 10
50.829279
 20
85.008353
 30
0.0
 10
52.043721
 20
85.511392
 30
0.0
  0
SPLINE
  5
136
100
AcDbEntity
  8
Cut
 62
7
100
AcDbSpline
 70
8
 71
3
 72
8
 73
4
 74
0
 40
0
 40
0
 40
0
 40
0
 40
1
 40
1
 40
1
 40
1
 10
52.043721
 20
85.511392
 30
0.0
 10
53.258163
 20
86.014430
 30
0.0
 10
54.050000
 20
87.199498
 30
0.0
 10
54.050000
 20
88.514000
 30
0.0
  0
SPLINE
  5
137
100
AcDbEntity
  8
Cut
 62
7
100
AcDbSpline
 70
8
 71
3
 72
8
 73
4
 74
0
 40
0
 40
0
 40
0
 40
0
 40
1
 40
1
 40
1
 40
1
 10
54.050000
 20
88.514000
 30
0.0
 10
54.050000
 20
89.375954
 30
0.0
 10
53.707590
 20
90.202604
 30
0.0
 10
53.098097
 20
90.812097
 30
0.0
  0
SPLINE
  5
138
100
AcDbEntity
  8
Cut
 62
7
100
AcDbSpline
 70
8
 71
3
 72
8
 73
4
 74
0
 40
0
 40
0
 40
0
 40
0
 40
1
 40
1
 40
1
 40
1
 10
53.098097
 20
90.812097
 30
0.0
 10
52.488604
 20
91.421590
 30
0.0
 10
51.661954
 20
91.764000
 30
0.0
 10
50.800000
 20
91.764000
 30
0.0
  0
LWPOLYLINE
  5
139
100
AcDbEntity
  8
Cut
 62
7
100
AcDbPolyline
 90
1
 70
1
 10
50.800000
 20
77.152000
 30
0.0
  0
SPLINE
  5
13a
100
AcDbEntity
  8
Cut
 62
7
100
AcDbSpline
 70
8
 71
3
 72
8
 73
4
 74
0
 40
0
 40
0
 40
0
 40
0
 40
1
 40
1
 40
1
 40
1
 10
10.160000
 20
23.394000
 30
0.0
 10
8.845498
 20
23.394000
 30
0.0
 10
7.660430
 20
22.602163
 30
0.0
 10
7.157392
 20
21.387721
 30
0.0
  0
SPLINE
  5
13b
100
AcDbEntity
  8
Cut
 62
7
100
AcDbSpline
 70
8
 71
3
 72
8
 73
4
 74
0
 40
0
 40
0
 40
0
 40
0
 40
1
 40
1
 40
1
 40
1
 10
7.157392
 20
21.387721
 30
0.0
 10
6.654353
 20
20.173279
 30
0.0
 10
6.932409
 20
18.775396
 30
0.0
 10
7.861903
 20
17.845903
 30
0.0
  0
SPLINE
  5
13c
100
AcDbEntity
  8
Cut
 62
7
100
AcDbSpline
 70
8
 71
3
 72
8
 73
4
 74
0
 40
0
 40
0
 40
0
 40
0
 40
1
 40
1
 40
1
 40
1
 10
7.861903
 20
17.845903
 30
0.0
 10
8.791396
 20
16.916409
 30
0.0
 10
10.189279
 20
16.638353
 30
0.0
 10
11.403721
 20
17.141392
 30
0.0
  0
SPLINE
  5
13d
100
AcDbEntity
  8
Cut
 62
7
100
AcDbSpline
 70
8
 71
3
 72
8
 73
4
 74
0
 40
0
 40
0
 40
0
 40
0
 40
1
 40
1
 40
1
 40
1
 10
11.403721
 20
17.141392
 30
0.0
 10
12.618163
 20
17.644430
 30
0.0
 10
13.410000
 20
18.829498
 30
0.0
 10
13.410000
 20
20.144000
 30
0.0
  0
SPLINE
  5
13e
100
AcDbEntity
  8
Cut
 62
7
100
AcDbSpline
 70
8
 71
3
 72
8
 73
4
 74
0
 40
0
 40
0
 40
0
 40
0
 40
1
 40
1
 40
1
 40
1
 10
13.410000
 20
20.144000
 30
0.0
 10
13.410000
 20
21.005954
 30
0.0
 10
13.067590
 20
21.832604
 30
0.0
 10
12.458097
 20
22.442097
 30
0.0
  0
SPLINE
  5
13f
100
AcDbEntity
  8
Cut
 62
7
100
AcDbSpline
 70
8
 71
3
 72
8
 73
4
 74
0
 40
0
 40
0
 40
0
 40
0
 40
1
 40
1
 40
1
 40
1
 10
12.458097
 20
22.442097
 30
0.0
 10
11.848604
 20
23.051590
 30
0.0
 10
11.021954
 20
23.394000
 30
0.0
 10
10.160000
 20
23.394000
 30
0.0
  0
LWPOLYLINE
  5
140
100
AcDbEntity
  8
Cut
 62
7
100
AcDbPolyline
 90
1
 70
1
 10
50.800000
 20
91.764000
 30
0.0
  0
SPLINE
  5
141
100
AcDbEntity
  8
Cut
 62
7
100
AcDbSpline
 70
8
 71
3
 72
8
 73
4
 74
0
 40
0
 40
0
 40
0
 40
0
 40
1
 40
1
 40
1
 40
1
 10
50.800000
 20
56.204000
 30
0.0
 10
49.485498
 20
56.204000
 30
0.0
 10
48.300430
 20
55.412163
 30
0.0
 10
47.797392
 20
54.197721
 30
0.0
  0
SPLINE
  5
142
100
AcDbEntity
  8
Cut
 62
7
100
AcDbSpline
 70
8
 71
3
 72
8
 73
4
 74
0
 40
0
 40
0
 40
0
 40
0
 40
1
 40
1
 40
1
 40
1
 10
47.797392
 20
54.197721
 30
0.0
 10
47.294353
 20
52.983279
 30
0.0
 10
47.572409
 20
51.585396
 30
0.0
 10
48.501903
 20
50.655903
 30
0.0
  0
SPLINE
  5
143
100
AcDbEntity
  8
Cut
 62
7
100
AcDbSpline
 70
8
 71
3
 72
8
 73
4
 74
0
 40
0
 40
0
 40
0
 40
0
 40
1
 40
1
 40
1
 40
1
 10
48.501903
 20
50.655903
 30
0.0
 10
49.431396
 20
49.726409
 30
0.0
 10
50.829279
 20
49.448353
 30
0.0
 10
52.043721
 20
49.951392
 30
0.0
  0
SPLINE
  5
144
100
AcDbEntity
  8
Cut
 62
7
100
AcDbSpline
 70
8
 71
3
 72
8
 73
4
 74
0
 40
0
 40
0
 40
0
 40
0
 40
1
 40
1
 40
1
 40
1
 10
52.043721
 20
49.951392
 30
0.0
 10
53.258163
 20
50.454430
 30
0.0
 10
54.050000
 20
51.639498
 30
0.0
 10
54.050000
 20
52.954000
 30
0.0
  0
SPLINE
  5
145
100
AcDbEntity
  8
Cut
 62
7
100
AcDbSpline
 70
8
 71
3
 72
8
 73
4
 74
0
 40
0
 40
0
 40
0
 40
0
 40
1
 40
1
 40
1
 40
1
 10
54.050000
 20
52.954000
 30
0.0
 10
54.050000
 20
53.815954
 30
0.0
 10
53.707590
 20
54.642604
 30
0.0
 10
53.098097
 20
55.252097
 30
0.0
  0
SPLINE
  5
146
100
AcDbEntity
  8
Cut
 62
7
100
AcDbSpline
 70
8
 71
3
 72
8
 73
4
 74
0
 40
0
 40
0
 40
0
 40
0
 40
1
 40
1
 40
1
 40
1
 10
53.098097
 20
55.252097
 30
0.0
 10
52.488604
 20
55.861590
 30
0.0
 10
51.661954
 20
56.204000
 30
0.0
 10
50.800000
 20
56.204000
 30
0.0
  0
LWPOLYLINE
  5
147
100
AcDbEntity
  8
Cut
 62
7
100
AcDbPolyline
 90
1
 70
1
 10
10.160000
 20
23.394000
 30
0.0
  0
SPLINE
  5
148
100
AcDbEntity
  8
Cut
 62
7
100
AcDbSpline
 70
8
 71
3
 72
8
 73
4
 74
0
 40
0
 40
0
 40
0
 40
0
 40
1
 40
1
 40
1
 40
1
 10
38.100000
 20
91.764000
 30
0.0
 10
36.785498
 20
91.764000
 30
0.0
 10
35.600430
 20
90.972163
 30
0.0
 10
35.097392
 20
89.757721
 30
0.0
  0
SPLINE
  5
149
100
AcDbEntity
  8
Cut
 62
7
100
AcDbSpline
 70
8
 71
3
 72
8
 73
4
 74
0
 40
0
 40
0
 40
0
 40
0
 40
1
 40
1
 40
1
 40
1
 10
35.097392
 20
89.757721
 30
0.0
 10
34.594353
 20
88.543279
 30
0.0
 10
34.872409
 20
87.145396
 30
0.0
 10
35.801903
 20
86.215903
 30
0.0
  0
SPLINE
  5
14a
100
AcDbEntity
  8
Cut
 62
7
100
AcDbSpline
 70
8
 71
3
 72
8
 73
4
 74
0
 40
0
 40
0
 40
0
 40
0
 40
1
 40
1
 40
1
 40
1
 10
35.801903
 20
86.215903
 30
0.0
 10
36.731396
 20
85.286409
 30
0.0
 10
38.129279
 20
85.008353
 30
0.0
 10
39.343721
 20
85.511392
 30
0.0
  0
SPLINE
  5
14b
100
AcDbEntity
  8
Cut
 62
7
100
AcDbSpline
 70
8
 71
3
 72
8
 73
4
 74
0
 40
0
 40
0
 40
0
 40
0
 40
1
 40
1
 40
1
 40
1
 10
39.343721
 20
85.511392
 30
0.0
 10
40.558163
 20
86.014430
 30
0.0
 10
41.350000
 20
87.199498
 30
0.0
 10
41.350000
 20
88.514000
 30
0.0
  0
SPLINE
  5
14c
100
AcDbEntity
  8
Cut
 62
7
100
AcDbSpline
 70
8
 71
3
 72
8
 73
4
 74
0
 40
0
 40
0
 40
0
 40
0
 40
1
 40
1
 40
1
 40
1
 10
41.350000
 20
88.514000
 30
0.0
 10
41.350000
 20
89.375954
 30
0.0
 10
41.007590
 20
90.202604
 30
0.0
 10
40.398097
 20
90.812097
 30
0.0
  0
SPLINE
  5
14d
100
AcDbEntity
  8
Cut
 62
7
100
AcDbSpline
 70
8
 71
3
 72
8
 73
4
 74
0
 40
0
 40
0
 40
0
 40
0
 40
1
 40
1
 40
1
 40
1
 10
40.398097
 20
90.812097
 30
0.0
 10
39.788604
 20
91.421590
 30
0.0
 10
38.961954
 20
91.764000
 30
0.0
 10
38.100000
 20
91.764000
 30
0.0
  0
LWPOLYLINE
  5
14e
100
AcDbEntity
  8
Cut
 62
7
100
AcDbPolyline
 90
1
 70
1
 10
50.800000
 20
56.204000
 30
0.0
  0
SPLINE
  5
14f
100
AcDbEntity
  8
Cut
 62
7
100
AcDbSpline
 70
8
 71
3
 72
8
 73
4
 74
0
 40
0
 40
0
 40
0
 40
0
 40
1
 40
1
 40
1
 40
1
 10
22.860000
 20
68.904000
 30
0.0
 10
21.545498
 20
68.904000
 30
0.0
 10
20.360430
 20
68.112163
 30
0.0
 10
19.857392
 20
66.897721
 30
0.0
  0
SPLINE
  5
150
100
AcDbEntity
  8
Cut
 62
7
100
AcDbSpline
 70
8
 71
3
 72
8
 73
4
 74
0
 40
0
 40
0
 40
0
 40
0
 40
1
 40
1
 40
1
 40
1
 10
19.857392
 20
66.897721
 30
0.0
 10
19.354353
 20
65.683279
 30
0.0
 10
19.632409
 20
64.285396
 30
0.0
 10
20.561903
 20
63.355903
 30
0.0
  0
SPLINE
  5
151
100
AcDbEntity
  8
Cut
 62
7
100
AcDbSpline
 70
8
 71
3
 72
8
 73
4
 74
0
 40
0
 40
0
 40
0
 40
0
 40
1
 40
1
 40
1
 40
1
 10
20.561903
 20
63.355903
 30
0.0
 10
21.491396
 20
62.426409
 30
0.0
 10
22.889279
 20
62.148353
 30
0.0
 10
24.103721
 20
62.651392
 30
0.0
  0
SPLINE
  5
152
100
AcDbEntity
  8
Cut
 62
7
100
AcDbSpline
 70
8
 71
3
 72
8
 73
4
 74
0
 40
0
 40
0
 40
0
 40
0
 40
1
 40
1
 40
1
 40
1
 10
24.103721
 20
62.651392
 30
0.0
 10
25.318163
 20
63.154430
 30
0.0
 10
26.110000
 20
64.339498
 30
0.0
 10
26.110000
 20
65.654000
 30
0.0
  0
SPLINE
  5
153
100
AcDbEntity
  8
Cut
 62
7
100
AcDbSpline
 70
8
 71
3
 72
8
 73
4
 74
0
 40
0
 40
0
 40
0
 40
0
 40
1
 40
1
 40
1
 40
1
 10
26.110000
 20
65.654000
 30
0.0
 10
26.110000
 20
66.515954
 30
0.0
 10
25.767590
 20
67.342604
 30
0.0
 10
25.158097
 20
67.952097
 30
0.0
  0
SPLINE
  5
154
100
AcDbEntity
  8
Cut
 62
7
100
AcDbSpline
 70
8
 71
3
 72
8
 73
4
 74
0
 40
0
 40
0
 40
0
 40
0
 40
1
 40
1
 40
1
 40
1
 10
25.158097
 20
67.952097
 30
0.0
 10
24.548604
 20
68.561590
 30
0.0
 10
23.721954
 20
68.904000
 30
0.0
 10
22.860000
 20
68.904000
 30
0.0
  0
LWPOLYLINE
  5
155
100
AcDbEntity
  8
Cut
 62
7
100
AcDbPolyline
 90
1
 70
1
 10
38.100000
 20
91.764000
 30
0.0
  0
SPLINE
  5
156
100
AcDbEntity
  8
Cut
 62
7
100
AcDbSpline
 70
8
 71
3
 72
8
 73
4
 74
0
 40
0
 40
0
 40
0
 40
0
 40
1
 40
1
 40
1
 40
1
 10
10.160000
 20
68.904000
 30
0.0
 10
8.845498
 20
68.904000
 30
0.0
 10
7.660430
 20
68.112163
 30
0.0
 10
7.157392
 20
66.897721
 30
0.0
  0
SPLINE
  5
157
100
AcDbEntity
  8
Cut
 62
7
100
AcDbSpline
 70
8
 71
3
 72
8
 73
4
 74
0
 40
0
 40
0
 40
0
 40
0
 40
1
 40
1
 40
1
 40
1
 10
7.157392
 20
66.897721
 30
0.0
 10
6.654353
 20
65.683279
 30
0.0
 10
6.932409
 20
64.285396
 30
0.0
 10
7.861903
 20
63.355903
 30
0.0
  0
SPLINE
  5
158
100
AcDbEntity
  8
Cut
 62
7
100
AcDbSpline
 70
8
 71
3
 72
8
 73
4
 74
0
 40
0
 40
0
 40
0
 40
0
 40
1
 40
1
 40
1
 40
1
 10
7.861903
 20
63.355903
 30
0.0
 10
8.791396
 20
62.426409
 30
0.0
 10
10.189279
 20
62.148353
 30
0.0
 10
11.403721
 20
62.651392
 30
0.0
  0
SPLINE
  5
159
100
AcDbEntity
  8
Cut
 62
7
100
AcDbSpline
 70
8
 71
3
 72
8
 73
4
 74
0
 40
0
 40
0
 40
0
 40
0
 40
1
 40
1
 40
1
 40
1
 10
11.403721
 20
62.651392
 30
0.0
 10
12.618163
 20
63.154430
 30
0.0
 10
13.410000
 20
64.339498
 30
0.0
 10
13.410000
 20
65.654000
 30
0.0
  0
SPLINE
  5
15a
100
AcDbEntity
  8
Cut
 62
7
100
AcDbSpline
 70
8
 71
3
 72
8
 73
4
 74
0
 40
0
 40
0
 40
0
 40
0
 40
1
 40
1
 40
1
 40
1
 10
13.410000
 20
65.654000
 30
0.0
 10
13.410000
 20
66.515954
 30
0.0
 10
13.067590
 20
67.342604
 30
0.0
 10
12.458097
 20
67.952097
 30
0.0
  0
SPLINE
  5
15b
100
AcDbEntity
  8
Cut
 62
7
100
AcDbSpline
 70
8
 71
3
 72
8
 73
4
 74
0
 40
0
 40
0
 40
0
 40
0
 40
1
 40
1
 40
1
 40
1
 10
12.458097
 20
67.952097
 30
0.0
 10
11.848604
 20
68.561590
 30
0.0
 10
11.021954
 20
68.904000
 30
0.0
 10
10.160000
 20
68.904000
 30
0.0
  0
LWPOLYLINE
  5
15c
100
AcDbEntity
  8
Cut
 62
7
100
AcDbPolyline
 90
1
 70
1
 10
22.860000
 20
68.904000
 30
0.0
  0
SPLINE
  5
15d
100
AcDbEntity
  8
Cut
 62
7
100
AcDbSpline
 70
8
 71
3
 72
8
 73
4
 74
0
 40
0
 40
0
 40
0
 40
0
 40
1
 40
1
 40
1
 40
1
 10
10.160000
 20
91.764000
 30
0.0
 10
8.845498
 20
91.764000
 30
0.0
 10
7.660430
 20
90.972163
 30
0.0
 10
7.157392
 20
89.757721
 30
0.0
  0
SPLINE
  5
15e
100
AcDbEntity
  8
Cut
 62
7
100
AcDbSpline
 70
8
 71
3
 72
8
 73
4
 74
0
 40
0
 40
0
 40
0
 40
0
 40
1
 40
1
 40
1
 40
1
 10
7.157392
 20
89.757721
 30
0.0
 10
6.654353
 20
88.543279
 30
0.0
 10
6.932409
 20
87.145396
 30
0.0
 10
7.861903
 20
86.215903
 30
0.0
  0
SPLINE
  5
15f
100
AcDbEntity
  8
Cut
 62
7
100
AcDbSpline
 70
8
 71
3
 72
8
 73
4
 74
0
 40
0
 40
0
 40
0
 40
0
 40
1
 40
1
 40
1
 40
1
 10
7.861903
 20
86.215903
 30
0.0
 10
8.791396
 20
85.286409
 30
0.0
 10
10.189279
 20
85.008353
 30
0.0
 10
11.403721
 20
85.511392
 30
0.0
  0
SPLINE
  5
160
100
AcDbEntity
  8
Cut
 62
7
100
AcDbSpline
 70
8
 71
3
 72
8
 73
4
 74
0
 40
0
 40
0
 40
0
 40
0
 40
1
 40
1
 40
1
 40
1
 10
11.403721
 20
85.511392
 30
0.0
 10
12.618163
 20
86.014430
 30
0.0
 10
13.410000
 20
87.199498
 30
0.0
 10
13.410000
 20
88.514000
 30
0.0
  0
SPLINE
  5
161
100
AcDbEntity
  8
Cut
 62
7
100
AcDbSpline
 70
8
 71
3
 72
8
 73
4
 74
0
 40
0
 40
0
 40
0
 40
0
 40
1
 40
1
 40
1
 40
1
 10
13.410000
 20
88.514000
 30
0.0
 10
13.410000
 20
89.375954
 30
0.0
 10
13.067590
 20
90.202604
 30
0.0
 10
12.458097
 20
90.812097
 30
0.0
  0
SPLINE
  5
162
100
AcDbEntity
  8
Cut
 62
7
100
AcDbSpline
 70
8
 71
3
 72
8
 73
4
 74
0
 40
0
 40
0
 40
0
 40
0
 40
1
 40
1
 40
1
 40
1
 10
12.458097
 20
90.812097
 30
0.0
 10
11.848604
 20
91.421590
 30
0.0
 10
11.021954
 20
91.764000
 30
0.0
 10
10.160000
 20
91.764000
 30
0.0
  0
LWPOLYLINE
  5
163
100
AcDbEntity
  8
Cut
 62
7
100
AcDbPolyline
 90
1
 70
1
 10
10.160000
 20
68.904000
 30
0.0
  0
SPLINE
  5
164
100
AcDbEntity
  8
Cut
 62
7
100
AcDbSpline
 70
8
 71
3
 72
8
 73
4
 74
0
 40
0
 40
0
 40
0
 40
0
 40
1
 40
1
 40
1
 40
1
 10
50.794992
 20
23.394000
 30
0.0
 10
49.480490
 20
23.394000
 30
0.0
 10
48.295422
 20
22.602163
 30
0.0
 10
47.792384
 20
21.387721
 30
0.0
  0
SPLINE
  5
165
100
AcDbEntity
  8
Cut
 62
7
100
AcDbSpline
 70
8
 71
3
 72
8
 73
4
 74
0
 40
0
 40
0
 40
0
 40
0
 40
1
 40
1
 40
1
 40
1
 10
47.792384
 20
21.387721
 30
0.0
 10
47.289345
 20
20.173279
 30
0.0
 10
47.567401
 20
18.775396
 30
0.0
 10
48.496895
 20
17.845903
 30
0.0
  0
SPLINE
  5
166
100
AcDbEntity
  8
Cut
 62
7
100
AcDbSpline
 70
8
 71
3
 72
8
 73
4
 74
0
 40
0
 40
0
 40
0
 40
0
 40
1
 40
1
 40
1
 40
1
 10
48.496895
 20
17.845903
 30
0.0
 10
49.426388
 20
16.916409
 30
0.0
 10
50.824271
 20
16.638353
 30
0.0
 10
52.038713
 20
17.141392
 30
0.0
  0
SPLINE
  5
167
100
AcDbEntity
  8
Cut
 62
7
100
AcDbSpline
 70
8
 71
3
 72
8
 73
4
 74
0
 40
0
 40
0
 40
0
 40
0
 40
1
 40
1
 40
1
 40
1
 10
52.038713
 20
17.141392
 30
0.0
 10
53.253155
 20
17.644430
 30
0.0
 10
54.044992
 20
18.829498
 30
0.0
 10
54.044992
 20
20.144000
 30
0.0
  0
SPLINE
  5
168
100
AcDbEntity
  8
Cut
 62
7
100
AcDbSpline
 70
8
 71
3
 72
8
 73
4
 74
0
 40
0
 40
0
 40
0
 40
0
 40
1
 40
1
 40
1
 40
1
 10
54.044992
 20
20.144000
 30
0.0
 10
54.044992
 20
21.005954
 30
0.0
 10
53.702582
 20
21.832604
 30
0.0
 10
53.093089
 20
22.442097
 30
0.0
  0
SPLINE
  5
169
100
AcDbEntity
  8
Cut
 62
7
100
AcDbSpline
 70
8
 71
3
 72
8
 73
4
 74
0
 40
0
 40
0
 40
0
 40
0
 40
1
 40
1
 40
1
 40
1
 10
53.093089
 20
22.442097
 30
0.0
 10
52.483596
 20
23.051590
 30
0.0
 10
51.656946
 20
23.394000
 30
0.0
 10
50.794992
 20
23.394000
 30
0.0
  0
LWPOLYLINE
  5
16a
100
AcDbEntity
  8
Cut
 62
7
100
AcDbPolyline
 90
1
 70
1
 10
10.160000
 20
91.764000
 30
0.0
  0
SPLINE
  5
16b
100
AcDbEntity
  8
Cut
 62
7
100
AcDbSpline
 70
8
 71
3
 72
8
 73
4
 74
0
 40
0
 40
0
 40
0
 40
0
 40
1
 40
1
 40
1
 40
1
 10
10.160000
 20
56.204000
 30
0.0
 10
8.845498
 20
56.204000
 30
0.0
 10
7.660430
 20
55.412163
 30
0.0
 10
7.157392
 20
54.197721
 30
0.0
  0
SPLINE
  5
16c
100
AcDbEntity
  8
Cut
 62
7
100
AcDbSpline
 70
8
 71
3
 72
8
 73
4
 74
0
 40
0
 40
0
 40
0
 40
0
 40
1
 40
1
 40
1
 40
1
 10
7.157392
 20
54.197721
 30
0.0
 10
6.654353
 20
52.983279
 30
0.0
 10
6.932409
 20
51.585396
 30
0.0
 10
7.861903
 20
50.655903
 30
0.0
  0
SPLINE
  5
16d
100
AcDbEntity
  8
Cut
 62
7
100
AcDbSpline
 70
8
 71
3
 72
8
 73
4
 74
0
 40
0
 40
0
 40
0
 40
0
 40
1
 40
1
 40
1
 40
1
 10
7.861903
 20
50.655903
 30
0.0
 10
8.791396
 20
49.726409
 30
0.0
 10
10.189279
 20
49.448353
 30
0.0
 10
11.403721
 20
49.951392
 30
0.0
  0
SPLINE
  5
16e
100
AcDbEntity
  8
Cut
 62
7
100
AcDbSpline
 70
8
 71
3
 72
8
 73
4
 74
0
 40
0
 40
0
 40
0
 40
0
 40
1
 40
1
 40
1
 40
1
 10
11.403721
 20
49.951392
 30
0.0
 10
12.618163
 20
50.454430
 30
0.0
 10
13.410000
 20
51.639498
 30
0.0
 10
13.410000
 20
52.954000
 30
0.0
  0
SPLINE
  5
16f
100
AcDbEntity
  8
Cut
 62
7
100
AcDbSpline
 70
8
 71
3
 72
8
 73
4
 74
0
 40
0
 40
0
 40
0
 40
0
 40
1
 40
1
 40
1
 40
1
 10
13.410000
 20
52.954000
 30
0.0
 10
13.410000
 20
53.815954
 30
0.0
 10
13.067590
 20
54.642604
 30
0.0
 10
12.458097
 20
55.252097
 30
0.0
  0
SPLINE
  5
170
100
AcDbEntity
  8
Cut
 62
7
100
AcDbSpline
 70
8
 71
3
 72
8
 73
4
 74
0
 40
0
 40
0
 40
0
 40
0
 40
1
 40
1
 40
1
 40
1
 10
12.458097
 20
55.252097
 30
0.0
 10
11.848604
 20
55.861590
 30
0.0
 10
11.021954
 20
56.204000
 30
0.0
 10
10.160000
 20
56.204000
 30
0.0
  0
LWPOLYLINE
  5
171
100
AcDbEntity
  8
Cut
 62
7
100
AcDbPolyline
 90
1
 70
1
 10
50.794992
 20
23.394000
 30
0.0
  0
SPLINE
  5
172
100
AcDbEntity
  8
Cut
 62
7
100
AcDbSpline
 70
8
 71
3
 72
8
 73
4
 74
0
 40
0
 40
0
 40
0
 40
0
 40
1
 40
1
 40
1
 40
1
 10
22.860000
 20
56.204000
 30
0.0
 10
21.545498
 20
56.204000
 30
0.0
 10
20.360430
 20
55.412163
 30
0.0
 10
19.857392
 20
54.197721
 30
0.0
  0
SPLINE
  5
173
100
AcDbEntity
  8
Cut
 62
7
100
AcDbSpline
 70
8
 71
3
 72
8
 73
4
 74
0
 40
0
 40
0
 40
0
 40
0
 40
1
 40
1
 40
1
 40
1
 10
19.857392
 20
54.197721
 30
0.0
 10
19.354353
 20
52.983279
 30
0.0
 10
19.632409
 20
51.585396
 30
0.0
 10
20.561903
 20
50.655903
 30
0.0
  0
SPLINE
  5
174
100
AcDbEntity
  8
Cut
 62
7
100
AcDbSpline
 70
8
 71
3
 72
8
 73
4
 74
0
 40
0
 40
0
 40
0
 40
0
 40
1
 40
1
 40
1
 40
1
 10
20.561903
 20
50.655903
 30
0.0
 10
21.491396
 20
49.726409
 30
0.0
 10
22.889279
 20
49.448353
 30
0.0
 10
24.103721
 20
49.951392
 30
0.0
  0
SPLINE
  5
175
100
AcDbEntity
  8
Cut
 62
7
100
AcDbSpline
 70
8
 71
3
 72
8
 73
4
 74
0
 40
0
 40
0
 40
0
 40
0
 40
1
 40
1
 40
1
 40
1
 10
24.103721
 20
49.951392
 30
0.0
 10
25.318163
 20
50.454430
 30
0.0
 10
26.110000
 20
51.639498
 30
0.0
 10
26.110000
 20
52.954000
 30
0.0
  0
SPLINE
  5
176
100
AcDbEntity
  8
Cut
 62
7
100
AcDbSpline
 70
8
 71
3
 72
8
 73
4
 74
0
 40
0
 40
0
 40
0
 40
0
 40
1
 40
1
 40
1
 40
1
 10
26.110000
 20
52.954000
 30
0.0
 10
26.110000
 20
53.815954
 30
0.0
 10
25.767590
 20
54.642604
 30
0.0
 10
25.158097
 20
55.252097
 30
0.0
  0
SPLINE
  5
177
100
AcDbEntity
  8
Cut
 62
7
100
AcDbSpline
 70
8
 71
3
 72
8
 73
4
 74
0
 40
0
 40
0
 40
0
 40
0
 40
1
 40
1
 40
1
 40
1
 10
25.158097
 20
55.252097
 30
0.0
 10
24.548604
 20
55.861590
 30
0.0
 10
23.721954
 20
56.204000
 30
0.0
 10
22.860000
 20
56.204000
 30
0.0
  0
LWPOLYLINE
  5
178
100
AcDbEntity
  8
Cut
 62
7
100
AcDbPolyline
 90
1
 70
1
 10
10.160000
 20
56.204000
 30
0.0
  0
SPLINE
  5
179
100
AcDbEntity
  8
Cut
 62
7
100
AcDbSpline
 70
8
 71
3
 72
8
 73
4
 74
0
 40
0
 40
0
 40
0
 40
0
 40
1
 40
1
 40
1
 40
1
 10
22.860000
 20
77.152000
 30
0.0
 10
22.140866
 20
77.152000
 30
0.0
 10
21.492543
 20
76.718804
 30
0.0
 10
21.217342
 20
76.054411
 30
0.0
  0
SPLINE
  5
17a
100
AcDbEntity
  8
Cut
 62
7
100
AcDbSpline
 70
8
 71
3
 72
8
 73
4
 74
0
 40
0
 40
0
 40
0
 40
0
 40
1
 40
1
 40
1
 40
1
 10
21.217342
 20
76.054411
 30
0.0
 10
20.942142
 20
75.390018
 30
0.0
 10
21.094260
 20
74.625269
 30
0.0
 10
21.602764
 20
74.116764
 30
0.0
  0
SPLINE
  5
17b
100
AcDbEntity
  8
Cut
 62
7
100
AcDbSpline
 70
8
 71
3
 72
8
 73
4
 74
0
 40
0
 40
0
 40
0
 40
0
 40
1
 40
1
 40
1
 40
1
 10
21.602764
 20
74.116764
 30
0.0
 10
22.111269
 20
73.608260
 30
0.0
 10
22.876018
 20
73.456142
 30
0.0
 10
23.540411
 20
73.731342
 30
0.0
  0
SPLINE
  5
17c
100
AcDbEntity
  8
Cut
 62
7
100
AcDbSpline
 70
8
 71
3
 72
8
 73
4
 74
0
 40
0
 40
0
 40
0
 40
0
 40
1
 40
1
 40
1
 40
1
 10
23.540411
 20
73.731342
 30
0.0
 10
24.204804
 20
74.006543
 30
0.0
 10
24.638000
 20
74.654866
 30
0.0
 10
24.638000
 20
75.374000
 30
0.0
  0
SPLINE
  5
17d
100
AcDbEntity
  8
Cut
 62
7
100
AcDbSpline
 70
8
 71
3
 72
8
 73
4
 74
0
 40
0
 40
0
 40
0
 40
0
 40
1
 40
1
 40
1
 40
1
 10
24.638000
 20
75.374000
 30
0.0
 10
24.638000
 20
75.845555
 30
0.0
 10
24.450676
 20
76.297796
 30
0.0
 10
24.117236
 20
76.631236
 30
0.0
  0
SPLINE
  5
17e
100
AcDbEntity
  8
Cut
 62
7
100
AcDbSpline
 70
8
 71
3
 72
8
 73
4
 74
0
 40
0
 40
0
 40
0
 40
0
 40
1
 40
1
 40
1
 40
1
 10
24.117236
 20
76.631236
 30
0.0
 10
23.783796
 20
76.964676
 30
0.0
 10
23.331555
 20
77.152000
 30
0.0
 10
22.860000
 20
77.152000
 30
0.0
  0
LWPOLYLINE
  5
17f
100
AcDbEntity
  8
Cut
 62
7
100
AcDbPolyline
 90
1
 70
1
 10
22.860000
 20
56.204000
 30
0.0
  0
SPLINE
  5
180
100
AcDbEntity
  8
Cut
 62
7
100
AcDbSpline
 70
8
 71
3
 72
8
 73
4
 74
0
 40
0
 40
0
 40
0
 40
0
 40
1
 40
1
 40
1
 40
1
 10
22.860000
 20
91.764000
 30
0.0
 10
21.545498
 20
91.764000
 30
0.0
 10
20.360430
 20
90.972163
 30
0.0
 10
19.857392
 20
89.757721
 30
0.0
  0
SPLINE
  5
181
100
AcDbEntity
  8
Cut
 62
7
100
AcDbSpline
 70
8
 71
3
 72
8
 73
4
 74
0
 40
0
 40
0
 40
0
 40
0
 40
1
 40
1
 40
1
 40
1
 10
19.857392
 20
89.757721
 30
0.0
 10
19.354353
 20
88.543279
 30
0.0
 10
19.632409
 20
87.145396
 30
0.0
 10
20.561903
 20
86.215903
 30
0.0
  0
SPLINE
  5
182
100
AcDbEntity
  8
Cut
 62
7
100
AcDbSpline
 70
8
 71
3
 72
8
 73
4
 74
0
 40
0
 40
0
 40
0
 40
0
 40
1
 40
1
 40
1
 40
1
 10
20.561903
 20
86.215903
 30
0.0
 10
21.491396
 20
85.286409
 30
0.0
 10
22.889279
 20
85.008353
 30
0.0
 10
24.103721
 20
85.511392
 30
0.0
  0
SPLINE
  5
183
100
AcDbEntity
  8
Cut
 62
7
100
AcDbSpline
 70
8
 71
3
 72
8
 73
4
 74
0
 40
0
 40
0
 40
0
 40
0
 40
1
 40
1
 40
1
 40
1
 10
24.103721
 20
85.511392
 30
0.0
 10
25.318163
 20
86.014430
 30
0.0
 10
26.110000
 20
87.199498
 30
0.0
 10
26.110000
 20
88.514000
 30
0.0
  0
SPLINE
  5
184
100
AcDbEntity
  8
Cut
 62
7
100
AcDbSpline
 70
8
 71
3
 72
8
 73
4
 74
0
 40
0
 40
0
 40
0
 40
0
 40
1
 40
1
 40
1
 40
1
 10
26.110000
 20
88.514000
 30
0.0
 10
26.110000
 20
89.375954
 30
0.0
 10
25.767590
 20
90.202604
 30
0.0
 10
25.158097
 20
90.812097
 30
0.0
  0
SPLINE
  5
185
100
AcDbEntity
  8
Cut
 62
7
100
AcDbSpline
 70
8
 71
3
 72
8
 73
4
 74
0
 40
0
 40
0
 40
0
 40
0
 40
1
 40
1
 40
1
 40
1
 10
25.158097
 20
90.812097
 30
0.0
 10
24.548604
 20
91.421590
 30
0.0
 10
23.721954
 20
91.764000
 30
0.0
 10
22.860000
 20
91.764000
 30
0.0
  0
LWPOLYLINE
  5
186
100
AcDbEntity
  8
Cut
 62
7
100
AcDbPolyline
 90
1
 70
1
 10
22.860000
 20
77.152000
 30
0.0
  0
SPLINE
  5
187
100
AcDbEntity
  8
Cut
 62
7
100
AcDbSpline
 70
8
 71
3
 72
8
 73
4
 74
0
 40
0
 40
0
 40
0
 40
0
 40
1
 40
1
 40
1
 40
1
 10
38.100000
 20
68.904000
 30
0.0
 10
36.785498
 20
68.904000
 30
0.0
 10
35.600430
 20
68.112163
 30
0.0
 10
35.097392
 20
66.897721
 30
0.0
  0
SPLINE
  5
188
100
AcDbEntity
  8
Cut
 62
7
100
AcDbSpline
 70
8
 71
3
 72
8
 73
4
 74
0
 40
0
 40
0
 40
0
 40
0
 40
1
 40
1
 40
1
 40
1
 10
35.097392
 20
66.897721
 30
0.0
 10
34.594353
 20
65.683279
 30
0.0
 10
34.872409
 20
64.285396
 30
0.0
 10
35.801903
 20
63.355903
 30
0.0
  0
SPLINE
  5
189
100
AcDbEntity
  8
Cut
 62
7
100
AcDbSpline
 70
8
 71
3
 72
8
 73
4
 74
0
 40
0
 40
0
 40
0
 40
0
 40
1
 40
1
 40
1
 40
1
 10
35.801903
 20
63.355903
 30
0.0
 10
36.731396
 20
62.426409
 30
0.0
 10
38.129279
 20
62.148353
 30
0.0
 10
39.343721
 20
62.651392
 30
0.0
  0
SPLINE
  5
18a
100
AcDbEntity
  8
Cut
 62
7
100
AcDbSpline
 70
8
 71
3
 72
8
 73
4
 74
0
 40
0
 40
0
 40
0
 40
0
 40
1
 40
1
 40
1
 40
1
 10
39.343721
 20
62.651392
 30
0.0
 10
40.558163
 20
63.154430
 30
0.0
 10
41.350000
 20
64.339498
 30
0.0
 10
41.350000
 20
65.654000
 30
0.0
  0
SPLINE
  5
18b
100
AcDbEntity
  8
Cut
 62
7
100
AcDbSpline
 70
8
 71
3
 72
8
 73
4
 74
0
 40
0
 40
0
 40
0
 40
0
 40
1
 40
1
 40
1
 40
1
 10
41.350000
 20
65.654000
 30
0.0
 10
41.350000
 20
66.515954
 30
0.0
 10
41.007590
 20
67.342604
 30
0.0
 10
40.398097
 20
67.952097
 30
0.0
  0
SPLINE
  5
18c
100
AcDbEntity
  8
Cut
 62
7
100
AcDbSpline
 70
8
 71
3
 72
8
 73
4
 74
0
 40
0
 40
0
 40
0
 40
0
 40
1
 40
1
 40
1
 40
1
 10
40.398097
 20
67.952097
 30
0.0
 10
39.788604
 20
68.561590
 30
0.0
 10
38.961954
 20
68.904000
 30
0.0
 10
38.100000
 20
68.904000
 30
0.0
  0
LWPOLYLINE
  5
18d
100
AcDbEntity
  8
Cut
 62
7
100
AcDbPolyline
 90
1
 70
1
 10
22.860000
 20
91.764000
 30
0.0
  0
SPLINE
  5
18e
100
AcDbEntity
  8
Cut
 62
7
100
AcDbSpline
 70
8
 71
3
 72
8
 73
4
 74
0
 40
0
 40
0
 40
0
 40
0
 40
1
 40
1
 40
1
 40
1
 10
38.100000
 20
77.152000
 30
0.0
 10
37.380866
 20
77.152000
 30
0.0
 10
36.732543
 20
76.718804
 30
0.0
 10
36.457342
 20
76.054411
 30
0.0
  0
SPLINE
  5
18f
100
AcDbEntity
  8
Cut
 62
7
100
AcDbSpline
 70
8
 71
3
 72
8
 73
4
 74
0
 40
0
 40
0
 40
0
 40
0
 40
1
 40
1
 40
1
 40
1
 10
36.457342
 20
76.054411
 30
0.0
 10
36.182142
 20
75.390018
 30
0.0
 10
36.334260
 20
74.625269
 30
0.0
 10
36.842764
 20
74.116764
 30
0.0
  0
SPLINE
  5
190
100
AcDbEntity
  8
Cut
 62
7
100
AcDbSpline
 70
8
 71
3
 72
8
 73
4
 74
0
 40
0
 40
0
 40
0
 40
0
 40
1
 40
1
 40
1
 40
1
 10
36.842764
 20
74.116764
 30
0.0
 10
37.351269
 20
73.608260
 30
0.0
 10
38.116018
 20
73.456142
 30
0.0
 10
38.780411
 20
73.731342
 30
0.0
  0
SPLINE
  5
191
100
AcDbEntity
  8
Cut
 62
7
100
AcDbSpline
 70
8
 71
3
 72
8
 73
4
 74
0
 40
0
 40
0
 40
0
 40
0
 40
1
 40
1
 40
1
 40
1
 10
38.780411
 20
73.731342
 30
0.0
 10
39.444804
 20
74.006543
 30
0.0
 10
39.878000
 20
74.654866
 30
0.0
 10
39.878000
 20
75.374000
 30
0.0
  0
SPLINE
  5
192
100
AcDbEntity
  8
Cut
 62
7
100
AcDbSpline
 70
8
 71
3
 72
8
 73
4
 74
0
 40
0
 40
0
 40
0
 40
0
 40
1
 40
1
 40
1
 40
1
 10
39.878000
 20
75.374000
 30
0.0
 10
39.878000
 20
75.845555
 30
0.0
 10
39.690676
 20
76.297796
 30
0.0
 10
39.357236
 20
76.631236
 30
0.0
  0
SPLINE
  5
193
100
AcDbEntity
  8
Cut
 62
7
100
AcDbSpline
 70
8
 71
3
 72
8
 73
4
 74
0
 40
0
 40
0
 40
0
 40
0
 40
1
 40
1
 40
1
 40
1
 10
39.357236
 20
76.631236
 30
0.0
 10
39.023796
 20
76.964676
 30
0.0
 10
38.571555
 20
77.152000
 30
0.0
 10
38.100000
 20
77.152000
 30
0.0
  0
LWPOLYLINE
  5
194
100
AcDbEntity
  8
Cut
 62
7
100
AcDbPolyline
 90
1
 70
1
 10
38.100000
 20
68.904000
 30
0.0
  0
SPLINE
  5
195
100
AcDbEntity
  8
Cut
 62
7
100
AcDbSpline
 70
8
 71
3
 72
8
 73
4
 74
0
 40
0
 40
0
 40
0
 40
0
 40
1
 40
1
 40
1
 40
1
 10
38.100000
 20
110.172000
 30
0.0
 10
37.380866
 20
110.172000
 30
0.0
 10
36.732543
 20
109.738804
 30
0.0
 10
36.457342
 20
109.074411
 30
0.0
  0
SPLINE
  5
196
100
AcDbEntity
  8
Cut
 62
7
100
AcDbSpline
 70
8
 71
3
 72
8
 73
4
 74
0
 40
0
 40
0
 40
0
 40
0
 40
1
 40
1
 40
1
 40
1
 10
36.457342
 20
109.074411
 30
0.0
 10
36.182142
 20
108.410018
 30
0.0
 10
36.334260
 20
107.645269
 30
0.0
 10
36.842764
 20
107.136764
 30
0.0
  0
SPLINE
  5
197
100
AcDbEntity
  8
Cut
 62
7
100
AcDbSpline
 70
8
 71
3
 72
8
 73
4
 74
0
 40
0
 40
0
 40
0
 40
0
 40
1
 40
1
 40
1
 40
1
 10
36.842764
 20
107.136764
 30
0.0
 10
37.351269
 20
106.628260
 30
0.0
 10
38.116018
 20
106.476142
 30
0.0
 10
38.780411
 20
106.751342
 30
0.0
  0
SPLINE
  5
198
100
AcDbEntity
  8
Cut
 62
7
100
AcDbSpline
 70
8
 71
3
 72
8
 73
4
 74
0
 40
0
 40
0
 40
0
 40
0
 40
1
 40
1
 40
1
 40
1
 10
38.780411
 20
106.751342
 30
0.0
 10
39.444804
 20
107.026543
 30
0.0
 10
39.878000
 20
107.674866
 30
0.0
 10
39.878000
 20
108.394000
 30
0.0
  0
SPLINE
  5
199
100
AcDbEntity
  8
Cut
 62
7
100
AcDbSpline
 70
8
 71
3
 72
8
 73
4
 74
0
 40
0
 40
0
 40
0
 40
0
 40
1
 40
1
 40
1
 40
1
 10
39.878000
 20
108.394000
 30
0.0
 10
39.878000
 20
108.865555
 30
0.0
 10
39.690676
 20
109.317796
 30
0.0
 10
39.357236
 20
109.651236
 30
0.0
  0
SPLINE
  5
19a
100
AcDbEntity
  8
Cut
 62
7
100
AcDbSpline
 70
8
 71
3
 72
8
 73
4
 74
0
 40
0
 40
0
 40
0
 40
0
 40
1
 40
1
 40
1
 40
1
 10
39.357236
 20
109.651236
 30
0.0
 10
39.023796
 20
109.984676
 30
0.0
 10
38.571555
 20
110.172000
 30
0.0
 10
38.100000
 20
110.172000
 30
0.0
  0
LWPOLYLINE
  5
19b
100
AcDbEntity
  8
Cut
 62
7
100
AcDbPolyline
 90
1
 70
1
 10
38.100000
 20
77.152000
 30
0.0
  0
SPLINE
  5
19c
100
AcDbEntity
  8
Cut
 62
7
100
AcDbSpline
 70
8
 71
3
 72
8
 73
4
 74
0
 40
0
 40
0
 40
0
 40
0
 40
1
 40
1
 40
1
 40
1
 10
38.100000
 20
56.204000
 30
0.0
 10
36.785498
 20
56.204000
 30
0.0
 10
35.600430
 20
55.412163
 30
0.0
 10
35.097392
 20
54.197721
 30
0.0
  0
SPLINE
  5
19d
100
AcDbEntity
  8
Cut
 62
7
100
AcDbSpline
 70
8
 71
3
 72
8
 73
4
 74
0
 40
0
 40
0
 40
0
 40
0
 40
1
 40
1
 40
1
 40
1
 10
35.097392
 20
54.197721
 30
0.0
 10
34.594353
 20
52.983279
 30
0.0
 10
34.872409
 20
51.585396
 30
0.0
 10
35.801903
 20
50.655903
 30
0.0
  0
SPLINE
  5
19e
100
AcDbEntity
  8
Cut
 62
7
100
AcDbSpline
 70
8
 71
3
 72
8
 73
4
 74
0
 40
0
 40
0
 40
0
 40
0
 40
1
 40
1
 40
1
 40
1
 10
35.801903
 20
50.655903
 30
0.0
 10
36.731396
 20
49.726409
 30
0.0
 10
38.129279
 20
49.448353
 30
0.0
 10
39.343721
 20
49.951392
 30
0.0
  0
SPLINE
  5
19f
100
AcDbEntity
  8
Cut
 62
7
100
AcDbSpline
 70
8
 71
3
 72
8
 73
4
 74
0
 40
0
 40
0
 40
0
 40
0
 40
1
 40
1
 40
1
 40
1
 10
39.343721
 20
49.951392
 30
0.0
 10
40.558163
 20
50.454430
 30
0.0
 10
41.350000
 20
51.639498
 30
0.0
 10
41.350000
 20
52.954000
 30
0.0
  0
SPLINE
  5
1a0
100
AcDbEntity
  8
Cut
 62
7
100
AcDbSpline
 70
8
 71
3
 72
8
 73
4
 74
0
 40
0
 40
0
 40
0
 40
0
 40
1
 40
1
 40
1
 40
1
 10
41.350000
 20
52.954000
 30
0.0
 10
41.350000
 20
53.815954
 30
0.0
 10
41.007590
 20
54.642604
 30
0.0
 10
40.398097
 20
55.252097
 30
0.0
  0
SPLINE
  5
1a1
100
AcDbEntity
  8
Cut
 62
7
100
AcDbSpline
 70
8
 71
3
 72
8
 73
4
 74
0
 40
0
 40
0
 40
0
 40
0
 40
1
 40
1
 40
1
 40
1
 10
40.398097
 20
55.252097
 30
0.0
 10
39.788604
 20
55.861590
 30
0.0
 10
38.961954
 20
56.204000
 30
0.0
 10
38.100000
 20
56.204000
 30
0.0
  0
LWPOLYLINE
  5
1a2
100
AcDbEntity
  8
Cut
 62
7
100
AcDbPolyline
 90
1
 70
1
 10
38.100000
 20
110.172000
 30
0.0
  0
SPLINE
  5
1a3
100
AcDbEntity
  8
Cut
 62
7
100
AcDbSpline
 70
8
 71
3
 72
8
 73
4
 74
0
 40
0
 40
0
 40
0
 40
0
 40
1
 40
1
 40
1
 40
1
 10
22.854992
 20
23.394000
 30
0.0
 10
21.540490
 20
23.394000
 30
0.0
 10
20.355422
 20
22.602163
 30
0.0
 10
19.852384
 20
21.387721
 30
0.0
  0
SPLINE
  5
1a4
100
AcDbEntity
  8
Cut
 62
7
100
AcDbSpline
 70
8
 71
3
 72
8
 73
4
 74
0
 40
0
 40
0
 40
0
 40
0
 40
1
 40
1
 40
1
 40
1
 10
19.852384
 20
21.387721
 30
0.0
 10
19.349345
 20
20.173279
 30
0.0
 10
19.627401
 20
18.775396
 30
0.0
 10
20.556895
 20
17.845903
 30
0.0
  0
SPLINE
  5
1a5
100
AcDbEntity
  8
Cut
 62
7
100
AcDbSpline
 70
8
 71
3
 72
8
 73
4
 74
0
 40
0
 40
0
 40
0
 40
0
 40
1
 40
1
 40
1
 40
1
 10
20.556895
 20
17.845903
 30
0.0
 10
21.486388
 20
16.916409
 30
0.0
 10
22.884271
 20
16.638353
 30
0.0
 10
24.098713
 20
17.141392
 30
0.0
  0
SPLINE
  5
1a6
100
AcDbEntity
  8
Cut
 62
7
100
AcDbSpline
 70
8
 71
3
 72
8
 73
4
 74
0
 40
0
 40
0
 40
0
 40
0
 40
1
 40
1
 40
1
 40
1
 10
24.098713
 20
17.141392
 30
0.0
 10
25.313155
 20
17.644430
 30
0.0
 10
26.104992
 20
18.829498
 30
0.0
 10
26.104992
 20
20.144000
 30
0.0
  0
SPLINE
  5
1a7
100
AcDbEntity
  8
Cut
 62
7
100
AcDbSpline
 70
8
 71
3
 72
8
 73
4
 74
0
 40
0
 40
0
 40
0
 40
0
 40
1
 40
1
 40
1
 40
1
 10
26.104992
 20
20.144000
 30
0.0
 10
26.104992
 20
21.005954
 30
0.0
 10
25.762582
 20
21.832604
 30
0.0
 10
25.153089
 20
22.442097
 30
0.0
  0
SPLINE
  5
1a8
100
AcDbEntity
  8
Cut
 62
7
100
AcDbSpline
 70
8
 71
3
 72
8
 73
4
 74
0
 40
0
 40
0
 40
0
 40
0
 40
1
 40
1
 40
1
 40
1
 10
25.153089
 20
22.442097
 30
0.0
 10
24.543596
 20
23.051590
 30
0.0
 10
23.716946
 20
23.394000
 30
0.0
 10
22.854992
 20
23.394000
 30
0.0
  0
LWPOLYLINE
  5
1a9
100
AcDbEntity
  8
Cut
 62
7
100
AcDbPolyline
 90
1
 70
1
 10
38.100000
 20
56.204000
 30
0.0
  0
SPLINE
  5
1aa
100
AcDbEntity
  8
Cut
 62
7
100
AcDbSpline
 70
8
 71
3
 72
8
 73
4
 74
0
 40
0
 40
0
 40
0
 40
0
 40
1
 40
1
 40
1
 40
1
 10
30.480000
 20
112.084000
 30
0.0
 10
29.165498
 20
112.084000
 30
0.0
 10
27.980430
 20
111.292163
 30
0.0
 10
27.477392
 20
110.077721
 30
0.0
  0
SPLINE
  5
1ab
100
AcDbEntity
  8
Cut
 62
7
100
AcDbSpline
 70
8
 71
3
 72
8
 73
4
 74
0
 40
0
 40
0
 40
0
 40
0
 40
1
 40
1
 40
1
 40
1
 10
27.477392
 20
110.077721
 30
0.0
 10
26.974353
 20
108.863279
 30
0.0
 10
27.252409
 20
107.465396
 30
0.0
 10
28.181903
 20
106.535903
 30
0.0
  0
SPLINE
  5
1ac
100
AcDbEntity
  8
Cut
 62
7
100
AcDbSpline
 70
8
 71
3
 72
8
 73
4
 74
0
 40
0
 40
0
 40
0
 40
0
 40
1
 40
1
 40
1
 40
1
 10
28.181903
 20
106.535903
 30
0.0
 10
29.111396
 20
105.606409
 30
0.0
 10
30.509279
 20
105.328353
 30
0.0
 10
31.723721
 20
105.831392
 30
0.0
  0
SPLINE
  5
1ad
100
AcDbEntity
  8
Cut
 62
7
100
AcDbSpline
 70
8
 71
3
 72
8
 73
4
 74
0
 40
0
 40
0
 40
0
 40
0
 40
1
 40
1
 40
1
 40
1
 10
31.723721
 20
105.831392
 30
0.0
 10
32.938163
 20
106.334430
 30
0.0
 10
33.730000
 20
107.519498
 30
0.0
 10
33.730000
 20
108.834000
 30
0.0
  0
SPLINE
  5
1ae
100
AcDbEntity
  8
Cut
 62
7
100
AcDbSpline
 70
8
 71
3
 72
8
 73
4
 74
0
 40
0
 40
0
 40
0
 40
0
 40
1
 40
1
 40
1
 40
1
 10
33.730000
 20
108.834000
 30
0.0
 10
33.730000
 20
109.695954
 30
0.0
 10
33.387590
 20
110.522604
 30
0.0
 10
32.778097
 20
111.132097
 30
0.0
  0
SPLINE
  5
1af
100
AcDbEntity
  8
Cut
 62
7
100
AcDbSpline
 70
8
 71
3
 72
8
 73
4
 74
0
 40
0
 40
0
 40
0
 40
0
 40
1
 40
1
 40
1
 40
1
 10
32.778097
 20
111.132097
 30
0.0
 10
32.168604
 20
111.741590
 30
0.0
 10
31.341954
 20
112.084000
 30
0.0
 10
30.480000
 20
112.084000
 30
0.0
  0
LWPOLYLINE
  5
1b0
100
AcDbEntity
  8
Cut
 62
7
100
AcDbPolyline
 90
1
 70
1
 10
22.854992
 20
23.394000
 30
0.0
  0
SPLINE
  5
1b1
100
AcDbEntity
  8
Cut
 62
7
100
AcDbSpline
 70
8
 71
3
 72
8
 73
4
 74
0
 40
0
 40
0
 40
0
 40
0
 40
1
 40
1
 40
1
 40
1
 10
22.860000
 20
43.504000
 30
0.0
 10
21.545498
 20
43.504000
 30
0.0
 10
20.360430
 20
42.712163
 30
0.0
 10
19.857392
 20
41.497721
 30
0.0
  0
SPLINE
  5
1b2
100
AcDbEntity
  8
Cut
 62
7
100
AcDbSpline
 70
8
 71
3
 72
8
 73
4
 74
0
 40
0
 40
0
 40
0
 40
0
 40
1
 40
1
 40
1
 40
1
 10
19.857392
 20
41.497721
 30
0.0
 10
19.354353
 20
40.283279
 30
0.0
 10
19.632409
 20
38.885396
 30
0.0
 10
20.561903
 20
37.955903
 30
0.0
  0
SPLINE
  5
1b3
100
AcDbEntity
  8
Cut
 62
7
100
AcDbSpline
 70
8
 71
3
 72
8
 73
4
 74
0
 40
0
 40
0
 40
0
 40
0
 40
1
 40
1
 40
1
 40
1
 10
20.561903
 20
37.955903
 30
0.0
 10
21.491396
 20
37.026409
 30
0.0
 10
22.889279
 20
36.748353
 30
0.0
 10
24.103721
 20
37.251392
 30
0.0
  0
SPLINE
  5
1b4
100
AcDbEntity
  8
Cut
 62
7
100
AcDbSpline
 70
8
 71
3
 72
8
 73
4
 74
0
 40
0
 40
0
 40
0
 40
0
 40
1
 40
1
 40
1
 40
1
 10
24.103721
 20
37.251392
 30
0.0
 10
25.318163
 20
37.754430
 30
0.0
 10
26.110000
 20
38.939498
 30
0.0
 10
26.110000
 20
40.254000
 30
0.0
  0
SPLINE
  5
1b5
100
AcDbEntity
  8
Cut
 62
7
100
AcDbSpline
 70
8
 71
3
 72
8
 73
4
 74
0
 40
0
 40
0
 40
0
 40
0
 40
1
 40
1
 40
1
 40
1
 10
26.110000
 20
40.254000
 30
0.0
 10
26.110000
 20
41.115954
 30
0.0
 10
25.767590
 20
41.942604
 30
0.0
 10
25.158097
 20
42.552097
 30
0.0
  0
SPLINE
  5
1b6
100
AcDbEntity
  8
Cut
 62
7
100
AcDbSpline
 70
8
 71
3
 72
8
 73
4
 74
0
 40
0
 40
0
 40
0
 40
0
 40
1
 40
1
 40
1
 40
1
 10
25.158097
 20
42.552097
 30
0.0
 10
24.548604
 20
43.161590
 30
0.0
 10
23.721954
 20
43.504000
 30
0.0
 10
22.860000
 20
43.504000
 30
0.0
  0
LWPOLYLINE
  5
1b7
100
AcDbEntity
  8
Cut
 62
7
100
AcDbPolyline
 90
1
 70
1
 10
30.480000
 20
112.084000
 30
0.0
  0
SPLINE
  5
1b8
100
AcDbEntity
  8
Cut
 62
7
100
AcDbSpline
 70
8
 71
3
 72
8
 73
4
 74
0
 40
0
 40
0
 40
0
 40
0
 40
1
 40
1
 40
1
 40
1
 10
38.100000
 20
43.504000
 30
0.0
 10
36.785498
 20
43.504000
 30
0.0
 10
35.600430
 20
42.712163
 30
0.0
 10
35.097392
 20
41.497721
 30
0.0
  0
SPLINE
  5
1b9
100
AcDbEntity
  8
Cut
 62
7
100
AcDbSpline
 70
8
 71
3
 72
8
 73
4
 74
0
 40
0
 40
0
 40
0
 40
0
 40
1
 40
1
 40
1
 40
1
 10
35.097392
 20
41.497721
 30
0.0
 10
34.594353
 20
40.283279
 30
0.0
 10
34.872409
 20
38.885396
 30
0.0
 10
35.801903
 20
37.955903
 30
0.0
  0
SPLINE
  5
1ba
100
AcDbEntity
  8
Cut
 62
7
100
AcDbSpline
 70
8
 71
3
 72
8
 73
4
 74
0
 40
0
 40
0
 40
0
 40
0
 40
1
 40
1
 40
1
 40
1
 10
35.801903
 20
37.955903
 30
0.0
 10
36.731396
 20
37.026409
 30
0.0
 10
38.129279
 20
36.748353
 30
0.0
 10
39.343721
 20
37.251392
 30
0.0
  0
SPLINE
  5
1bb
100
AcDbEntity
  8
Cut
 62
7
100
AcDbSpline
 70
8
 71
3
 72
8
 73
4
 74
0
 40
0
 40
0
 40
0
 40
0
 40
1
 40
1
 40
1
 40
1
 10
39.343721
 20
37.251392
 30
0.0
 10
40.558163
 20
37.754430
 30
0.0
 10
41.350000
 20
38.939498
 30
0.0
 10
41.350000
 20
40.254000
 30
0.0
  0
SPLINE
  5
1bc
100
AcDbEntity
  8
Cut
 62
7
100
AcDbSpline
 70
8
 71
3
 72
8
 73
4
 74
0
 40
0
 40
0
 40
0
 40
0
 40
1
 40
1
 40
1
 40
1
 10
41.350000
 20
40.254000
 30
0.0
 10
41.350000
 20
41.115954
 30
0.0
 10
41.007590
 20
41.942604
 30
0.0
 10
40.398097
 20
42.552097
 30
0.0
  0
SPLINE
  5
1bd
100
AcDbEntity
  8
Cut
 62
7
100
AcDbSpline
 70
8
 71
3
 72
8
 73
4
 74
0
 40
0
 40
0
 40
0
 40
0
 40
1
 40
1
 40
1
 40
1
 10
40.398097
 20
42.552097
 30
0.0
 10
39.788604
 20
43.161590
 30
0.0
 10
38.961954
 20
43.504000
 30
0.0
 10
38.100000
 20
43.504000
 30
0.0
  0
LWPOLYLINE
  5
1be
100
AcDbEntity
  8
Cut
 62
7
100
AcDbPolyline
 90
1
 70
1
 10
22.860000
 20
43.504000
 30
0.0
  0
SPLINE
  5
1bf
100
AcDbEntity
  8
Cut
 62
7
100
AcDbSpline
 70
8
 71
3
 72
8
 73
4
 74
0
 40
0
 40
0
 40
0
 40
0
 40
1
 40
1
 40
1
 40
1
 10
50.800000
 20
43.504000
 30
0.0
 10
49.485498
 20
43.504000
 30
0.0
 10
48.300430
 20
42.712163
 30
0.0
 10
47.797392
 20
41.497721
 30
0.0
  0
SPLINE
  5
1c0
100
AcDbEntity
  8
Cut
 62
7
100
AcDbSpline
 70
8
 71
3
 72
8
 73
4
 74
0
 40
0
 40
0
 40
0
 40
0
 40
1
 40
1
 40
1
 40
1
 10
47.797392
 20
41.497721
 30
0.0
 10
47.294353
 20
40.283279
 30
0.0
 10
47.572409
 20
38.885396
 30
0.0
 10
48.501903
 20
37.955903
 30
0.0
  0
SPLINE
  5
1c1
100
AcDbEntity
  8
Cut
 62
7
100
AcDbSpline
 70
8
 71
3
 72
8
 73
4
 74
0
 40
0
 40
0
 40
0
 40
0
 40
1
 40
1
 40
1
 40
1
 10
48.501903
 20
37.955903
 30
0.0
 10
49.431396
 20
37.026409
 30
0.0
 10
50.829279
 20
36.748353
 30
0.0
 10
52.043721
 20
37.251392
 30
0.0
  0
SPLINE
  5
1c2
100
AcDbEntity
  8
Cut
 62
7
100
AcDbSpline
 70
8
 71
3
 72
8
 73
4
 74
0
 40
0
 40
0
 40
0
 40
0
 40
1
 40
1
 40
1
 40
1
 10
52.043721
 20
37.251392
 30
0.0
 10
53.258163
 20
37.754430
 30
0.0
 10
54.050000
 20
38.939498
 30
0.0
 10
54.050000
 20
40.254000
 30
0.0
  0
SPLINE
  5
1c3
100
AcDbEntity
  8
Cut
 62
7
100
AcDbSpline
 70
8
 71
3
 72
8
 73
4
 74
0
 40
0
 40
0
 40
0
 40
0
 40
1
 40
1
 40
1
 40
1
 10
54.050000
 20
40.254000
 30
0.0
 10
54.050000
 20
41.115954
 30
0.0
 10
53.707590
 20
41.942604
 30
0.0
 10
53.098097
 20
42.552097
 30
0.0
  0
SPLINE
  5
1c4
100
AcDbEntity
  8
Cut
 62
7
100
AcDbSpline
 70
8
 71
3
 72
8
 73
4
 74
0
 40
0
 40
0
 40
0
 40
0
 40
1
 40
1
 40
1
 40
1
 10
53.098097
 20
42.552097
 30
0.0
 10
52.488604
 20
43.161590
 30
0.0
 10
51.661954
 20
43.504000
 30
0.0
 10
50.800000
 20
43.504000
 30
0.0
  0
LWPOLYLINE
  5
1c5
100
AcDbEntity
  8
Cut
 62
7
100
AcDbPolyline
 90
1
 70
1
 10
38.100000
 20
43.504000
 30
0.0
  0
SPLINE
  5
1c6
100
AcDbEntity
  8
Cut
 62
7
100
AcDbSpline
 70
8
 71
3
 72
8
 73
4
 74
0
 40
0
 40
0
 40
0
 40
0
 40
1
 40
1
 40
1
 40
1
 10
10.160000
 20
77.152000
 30
0.0
 10
9.440866
 20
77.152000
 30
0.0
 10
8.792543
 20
76.718804
 30
0.0
 10
8.517342
 20
76.054411
 30
0.0
  0
SPLINE
  5
1c7
100
AcDbEntity
  8
Cut
 62
7
100
AcDbSpline
 70
8
 71
3
 72
8
 73
4
 74
0
 40
0
 40
0
 40
0
 40
0
 40
1
 40
1
 40
1
 40
1
 10
8.517342
 20
76.054411
 30
0.0
 10
8.242142
 20
75.390018
 30
0.0
 10
8.394260
 20
74.625269
 30
0.0
 10
8.902764
 20
74.116764
 30
0.0
  0
SPLINE
  5
1c8
100
AcDbEntity
  8
Cut
 62
7
100
AcDbSpline
 70
8
 71
3
 72
8
 73
4
 74
0
 40
0
 40
0
 40
0
 40
0
 40
1
 40
1
 40
1
 40
1
 10
8.902764
 20
74.116764
 30
0.0
 10
9.411269
 20
73.608260
 30
0.0
 10
10.176018
 20
73.456142
 30
0.0
 10
10.840411
 20
73.731342
 30
0.0
  0
SPLINE
  5
1c9
100
AcDbEntity
  8
Cut
 62
7
100
AcDbSpline
 70
8
 71
3
 72
8
 73
4
 74
0
 40
0
 40
0
 40
0
 40
0
 40
1
 40
1
 40
1
 40
1
 10
10.840411
 20
73.731342
 30
0.0
 10
11.504804
 20
74.006543
 30
0.0
 10
11.938000
 20
74.654866
 30
0.0
 10
11.938000
 20
75.374000
 30
0.0
  0
SPLINE
  5
1ca
100
AcDbEntity
  8
Cut
 62
7
100
AcDbSpline
 70
8
 71
3
 72
8
 73
4
 74
0
 40
0
 40
0
 40
0
 40
0
 40
1
 40
1
 40
1
 40
1
 10
11.938000
 20
75.374000
 30
0.0
 10
11.938000
 20
75.845555
 30
0.0
 10
11.750676
 20
76.297796
 30
0.0
 10
11.417236
 20
76.631236
 30
0.0
  0
SPLINE
  5
1cb
100
AcDbEntity
  8
Cut
 62
7
100
AcDbSpline
 70
8
 71
3
 72
8
 73
4
 74
0
 40
0
 40
0
 40
0
 40
0
 40
1
 40
1
 40
1
 40
1
 10
11.417236
 20
76.631236
 30
0.0
 10
11.083796
 20
76.964676
 30
0.0
 10
10.631555
 20
77.152000
 30
0.0
 10
10.160000
 20
77.152000
 30
0.0
  0
LWPOLYLINE
  5
1cc
100
AcDbEntity
  8
Cut
 62
7
100
AcDbPolyline
 90
1
 70
1
 10
50.800000
 20
43.504000
 30
0.0
  0
SPLINE
  5
1cd
100
AcDbEntity
  8
Cut
 62
7
100
AcDbSpline
 70
8
 71
3
 72
8
 73
4
 74
0
 40
0
 40
0
 40
0
 40
0
 40
1
 40
1
 40
1
 40
1
 10
10.160000
 20
43.504000
 30
0.0
 10
8.845498
 20
43.504000
 30
0.0
 10
7.660430
 20
42.712163
 30
0.0
 10
7.157392
 20
41.497721
 30
0.0
  0
SPLINE
  5
1ce
100
AcDbEntity
  8
Cut
 62
7
100
AcDbSpline
 70
8
 71
3
 72
8
 73
4
 74
0
 40
0
 40
0
 40
0
 40
0
 40
1
 40
1
 40
1
 40
1
 10
7.157392
 20
41.497721
 30
0.0
 10
6.654353
 20
40.283279
 30
0.0
 10
6.932409
 20
38.885396
 30
0.0
 10
7.861903
 20
37.955903
 30
0.0
  0
SPLINE
  5
1cf
100
AcDbEntity
  8
Cut
 62
7
100
AcDbSpline
 70
8
 71
3
 72
8
 73
4
 74
0
 40
0
 40
0
 40
0
 40
0
 40
1
 40
1
 40
1
 40
1
 10
7.861903
 20
37.955903
 30
0.0
 10
8.791396
 20
37.026409
 30
0.0
 10
10.189279
 20
36.748353
 30
0.0
 10
11.403721
 20
37.251392
 30
0.0
  0
SPLINE
  5
1d0
100
AcDbEntity
  8
Cut
 62
7
100
AcDbSpline
 70
8
 71
3
 72
8
 73
4
 74
0
 40
0
 40
0
 40
0
 40
0
 40
1
 40
1
 40
1
 40
1
 10
11.403721
 20
37.251392
 30
0.0
 10
12.618163
 20
37.754430
 30
0.0
 10
13.410000
 20
38.939498
 30
0.0
 10
13.410000
 20
40.254000
 30
0.0
  0
SPLINE
  5
1d1
100
AcDbEntity
  8
Cut
 62
7
100
AcDbSpline
 70
8
 71
3
 72
8
 73
4
 74
0
 40
0
 40
0
 40
0
 40
0
 40
1
 40
1
 40
1
 40
1
 10
13.410000
 20
40.254000
 30
0.0
 10
13.410000
 20
41.115954
 30
0.0
 10
13.067590
 20
41.942604
 30
0.0
 10
12.458097
 20
42.552097
 30
0.0
  0
SPLINE
  5
1d2
100
AcDbEntity
  8
Cut
 62
7
100
AcDbSpline
 70
8
 71
3
 72
8
 73
4
 74
0
 40
0
 40
0
 40
0
 40
0
 40
1
 40
1
 40
1
 40
1
 10
12.458097
 20
42.552097
 30
0.0
 10
11.848604
 20
43.161590
 30
0.0
 10
11.021954
 20
43.504000
 30
0.0
 10
10.160000
 20
43.504000
 30
0.0
  0
LWPOLYLINE
  5
1d3
100
AcDbEntity
  8
Cut
 62
7
100
AcDbPolyline
 90
1
 70
1
 10
10.160000
 20
77.152000
 30
0.0
  0
LWPOLYLINE
  5
1d4
100
AcDbEntity
  8
Cut
 62
7
100
AcDbPolyline
 90
1
 70
1
 10
10.160000
 20
43.504000
 30
0.0
  0
ENDSEC
  0
SECTION
  2
OBJECTS
  0
DICTIONARY
  5
C
330
0
100
AcDbDictionary
  3
ACAD_GROUP
350
D
  3
ACAD_MLINESTYLE
350
17
  0
DICTIONARY
  5
D
330
C
100
AcDbDictionary
  0
DICTIONARY
  5
1A
330
C
100
AcDbDictionary
  0
DICTIONARY
  5
17
330
C
100
AcDbDictionary
  3
STANDARD
350
18
  0
DICTIONARY
  5
19
330
C
100
AcDbDictionary
  0
ENDSEC
  0
EOF
