  0
SECTION
  2
HEADER
  9
$ACADVER
  1
AC1014
  9
$HANDSEED
  5
FFFF
  9
$INSUNITS
 70
     4
  9
$MEASUREMENT
 70
     1
  0
ENDSEC
  0
SECTION
  2
TABLES
  0
TABLE
  2
VPORT
  5
8
330
0
100
AcDbSymbolTable
 70
     4
  0
VPORT
  5
2E
330
8
100
AcDbSymbolTableRecord
100
AcDbViewportTableRecord
  2
*ACTIVE
 70
     0
 10
0.0
 20
0.0
 11
1.0
 21
1.0
 12
210.0
 22
148.5
 13
0.0
 23
0.0
 14
10.0
 24
10.0
 15
10.0
 25
10.0
 16
0.0
 26
0.0
 36
1.0
 17
0.0
 27
0.0
 37
0.0
 40
341.0
 41
1.24
 42
50.0
 43
0.0
 44
0.0
 50
0.0
 51
0.0
 71
     0
 72
   100
 73
     1
 74
     3
 75
     0
 76
     0
 77
     0
 78
     0
  0
ENDTAB
  0
TABLE
  2
LTYPE
  5
5
330
0
100
AcDbSymbolTable
 70
     1
  0
LTYPE
  5
14
330
5
100
AcDbSymbolTableRecord
100
AcDbLinetypeTableRecord
  2
BYBLOCK
 70
     0
  3

 72
    65
 73
     0
 40
0.0
  0
LTYPE
  5
15
330
5
100
AcDbSymbolTableRecord
100
AcDbLinetypeTableRecord
  2
BYLAYER
 70
     0
  3

 72
    65
 73
     0
 40
0.0
  0
LTYPE
  5
16
330
5
100
AcDbSymbolTableRecord
100
AcDbLinetypeTableRecord
  2
CONTINUOUS
 70
     0
  3
Solid line
 72
    65
 73
     0
 40
0.0
  0
ENDTAB
  0
TABLE
  2
LAYER
  5
2
100
AcDbSymbolTable
 70
4
  0
LAYER
  5
50
100
AcDbSymbolTableRecord
100
AcDbLayerTableRecord
  2
0
 70
0
  6
CONTINUOUS
  0
LAYER
  5
51
100
AcDbSymbolTableRecord
100
AcDbLayerTableRecord
  2
Guidelines
 70
0
  6
CONTINUOUS
  0
LAYER
  5
52
100
AcDbSymbolTableRecord
100
AcDbLayerTableRecord
  2
Cut
 70
0
  6
CONTINUOUS
  0
LAYER
  5
53
100
AcDbSymbolTableRecord
100
AcDbLayerTableRecord
  2
Artwork
 70
0
  6
CONTINUOUS
  0
ENDTAB
  0
TABLE
  2
STYLE
  5
3
330
0
100
AcDbSymbolTable
 70
     1
  0
STYLE
  5
11
330
3
100
AcDbSymbolTableRecord
100
AcDbTextStyleTableRecord
  2
STANDARD
 70
     0
 40
0.0
 41
1.0
 50
0.0
 71
     0
 42
2.5
  3
txt
  4

  0
ENDTAB
  0
TABLE
  2
VIEW
  5
6
330
0
100
AcDbSymbolTable
 70
     0
  0
ENDTAB
  0
TABLE
  2
UCS
  5
7
330
0
100
AcDbSymbolTable
 70
     0
  0
ENDTAB
  0
TABLE
  2
APPID
  5
9
330
0
100
AcDbSymbolTable
 70
     2
  0
APPID
  5
12
330
9
100
AcDbSymbolTableRecord
100
AcDbRegAppTableRecord
  2
ACAD
 70
     0
  0
ENDTAB
  0
TABLE
  2
DIMSTYLE
  5
A
330
0
100
AcDbSymbolTable
 70
     1
  0
DIMSTYLE
105
27
330
A
100
AcDbSymbolTableRecord
100
AcDbDimStyleTableRecord
  2
ISO-25
 70
     0
  3

  4

  5

  6

  7

 40
1.0
 41
2.5
 42
0.625
 43
3.75
 44
1.25
 45
0.0
 46
0.0
 47
0.0
 48
0.0
140
2.5
141
2.5
142
0.0
143
0.03937007874016
144
1.0
145
0.0
146
1.0
147
0.625
 71
     0
 72
     0
 73
     0
 74
     0
 75
     0
 76
     0
 77
     1
 78
     8
170
     0
171
     3
172
     1
173
     0
174
     0
175
     0
176
     0
177
     0
178
     0
270
     2
271
     2
272
     2
273
     2
274
     3
340
11
275
     0
280
     0
281
     0
282
     0
283
     0
284
     8
285
     0
286
     0
287
     3
288
     0
  0
ENDTAB
  0
TABLE
  2
BLOCK_RECORD
  5
1
330
0
100
AcDbSymbolTable
 70
     1
  0
BLOCK_RECORD
  5
1F
330
1
100
AcDbSymbolTableRecord
100
AcDbBlockTableRecord
  2
*MODEL_SPACE
  0
BLOCK_RECORD
  5
1B
330
1
100
AcDbSymbolTableRecord
100
AcDbBlockTableRecord
  2
*PAPER_SPACE
  0
ENDTAB
  0
ENDSEC
  0
SECTION
  2
BLOCKS
  0
BLOCK
  5
20
330
1F
100
AcDbEntity
  8
0
100
AcDbBlockBegin
  2
*MODEL_SPACE
 70
     0
 10
0.0
 20
0.0
 30
0.0
  3
*MODEL_SPACE
  1

  0
ENDBLK
  5
21
330
1F
100
AcDbEntity
  8
0
100
AcDbBlockEnd
  0
BLOCK
  5
1C
330
1B
100
AcDbEntity
 67
     1
  8
0
100
AcDbBlockBegin
  2
*PAPER_SPACE
  1

  0
ENDBLK
  5
1D
330
1B
100
AcDbEntity
 67
     1
  8
0
100
AcDbBlockEnd
  0
ENDSEC
  0
SECTION
  2
ENTITIES
  0
LWPOLYLINE
  5
100
100
AcDbEntity
  8
Cut
 62
7
100
AcDbPolyline
 90
2
 70
0
 10
6.400000
 20
4.400010
 30
0.0
 10
8.940000
 20
4.400010
 30
0.0
  0
LWPOLYLINE
  5
101
100
AcDbEntity
  8
Cut
 62
7
100
AcDbPolyline
 90
2
 70
0
 10
6.400000
 20
126.900010
 30
0.0
 10
8.940000
 20
126.900010
 30
0.0
  0
LWPOLYLINE
  5
102
100
AcDbEntity
  8
Cut
 62
7
100
AcDbPolyline
 90
2
 70
0
 10
6.400000
 20
123.700010
 30
0.0
 10
8.940000
 20
123.700010
 30
0.0
  0
SPLINE
  5
103
100
AcDbEntity
  8
Cut
 62
7
100
AcDbSpline
 70
8
 71
3
 72
8
 73
4
 74
0
 40
0
 40
0
 40
0
 40
0
 40
1
 40
1
 40
1
 40
1
 10
6.400000
 20
4.400010
 30
0.0
 10
5.828375
 20
4.400010
 30
0.0
 10
5.300172
 20
4.095052
 30
0.0
 10
5.014359
 20
3.600010
 30
0.0
  0
SPLINE
  5
104
100
AcDbEntity
  8
Cut
 62
7
100
AcDbSpline
 70
8
 71
3
 72
8
 73
4
 74
0
 40
0
 40
0
 40
0
 40
0
 40
1
 40
1
 40
1
 40
1
 10
5.014359
 20
3.600010
 30
0.0
 10
4.728547
 20
3.104968
 30
0.0
 10
4.728547
 20
2.495052
 30
0.0
 10
5.014359
 20
2.000010
 30
0.0
  0
SPLINE
  5
105
100
AcDbEntity
  8
Cut
 62
7
100
AcDbSpline
 70
8
 71
3
 72
8
 73
4
 74
0
 40
0
 40
0
 40
0
 40
0
 40
1
 40
1
 40
1
 40
1
 10
5.014359
 20
2.000010
 30
0.0
 10
5.300172
 20
1.504968
 30
0.0
 10
5.828375
 20
1.200010
 30
0.0
 10
6.400000
 20
1.200010
 30
0.0
  0
SPLINE
  5
106
100
AcDbEntity
  8
Cut
 62
7
100
AcDbSpline
 70
8
 71
3
 72
8
 73
4
 74
0
 40
0
 40
0
 40
0
 40
0
 40
1
 40
1
 40
1
 40
1
 10
8.940000
 20
123.700010
 30
0.0
 10
9.511625
 20
123.700010
 30
0.0
 10
10.039828
 20
124.004968
 30
0.0
 10
10.325641
 20
124.500010
 30
0.0
  0
SPLINE
  5
107
100
AcDbEntity
  8
Cut
 62
7
100
AcDbSpline
 70
8
 71
3
 72
8
 73
4
 74
0
 40
0
 40
0
 40
0
 40
0
 40
1
 40
1
 40
1
 40
1
 10
10.325641
 20
124.500010
 30
0.0
 10
10.611453
 20
124.995052
 30
0.0
 10
10.611453
 20
125.604968
 30
0.0
 10
10.325641
 20
126.100010
 30
0.0
  0
SPLINE
  5
108
100
AcDbEntity
  8
Cut
 62
7
100
AcDbSpline
 70
8
 71
3
 72
8
 73
4
 74
0
 40
0
 40
0
 40
0
 40
0
 40
1
 40
1
 40
1
 40
1
 10
10.325641
 20
126.100010
 30
0.0
 10
10.039828
 20
126.595052
 30
0.0
 10
9.511625
 20
126.900010
 30
0.0
 10
8.940000
 20
126.900010
 30
0.0
  0
SPLINE
  5
109
100
AcDbEntity
  8
Cut
 62
7
100
AcDbSpline
 70
8
 71
3
 72
8
 73
4
 74
0
 40
0
 40
0
 40
0
 40
0
 40
1
 40
1
 40
1
 40
1
 10
6.400000
 20
126.900010
 30
0.0
 10
5.828375
 20
126.900010
 30
0.0
 10
5.300172
 20
126.595052
 30
0.0
 10
5.014359
 20
126.100010
 30
0.0
  0
SPLINE
  5
10a
100
AcDbEntity
  8
Cut
 62
7
100
AcDbSpline
 70
8
 71
3
 72
8
 73
4
 74
0
 40
0
 40
0
 40
0
 40
0
 40
1
 40
1
 40
1
 40
1
 10
5.014359
 20
126.100010
 30
0.0
 10
4.728547
 20
125.604968
 30
0.0
 10
4.728547
 20
124.995052
 30
0.0
 10
5.014359
 20
124.500010
 30
0.0
  0
SPLINE
  5
10b
100
AcDbEntity
  8
Cut
 62
7
100
AcDbSpline
 70
8
 71
3
 72
8
 73
4
 74
0
 40
0
 40
0
 40
0
 40
0
 40
1
 40
1
 40
1
 40
1
 10
5.014359
 20
124.500010
 30
0.0
 10
5.300172
 20
124.004968
 30
0.0
 10
5.828375
 20
123.700010
 30
0.0
 10
6.400000
 20
123.700010
 30
0.0
  0
SPLINE
  5
10c
100
AcDbEntity
  8
Cut
 62
7
100
AcDbSpline
 70
8
 71
3
 72
8
 73
4
 74
0
 40
0
 40
0
 40
0
 40
0
 40
1
 40
1
 40
1
 40
1
 10
8.940000
 20
1.200010
 30
0.0
 10
9.511625
 20
1.200010
 30
0.0
 10
10.039828
 20
1.504968
 30
0.0
 10
10.325641
 20
2.000010
 30
0.0
  0
SPLINE
  5
10d
100
AcDbEntity
  8
Cut
 62
7
100
AcDbSpline
 70
8
 71
3
 72
8
 73
4
 74
0
 40
0
 40
0
 40
0
 40
0
 40
1
 40
1
 40
1
 40
1
 10
10.325641
 20
2.000010
 30
0.0
 10
10.611453
 20
2.495052
 30
0.0
 10
10.611453
 20
3.104968
 30
0.0
 10
10.325641
 20
3.600010
 30
0.0
  0
SPLINE
  5
10e
100
AcDbEntity
  8
Cut
 62
7
100
AcDbSpline
 70
8
 71
3
 72
8
 73
4
 74
0
 40
0
 40
0
 40
0
 40
0
 40
1
 40
1
 40
1
 40
1
 10
10.325641
 20
3.600010
 30
0.0
 10
10.039828
 20
4.095052
 30
0.0
 10
9.511625
 20
4.400010
 30
0.0
 10
8.940000
 20
4.400010
 30
0.0
  0
LWPOLYLINE
  5
10f
100
AcDbEntity
  8
Cut
 62
7
100
AcDbPolyline
 90
2
 70
0
 10
6.400000
 20
1.200010
 30
0.0
 10
8.940000
 20
1.200010
 30
0.0
  0
LWPOLYLINE
  5
110
100
AcDbEntity
  8
Cut
 62
7
100
AcDbPolyline
 90
2
 70
0
 10
52.120000
 20
4.400010
 30
0.0
 10
54.660000
 20
4.400010
 30
0.0
  0
LWPOLYLINE
  5
111
100
AcDbEntity
  8
Cut
 62
7
100
AcDbPolyline
 90
2
 70
0
 10
52.120000
 20
126.900010
 30
0.0
 10
54.660000
 20
126.900010
 30
0.0
  0
LWPOLYLINE
  5
112
100
AcDbEntity
  8
Cut
 62
7
100
AcDbPolyline
 90
2
 70
0
 10
52.120000
 20
123.700010
 30
0.0
 10
54.660000
 20
123.700010
 30
0.0
  0
SPLINE
  5
113
100
AcDbEntity
  8
Cut
 62
7
100
AcDbSpline
 70
8
 71
3
 72
8
 73
4
 74
0
 40
0
 40
0
 40
0
 40
0
 40
1
 40
1
 40
1
 40
1
 10
52.120000
 20
4.400010
 30
0.0
 10
51.548375
 20
4.400010
 30
0.0
 10
51.020172
 20
4.095052
 30
0.0
 10
50.734359
 20
3.600010
 30
0.0
  0
SPLINE
  5
114
100
AcDbEntity
  8
Cut
 62
7
100
AcDbSpline
 70
8
 71
3
 72
8
 73
4
 74
0
 40
0
 40
0
 40
0
 40
0
 40
1
 40
1
 40
1
 40
1
 10
50.734359
 20
3.600010
 30
0.0
 10
50.448547
 20
3.104968
 30
0.0
 10
50.448547
 20
2.495052
 30
0.0
 10
50.734359
 20
2.000010
 30
0.0
  0
SPLINE
  5
115
100
AcDbEntity
  8
Cut
 62
7
100
AcDbSpline
 70
8
 71
3
 72
8
 73
4
 74
0
 40
0
 40
0
 40
0
 40
0
 40
1
 40
1
 40
1
 40
1
 10
50.734359
 20
2.000010
 30
0.0
 10
51.020172
 20
1.504968
 30
0.0
 10
51.548375
 20
1.200010
 30
0.0
 10
52.120000
 20
1.200010
 30
0.0
  0
SPLINE
  5
116
100
AcDbEntity
  8
Cut
 62
7
100
AcDbSpline
 70
8
 71
3
 72
8
 73
4
 74
0
 40
0
 40
0
 40
0
 40
0
 40
1
 40
1
 40
1
 40
1
 10
54.660000
 20
123.700010
 30
0.0
 10
55.231625
 20
123.700010
 30
0.0
 10
55.759828
 20
124.004968
 30
0.0
 10
56.045641
 20
124.500010
 30
0.0
  0
SPLINE
  5
117
100
AcDbEntity
  8
Cut
 62
7
100
AcDbSpline
 70
8
 71
3
 72
8
 73
4
 74
0
 40
0
 40
0
 40
0
 40
0
 40
1
 40
1
 40
1
 40
1
 10
56.045641
 20
124.500010
 30
0.0
 10
56.331453
 20
124.995052
 30
0.0
 10
56.331453
 20
125.604968
 30
0.0
 10
56.045641
 20
126.100010
 30
0.0
  0
SPLINE
  5
118
100
AcDbEntity
  8
Cut
 62
7
100
AcDbSpline
 70
8
 71
3
 72
8
 73
4
 74
0
 40
0
 40
0
 40
0
 40
0
 40
1
 40
1
 40
1
 40
1
 10
56.045641
 20
126.100010
 30
0.0
 10
55.759828
 20
126.595052
 30
0.0
 10
55.231625
 20
126.900010
 30
0.0
 10
54.660000
 20
126.900010
 30
0.0
  0
SPLINE
  5
119
100
AcDbEntity
  8
Cut
 62
7
100
AcDbSpline
 70
8
 71
3
 72
8
 73
4
 74
0
 40
0
 40
0
 40
0
 40
0
 40
1
 40
1
 40
1
 40
1
 10
52.120000
 20
126.900010
 30
0.0
 10
51.548375
 20
126.900010
 30
0.0
 10
51.020172
 20
126.595052
 30
0.0
 10
50.734359
 20
126.100010
 30
0.0
  0
SPLINE
  5
11a
100
AcDbEntity
  8
Cut
 62
7
100
AcDbSpline
 70
8
 71
3
 72
8
 73
4
 74
0
 40
0
 40
0
 40
0
 40
0
 40
1
 40
1
 40
1
 40
1
 10
50.734359
 20
126.100010
 30
0.0
 10
50.448547
 20
125.604968
 30
0.0
 10
50.448547
 20
124.995052
 30
0.0
 10
50.734359
 20
124.500010
 30
0.0
  0
SPLINE
  5
11b
100
AcDbEntity
  8
Cut
 62
7
100
AcDbSpline
 70
8
 71
3
 72
8
 73
4
 74
0
 40
0
 40
0
 40
0
 40
0
 40
1
 40
1
 40
1
 40
1
 10
50.734359
 20
124.500010
 30
0.0
 10
51.020172
 20
124.004968
 30
0.0
 10
51.548375
 20
123.700010
 30
0.0
 10
52.120000
 20
123.700010
 30
0.0
  0
SPLINE
  5
11c
100
AcDbEntity
  8
Cut
 62
7
100
AcDbSpline
 70
8
 71
3
 72
8
 73
4
 74
0
 40
0
 40
0
 40
0
 40
0
 40
1
 40
1
 40
1
 40
1
 10
54.660000
 20
1.200010
 30
0.0
 10
55.231625
 20
1.200010
 30
0.0
 10
55.759828
 20
1.504968
 30
0.0
 10
56.045641
 20
2.000010
 30
0.0
  0
SPLINE
  5
11d
100
AcDbEntity
  8
Cut
 62
7
100
AcDbSpline
 70
8
 71
3
 72
8
 73
4
 74
0
 40
0
 40
0
 40
0
 40
0
 40
1
 40
1
 40
1
 40
1
 10
56.045641
 20
2.000010
 30
0.0
 10
56.331453
 20
2.495052
 30
0.0
 10
56.331453
 20
3.104968
 30
0.0
 10
56.045641
 20
3.600010
 30
0.0
  0
SPLINE
  5
11e
100
AcDbEntity
  8
Cut
 62
7
100
AcDbSpline
 70
8
 71
3
 72
8
 73
4
 74
0
 40
0
 40
0
 40
0
 40
0
 40
1
 40
1
 40
1
 40
1
 10
56.045641
 20
3.600010
 30
0.0
 10
55.759828
 20
4.095052
 30
0.0
 10
55.231625
 20
4.400010
 30
0.0
 10
54.660000
 20
4.400010
 30
0.0
  0
LWPOLYLINE
  5
11f
100
AcDbEntity
  8
Cut
 62
7
100
AcDbPolyline
 90
2
 70
0
 10
52.120000
 20
1.200010
 30
0.0
 10
54.660000
 20
1.200010
 30
0.0
  0
LWPOLYLINE
  5
120
100
AcDbEntity
  8
Cut
 62
7
100
AcDbPolyline
 90
4
 70
1
 10
54.020000
 20
115.104011
 30
0.0
 10
45.638000
 20
115.104011
 30
0.0
 10
45.638000
 20
99.356011
 30
0.0
 10
54.020000
 20
99.356011
 30
0.0
  0
SPLINE
  5
121
100
AcDbEntity
  8
Cut
 62
7
100
AcDbSpline
 70
8
 71
3
 72
8
 73
4
 74
0
 40
0
 40
0
 40
0
 40
0
 40
1
 40
1
 40
1
 40
1
 10
22.905000
 20
23.500010
 30
0.0
 10
21.590498
 20
23.500010
 30
0.0
 10
20.405430
 20
22.708173
 30
0.0
 10
19.902392
 20
21.493731
 30
0.0
  0
SPLINE
  5
122
100
AcDbEntity
  8
Cut
 62
7
100
AcDbSpline
 70
8
 71
3
 72
8
 73
4
 74
0
 40
0
 40
0
 40
0
 40
0
 40
1
 40
1
 40
1
 40
1
 10
19.902392
 20
21.493731
 30
0.0
 10
19.399353
 20
20.279289
 30
0.0
 10
19.677409
 20
18.881406
 30
0.0
 10
20.606903
 20
17.951913
 30
0.0
  0
SPLINE
  5
123
100
AcDbEntity
  8
Cut
 62
7
100
AcDbSpline
 70
8
 71
3
 72
8
 73
4
 74
0
 40
0
 40
0
 40
0
 40
0
 40
1
 40
1
 40
1
 40
1
 10
20.606903
 20
17.951913
 30
0.0
 10
21.536396
 20
17.022419
 30
0.0
 10
22.934279
 20
16.744363
 30
0.0
 10
24.148721
 20
17.247402
 30
0.0
  0
SPLINE
  5
124
100
AcDbEntity
  8
Cut
 62
7
100
AcDbSpline
 70
8
 71
3
 72
8
 73
4
 74
0
 40
0
 40
0
 40
0
 40
0
 40
1
 40
1
 40
1
 40
1
 10
24.148721
 20
17.247402
 30
0.0
 10
25.363163
 20
17.750440
 30
0.0
 10
26.155000
 20
18.935508
 30
0.0
 10
26.155000
 20
20.250010
 30
0.0
  0
SPLINE
  5
125
100
AcDbEntity
  8
Cut
 62
7
100
AcDbSpline
 70
8
 71
3
 72
8
 73
4
 74
0
 40
0
 40
0
 40
0
 40
0
 40
1
 40
1
 40
1
 40
1
 10
26.155000
 20
20.250010
 30
0.0
 10
26.155000
 20
22.044935
 30
0.0
 10
24.699925
 20
23.500010
 30
0.0
 10
22.905000
 20
23.500010
 30
0.0
  0
LWPOLYLINE
  5
126
100
AcDbEntity
  8
Cut
 62
7
100
AcDbPolyline
 90
4
 70
1
 10
4.962626
 20
114.048281
 30
0.0
 10
18.034198
 20
114.048281
 30
0.0
 10
18.034198
 20
101.245894
 30
0.0
 10
4.962626
 20
101.245894
 30
0.0
  0
SPLINE
  5
127
100
AcDbEntity
  8
Cut
 62
7
100
AcDbSpline
 70
8
 71
3
 72
8
 73
4
 74
0
 40
0
 40
0
 40
0
 40
0
 40
1
 40
1
 40
1
 40
1
 10
38.145000
 20
23.500010
 30
0.0
 10
36.830498
 20
23.500010
 30
0.0
 10
35.645430
 20
22.708173
 30
0.0
 10
35.142392
 20
21.493731
 30
0.0
  0
SPLINE
  5
128
100
AcDbEntity
  8
Cut
 62
7
100
AcDbSpline
 70
8
 71
3
 72
8
 73
4
 74
0
 40
0
 40
0
 40
0
 40
0
 40
1
 40
1
 40
1
 40
1
 10
35.142392
 20
21.493731
 30
0.0
 10
34.639353
 20
20.279289
 30
0.0
 10
34.917409
 20
18.881406
 30
0.0
 10
35.846903
 20
17.951913
 30
0.0
  0
SPLINE
  5
129
100
AcDbEntity
  8
Cut
 62
7
100
AcDbSpline
 70
8
 71
3
 72
8
 73
4
 74
0
 40
0
 40
0
 40
0
 40
0
 40
1
 40
1
 40
1
 40
1
 10
35.846903
 20
17.951913
 30
0.0
 10
36.776396
 20
17.022419
 30
0.0
 10
38.174279
 20
16.744363
 30
0.0
 10
39.388721
 20
17.247402
 30
0.0
  0
SPLINE
  5
12a
100
AcDbEntity
  8
Cut
 62
7
100
AcDbSpline
 70
8
 71
3
 72
8
 73
4
 74
0
 40
0
 40
0
 40
0
 40
0
 40
1
 40
1
 40
1
 40
1
 10
39.388721
 20
17.247402
 30
0.0
 10
40.603163
 20
17.750440
 30
0.0
 10
41.395000
 20
18.935508
 30
0.0
 10
41.395000
 20
20.250010
 30
0.0
  0
SPLINE
  5
12b
100
AcDbEntity
  8
Cut
 62
7
100
AcDbSpline
 70
8
 71
3
 72
8
 73
4
 74
0
 40
0
 40
0
 40
0
 40
0
 40
1
 40
1
 40
1
 40
1
 10
41.395000
 20
20.250010
 30
0.0
 10
41.395000
 20
21.111964
 30
0.0
 10
41.052590
 20
21.938614
 30
0.0
 10
40.443097
 20
22.548107
 30
0.0
  0
SPLINE
  5
12c
100
AcDbEntity
  8
Cut
 62
7
100
AcDbSpline
 70
8
 71
3
 72
8
 73
4
 74
0
 40
0
 40
0
 40
0
 40
0
 40
1
 40
1
 40
1
 40
1
 10
40.443097
 20
22.548107
 30
0.0
 10
39.833604
 20
23.157600
 30
0.0
 10
39.006954
 20
23.500010
 30
0.0
 10
38.145000
 20
23.500010
 30
0.0
  0
LWPOLYLINE
  5
12d
100
AcDbEntity
  8
Cut
 62
7
100
AcDbPolyline
 90
1
 70
1
 10
22.905000
 20
23.500010
 30
0.0
  0
SPLINE
  5
12e
100
AcDbEntity
  8
Cut
 62
7
100
AcDbSpline
 70
8
 71
3
 72
8
 73
4
 74
0
 40
0
 40
0
 40
0
 40
0
 40
1
 40
1
 40
1
 40
1
 10
50.845000
 20
23.500010
 30
0.0
 10
49.530498
 20
23.500010
 30
0.0
 10
48.345430
 20
22.708173
 30
0.0
 10
47.842392
 20
21.493731
 30
0.0
  0
SPLINE
  5
12f
100
AcDbEntity
  8
Cut
 62
7
100
AcDbSpline
 70
8
 71
3
 72
8
 73
4
 74
0
 40
0
 40
0
 40
0
 40
0
 40
1
 40
1
 40
1
 40
1
 10
47.842392
 20
21.493731
 30
0.0
 10
47.339353
 20
20.279289
 30
0.0
 10
47.617409
 20
18.881406
 30
0.0
 10
48.546903
 20
17.951913
 30
0.0
  0
SPLINE
  5
130
100
AcDbEntity
  8
Cut
 62
7
100
AcDbSpline
 70
8
 71
3
 72
8
 73
4
 74
0
 40
0
 40
0
 40
0
 40
0
 40
1
 40
1
 40
1
 40
1
 10
48.546903
 20
17.951913
 30
0.0
 10
49.476396
 20
17.022419
 30
0.0
 10
50.874279
 20
16.744363
 30
0.0
 10
52.088721
 20
17.247402
 30
0.0
  0
SPLINE
  5
131
100
AcDbEntity
  8
Cut
 62
7
100
AcDbSpline
 70
8
 71
3
 72
8
 73
4
 74
0
 40
0
 40
0
 40
0
 40
0
 40
1
 40
1
 40
1
 40
1
 10
52.088721
 20
17.247402
 30
0.0
 10
53.303163
 20
17.750440
 30
0.0
 10
54.095000
 20
18.935508
 30
0.0
 10
54.095000
 20
20.250010
 30
0.0
  0
SPLINE
  5
132
100
AcDbEntity
  8
Cut
 62
7
100
AcDbSpline
 70
8
 71
3
 72
8
 73
4
 74
0
 40
0
 40
0
 40
0
 40
0
 40
1
 40
1
 40
1
 40
1
 10
54.095000
 20
20.250010
 30
0.0
 10
54.095000
 20
21.111964
 30
0.0
 10
53.752590
 20
21.938614
 30
0.0
 10
53.143097
 20
22.548107
 30
0.0
  0
SPLINE
  5
133
100
AcDbEntity
  8
Cut
 62
7
100
AcDbSpline
 70
8
 71
3
 72
8
 73
4
 74
0
 40
0
 40
0
 40
0
 40
0
 40
1
 40
1
 40
1
 40
1
 10
53.143097
 20
22.548107
 30
0.0
 10
52.533604
 20
23.157600
 30
0.0
 10
51.706954
 20
23.500010
 30
0.0
 10
50.845000
 20
23.500010
 30
0.0
  0
LWPOLYLINE
  5
134
100
AcDbEntity
  8
Cut
 62
7
100
AcDbPolyline
 90
1
 70
1
 10
38.145000
 20
23.500010
 30
0.0
  0
SPLINE
  5
135
100
AcDbEntity
  8
Cut
 62
7
100
AcDbSpline
 70
8
 71
3
 72
8
 73
4
 74
0
 40
0
 40
0
 40
0
 40
0
 40
1
 40
1
 40
1
 40
1
 10
10.210000
 20
23.500010
 30
0.0
 10
8.895498
 20
23.500010
 30
0.0
 10
7.710430
 20
22.708173
 30
0.0
 10
7.207392
 20
21.493731
 30
0.0
  0
SPLINE
  5
136
100
AcDbEntity
  8
Cut
 62
7
100
AcDbSpline
 70
8
 71
3
 72
8
 73
4
 74
0
 40
0
 40
0
 40
0
 40
0
 40
1
 40
1
 40
1
 40
1
 10
7.207392
 20
21.493731
 30
0.0
 10
6.704353
 20
20.279289
 30
0.0
 10
6.982409
 20
18.881406
 30
0.0
 10
7.911903
 20
17.951913
 30
0.0
  0
SPLINE
  5
137
100
AcDbEntity
  8
Cut
 62
7
100
AcDbSpline
 70
8
 71
3
 72
8
 73
4
 74
0
 40
0
 40
0
 40
0
 40
0
 40
1
 40
1
 40
1
 40
1
 10
7.911903
 20
17.951913
 30
0.0
 10
8.841396
 20
17.022419
 30
0.0
 10
10.239279
 20
16.744363
 30
0.0
 10
11.453721
 20
17.247402
 30
0.0
  0
SPLINE
  5
138
100
AcDbEntity
  8
Cut
 62
7
100
AcDbSpline
 70
8
 71
3
 72
8
 73
4
 74
0
 40
0
 40
0
 40
0
 40
0
 40
1
 40
1
 40
1
 40
1
 10
11.453721
 20
17.247402
 30
0.0
 10
12.668163
 20
17.750440
 30
0.0
 10
13.460000
 20
18.935508
 30
0.0
 10
13.460000
 20
20.250010
 30
0.0
  0
SPLINE
  5
139
100
AcDbEntity
  8
Cut
 62
7
100
AcDbSpline
 70
8
 71
3
 72
8
 73
4
 74
0
 40
0
 40
0
 40
0
 40
0
 40
1
 40
1
 40
1
 40
1
 10
13.460000
 20
20.250010
 30
0.0
 10
13.460000
 20
21.111964
 30
0.0
 10
13.117590
 20
21.938614
 30
0.0
 10
12.508097
 20
22.548107
 30
0.0
  0
SPLINE
  5
13a
100
AcDbEntity
  8
Cut
 62
7
100
AcDbSpline
 70
8
 71
3
 72
8
 73
4
 74
0
 40
0
 40
0
 40
0
 40
0
 40
1
 40
1
 40
1
 40
1
 10
12.508097
 20
22.548107
 30
0.0
 10
11.898604
 20
23.157600
 30
0.0
 10
11.071954
 20
23.500010
 30
0.0
 10
10.210000
 20
23.500010
 30
0.0
  0
LWPOLYLINE
  5
13b
100
AcDbEntity
  8
Cut
 62
7
100
AcDbPolyline
 90
1
 70
1
 10
50.845000
 20
23.500010
 30
0.0
  0
SPLINE
  5
13c
100
AcDbEntity
  8
Cut
 62
7
100
AcDbSpline
 70
8
 71
3
 72
8
 73
4
 74
0
 40
0
 40
0
 40
0
 40
0
 40
1
 40
1
 40
1
 40
1
 10
38.150000
 20
110.250010
 30
0.0
 10
37.442191
 20
110.250010
 30
0.0
 10
36.804078
 20
109.823636
 30
0.0
 10
36.533211
 20
109.169706
 30
0.0
  0
SPLINE
  5
13d
100
AcDbEntity
  8
Cut
 62
7
100
AcDbSpline
 70
8
 71
3
 72
8
 73
4
 74
0
 40
0
 40
0
 40
0
 40
0
 40
1
 40
1
 40
1
 40
1
 10
36.533211
 20
109.169706
 30
0.0
 10
36.262344
 20
108.515776
 30
0.0
 10
36.412067
 20
107.763070
 30
0.0
 10
36.912563
 20
107.262573
 30
0.0
  0
SPLINE
  5
13e
100
AcDbEntity
  8
Cut
 62
7
100
AcDbSpline
 70
8
 71
3
 72
8
 73
4
 74
0
 40
0
 40
0
 40
0
 40
0
 40
1
 40
1
 40
1
 40
1
 10
36.912563
 20
107.262573
 30
0.0
 10
37.413060
 20
106.762077
 30
0.0
 10
38.165766
 20
106.612354
 30
0.0
 10
38.819696
 20
106.883221
 30
0.0
  0
SPLINE
  5
13f
100
AcDbEntity
  8
Cut
 62
7
100
AcDbSpline
 70
8
 71
3
 72
8
 73
4
 74
0
 40
0
 40
0
 40
0
 40
0
 40
1
 40
1
 40
1
 40
1
 10
38.819696
 20
106.883221
 30
0.0
 10
39.473626
 20
107.154088
 30
0.0
 10
39.900000
 20
107.792201
 30
0.0
 10
39.900000
 20
108.500010
 30
0.0
  0
SPLINE
  5
140
100
AcDbEntity
  8
Cut
 62
7
100
AcDbSpline
 70
8
 71
3
 72
8
 73
4
 74
0
 40
0
 40
0
 40
0
 40
0
 40
1
 40
1
 40
1
 40
1
 10
39.900000
 20
108.500010
 30
0.0
 10
39.900000
 20
108.964139
 30
0.0
 10
39.715626
 20
109.409258
 30
0.0
 10
39.387437
 20
109.737447
 30
0.0
  0
SPLINE
  5
141
100
AcDbEntity
  8
Cut
 62
7
100
AcDbSpline
 70
8
 71
3
 72
8
 73
4
 74
0
 40
0
 40
0
 40
0
 40
0
 40
1
 40
1
 40
1
 40
1
 10
39.387437
 20
109.737447
 30
0.0
 10
39.059248
 20
110.065636
 30
0.0
 10
38.614129
 20
110.250010
 30
0.0
 10
38.150000
 20
110.250010
 30
0.0
  0
LWPOLYLINE
  5
142
100
AcDbEntity
  8
Cut
 62
7
100
AcDbPolyline
 90
1
 70
1
 10
10.210000
 20
23.500010
 30
0.0
  0
SPLINE
  5
143
100
AcDbEntity
  8
Cut
 62
7
100
AcDbSpline
 70
8
 71
3
 72
8
 73
4
 74
0
 40
0
 40
0
 40
0
 40
0
 40
1
 40
1
 40
1
 40
1
 10
38.150000
 20
77.230010
 30
0.0
 10
37.442191
 20
77.230010
 30
0.0
 10
36.804078
 20
76.803636
 30
0.0
 10
36.533211
 20
76.149706
 30
0.0
  0
SPLINE
  5
144
100
AcDbEntity
  8
Cut
 62
7
100
AcDbSpline
 70
8
 71
3
 72
8
 73
4
 74
0
 40
0
 40
0
 40
0
 40
0
 40
1
 40
1
 40
1
 40
1
 10
36.533211
 20
76.149706
 30
0.0
 10
36.262344
 20
75.495776
 30
0.0
 10
36.412067
 20
74.743070
 30
0.0
 10
36.912563
 20
74.242573
 30
0.0
  0
SPLINE
  5
145
100
AcDbEntity
  8
Cut
 62
7
100
AcDbSpline
 70
8
 71
3
 72
8
 73
4
 74
0
 40
0
 40
0
 40
0
 40
0
 40
1
 40
1
 40
1
 40
1
 10
36.912563
 20
74.242573
 30
0.0
 10
37.413060
 20
73.742077
 30
0.0
 10
38.165766
 20
73.592354
 30
0.0
 10
38.819696
 20
73.863221
 30
0.0
  0
SPLINE
  5
146
100
AcDbEntity
  8
Cut
 62
7
100
AcDbSpline
 70
8
 71
3
 72
8
 73
4
 74
0
 40
0
 40
0
 40
0
 40
0
 40
1
 40
1
 40
1
 40
1
 10
38.819696
 20
73.863221
 30
0.0
 10
39.473626
 20
74.134088
 30
0.0
 10
39.900000
 20
74.772201
 30
0.0
 10
39.900000
 20
75.480010
 30
0.0
  0
SPLINE
  5
147
100
AcDbEntity
  8
Cut
 62
7
100
AcDbSpline
 70
8
 71
3
 72
8
 73
4
 74
0
 40
0
 40
0
 40
0
 40
0
 40
1
 40
1
 40
1
 40
1
 10
39.900000
 20
75.480010
 30
0.0
 10
39.900000
 20
75.944139
 30
0.0
 10
39.715626
 20
76.389258
 30
0.0
 10
39.387437
 20
76.717447
 30
0.0
  0
SPLINE
  5
148
100
AcDbEntity
  8
Cut
 62
7
100
AcDbSpline
 70
8
 71
3
 72
8
 73
4
 74
0
 40
0
 40
0
 40
0
 40
0
 40
1
 40
1
 40
1
 40
1
 10
39.387437
 20
76.717447
 30
0.0
 10
39.059248
 20
77.045636
 30
0.0
 10
38.614129
 20
77.230010
 30
0.0
 10
38.150000
 20
77.230010
 30
0.0
  0
LWPOLYLINE
  5
149
100
AcDbEntity
  8
Cut
 62
7
100
AcDbPolyline
 90
1
 70
1
 10
38.150000
 20
110.250010
 30
0.0
  0
SPLINE
  5
14a
100
AcDbEntity
  8
Cut
 62
7
100
AcDbSpline
 70
8
 71
3
 72
8
 73
4
 74
0
 40
0
 40
0
 40
0
 40
0
 40
1
 40
1
 40
1
 40
1
 10
22.910000
 20
77.230010
 30
0.0
 10
22.202191
 20
77.230010
 30
0.0
 10
21.564078
 20
76.803636
 30
0.0
 10
21.293211
 20
76.149706
 30
0.0
  0
SPLINE
  5
14b
100
AcDbEntity
  8
Cut
 62
7
100
AcDbSpline
 70
8
 71
3
 72
8
 73
4
 74
0
 40
0
 40
0
 40
0
 40
0
 40
1
 40
1
 40
1
 40
1
 10
21.293211
 20
76.149706
 30
0.0
 10
21.022344
 20
75.495776
 30
0.0
 10
21.172067
 20
74.743070
 30
0.0
 10
21.672563
 20
74.242573
 30
0.0
  0
SPLINE
  5
14c
100
AcDbEntity
  8
Cut
 62
7
100
AcDbSpline
 70
8
 71
3
 72
8
 73
4
 74
0
 40
0
 40
0
 40
0
 40
0
 40
1
 40
1
 40
1
 40
1
 10
21.672563
 20
74.242573
 30
0.0
 10
22.173060
 20
73.742077
 30
0.0
 10
22.925766
 20
73.592354
 30
0.0
 10
23.579696
 20
73.863221
 30
0.0
  0
SPLINE
  5
14d
100
AcDbEntity
  8
Cut
 62
7
100
AcDbSpline
 70
8
 71
3
 72
8
 73
4
 74
0
 40
0
 40
0
 40
0
 40
0
 40
1
 40
1
 40
1
 40
1
 10
23.579696
 20
73.863221
 30
0.0
 10
24.233626
 20
74.134088
 30
0.0
 10
24.660000
 20
74.772201
 30
0.0
 10
24.660000
 20
75.480010
 30
0.0
  0
SPLINE
  5
14e
100
AcDbEntity
  8
Cut
 62
7
100
AcDbSpline
 70
8
 71
3
 72
8
 73
4
 74
0
 40
0
 40
0
 40
0
 40
0
 40
1
 40
1
 40
1
 40
1
 10
24.660000
 20
75.480010
 30
0.0
 10
24.660000
 20
75.944139
 30
0.0
 10
24.475626
 20
76.389258
 30
0.0
 10
24.147437
 20
76.717447
 30
0.0
  0
SPLINE
  5
14f
100
AcDbEntity
  8
Cut
 62
7
100
AcDbSpline
 70
8
 71
3
 72
8
 73
4
 74
0
 40
0
 40
0
 40
0
 40
0
 40
1
 40
1
 40
1
 40
1
 10
24.147437
 20
76.717447
 30
0.0
 10
23.819248
 20
77.045636
 30
0.0
 10
23.374129
 20
77.230010
 30
0.0
 10
22.910000
 20
77.230010
 30
0.0
  0
LWPOLYLINE
  5
150
100
AcDbEntity
  8
Cut
 62
7
100
AcDbPolyline
 90
1
 70
1
 10
38.150000
 20
77.230010
 30
0.0
  0
SPLINE
  5
151
100
AcDbEntity
  8
Cut
 62
7
100
AcDbSpline
 70
8
 71
3
 72
8
 73
4
 74
0
 40
0
 40
0
 40
0
 40
0
 40
1
 40
1
 40
1
 40
1
 10
10.210000
 20
77.230010
 30
0.0
 10
9.502191
 20
77.230010
 30
0.0
 10
8.864078
 20
76.803636
 30
0.0
 10
8.593211
 20
76.149706
 30
0.0
  0
SPLINE
  5
152
100
AcDbEntity
  8
Cut
 62
7
100
AcDbSpline
 70
8
 71
3
 72
8
 73
4
 74
0
 40
0
 40
0
 40
0
 40
0
 40
1
 40
1
 40
1
 40
1
 10
8.593211
 20
76.149706
 30
0.0
 10
8.322344
 20
75.495776
 30
0.0
 10
8.472067
 20
74.743070
 30
0.0
 10
8.972563
 20
74.242573
 30
0.0
  0
SPLINE
  5
153
100
AcDbEntity
  8
Cut
 62
7
100
AcDbSpline
 70
8
 71
3
 72
8
 73
4
 74
0
 40
0
 40
0
 40
0
 40
0
 40
1
 40
1
 40
1
 40
1
 10
8.972563
 20
74.242573
 30
0.0
 10
9.473060
 20
73.742077
 30
0.0
 10
10.225766
 20
73.592354
 30
0.0
 10
10.879696
 20
73.863221
 30
0.0
  0
SPLINE
  5
154
100
AcDbEntity
  8
Cut
 62
7
100
AcDbSpline
 70
8
 71
3
 72
8
 73
4
 74
0
 40
0
 40
0
 40
0
 40
0
 40
1
 40
1
 40
1
 40
1
 10
10.879696
 20
73.863221
 30
0.0
 10
11.533626
 20
74.134088
 30
0.0
 10
11.960000
 20
74.772201
 30
0.0
 10
11.960000
 20
75.480010
 30
0.0
  0
SPLINE
  5
155
100
AcDbEntity
  8
Cut
 62
7
100
AcDbSpline
 70
8
 71
3
 72
8
 73
4
 74
0
 40
0
 40
0
 40
0
 40
0
 40
1
 40
1
 40
1
 40
1
 10
11.960000
 20
75.480010
 30
0.0
 10
11.960000
 20
76.446508
 30
0.0
 10
11.176498
 20
77.230010
 30
0.0
 10
10.210000
 20
77.230010
 30
0.0
  0
LWPOLYLINE
  5
156
100
AcDbEntity
  8
Cut
 62
7
100
AcDbPolyline
 90
1
 70
1
 10
22.910000
 20
77.230010
 30
0.0
  0
SPLINE
  5
157
100
AcDbEntity
  8
Cut
 62
7
100
AcDbSpline
 70
8
 71
3
 72
8
 73
4
 74
0
 40
0
 40
0
 40
0
 40
0
 40
1
 40
1
 40
1
 40
1
 10
50.850000
 20
77.230010
 30
0.0
 10
50.142191
 20
77.230010
 30
0.0
 10
49.504078
 20
76.803636
 30
0.0
 10
49.233211
 20
76.149706
 30
0.0
  0
SPLINE
  5
158
100
AcDbEntity
  8
Cut
 62
7
100
AcDbSpline
 70
8
 71
3
 72
8
 73
4
 74
0
 40
0
 40
0
 40
0
 40
0
 40
1
 40
1
 40
1
 40
1
 10
49.233211
 20
76.149706
 30
0.0
 10
48.962344
 20
75.495776
 30
0.0
 10
49.112067
 20
74.743070
 30
0.0
 10
49.612563
 20
74.242573
 30
0.0
  0
SPLINE
  5
159
100
AcDbEntity
  8
Cut
 62
7
100
AcDbSpline
 70
8
 71
3
 72
8
 73
4
 74
0
 40
0
 40
0
 40
0
 40
0
 40
1
 40
1
 40
1
 40
1
 10
49.612563
 20
74.242573
 30
0.0
 10
50.113060
 20
73.742077
 30
0.0
 10
50.865766
 20
73.592354
 30
0.0
 10
51.519696
 20
73.863221
 30
0.0
  0
SPLINE
  5
15a
100
AcDbEntity
  8
Cut
 62
7
100
AcDbSpline
 70
8
 71
3
 72
8
 73
4
 74
0
 40
0
 40
0
 40
0
 40
0
 40
1
 40
1
 40
1
 40
1
 10
51.519696
 20
73.863221
 30
0.0
 10
52.173626
 20
74.134088
 30
0.0
 10
52.600000
 20
74.772201
 30
0.0
 10
52.600000
 20
75.480010
 30
0.0
  0
SPLINE
  5
15b
100
AcDbEntity
  8
Cut
 62
7
100
AcDbSpline
 70
8
 71
3
 72
8
 73
4
 74
0
 40
0
 40
0
 40
0
 40
0
 40
1
 40
1
 40
1
 40
1
 10
52.600000
 20
75.480010
 30
0.0
 10
52.600000
 20
76.446508
 30
0.0
 10
51.816498
 20
77.230010
 30
0.0
 10
50.850000
 20
77.230010
 30
0.0
  0
LWPOLYLINE
  5
15c
100
AcDbEntity
  8
Cut
 62
7
100
AcDbPolyline
 90
1
 70
1
 10
10.210000
 20
77.230010
 30
0.0
  0
SPLINE
  5
15d
100
AcDbEntity
  8
Cut
 62
7
100
AcDbSpline
 70
8
 71
3
 72
8
 73
4
 74
0
 40
0
 40
0
 40
0
 40
0
 40
1
 40
1
 40
1
 40
1
 10
38.150000
 20
68.980010
 30
0.0
 10
36.835498
 20
68.980010
 30
0.0
 10
35.650430
 20
68.188173
 30
0.0
 10
35.147392
 20
66.973731
 30
0.0
  0
SPLINE
  5
15e
100
AcDbEntity
  8
Cut
 62
7
100
AcDbSpline
 70
8
 71
3
 72
8
 73
4
 74
0
 40
0
 40
0
 40
0
 40
0
 40
1
 40
1
 40
1
 40
1
 10
35.147392
 20
66.973731
 30
0.0
 10
34.644353
 20
65.759289
 30
0.0
 10
34.922409
 20
64.361406
 30
0.0
 10
35.851903
 20
63.431913
 30
0.0
  0
SPLINE
  5
15f
100
AcDbEntity
  8
Cut
 62
7
100
AcDbSpline
 70
8
 71
3
 72
8
 73
4
 74
0
 40
0
 40
0
 40
0
 40
0
 40
1
 40
1
 40
1
 40
1
 10
35.851903
 20
63.431913
 30
0.0
 10
36.781396
 20
62.502419
 30
0.0
 10
38.179279
 20
62.224363
 30
0.0
 10
39.393721
 20
62.727402
 30
0.0
  0
SPLINE
  5
160
100
AcDbEntity
  8
Cut
 62
7
100
AcDbSpline
 70
8
 71
3
 72
8
 73
4
 74
0
 40
0
 40
0
 40
0
 40
0
 40
1
 40
1
 40
1
 40
1
 10
39.393721
 20
62.727402
 30
0.0
 10
40.608163
 20
63.230440
 30
0.0
 10
41.400000
 20
64.415508
 30
0.0
 10
41.400000
 20
65.730010
 30
0.0
  0
SPLINE
  5
161
100
AcDbEntity
  8
Cut
 62
7
100
AcDbSpline
 70
8
 71
3
 72
8
 73
4
 74
0
 40
0
 40
0
 40
0
 40
0
 40
1
 40
1
 40
1
 40
1
 10
41.400000
 20
65.730010
 30
0.0
 10
41.400000
 20
66.591964
 30
0.0
 10
41.057590
 20
67.418614
 30
0.0
 10
40.448097
 20
68.028107
 30
0.0
  0
SPLINE
  5
162
100
AcDbEntity
  8
Cut
 62
7
100
AcDbSpline
 70
8
 71
3
 72
8
 73
4
 74
0
 40
0
 40
0
 40
0
 40
0
 40
1
 40
1
 40
1
 40
1
 10
40.448097
 20
68.028107
 30
0.0
 10
39.838604
 20
68.637600
 30
0.0
 10
39.011954
 20
68.980010
 30
0.0
 10
38.150000
 20
68.980010
 30
0.0
  0
LWPOLYLINE
  5
163
100
AcDbEntity
  8
Cut
 62
7
100
AcDbPolyline
 90
1
 70
1
 10
50.850000
 20
77.230010
 30
0.0
  0
SPLINE
  5
164
100
AcDbEntity
  8
Cut
 62
7
100
AcDbSpline
 70
8
 71
3
 72
8
 73
4
 74
0
 40
0
 40
0
 40
0
 40
0
 40
1
 40
1
 40
1
 40
1
 10
50.850000
 20
56.280010
 30
0.0
 10
49.055075
 20
56.280010
 30
0.0
 10
47.600000
 20
54.824935
 30
0.0
 10
47.600000
 20
53.030010
 30
0.0
  0
SPLINE
  5
165
100
AcDbEntity
  8
Cut
 62
7
100
AcDbSpline
 70
8
 71
3
 72
8
 73
4
 74
0
 40
0
 40
0
 40
0
 40
0
 40
1
 40
1
 40
1
 40
1
 10
47.600000
 20
53.030010
 30
0.0
 10
47.600000
 20
51.235085
 30
0.0
 10
49.055075
 20
49.780010
 30
0.0
 10
50.850000
 20
49.780010
 30
0.0
  0
SPLINE
  5
166
100
AcDbEntity
  8
Cut
 62
7
100
AcDbSpline
 70
8
 71
3
 72
8
 73
4
 74
0
 40
0
 40
0
 40
0
 40
0
 40
1
 40
1
 40
1
 40
1
 10
50.850000
 20
49.780010
 30
0.0
 10
52.644925
 20
49.780010
 30
0.0
 10
54.100000
 20
51.235085
 30
0.0
 10
54.100000
 20
53.030010
 30
0.0
  0
SPLINE
  5
167
100
AcDbEntity
  8
Cut
 62
7
100
AcDbSpline
 70
8
 71
3
 72
8
 73
4
 74
0
 40
0
 40
0
 40
0
 40
0
 40
1
 40
1
 40
1
 40
1
 10
54.100000
 20
53.030010
 30
0.0
 10
54.100000
 20
53.891964
 30
0.0
 10
53.757590
 20
54.718614
 30
0.0
 10
53.148097
 20
55.328107
 30
0.0
  0
SPLINE
  5
168
100
AcDbEntity
  8
Cut
 62
7
100
AcDbSpline
 70
8
 71
3
 72
8
 73
4
 74
0
 40
0
 40
0
 40
0
 40
0
 40
1
 40
1
 40
1
 40
1
 10
53.148097
 20
55.328107
 30
0.0
 10
52.538604
 20
55.937600
 30
0.0
 10
51.711954
 20
56.280010
 30
0.0
 10
50.850000
 20
56.280010
 30
0.0
  0
LWPOLYLINE
  5
169
100
AcDbEntity
  8
Cut
 62
7
100
AcDbPolyline
 90
1
 70
1
 10
38.150000
 20
68.980010
 30
0.0
  0
SPLINE
  5
16a
100
AcDbEntity
  8
Cut
 62
7
100
AcDbSpline
 70
8
 71
3
 72
8
 73
4
 74
0
 40
0
 40
0
 40
0
 40
0
 40
1
 40
1
 40
1
 40
1
 10
38.150000
 20
43.580010
 30
0.0
 10
36.835498
 20
43.580010
 30
0.0
 10
35.650430
 20
42.788173
 30
0.0
 10
35.147392
 20
41.573731
 30
0.0
  0
SPLINE
  5
16b
100
AcDbEntity
  8
Cut
 62
7
100
AcDbSpline
 70
8
 71
3
 72
8
 73
4
 74
0
 40
0
 40
0
 40
0
 40
0
 40
1
 40
1
 40
1
 40
1
 10
35.147392
 20
41.573731
 30
0.0
 10
34.644353
 20
40.359289
 30
0.0
 10
34.922409
 20
38.961406
 30
0.0
 10
35.851903
 20
38.031913
 30
0.0
  0
SPLINE
  5
16c
100
AcDbEntity
  8
Cut
 62
7
100
AcDbSpline
 70
8
 71
3
 72
8
 73
4
 74
0
 40
0
 40
0
 40
0
 40
0
 40
1
 40
1
 40
1
 40
1
 10
35.851903
 20
38.031913
 30
0.0
 10
36.781396
 20
37.102419
 30
0.0
 10
38.179279
 20
36.824363
 30
0.0
 10
39.393721
 20
37.327402
 30
0.0
  0
SPLINE
  5
16d
100
AcDbEntity
  8
Cut
 62
7
100
AcDbSpline
 70
8
 71
3
 72
8
 73
4
 74
0
 40
0
 40
0
 40
0
 40
0
 40
1
 40
1
 40
1
 40
1
 10
39.393721
 20
37.327402
 30
0.0
 10
40.608163
 20
37.830440
 30
0.0
 10
41.400000
 20
39.015508
 30
0.0
 10
41.400000
 20
40.330010
 30
0.0
  0
SPLINE
  5
16e
100
AcDbEntity
  8
Cut
 62
7
100
AcDbSpline
 70
8
 71
3
 72
8
 73
4
 74
0
 40
0
 40
0
 40
0
 40
0
 40
1
 40
1
 40
1
 40
1
 10
41.400000
 20
40.330010
 30
0.0
 10
41.400000
 20
41.191964
 30
0.0
 10
41.057590
 20
42.018614
 30
0.0
 10
40.448097
 20
42.628107
 30
0.0
  0
SPLINE
  5
16f
100
AcDbEntity
  8
Cut
 62
7
100
AcDbSpline
 70
8
 71
3
 72
8
 73
4
 74
0
 40
0
 40
0
 40
0
 40
0
 40
1
 40
1
 40
1
 40
1
 10
40.448097
 20
42.628107
 30
0.0
 10
39.838604
 20
43.237600
 30
0.0
 10
39.011954
 20
43.580010
 30
0.0
 10
38.150000
 20
43.580010
 30
0.0
  0
LWPOLYLINE
  5
170
100
AcDbEntity
  8
Cut
 62
7
100
AcDbPolyline
 90
1
 70
1
 10
50.850000
 20
56.280010
 30
0.0
  0
SPLINE
  5
171
100
AcDbEntity
  8
Cut
 62
7
100
AcDbSpline
 70
8
 71
3
 72
8
 73
4
 74
0
 40
0
 40
0
 40
0
 40
0
 40
1
 40
1
 40
1
 40
1
 10
38.150000
 20
91.840010
 30
0.0
 10
36.835498
 20
91.840010
 30
0.0
 10
35.650430
 20
91.048173
 30
0.0
 10
35.147392
 20
89.833731
 30
0.0
  0
SPLINE
  5
172
100
AcDbEntity
  8
Cut
 62
7
100
AcDbSpline
 70
8
 71
3
 72
8
 73
4
 74
0
 40
0
 40
0
 40
0
 40
0
 40
1
 40
1
 40
1
 40
1
 10
35.147392
 20
89.833731
 30
0.0
 10
34.644353
 20
88.619289
 30
0.0
 10
34.922409
 20
87.221406
 30
0.0
 10
35.851903
 20
86.291913
 30
0.0
  0
SPLINE
  5
173
100
AcDbEntity
  8
Cut
 62
7
100
AcDbSpline
 70
8
 71
3
 72
8
 73
4
 74
0
 40
0
 40
0
 40
0
 40
0
 40
1
 40
1
 40
1
 40
1
 10
35.851903
 20
86.291913
 30
0.0
 10
36.781396
 20
85.362419
 30
0.0
 10
38.179279
 20
85.084363
 30
0.0
 10
39.393721
 20
85.587402
 30
0.0
  0
SPLINE
  5
174
100
AcDbEntity
  8
Cut
 62
7
100
AcDbSpline
 70
8
 71
3
 72
8
 73
4
 74
0
 40
0
 40
0
 40
0
 40
0
 40
1
 40
1
 40
1
 40
1
 10
39.393721
 20
85.587402
 30
0.0
 10
40.608163
 20
86.090440
 30
0.0
 10
41.400000
 20
87.275508
 30
0.0
 10
41.400000
 20
88.590010
 30
0.0
  0
SPLINE
  5
175
100
AcDbEntity
  8
Cut
 62
7
100
AcDbSpline
 70
8
 71
3
 72
8
 73
4
 74
0
 40
0
 40
0
 40
0
 40
0
 40
1
 40
1
 40
1
 40
1
 10
41.400000
 20
88.590010
 30
0.0
 10
41.400000
 20
89.451964
 30
0.0
 10
41.057590
 20
90.278614
 30
0.0
 10
40.448097
 20
90.888107
 30
0.0
  0
SPLINE
  5
176
100
AcDbEntity
  8
Cut
 62
7
100
AcDbSpline
 70
8
 71
3
 72
8
 73
4
 74
0
 40
0
 40
0
 40
0
 40
0
 40
1
 40
1
 40
1
 40
1
 10
40.448097
 20
90.888107
 30
0.0
 10
39.838604
 20
91.497600
 30
0.0
 10
39.011954
 20
91.840010
 30
0.0
 10
38.150000
 20
91.840010
 30
0.0
  0
LWPOLYLINE
  5
177
100
AcDbEntity
  8
Cut
 62
7
100
AcDbPolyline
 90
1
 70
1
 10
38.150000
 20
43.580010
 30
0.0
  0
SPLINE
  5
178
100
AcDbEntity
  8
Cut
 62
7
100
AcDbSpline
 70
8
 71
3
 72
8
 73
4
 74
0
 40
0
 40
0
 40
0
 40
0
 40
1
 40
1
 40
1
 40
1
 10
22.910000
 20
68.980010
 30
0.0
 10
21.595498
 20
68.980010
 30
0.0
 10
20.410430
 20
68.188173
 30
0.0
 10
19.907392
 20
66.973731
 30
0.0
  0
SPLINE
  5
179
100
AcDbEntity
  8
Cut
 62
7
100
AcDbSpline
 70
8
 71
3
 72
8
 73
4
 74
0
 40
0
 40
0
 40
0
 40
0
 40
1
 40
1
 40
1
 40
1
 10
19.907392
 20
66.973731
 30
0.0
 10
19.404353
 20
65.759289
 30
0.0
 10
19.682409
 20
64.361406
 30
0.0
 10
20.611903
 20
63.431913
 30
0.0
  0
SPLINE
  5
17a
100
AcDbEntity
  8
Cut
 62
7
100
AcDbSpline
 70
8
 71
3
 72
8
 73
4
 74
0
 40
0
 40
0
 40
0
 40
0
 40
1
 40
1
 40
1
 40
1
 10
20.611903
 20
63.431913
 30
0.0
 10
21.541396
 20
62.502419
 30
0.0
 10
22.939279
 20
62.224363
 30
0.0
 10
24.153721
 20
62.727402
 30
0.0
  0
SPLINE
  5
17b
100
AcDbEntity
  8
Cut
 62
7
100
AcDbSpline
 70
8
 71
3
 72
8
 73
4
 74
0
 40
0
 40
0
 40
0
 40
0
 40
1
 40
1
 40
1
 40
1
 10
24.153721
 20
62.727402
 30
0.0
 10
25.368163
 20
63.230440
 30
0.0
 10
26.160000
 20
64.415508
 30
0.0
 10
26.160000
 20
65.730010
 30
0.0
  0
SPLINE
  5
17c
100
AcDbEntity
  8
Cut
 62
7
100
AcDbSpline
 70
8
 71
3
 72
8
 73
4
 74
0
 40
0
 40
0
 40
0
 40
0
 40
1
 40
1
 40
1
 40
1
 10
26.160000
 20
65.730010
 30
0.0
 10
26.160000
 20
66.591964
 30
0.0
 10
25.817590
 20
67.418614
 30
0.0
 10
25.208097
 20
68.028107
 30
0.0
  0
SPLINE
  5
17d
100
AcDbEntity
  8
Cut
 62
7
100
AcDbSpline
 70
8
 71
3
 72
8
 73
4
 74
0
 40
0
 40
0
 40
0
 40
0
 40
1
 40
1
 40
1
 40
1
 10
25.208097
 20
68.028107
 30
0.0
 10
24.598604
 20
68.637600
 30
0.0
 10
23.771954
 20
68.980010
 30
0.0
 10
22.910000
 20
68.980010
 30
0.0
  0
LWPOLYLINE
  5
17e
100
AcDbEntity
  8
Cut
 62
7
100
AcDbPolyline
 90
1
 70
1
 10
38.150000
 20
91.840010
 30
0.0
  0
SPLINE
  5
17f
100
AcDbEntity
  8
Cut
 62
7
100
AcDbSpline
 70
8
 71
3
 72
8
 73
4
 74
0
 40
0
 40
0
 40
0
 40
0
 40
1
 40
1
 40
1
 40
1
 10
50.850000
 20
68.980010
 30
0.0
 10
49.055075
 20
68.980010
 30
0.0
 10
47.600000
 20
67.524935
 30
0.0
 10
47.600000
 20
65.730010
 30
0.0
  0
SPLINE
  5
180
100
AcDbEntity
  8
Cut
 62
7
100
AcDbSpline
 70
8
 71
3
 72
8
 73
4
 74
0
 40
0
 40
0
 40
0
 40
0
 40
1
 40
1
 40
1
 40
1
 10
47.600000
 20
65.730010
 30
0.0
 10
47.600000
 20
63.935085
 30
0.0
 10
49.055075
 20
62.480010
 30
0.0
 10
50.850000
 20
62.480010
 30
0.0
  0
SPLINE
  5
181
100
AcDbEntity
  8
Cut
 62
7
100
AcDbSpline
 70
8
 71
3
 72
8
 73
4
 74
0
 40
0
 40
0
 40
0
 40
0
 40
1
 40
1
 40
1
 40
1
 10
50.850000
 20
62.480010
 30
0.0
 10
52.644925
 20
62.480010
 30
0.0
 10
54.100000
 20
63.935085
 30
0.0
 10
54.100000
 20
65.730010
 30
0.0
  0
SPLINE
  5
182
100
AcDbEntity
  8
Cut
 62
7
100
AcDbSpline
 70
8
 71
3
 72
8
 73
4
 74
0
 40
0
 40
0
 40
0
 40
0
 40
1
 40
1
 40
1
 40
1
 10
54.100000
 20
65.730010
 30
0.0
 10
54.100000
 20
66.591964
 30
0.0
 10
53.757590
 20
67.418614
 30
0.0
 10
53.148097
 20
68.028107
 30
0.0
  0
SPLINE
  5
183
100
AcDbEntity
  8
Cut
 62
7
100
AcDbSpline
 70
8
 71
3
 72
8
 73
4
 74
0
 40
0
 40
0
 40
0
 40
0
 40
1
 40
1
 40
1
 40
1
 10
53.148097
 20
68.028107
 30
0.0
 10
52.538604
 20
68.637600
 30
0.0
 10
51.711954
 20
68.980010
 30
0.0
 10
50.850000
 20
68.980010
 30
0.0
  0
LWPOLYLINE
  5
184
100
AcDbEntity
  8
Cut
 62
7
100
AcDbPolyline
 90
1
 70
1
 10
22.910000
 20
68.980010
 30
0.0
  0
SPLINE
  5
185
100
AcDbEntity
  8
Cut
 62
7
100
AcDbSpline
 70
8
 71
3
 72
8
 73
4
 74
0
 40
0
 40
0
 40
0
 40
0
 40
1
 40
1
 40
1
 40
1
 10
22.910000
 20
91.840010
 30
0.0
 10
21.595498
 20
91.840010
 30
0.0
 10
20.410430
 20
91.048173
 30
0.0
 10
19.907392
 20
89.833731
 30
0.0
  0
SPLINE
  5
186
100
AcDbEntity
  8
Cut
 62
7
100
AcDbSpline
 70
8
 71
3
 72
8
 73
4
 74
0
 40
0
 40
0
 40
0
 40
0
 40
1
 40
1
 40
1
 40
1
 10
19.907392
 20
89.833731
 30
0.0
 10
19.404353
 20
88.619289
 30
0.0
 10
19.682409
 20
87.221406
 30
0.0
 10
20.611903
 20
86.291913
 30
0.0
  0
SPLINE
  5
187
100
AcDbEntity
  8
Cut
 62
7
100
AcDbSpline
 70
8
 71
3
 72
8
 73
4
 74
0
 40
0
 40
0
 40
0
 40
0
 40
1
 40
1
 40
1
 40
1
 10
20.611903
 20
86.291913
 30
0.0
 10
21.541396
 20
85.362419
 30
0.0
 10
22.939279
 20
85.084363
 30
0.0
 10
24.153721
 20
85.587402
 30
0.0
  0
SPLINE
  5
188
100
AcDbEntity
  8
Cut
 62
7
100
AcDbSpline
 70
8
 71
3
 72
8
 73
4
 74
0
 40
0
 40
0
 40
0
 40
0
 40
1
 40
1
 40
1
 40
1
 10
24.153721
 20
85.587402
 30
0.0
 10
25.368163
 20
86.090440
 30
0.0
 10
26.160000
 20
87.275508
 30
0.0
 10
26.160000
 20
88.590010
 30
0.0
  0
SPLINE
  5
189
100
AcDbEntity
  8
Cut
 62
7
100
AcDbSpline
 70
8
 71
3
 72
8
 73
4
 74
0
 40
0
 40
0
 40
0
 40
0
 40
1
 40
1
 40
1
 40
1
 10
26.160000
 20
88.590010
 30
0.0
 10
26.160000
 20
89.451964
 30
0.0
 10
25.817590
 20
90.278614
 30
0.0
 10
25.208097
 20
90.888107
 30
0.0
  0
SPLINE
  5
18a
100
AcDbEntity
  8
Cut
 62
7
100
AcDbSpline
 70
8
 71
3
 72
8
 73
4
 74
0
 40
0
 40
0
 40
0
 40
0
 40
1
 40
1
 40
1
 40
1
 10
25.208097
 20
90.888107
 30
0.0
 10
24.598604
 20
91.497600
 30
0.0
 10
23.771954
 20
91.840010
 30
0.0
 10
22.910000
 20
91.840010
 30
0.0
  0
LWPOLYLINE
  5
18b
100
AcDbEntity
  8
Cut
 62
7
100
AcDbPolyline
 90
1
 70
1
 10
50.850000
 20
68.980010
 30
0.0
  0
SPLINE
  5
18c
100
AcDbEntity
  8
Cut
 62
7
100
AcDbSpline
 70
8
 71
3
 72
8
 73
4
 74
0
 40
0
 40
0
 40
0
 40
0
 40
1
 40
1
 40
1
 40
1
 10
10.210000
 20
68.980010
 30
0.0
 10
8.895498
 20
68.980010
 30
0.0
 10
7.710430
 20
68.188173
 30
0.0
 10
7.207392
 20
66.973731
 30
0.0
  0
SPLINE
  5
18d
100
AcDbEntity
  8
Cut
 62
7
100
AcDbSpline
 70
8
 71
3
 72
8
 73
4
 74
0
 40
0
 40
0
 40
0
 40
0
 40
1
 40
1
 40
1
 40
1
 10
7.207392
 20
66.973731
 30
0.0
 10
6.704353
 20
65.759289
 30
0.0
 10
6.982409
 20
64.361406
 30
0.0
 10
7.911903
 20
63.431913
 30
0.0
  0
SPLINE
  5
18e
100
AcDbEntity
  8
Cut
 62
7
100
AcDbSpline
 70
8
 71
3
 72
8
 73
4
 74
0
 40
0
 40
0
 40
0
 40
0
 40
1
 40
1
 40
1
 40
1
 10
7.911903
 20
63.431913
 30
0.0
 10
8.841396
 20
62.502419
 30
0.0
 10
10.239279
 20
62.224363
 30
0.0
 10
11.453721
 20
62.727402
 30
0.0
  0
SPLINE
  5
18f
100
AcDbEntity
  8
Cut
 62
7
100
AcDbSpline
 70
8
 71
3
 72
8
 73
4
 74
0
 40
0
 40
0
 40
0
 40
0
 40
1
 40
1
 40
1
 40
1
 10
11.453721
 20
62.727402
 30
0.0
 10
12.668163
 20
63.230440
 30
0.0
 10
13.460000
 20
64.415508
 30
0.0
 10
13.460000
 20
65.730010
 30
0.0
  0
SPLINE
  5
190
100
AcDbEntity
  8
Cut
 62
7
100
AcDbSpline
 70
8
 71
3
 72
8
 73
4
 74
0
 40
0
 40
0
 40
0
 40
0
 40
1
 40
1
 40
1
 40
1
 10
13.460000
 20
65.730010
 30
0.0
 10
13.460000
 20
66.591964
 30
0.0
 10
13.117590
 20
67.418614
 30
0.0
 10
12.508097
 20
68.028107
 30
0.0
  0
SPLINE
  5
191
100
AcDbEntity
  8
Cut
 62
7
100
AcDbSpline
 70
8
 71
3
 72
8
 73
4
 74
0
 40
0
 40
0
 40
0
 40
0
 40
1
 40
1
 40
1
 40
1
 10
12.508097
 20
68.028107
 30
0.0
 10
11.898604
 20
68.637600
 30
0.0
 10
11.071954
 20
68.980010
 30
0.0
 10
10.210000
 20
68.980010
 30
0.0
  0
LWPOLYLINE
  5
192
100
AcDbEntity
  8
Cut
 62
7
100
AcDbPolyline
 90
1
 70
1
 10
22.910000
 20
91.840010
 30
0.0
  0
SPLINE
  5
193
100
AcDbEntity
  8
Cut
 62
7
100
AcDbSpline
 70
8
 71
3
 72
8
 73
4
 74
0
 40
0
 40
0
 40
0
 40
0
 40
1
 40
1
 40
1
 40
1
 10
50.850000
 20
91.840010
 30
0.0
 10
49.055075
 20
91.840010
 30
0.0
 10
47.600000
 20
90.384935
 30
0.0
 10
47.600000
 20
88.590010
 30
0.0
  0
SPLINE
  5
194
100
AcDbEntity
  8
Cut
 62
7
100
AcDbSpline
 70
8
 71
3
 72
8
 73
4
 74
0
 40
0
 40
0
 40
0
 40
0
 40
1
 40
1
 40
1
 40
1
 10
47.600000
 20
88.590010
 30
0.0
 10
47.600000
 20
86.795085
 30
0.0
 10
49.055075
 20
85.340010
 30
0.0
 10
50.850000
 20
85.340010
 30
0.0
  0
SPLINE
  5
195
100
AcDbEntity
  8
Cut
 62
7
100
AcDbSpline
 70
8
 71
3
 72
8
 73
4
 74
0
 40
0
 40
0
 40
0
 40
0
 40
1
 40
1
 40
1
 40
1
 10
50.850000
 20
85.340010
 30
0.0
 10
52.644925
 20
85.340010
 30
0.0
 10
54.100000
 20
86.795085
 30
0.0
 10
54.100000
 20
88.590010
 30
0.0
  0
SPLINE
  5
196
100
AcDbEntity
  8
Cut
 62
7
100
AcDbSpline
 70
8
 71
3
 72
8
 73
4
 74
0
 40
0
 40
0
 40
0
 40
0
 40
1
 40
1
 40
1
 40
1
 10
54.100000
 20
88.590010
 30
0.0
 10
54.100000
 20
89.451964
 30
0.0
 10
53.757590
 20
90.278614
 30
0.0
 10
53.148097
 20
90.888107
 30
0.0
  0
SPLINE
  5
197
100
AcDbEntity
  8
Cut
 62
7
100
AcDbSpline
 70
8
 71
3
 72
8
 73
4
 74
0
 40
0
 40
0
 40
0
 40
0
 40
1
 40
1
 40
1
 40
1
 10
53.148097
 20
90.888107
 30
0.0
 10
52.538604
 20
91.497600
 30
0.0
 10
51.711954
 20
91.840010
 30
0.0
 10
50.850000
 20
91.840010
 30
0.0
  0
LWPOLYLINE
  5
198
100
AcDbEntity
  8
Cut
 62
7
100
AcDbPolyline
 90
1
 70
1
 10
10.210000
 20
68.980010
 30
0.0
  0
SPLINE
  5
199
100
AcDbEntity
  8
Cut
 62
7
100
AcDbSpline
 70
8
 71
3
 72
8
 73
4
 74
0
 40
0
 40
0
 40
0
 40
0
 40
1
 40
1
 40
1
 40
1
 10
22.910000
 20
56.280010
 30
0.0
 10
21.595498
 20
56.280010
 30
0.0
 10
20.410430
 20
55.488173
 30
0.0
 10
19.907392
 20
54.273731
 30
0.0
  0
SPLINE
  5
19a
100
AcDbEntity
  8
Cut
 62
7
100
AcDbSpline
 70
8
 71
3
 72
8
 73
4
 74
0
 40
0
 40
0
 40
0
 40
0
 40
1
 40
1
 40
1
 40
1
 10
19.907392
 20
54.273731
 30
0.0
 10
19.404353
 20
53.059289
 30
0.0
 10
19.682409
 20
51.661406
 30
0.0
 10
20.611903
 20
50.731913
 30
0.0
  0
SPLINE
  5
19b
100
AcDbEntity
  8
Cut
 62
7
100
AcDbSpline
 70
8
 71
3
 72
8
 73
4
 74
0
 40
0
 40
0
 40
0
 40
0
 40
1
 40
1
 40
1
 40
1
 10
20.611903
 20
50.731913
 30
0.0
 10
21.541396
 20
49.802419
 30
0.0
 10
22.939279
 20
49.524363
 30
0.0
 10
24.153721
 20
50.027402
 30
0.0
  0
SPLINE
  5
19c
100
AcDbEntity
  8
Cut
 62
7
100
AcDbSpline
 70
8
 71
3
 72
8
 73
4
 74
0
 40
0
 40
0
 40
0
 40
0
 40
1
 40
1
 40
1
 40
1
 10
24.153721
 20
50.027402
 30
0.0
 10
25.368163
 20
50.530440
 30
0.0
 10
26.160000
 20
51.715508
 30
0.0
 10
26.160000
 20
53.030010
 30
0.0
  0
SPLINE
  5
19d
100
AcDbEntity
  8
Cut
 62
7
100
AcDbSpline
 70
8
 71
3
 72
8
 73
4
 74
0
 40
0
 40
0
 40
0
 40
0
 40
1
 40
1
 40
1
 40
1
 10
26.160000
 20
53.030010
 30
0.0
 10
26.160000
 20
53.891964
 30
0.0
 10
25.817590
 20
54.718614
 30
0.0
 10
25.208097
 20
55.328107
 30
0.0
  0
SPLINE
  5
19e
100
AcDbEntity
  8
Cut
 62
7
100
AcDbSpline
 70
8
 71
3
 72
8
 73
4
 74
0
 40
0
 40
0
 40
0
 40
0
 40
1
 40
1
 40
1
 40
1
 10
25.208097
 20
55.328107
 30
0.0
 10
24.598604
 20
55.937600
 30
0.0
 10
23.771954
 20
56.280010
 30
0.0
 10
22.910000
 20
56.280010
 30
0.0
  0
LWPOLYLINE
  5
19f
100
AcDbEntity
  8
Cut
 62
7
100
AcDbPolyline
 90
1
 70
1
 10
50.850000
 20
91.840010
 30
0.0
  0
SPLINE
  5
1a0
100
AcDbEntity
  8
Cut
 62
7
100
AcDbSpline
 70
8
 71
3
 72
8
 73
4
 74
0
 40
0
 40
0
 40
0
 40
0
 40
1
 40
1
 40
1
 40
1
 10
10.210000
 20
91.840010
 30
0.0
 10
8.895498
 20
91.840010
 30
0.0
 10
7.710430
 20
91.048173
 30
0.0
 10
7.207392
 20
89.833731
 30
0.0
  0
SPLINE
  5
1a1
100
AcDbEntity
  8
Cut
 62
7
100
AcDbSpline
 70
8
 71
3
 72
8
 73
4
 74
0
 40
0
 40
0
 40
0
 40
0
 40
1
 40
1
 40
1
 40
1
 10
7.207392
 20
89.833731
 30
0.0
 10
6.704353
 20
88.619289
 30
0.0
 10
6.982409
 20
87.221406
 30
0.0
 10
7.911903
 20
86.291913
 30
0.0
  0
SPLINE
  5
1a2
100
AcDbEntity
  8
Cut
 62
7
100
AcDbSpline
 70
8
 71
3
 72
8
 73
4
 74
0
 40
0
 40
0
 40
0
 40
0
 40
1
 40
1
 40
1
 40
1
 10
7.911903
 20
86.291913
 30
0.0
 10
8.841396
 20
85.362419
 30
0.0
 10
10.239279
 20
85.084363
 30
0.0
 10
11.453721
 20
85.587402
 30
0.0
  0
SPLINE
  5
1a3
100
AcDbEntity
  8
Cut
 62
7
100
AcDbSpline
 70
8
 71
3
 72
8
 73
4
 74
0
 40
0
 40
0
 40
0
 40
0
 40
1
 40
1
 40
1
 40
1
 10
11.453721
 20
85.587402
 30
0.0
 10
12.668163
 20
86.090440
 30
0.0
 10
13.460000
 20
87.275508
 30
0.0
 10
13.460000
 20
88.590010
 30
0.0
  0
SPLINE
  5
1a4
100
AcDbEntity
  8
Cut
 62
7
100
AcDbSpline
 70
8
 71
3
 72
8
 73
4
 74
0
 40
0
 40
0
 40
0
 40
0
 40
1
 40
1
 40
1
 40
1
 10
13.460000
 20
88.590010
 30
0.0
 10
13.460000
 20
89.451964
 30
0.0
 10
13.117590
 20
90.278614
 30
0.0
 10
12.508097
 20
90.888107
 30
0.0
  0
SPLINE
  5
1a5
100
AcDbEntity
  8
Cut
 62
7
100
AcDbSpline
 70
8
 71
3
 72
8
 73
4
 74
0
 40
0
 40
0
 40
0
 40
0
 40
1
 40
1
 40
1
 40
1
 10
12.508097
 20
90.888107
 30
0.0
 10
11.898604
 20
91.497600
 30
0.0
 10
11.071954
 20
91.840010
 30
0.0
 10
10.210000
 20
91.840010
 30
0.0
  0
LWPOLYLINE
  5
1a6
100
AcDbEntity
  8
Cut
 62
7
100
AcDbPolyline
 90
1
 70
1
 10
22.910000
 20
56.280010
 30
0.0
  0
SPLINE
  5
1a7
100
AcDbEntity
  8
Cut
 62
7
100
AcDbSpline
 70
8
 71
3
 72
8
 73
4
 74
0
 40
0
 40
0
 40
0
 40
0
 40
1
 40
1
 40
1
 40
1
 10
10.210000
 20
56.280010
 30
0.0
 10
8.895498
 20
56.280010
 30
0.0
 10
7.710430
 20
55.488173
 30
0.0
 10
7.207392
 20
54.273731
 30
0.0
  0
SPLINE
  5
1a8
100
AcDbEntity
  8
Cut
 62
7
100
AcDbSpline
 70
8
 71
3
 72
8
 73
4
 74
0
 40
0
 40
0
 40
0
 40
0
 40
1
 40
1
 40
1
 40
1
 10
7.207392
 20
54.273731
 30
0.0
 10
6.704353
 20
53.059289
 30
0.0
 10
6.982409
 20
51.661406
 30
0.0
 10
7.911903
 20
50.731913
 30
0.0
  0
SPLINE
  5
1a9
100
AcDbEntity
  8
Cut
 62
7
100
AcDbSpline
 70
8
 71
3
 72
8
 73
4
 74
0
 40
0
 40
0
 40
0
 40
0
 40
1
 40
1
 40
1
 40
1
 10
7.911903
 20
50.731913
 30
0.0
 10
8.841396
 20
49.802419
 30
0.0
 10
10.239279
 20
49.524363
 30
0.0
 10
11.453721
 20
50.027402
 30
0.0
  0
SPLINE
  5
1aa
100
AcDbEntity
  8
Cut
 62
7
100
AcDbSpline
 70
8
 71
3
 72
8
 73
4
 74
0
 40
0
 40
0
 40
0
 40
0
 40
1
 40
1
 40
1
 40
1
 10
11.453721
 20
50.027402
 30
0.0
 10
12.668163
 20
50.530440
 30
0.0
 10
13.460000
 20
51.715508
 30
0.0
 10
13.460000
 20
53.030010
 30
0.0
  0
SPLINE
  5
1ab
100
AcDbEntity
  8
Cut
 62
7
100
AcDbSpline
 70
8
 71
3
 72
8
 73
4
 74
0
 40
0
 40
0
 40
0
 40
0
 40
1
 40
1
 40
1
 40
1
 10
13.460000
 20
53.030010
 30
0.0
 10
13.460000
 20
53.891964
 30
0.0
 10
13.117590
 20
54.718614
 30
0.0
 10
12.508097
 20
55.328107
 30
0.0
  0
SPLINE
  5
1ac
100
AcDbEntity
  8
Cut
 62
7
100
AcDbSpline
 70
8
 71
3
 72
8
 73
4
 74
0
 40
0
 40
0
 40
0
 40
0
 40
1
 40
1
 40
1
 40
1
 10
12.508097
 20
55.328107
 30
0.0
 10
11.898604
 20
55.937600
 30
0.0
 10
11.071954
 20
56.280010
 30
0.0
 10
10.210000
 20
56.280010
 30
0.0
  0
LWPOLYLINE
  5
1ad
100
AcDbEntity
  8
Cut
 62
7
100
AcDbPolyline
 90
1
 70
1
 10
10.210000
 20
91.840010
 30
0.0
  0
SPLINE
  5
1ae
100
AcDbEntity
  8
Cut
 62
7
100
AcDbSpline
 70
8
 71
3
 72
8
 73
4
 74
0
 40
0
 40
0
 40
0
 40
0
 40
1
 40
1
 40
1
 40
1
 10
10.210000
 20
43.580010
 30
0.0
 10
8.895498
 20
43.580010
 30
0.0
 10
7.710430
 20
42.788173
 30
0.0
 10
7.207392
 20
41.573731
 30
0.0
  0
SPLINE
  5
1af
100
AcDbEntity
  8
Cut
 62
7
100
AcDbSpline
 70
8
 71
3
 72
8
 73
4
 74
0
 40
0
 40
0
 40
0
 40
0
 40
1
 40
1
 40
1
 40
1
 10
7.207392
 20
41.573731
 30
0.0
 10
6.704353
 20
40.359289
 30
0.0
 10
6.982409
 20
38.961406
 30
0.0
 10
7.911903
 20
38.031913
 30
0.0
  0
SPLINE
  5
1b0
100
AcDbEntity
  8
Cut
 62
7
100
AcDbSpline
 70
8
 71
3
 72
8
 73
4
 74
0
 40
0
 40
0
 40
0
 40
0
 40
1
 40
1
 40
1
 40
1
 10
7.911903
 20
38.031913
 30
0.0
 10
8.841396
 20
37.102419
 30
0.0
 10
10.239279
 20
36.824363
 30
0.0
 10
11.453721
 20
37.327402
 30
0.0
  0
SPLINE
  5
1b1
100
AcDbEntity
  8
Cut
 62
7
100
AcDbSpline
 70
8
 71
3
 72
8
 73
4
 74
0
 40
0
 40
0
 40
0
 40
0
 40
1
 40
1
 40
1
 40
1
 10
11.453721
 20
37.327402
 30
0.0
 10
12.668163
 20
37.830440
 30
0.0
 10
13.460000
 20
39.015508
 30
0.0
 10
13.460000
 20
40.330010
 30
0.0
  0
SPLINE
  5
1b2
100
AcDbEntity
  8
Cut
 62
7
100
AcDbSpline
 70
8
 71
3
 72
8
 73
4
 74
0
 40
0
 40
0
 40
0
 40
0
 40
1
 40
1
 40
1
 40
1
 10
13.460000
 20
40.330010
 30
0.0
 10
13.460000
 20
41.191964
 30
0.0
 10
13.117590
 20
42.018614
 30
0.0
 10
12.508097
 20
42.628107
 30
0.0
  0
SPLINE
  5
1b3
100
AcDbEntity
  8
Cut
 62
7
100
AcDbSpline
 70
8
 71
3
 72
8
 73
4
 74
0
 40
0
 40
0
 40
0
 40
0
 40
1
 40
1
 40
1
 40
1
 10
12.508097
 20
42.628107
 30
0.0
 10
11.898604
 20
43.237600
 30
0.0
 10
11.071954
 20
43.580010
 30
0.0
 10
10.210000
 20
43.580010
 30
0.0
  0
LWPOLYLINE
  5
1b4
100
AcDbEntity
  8
Cut
 62
7
100
AcDbPolyline
 90
1
 70
1
 10
10.210000
 20
56.280010
 30
0.0
  0
SPLINE
  5
1b5
100
AcDbEntity
  8
Cut
 62
7
100
AcDbSpline
 70
8
 71
3
 72
8
 73
4
 74
0
 40
0
 40
0
 40
0
 40
0
 40
1
 40
1
 40
1
 40
1
 10
22.910000
 20
43.580010
 30
0.0
 10
21.595498
 20
43.580010
 30
0.0
 10
20.410430
 20
42.788173
 30
0.0
 10
19.907392
 20
41.573731
 30
0.0
  0
SPLINE
  5
1b6
100
AcDbEntity
  8
Cut
 62
7
100
AcDbSpline
 70
8
 71
3
 72
8
 73
4
 74
0
 40
0
 40
0
 40
0
 40
0
 40
1
 40
1
 40
1
 40
1
 10
19.907392
 20
41.573731
 30
0.0
 10
19.404353
 20
40.359289
 30
0.0
 10
19.682409
 20
38.961406
 30
0.0
 10
20.611903
 20
38.031913
 30
0.0
  0
SPLINE
  5
1b7
100
AcDbEntity
  8
Cut
 62
7
100
AcDbSpline
 70
8
 71
3
 72
8
 73
4
 74
0
 40
0
 40
0
 40
0
 40
0
 40
1
 40
1
 40
1
 40
1
 10
20.611903
 20
38.031913
 30
0.0
 10
21.541396
 20
37.102419
 30
0.0
 10
22.939279
 20
36.824363
 30
0.0
 10
24.153721
 20
37.327402
 30
0.0
  0
SPLINE
  5
1b8
100
AcDbEntity
  8
Cut
 62
7
100
AcDbSpline
 70
8
 71
3
 72
8
 73
4
 74
0
 40
0
 40
0
 40
0
 40
0
 40
1
 40
1
 40
1
 40
1
 10
24.153721
 20
37.327402
 30
0.0
 10
25.368163
 20
37.830440
 30
0.0
 10
26.160000
 20
39.015508
 30
0.0
 10
26.160000
 20
40.330010
 30
0.0
  0
SPLINE
  5
1b9
100
AcDbEntity
  8
Cut
 62
7
100
AcDbSpline
 70
8
 71
3
 72
8
 73
4
 74
0
 40
0
 40
0
 40
0
 40
0
 40
1
 40
1
 40
1
 40
1
 10
26.160000
 20
40.330010
 30
0.0
 10
26.160000
 20
41.191964
 30
0.0
 10
25.817590
 20
42.018614
 30
0.0
 10
25.208097
 20
42.628107
 30
0.0
  0
SPLINE
  5
1ba
100
AcDbEntity
  8
Cut
 62
7
100
AcDbSpline
 70
8
 71
3
 72
8
 73
4
 74
0
 40
0
 40
0
 40
0
 40
0
 40
1
 40
1
 40
1
 40
1
 10
25.208097
 20
42.628107
 30
0.0
 10
24.598604
 20
43.237600
 30
0.0
 10
23.771954
 20
43.580010
 30
0.0
 10
22.910000
 20
43.580010
 30
0.0
  0
LWPOLYLINE
  5
1bb
100
AcDbEntity
  8
Cut
 62
7
100
AcDbPolyline
 90
1
 70
1
 10
10.210000
 20
43.580010
 30
0.0
  0
SPLINE
  5
1bc
100
AcDbEntity
  8
Cut
 62
7
100
AcDbSpline
 70
8
 71
3
 72
8
 73
4
 74
0
 40
0
 40
0
 40
0
 40
0
 40
1
 40
1
 40
1
 40
1
 10
38.150000
 20
56.280010
 30
0.0
 10
36.835498
 20
56.280010
 30
0.0
 10
35.650430
 20
55.488173
 30
0.0
 10
35.147392
 20
54.273731
 30
0.0
  0
SPLINE
  5
1bd
100
AcDbEntity
  8
Cut
 62
7
100
AcDbSpline
 70
8
 71
3
 72
8
 73
4
 74
0
 40
0
 40
0
 40
0
 40
0
 40
1
 40
1
 40
1
 40
1
 10
35.147392
 20
54.273731
 30
0.0
 10
34.644353
 20
53.059289
 30
0.0
 10
34.922409
 20
51.661406
 30
0.0
 10
35.851903
 20
50.731913
 30
0.0
  0
SPLINE
  5
1be
100
AcDbEntity
  8
Cut
 62
7
100
AcDbSpline
 70
8
 71
3
 72
8
 73
4
 74
0
 40
0
 40
0
 40
0
 40
0
 40
1
 40
1
 40
1
 40
1
 10
35.851903
 20
50.731913
 30
0.0
 10
36.781396
 20
49.802419
 30
0.0
 10
38.179279
 20
49.524363
 30
0.0
 10
39.393721
 20
50.027402
 30
0.0
  0
SPLINE
  5
1bf
100
AcDbEntity
  8
Cut
 62
7
100
AcDbSpline
 70
8
 71
3
 72
8
 73
4
 74
0
 40
0
 40
0
 40
0
 40
0
 40
1
 40
1
 40
1
 40
1
 10
39.393721
 20
50.027402
 30
0.0
 10
40.608163
 20
50.530440
 30
0.0
 10
41.400000
 20
51.715508
 30
0.0
 10
41.400000
 20
53.030010
 30
0.0
  0
SPLINE
  5
1c0
100
AcDbEntity
  8
Cut
 62
7
100
AcDbSpline
 70
8
 71
3
 72
8
 73
4
 74
0
 40
0
 40
0
 40
0
 40
0
 40
1
 40
1
 40
1
 40
1
 10
41.400000
 20
53.030010
 30
0.0
 10
41.400000
 20
53.891964
 30
0.0
 10
41.057590
 20
54.718614
 30
0.0
 10
40.448097
 20
55.328107
 30
0.0
  0
SPLINE
  5
1c1
100
AcDbEntity
  8
Cut
 62
7
100
AcDbSpline
 70
8
 71
3
 72
8
 73
4
 74
0
 40
0
 40
0
 40
0
 40
0
 40
1
 40
1
 40
1
 40
1
 10
40.448097
 20
55.328107
 30
0.0
 10
39.838604
 20
55.937600
 30
0.0
 10
39.011954
 20
56.280010
 30
0.0
 10
38.150000
 20
56.280010
 30
0.0
  0
LWPOLYLINE
  5
1c2
100
AcDbEntity
  8
Cut
 62
7
100
AcDbPolyline
 90
1
 70
1
 10
22.910000
 20
43.580010
 30
0.0
  0
SPLINE
  5
1c3
100
AcDbEntity
  8
Cut
 62
7
100
AcDbSpline
 70
8
 71
3
 72
8
 73
4
 74
0
 40
0
 40
0
 40
0
 40
0
 40
1
 40
1
 40
1
 40
1
 10
30.530000
 20
112.160010
 30
0.0
 10
29.215498
 20
112.160010
 30
0.0
 10
28.030430
 20
111.368173
 30
0.0
 10
27.527392
 20
110.153731
 30
0.0
  0
SPLINE
  5
1c4
100
AcDbEntity
  8
Cut
 62
7
100
AcDbSpline
 70
8
 71
3
 72
8
 73
4
 74
0
 40
0
 40
0
 40
0
 40
0
 40
1
 40
1
 40
1
 40
1
 10
27.527392
 20
110.153731
 30
0.0
 10
27.024353
 20
108.939289
 30
0.0
 10
27.302409
 20
107.541406
 30
0.0
 10
28.231903
 20
106.611913
 30
0.0
  0
SPLINE
  5
1c5
100
AcDbEntity
  8
Cut
 62
7
100
AcDbSpline
 70
8
 71
3
 72
8
 73
4
 74
0
 40
0
 40
0
 40
0
 40
0
 40
1
 40
1
 40
1
 40
1
 10
28.231903
 20
106.611913
 30
0.0
 10
29.161396
 20
105.682419
 30
0.0
 10
30.559279
 20
105.404363
 30
0.0
 10
31.773721
 20
105.907402
 30
0.0
  0
SPLINE
  5
1c6
100
AcDbEntity
  8
Cut
 62
7
100
AcDbSpline
 70
8
 71
3
 72
8
 73
4
 74
0
 40
0
 40
0
 40
0
 40
0
 40
1
 40
1
 40
1
 40
1
 10
31.773721
 20
105.907402
 30
0.0
 10
32.988163
 20
106.410440
 30
0.0
 10
33.780000
 20
107.595508
 30
0.0
 10
33.780000
 20
108.910010
 30
0.0
  0
SPLINE
  5
1c7
100
AcDbEntity
  8
Cut
 62
7
100
AcDbSpline
 70
8
 71
3
 72
8
 73
4
 74
0
 40
0
 40
0
 40
0
 40
0
 40
1
 40
1
 40
1
 40
1
 10
33.780000
 20
108.910010
 30
0.0
 10
33.780000
 20
109.771964
 30
0.0
 10
33.437590
 20
110.598614
 30
0.0
 10
32.828097
 20
111.208107
 30
0.0
  0
SPLINE
  5
1c8
100
AcDbEntity
  8
Cut
 62
7
100
AcDbSpline
 70
8
 71
3
 72
8
 73
4
 74
0
 40
0
 40
0
 40
0
 40
0
 40
1
 40
1
 40
1
 40
1
 10
32.828097
 20
111.208107
 30
0.0
 10
32.218604
 20
111.817600
 30
0.0
 10
31.391954
 20
112.160010
 30
0.0
 10
30.530000
 20
112.160010
 30
0.0
  0
LWPOLYLINE
  5
1c9
100
AcDbEntity
  8
Cut
 62
7
100
AcDbPolyline
 90
1
 70
1
 10
38.150000
 20
56.280010
 30
0.0
  0
SPLINE
  5
1ca
100
AcDbEntity
  8
Cut
 62
7
100
AcDbSpline
 70
8
 71
3
 72
8
 73
4
 74
0
 40
0
 40
0
 40
0
 40
0
 40
1
 40
1
 40
1
 40
1
 10
50.850000
 20
43.580010
 30
0.0
 10
49.055075
 20
43.580010
 30
0.0
 10
47.600000
 20
42.124935
 30
0.0
 10
47.600000
 20
40.330010
 30
0.0
  0
SPLINE
  5
1cb
100
AcDbEntity
  8
Cut
 62
7
100
AcDbSpline
 70
8
 71
3
 72
8
 73
4
 74
0
 40
0
 40
0
 40
0
 40
0
 40
1
 40
1
 40
1
 40
1
 10
47.600000
 20
40.330010
 30
0.0
 10
47.600000
 20
38.535085
 30
0.0
 10
49.055075
 20
37.080010
 30
0.0
 10
50.850000
 20
37.080010
 30
0.0
  0
SPLINE
  5
1cc
100
AcDbEntity
  8
Cut
 62
7
100
AcDbSpline
 70
8
 71
3
 72
8
 73
4
 74
0
 40
0
 40
0
 40
0
 40
0
 40
1
 40
1
 40
1
 40
1
 10
50.850000
 20
37.080010
 30
0.0
 10
52.644925
 20
37.080010
 30
0.0
 10
54.100000
 20
38.535085
 30
0.0
 10
54.100000
 20
40.330010
 30
0.0
  0
SPLINE
  5
1cd
100
AcDbEntity
  8
Cut
 62
7
100
AcDbSpline
 70
8
 71
3
 72
8
 73
4
 74
0
 40
0
 40
0
 40
0
 40
0
 40
1
 40
1
 40
1
 40
1
 10
54.100000
 20
40.330010
 30
0.0
 10
54.100000
 20
41.191964
 30
0.0
 10
53.757590
 20
42.018614
 30
0.0
 10
53.148097
 20
42.628107
 30
0.0
  0
SPLINE
  5
1ce
100
AcDbEntity
  8
Cut
 62
7
100
AcDbSpline
 70
8
 71
3
 72
8
 73
4
 74
0
 40
0
 40
0
 40
0
 40
0
 40
1
 40
1
 40
1
 40
1
 10
53.148097
 20
42.628107
 30
0.0
 10
52.538604
 20
43.237600
 30
0.0
 10
51.711954
 20
43.580010
 30
0.0
 10
50.850000
 20
43.580010
 30
0.0
  0
LWPOLYLINE
  5
1cf
100
AcDbEntity
  8
Cut
 62
7
100
AcDbPolyline
 90
1
 70
1
 10
30.530000
 20
112.160010
 30
0.0
  0
LWPOLYLINE
  5
1d0
100
AcDbEntity
  8
Cut
 62
7
100
AcDbPolyline
 90
1
 70
1
 10
50.850000
 20
43.580010
 30
0.0
  0
LWPOLYLINE
  5
1d1
100
AcDbEntity
  8
Cut
 62
7
100
AcDbPolyline
 90
4
 70
1
 10
0.050000
 20
128.050010
 30
0.0
 10
61.010000
 20
128.050010
 30
0.0
 10
61.010000
 20
0.050010
 30
0.0
 10
0.050000
 20
0.050010
 30
0.0
  0
LWPOLYLINE
  5
1d2
100
AcDbEntity
  8
Cut
 62
7
100
AcDbPolyline
 90
4
 70
1
 10
54.020000
 20
115.104011
 30
0.0
 10
45.638000
 20
115.104011
 30
0.0
 10
45.638000
 20
99.356011
 30
0.0
 10
54.020000
 20
99.356011
 30
0.0
  0
LWPOLYLINE
  5
1d3
100
AcDbEntity
  8
Cut
 62
7
100
AcDbPolyline
 90
4
 70
1
 10
4.962626
 20
114.048281
 30
0.0
 10
18.034198
 20
114.048281
 30
0.0
 10
18.034198
 20
101.245894
 30
0.0
 10
4.962626
 20
101.245894
 30
0.0
  0
ENDSEC
  0
SECTION
  2
OBJECTS
  0
DICTIONARY
  5
C
330
0
100
AcDbDictionary
  3
ACAD_GROUP
350
D
  3
ACAD_MLINESTYLE
350
17
  0
DICTIONARY
  5
D
330
C
100
AcDbDictionary
  0
DICTIONARY
  5
1A
330
C
100
AcDbDictionary
  0
DICTIONARY
  5
17
330
C
100
AcDbDictionary
  3
STANDARD
350
18
  0
DICTIONARY
  5
19
330
C
100
AcDbDictionary
  0
ENDSEC
  0
EOF
